<?xml version="1.0" standalone="no"?>
<!DOCTYPE svg PUBLIC "-//W3C//DTD SVG 1.1//EN" "http://www.w3.org/Graphics/SVG/1.1/DTD/svg11.dtd" >
<svg xmlns="http://www.w3.org/2000/svg">
<metadata>
This is a custom SVG webfont generated by Font Squirrel.
Copyright   : Copyright c 2009 by Frantisek Storm wwwstormtypecom All rights reserved
Designer    : Frantisek Storm
Foundry     : Frantisek Storm wwwstormtypecom
Foundry URL : wwwstormtypecom
</metadata>
<defs>
<font id="JohnSansHeavyProRegular" horiz-adv-x="1212" >
<font-face units-per-em="2048" ascent="1638" descent="-410" />
<missing-glyph horiz-adv-x="516" />
<glyph unicode=" "  horiz-adv-x="516" />
<glyph unicode="&#x09;" horiz-adv-x="516" />
<glyph unicode="&#xa0;" horiz-adv-x="516" />
<glyph unicode="!" horiz-adv-x="677" d="M158 1425q0 20 18 21h330q18 0 18 -21l-82 -985q0 -6 -6 -12t-12 -6h-170q-18 0 -18 18zM184 145q0 68 46 114t112 46q68 0 115 -46t47 -114q0 -66 -47 -112.5t-115 -46.5q-66 0 -112 46.5t-46 112.5z" />
<glyph unicode="&#x22;" horiz-adv-x="839" d="M76 1425q-2 8 4 14.5t16 6.5h242q10 0 15 -6t3 -15l-51 -481q0 -6 -8 -12t-16 -6h-127q-27 0 -27 18zM481 1425q0 20 21 21h241q10 0 15.5 -6t3.5 -15l-51 -481q0 -6 -8.5 -12t-16.5 -6h-129q-25 0 -25 18z" />
<glyph unicode="#" horiz-adv-x="1359" d="M86 358v150q0 18 18 18h218v219h-218q-6 0 -12 6.5t-6 12.5v149q0 18 18 19h218v317q0 20 18 21h207q18 0 18 -21v-317h242v317q0 20 18 21h205q18 0 19 -21v-317h206q20 0 21 -19v-149q0 -18 -21 -19h-206v-219h206q20 0 21 -18v-150q0 -18 -21 -18h-206v-322 q0 -6 -6.5 -12t-12.5 -6h-205q-18 0 -18 18v322h-242v-322q0 -6 -6 -12t-12 -6h-207q-18 0 -18 18v322h-218q-6 0 -12 6t-6 12zM565 526h242v219h-242v-219z" />
<glyph unicode="$" horiz-adv-x="1130" d="M104 1008q0 139 96.5 244.5t272.5 129.5v211q0 20 19 21h143q6 0 13 -6t7 -15v-207q233 -23 322 -118q37 -43 37 -92q0 -63 -34 -100.5t-99 -37.5q-47 0 -82 29q-55 63 -144 84v-305q219 -82 300 -174t81 -230q0 -158 -106.5 -251t-263.5 -109v-252q0 -6 -7.5 -15.5 t-13.5 -9.5h-147q-6 0 -12.5 9.5t-6.5 15.5v246q-223 18 -344 98q-25 20 -24 66v147q0 41 22 41q20 0 29 -8q131 -106 317 -119v311q-205 72 -290 162.5t-85 233.5zM383 1034q0 -96 121 -131v252q-57 -6 -89 -41t-32 -80zM635 303q57 6 93 39t36 88q0 96 -129 135v-262z" />
<glyph unicode="%" horiz-adv-x="1855" d="M76 1085q0 158 105.5 274t283.5 116t276.5 -115t98.5 -275q0 -156 -103.5 -271.5t-282 -115.5t-278.5 115.5t-100 271.5zM181 19q0 11 12 26l1181 1380q14 20 33 21h221q16 0 20.5 -13.5t-6.5 -23.5l-1169 -1391q-12 -18 -29 -18h-237q-26 0 -26 19zM338 1077 q0 -127 29.5 -174t93.5 -47q68 0 95.5 45t27.5 176q0 125 -29 170t-94 45q-68 0 -95.5 -46t-27.5 -169zM1012 372.5q0 155.5 104.5 272.5t282.5 117q180 0 277.5 -115t97.5 -274q0 -156 -103.5 -272.5t-280 -116.5t-277.5 116.5t-101 272zM1274 365q0 -127 29.5 -174.5 t93.5 -47.5q68 0 94.5 44t26.5 178q0 123 -29 169t-92 46q-68 0 -95.5 -46t-27.5 -169z" />
<glyph unicode="&#x26;" horiz-adv-x="1716" d="M59 340q0 158 100.5 262.5t303.5 171.5q-133 168 -133 338q0 162 120.5 271.5t313.5 109.5q174 0 277.5 -89t103.5 -241q0 -127 -90 -232.5t-248 -156.5q106 -135 207 -221q68 145 110.5 223t98 141.5t114 87t140.5 23.5q98 0 151 -46t53 -130q0 -152 -118 -152 q-43 0 -76 33t-66 33q-27 0 -50 -14.5t-50 -48t-48 -68.5l-60 -94l-70 -107q176 -188 352 -188q49 0 84 14t35 -22v-197q0 -59 -160 -59q-139 0 -242.5 52t-218.5 163q-80 -125 -191.5 -175.5t-281.5 -50.5q-213 0 -337 99.5t-124 269.5zM416 430q0 -92 55 -159.5t147 -67.5 q143 0 216 119q-154 125 -289 325q-129 -80 -129 -217zM627 1137q0 -117 96 -248q84 47 117.5 102.5t33.5 136.5q0 154 -118 154q-129 0 -129 -145z" />
<glyph unicode="'" horiz-adv-x="434" d="M76 1425q-2 8 4 14.5t16 6.5h242q10 0 15 -6t3 -15l-51 -481q0 -6 -8 -12t-16 -6h-127q-27 0 -27 18z" />
<glyph unicode="(" horiz-adv-x="868" d="M145 528q0 197 50.5 364t128 277.5t173 190.5t186.5 114.5t167 34.5q18 0 18 -20v-164q0 -6 -6 -12t-12 -6q-168 0 -262 -206t-94 -572.5t94 -572.5t262 -206q6 0 12 -6t6 -12v-164q0 -20 -18 -21q-76 0 -167 36t-186.5 115t-173 189.5t-128 278t-50.5 362.5z" />
<glyph unicode=")" horiz-adv-x="870" d="M0 -268q0 6 6 12t12 6q166 0 259.5 206t93.5 572.5t-93.5 572.5t-259.5 206q-6 0 -12 6t-6 12v164q0 20 18 20q76 0 166 -34.5t186.5 -114.5t174.5 -189.5t128 -277.5t50 -365q0 -195 -50 -362.5t-128 -278t-174.5 -189.5t-186.5 -115t-166 -36q-18 0 -18 21v164z" />
<glyph unicode="*" horiz-adv-x="1003" d="M29 1047l77 227q12 29 41 12l261 -137l-56 289q-4 14 3 25.5t22 11.5h241q35 0 29 -31l-43 -295l258 143q25 14 37 -16l74 -232q2 -6 2 -11q0 -18 -23 -23l-293 -43l209 -197q14 -10 15.5 -24.5t-11.5 -20.5l-194 -139q-12 -8 -22 -8q-15 0 -25 18l-131 260l-121 -264 q-10 -21 -25 -22q-11 0 -24 12l-185 135q-18 15 -18 30q0 13 14 25l209 199l-297 37q-14 2 -21 13q-5 7 -5 16z" />
<glyph unicode="+" horiz-adv-x="1058" d="M74 440v222q0 20 18 20h166q84 0 139 -6q-10 61 -10 172v127q0 18 21 18h241q6 0 12.5 -6t6.5 -12v-125q0 -125 -6 -174q55 6 149 6h152q18 0 18 -20v-222q0 -6 -6 -12t-12 -6h-154q-88 0 -147 6q6 -31 6 -145v-154q0 -18 -19 -18h-241q-20 0 -21 18v156q0 86 10 143 q-74 -6 -145 -6h-160q-18 0 -18 18z" />
<glyph unicode="," horiz-adv-x="604" d="M57 -225l107 526q4 20 24 21h314q26 0 25 -17q0 -6 -3 -14l-254 -516q-14 -31 -28 -31h-164q-23 0 -23 17q-1 6 2 14z" />
<glyph unicode="-" horiz-adv-x="686" d="M90 438v236q0 20 19 20h462q18 0 19 -20v-236q0 -6 -6 -12t-13 -6h-462q-19 0 -19 18z" />
<glyph unicode="." horiz-adv-x="587" d="M106 160q0 78 54.5 133t132.5 55q80 0 134 -55t54 -133q0 -80 -54 -134.5t-134 -54.5q-78 0 -132.5 54.5t-54.5 134.5z" />
<glyph unicode="/" horiz-adv-x="1071" d="M-100 -401l952 1826q10 20 29 21h305q6 0 9 -7q1 -3 1 -6q0 -4 -2 -8l-952 -1826q-12 -18 -25 -19h-305q-8 0 -12 7q-2 4 -2 7t2 5z" />
<glyph unicode="0" d="M51 729q0 336 154.5 550t408.5 214q262 0 403.5 -213t141.5 -551q0 -336 -144.5 -546t-414.5 -210q-260 0 -404.5 209t-144.5 547zM416 721q0 -285 44 -392.5t148 -107.5q102 0 143.5 104.5t41.5 395.5q0 287 -40 393.5t-146.5 106.5t-148.5 -109.5t-42 -390.5z" />
<glyph unicode="1" d="M156 1006v221q0 20 20 28l610 218q6 2 13 1q7 0 14 -3q12 -5 12 -15v-1026q0 -102 -6 -197q66 6 133 7h107q23 0 22 -25l19 -197q2 -8 -4 -13t-19 -5h-833q-12 0 -18.5 5t-4.5 13l19 197q2 25 24 25h107q53 0 135 -9q-6 96 -6 195v504q0 106 6 194q-74 -41 -172 -73 l-152 -56q-26 -9 -26 11z" />
<glyph unicode="2" d="M92 72q0 45 17 61q399 332 541.5 507t142.5 347q0 219 -191 219q-94 0 -141 -55t-47 -143q0 -55 -45 -89t-115 -34q-72 0 -115 36.5t-43 114.5q0 80 31 157t92.5 146.5t172 111.5t251.5 42q211 0 350.5 -124t139.5 -355q0 -125 -56.5 -247t-151 -222.5t-192.5 -177 t-209 -142.5q252 43 602 43q22 0 22 -19q0 -4 -1 -9l-27 -215q-2 -25 -28 -25h-965q-14 0 -24.5 20.5t-10.5 51.5z" />
<glyph unicode="3" d="M117 115v209q0 25 16 24q10 0 27 -12q152 -113 338 -113q256 0 256 201q0 121 -81 158t-290 37q-23 0 -23 20v166q0 23 23 22q195 0 276.5 50.5t81.5 183.5q0 170 -170 170q-70 0 -108.5 -24.5t-75.5 -76.5q-45 -59 -131 -59q-57 0 -95 34t-38 103q0 98 110.5 191.5 t354.5 93.5q246 0 375 -100.5t129 -264.5q0 -162 -109 -262t-301 -118q430 -18 430 -363q0 -193 -155.5 -302.5t-411.5 -109.5q-254 0 -410 103q-18 12 -18 39z" />
<glyph unicode="4" d="M45 346v146q0 33 12 53q250 438 607 901h264q20 0 20 -21v-698q0 -125 -4 -176q123 8 225 8q27 0 23 -22l-25 -199q-4 -18 -22 -19q-121 0 -201 7q4 -41 4 -162v-146q0 -18 -20 -18h-256q-20 0 -21 18v150q0 117 4 156q-61 -4 -178 -5h-409q-23 0 -23 27zM309 553 q18 0 84 3t111 3q96 0 151 -4q-4 49 -4 172v133q0 150 8 238q-104 -197 -350 -545z" />
<glyph unicode="5" d="M88 203q0 70 37 107.5t92 37.5q51 0 100 -49q80 -84 203 -84q244 0 244 246q0 119 -62.5 178t-205.5 59q-102 0 -193 -18l-90 -21q-27 0 -27 17v741q0 29 31 29h764q23 0 25 -19l24 -217q0 -10 -9 -18t-22 -8q-190 0 -520 14q6 -72 6 -149q0 -74 -6 -138q61 12 135 13 q250 0 372 -120t122 -335q0 -219 -156.5 -357.5t-443.5 -138.5q-217 0 -318.5 66t-101.5 164z" />
<glyph unicode="6" d="M82 637q0 397 193.5 626.5t521.5 229.5q170 0 241.5 -45t71.5 -137q0 -55 -37 -96t-90 -41q-39 0 -102.5 36.5t-153.5 36.5q-281 0 -344 -479q86 215 340 215q199 0 308.5 -126t109.5 -343q0 -242 -145.5 -391.5t-381.5 -149.5q-248 0 -390 178.5t-142 485.5zM422 518 q0 -154 55 -238.5t150 -84.5q92 0 131 64.5t39 205.5q0 303 -185 303q-98 0 -144 -60.5t-46 -189.5z" />
<glyph unicode="7" d="M74 1174l32 253q4 18 21 19h1036q29 0 29 -60q0 -16 -12 -34q-262 -420 -368.5 -694.5t-106.5 -540.5q0 -66 -49.5 -104t-131.5 -38q-197 0 -196 162q0 395 465 1045q-127 -18 -332 -19q-117 0 -242 -4l-125 -2q-20 1 -20 17z" />
<glyph unicode="8" d="M57 340q0 252 342 381q-291 135 -290 369q0 170 144 286.5t382 116.5q231 0 352 -102.5t121 -241.5q0 -113 -78 -199t-225 -139q203 -94 276.5 -193.5t73.5 -230.5q0 -186 -151.5 -300t-423.5 -114q-244 0 -383.5 96.5t-139.5 270.5zM406 373q0 -188 202 -189 q96 0 148.5 48.5t52.5 129.5q0 76 -55.5 132.5t-212.5 142.5q-78 -61 -106.5 -120.5t-28.5 -143.5zM440 1120q0 -66 45 -114t166 -109q68 45 100.5 94t32.5 123q0 78 -43 121t-127 43q-88 0 -131 -43t-43 -115z" />
<glyph unicode="9" d="M88 956q0 242 145.5 389.5t378.5 147.5q248 0 389.5 -178t141.5 -490q0 -391 -191.5 -621.5t-500.5 -230.5q-186 0 -301 82q-18 12 -19 41v211q0 33 25 33q10 0 22 -10q123 -98 279 -99q162 0 262 115t123 342q-41 -94 -132.5 -147.5t-213.5 -53.5q-174 0 -291 123 t-117 346zM432 1010q0 -311 176 -312q100 0 144.5 62.5t44.5 195.5q0 152 -49.5 237t-137.5 85q-98 0 -138 -69.5t-40 -198.5z" />
<glyph unicode=":" horiz-adv-x="587" d="M106 160q0 78 54.5 133t132.5 55q80 0 134 -55t54 -133q0 -80 -54 -134.5t-134 -54.5q-78 0 -132.5 54.5t-54.5 134.5zM106 856q0 80 54.5 134t132.5 54q80 0 134 -54t54 -134q0 -78 -54 -133t-134 -55q-78 0 -132.5 55t-54.5 133z" />
<glyph unicode=";" horiz-adv-x="602" d="M53 -225l109 526q4 20 22 21h316q14 0 20 -8q3 -4 3 -9t-3 -12l-252 -518q-16 -29 -28 -29h-166q-23 0 -23 16q-1 6 2 13zM137 856q0 80 55.5 134t133 54t132 -54t54.5 -134q0 -78 -54.5 -133t-132 -55t-133 55t-55.5 133z" />
<glyph unicode="&#x3c;" horiz-adv-x="980" d="M86 508q0 59 20 70l756 409q12 7 20 7q13 0 13 -21v-121q0 -27 -23 -45l-364 -283l369 -313q18 -16 18 -39v-135q0 -10 -9 -13l-8 -2q-6 0 -12 3l-760 413q-20 9 -20 70z" />
<glyph unicode="=" horiz-adv-x="1060" d="M88 197v198q0 20 18 21h850q18 0 19 -21v-198q0 -6 -6 -12.5t-13 -6.5h-850q-18 1 -18 19zM88 684v201q0 20 18 20h850q18 0 19 -20v-201q0 -6 -6 -12t-13 -6h-850q-18 0 -18 18z" />
<glyph unicode="&#x3e;" horiz-adv-x="980" d="M86 43v121q0 27 23 45l366 283l-371 313q-18 16 -18 39v135q0 10 10 13q4 1 9 2q5 0 10 -3l759 -413q20 -8 21 -70q0 -59 -21 -70l-755 -409q-12 -7 -20 -7q-13 0 -13 21z" />
<glyph unicode="?" horiz-adv-x="1040" d="M39 1194q0 94 102.5 185t307.5 91q266 0 408 -139t142 -352q0 -178 -92 -284.5t-254 -106.5q-98 0 -133 22q6 -92 6 -172q0 -6 -6 -12t-12 -6h-203q-18 0 -18 18v381q0 18 16 19l25 -7q70 -27 157 -26q186 0 187 180q0 92 -55.5 150.5t-153.5 58.5q-104 0 -176 -80 q-55 -61 -116.5 -61t-96.5 37.5t-35 103.5zM256 145q0 68 46 114t112 46q68 0 114.5 -46t46.5 -114q0 -66 -47 -112.5t-114 -46.5q-66 0 -112 46.5t-46 112.5z" />
<glyph unicode="@" horiz-adv-x="2041" d="M92 399q0 201 81 378t214 297t307 189.5t359 69.5q223 0 327.5 -104.5t104.5 -272.5q0 -80 -11.5 -274.5t-11.5 -249.5q0 -102 12.5 -159.5t24.5 -78t12 -32.5q0 -27 -26 -27h-133q-104 0 -111 236q-31 -113 -121 -188.5t-231 -75.5q-129 0 -208 71.5t-79 186.5 q0 170 148.5 284.5t418.5 136.5v117q0 92 -31.5 131t-109.5 39q-150 0 -271.5 -58.5t-197.5 -154.5t-117 -212t-41 -234q0 -242 150.5 -391.5t443.5 -149.5q360 0 551 192.5t191 507.5q0 201 -101 383q-6 12 -6 23q0 18 19 18h133q23 0 35 -22q143 -248 143 -502 q0 -369 -270.5 -610.5t-751.5 -241.5q-397 0 -621.5 220t-224.5 558zM913 434q0 -90 93 -90q63 0 113 57.5t50 137.5v98q-123 -12 -189.5 -68.5t-66.5 -134.5z" />
<glyph unicode="A" horiz-adv-x="1435" d="M4 33l483 1394q4 18 21 19h405q16 0 25 -19l494 -1394q3 -7 3 -13q0 -5 -2 -10q-5 -10 -20 -10h-340q-14 0 -22 20q-61 162 -90 291q-125 -6 -256 -6q-119 0 -261 6q-25 -127 -86 -291q-8 -20 -20 -20h-315q-22 0 -22 17q-1 7 3 16zM518 537q98 6 193 6q123 0 174 -4 q-45 117 -82 245q-61 205 -98 428q-35 -195 -103 -424q-47 -159 -84 -251z" />
<glyph unicode="B" horiz-adv-x="1452" d="M174 18v1407q0 20 19 21h600q258 0 372.5 -98.5t114.5 -247.5q0 -123 -93 -210t-224 -114q170 -16 280.5 -126.5t110.5 -266.5q0 -180 -130 -281.5t-364 -101.5h-667q-19 0 -19 18zM526 258q100 6 252 6q111 0 160 43t49 135q0 182 -246 183q-135 0 -215 6 q10 -139 11 -193q-1 -84 -11 -180zM526 852q90 8 160 8q123 0 175 39t52 121q0 88 -47 126t-161 38q-106 0 -179 6q10 -96 11 -170q-1 -49 -11 -168z" />
<glyph unicode="C" horiz-adv-x="1394" d="M106 717q0 334 216.5 555t574.5 221q233 0 387 -96q37 -20 37 -72v-244q0 -39 -37 -39q-8 0 -29 13q-168 123 -362 123q-201 0 -302.5 -115t-101.5 -328q0 -225 109 -347t301 -122q217 0 354 107q18 14 29 14q16 0 26.5 -12.5t10.5 -30.5v-197q0 -47 -35 -71 q-152 -102 -434 -103q-174 0 -317.5 61.5t-235.5 165t-141.5 237t-49.5 280.5z" />
<glyph unicode="D" horiz-adv-x="1648" d="M174 18v1407q0 20 19 21h583q360 0 563 -192.5t203 -540.5q0 -346 -200.5 -529.5t-548.5 -183.5h-600q-19 0 -19 18zM526 276q115 8 224 9q201 0 306 111.5t105 324.5q0 205 -106.5 322.5t-329.5 117.5q-106 0 -199 6q10 -123 11 -227v-354q-1 -111 -11 -310z" />
<glyph unicode="E" horiz-adv-x="1273" d="M174 18v1407q0 20 19 21h946q16 0 18 -19l31 -243q4 -16 -14 -17q-63 0 -206 2t-192 2q-131 0 -250 9q10 -92 10.5 -164t-10.5 -158q96 12 250 12q39 0 109.5 2t105.5 2q14 0 15 -18v-235q0 -16 -15 -17q-35 0 -104.5 2t-112.5 2q-137 0 -248 13q10 -98 11 -170 q0 -88 -11 -185q141 8 293 8q66 0 195 2.5t190 2.5q16 0 15 -19l-35 -244q-4 -16 -15 -16h-976q-19 0 -19 18z" />
<glyph unicode="F" horiz-adv-x="1183" d="M174 18v1407q0 20 19 21h950q12 0 14 -19l31 -243q4 -16 -14 -17q-63 0 -205 2t-191 2q-170 0 -252 9q10 -113 11 -191q0 -51 -11 -174q88 12 228 12q61 0 147 2t96 2q14 0 15 -18v-240q0 -16 -15 -16q-16 0 -93 3t-138 3q-123 0 -240 10q10 -143 11 -251v-304 q0 -6 -6.5 -12t-12.5 -6h-325q-19 0 -19 18z" />
<glyph unicode="G" horiz-adv-x="1562" d="M106 717q0 150 54.5 287t154 247.5t256 176t344.5 65.5q279 0 463 -102q35 -18 35 -72v-246q0 -41 -37 -41q-10 0 -28 12q-217 156 -447 156q-201 0 -306.5 -124t-105.5 -341q0 -223 109 -352t297 -129q96 0 184 35v366q0 20 19 21h297q18 0 18 -21v-516 q-242 -166 -561 -166q-334 0 -540 218.5t-206 525.5z" />
<glyph unicode="H" horiz-adv-x="1675" d="M174 18v1407q0 20 19 21h325q18 0 19 -21v-270q0 -135 -7 -252q96 6 207 6h187q109 0 204 -6q-4 78 -4 252v270q0 20 19 21h325q18 0 19 -21v-1407q0 -6 -6 -12t-13 -6h-325q-18 0 -19 18v316q0 195 4 280q-82 -4 -200 -4h-195q-121 0 -203 4q6 -129 7 -280v-316 q0 -6 -6.5 -12t-12.5 -6h-325q-19 0 -19 18z" />
<glyph unicode="I" horiz-adv-x="710" d="M174 18v1407q0 20 19 21h325q18 0 19 -21v-1407q0 -6 -6.5 -12t-12.5 -6h-325q-19 0 -19 18z" />
<glyph unicode="J" horiz-adv-x="792" d="M-96 -143q0 33 30 32q12 0 31 -8q41 -23 113 -22q68 0 119 35.5t51 109.5v1421q0 20 18 21h324q18 0 18 -21v-1405q1 -18 1 -35q0 -109 -34 -191q-39 -95 -109.5 -144t-147 -70.5t-166.5 -21.5q-127 0 -226 43q-23 10 -22 55v201z" />
<glyph unicode="K" horiz-adv-x="1550" d="M174 18v1407q0 20 19 21h325q18 0 19 -21v-342q0 -150 -7 -225h48q53 0 229 256q158 217 240 316q16 16 28 16h369q18 0 18 -25q0 -18 -10 -24q-76 -47 -334 -369q-172 -205 -227 -240q53 -25 272 -301q106 -135 222 -262t155 -155q14 -8 14 -33q0 -37 -20 -37h-395 q-16 0 -33 16q-131 150 -285 371q-88 129 -152.5 195.5t-90.5 66.5h-50q8 -74 9 -254v-377q0 -6 -6.5 -12t-12.5 -6h-325q-19 0 -19 18z" />
<glyph unicode="L" horiz-adv-x="1224" d="M174 18v1407q0 20 19 21h325q18 0 19 -21v-778q0 -203 -13 -377q152 10 371 11q63 0 158.5 2t156.5 2q18 0 15 -19l-31 -250q-4 -16 -18 -16h-983q-19 0 -19 18z" />
<glyph unicode="M" horiz-adv-x="2011" d="M174 18v1407q0 20 14 21h521q14 0 22 -21l213 -720q51 -205 80 -400q27 188 80 397l211 723q8 20 22 21h486q14 0 14 -21v-1407q0 -18 -14 -18h-297q-18 0 -19 18v598q0 313 21 596l-326 -1194q-14 -18 -24 -18h-334q-18 0 -27 18l-328 1194q16 -229 17 -516v-678 q0 -6 -6 -12t-13 -6h-299q-14 0 -14 18z" />
<glyph unicode="N" horiz-adv-x="1687" d="M174 18v1407q0 20 19 21h466q25 0 31 -21l365 -723q92 -209 149 -444q-23 270 -22 530v637q0 20 18 21h295q18 0 18 -21v-1407q0 -6 -6 -12t-12 -6h-442q-18 0 -25 16l-399 803q-82 193 -137 391q16 -283 16 -471v-721q0 -18 -16 -18h-299q-19 0 -19 18z" />
<glyph unicode="O" horiz-adv-x="1724" d="M106 743q0 334 219.5 542t536.5 208q319 0 537.5 -207t218.5 -543q0 -342 -214 -556t-542 -214q-324 0 -540 215t-216 555zM508 745q0 -229 90 -354t264 -125q354 0 355 479q0 453 -353 453q-178 0 -267 -111t-89 -342z" />
<glyph unicode="P" horiz-adv-x="1372" d="M174 18v1401q0 27 19 27h555q258 0 399 -133t141 -340q0 -233 -149.5 -362.5t-413.5 -129.5q-133 0 -199 8q10 -143 11 -253v-218q0 -6 -6.5 -12t-12.5 -6h-325q-19 0 -19 18zM526 731q74 6 148 6q121 0 181 52.5t60 171.5q0 225 -217 225q-100 0 -172 8q10 -143 11 -227 q-1 -156 -11 -236z" />
<glyph unicode="Q" horiz-adv-x="1736" d="M106 754q0 328 220.5 533.5t541.5 205.5q328 0 539 -206t211 -531q0 -256 -147.5 -433.5t-387.5 -218.5q88 -20 271.5 -101t310.5 -81q70 0 115 23q23 12 39 12q33 0 32 -41v-190q0 -49 -50 -77t-138 -28q-109 0 -221.5 50t-195.5 112.5t-206 122t-243 71.5 q-311 33 -501 243t-190 534zM508 745q0 -229 90 -354t264 -125q354 0 355 479q0 453 -353 453q-178 0 -267 -111t-89 -342z" />
<glyph unicode="R" horiz-adv-x="1478" d="M174 18v1401q0 27 19 27h573q266 0 390 -122t124 -316q0 -160 -108.5 -268.5t-276.5 -133.5q125 -39 350 -293l75 -82l61 -66l40 -43q23 -24 35 -33t23 -13q16 -4 16 -35q0 -16 -9 -28.5t-24 -12.5h-350q-31 0 -65.5 29.5t-96.5 122.5q-150 205 -224.5 288.5t-127.5 83.5 q-47 0 -74 4q12 -156 13 -292v-218q0 -6 -6.5 -12t-12.5 -6h-325q-19 0 -19 18zM526 764q92 6 123 6q264 0 264 219q0 193 -217 193q-98 0 -170 8q10 -96 11 -225q-1 -95 -11 -201z" />
<glyph unicode="S" horiz-adv-x="1249" d="M109 1022q0 199 153.5 335t421.5 136q213 0 381 -88q35 -16 35 -68v-252q0 -39 -33 -38q-14 0 -27 12q-147 141 -383 141q-94 0 -141 -40t-47 -101q0 -49 39 -85t85 -56.5t122 -45.5q14 -4 20 -6q231 -70 324.5 -173t93.5 -265q0 -219 -162 -340t-411 -121 q-268 0 -433 105q-35 23 -34 69v203q0 41 30 41q16 0 31 -14q164 -125 391.5 -125t227.5 143q0 72 -59.5 110t-227.5 95q-195 66 -296 167t-101 261z" />
<glyph unicode="T" horiz-adv-x="1273" d="M-18 1176l41 251q2 18 14 19h1237q14 0 14 -19v-256q0 -16 -14 -16q-31 0 -100.5 2t-98.5 2q-102 0 -260 15q10 -190 10 -236v-920q0 -6 -6 -12t-12 -6h-326q-18 0 -18 18v924q0 123 6 232q-143 -14 -233 -15q-47 0 -120 -2t-120 -2q-18 1 -14 21z" />
<glyph unicode="U" horiz-adv-x="1615" d="M150 473v952q0 20 18 21h330q18 0 18 -21v-882q0 -117 80 -180.5t217 -63.5q133 0 214 63.5t81 180.5v882q0 20 18 21h320q18 0 18 -21v-948q0 -236 -185 -370t-466 -134q-178 0 -324.5 51.5t-242.5 168t-96 280.5z" />
<glyph unicode="V" horiz-adv-x="1435" d="M4 1413q-4 9 -3 16q0 17 22 17h342q16 0 24 -21l223 -712q94 -326 119 -494q33 195 121 494l225 712q4 20 25 21h311q22 0 22 -17q0 -7 -3 -16l-486 -1395q-4 -18 -20 -18h-408q-16 0 -24 18z" />
<glyph unicode="W" horiz-adv-x="2177" d="M6 1413q-2 8 -2 14q0 18 19 19h350q4 0 11 -6t9 -15l176 -671q72 -317 93 -506q18 166 94 506l172 673q6 18 22 19h316q25 0 28 -19l166 -665q72 -332 90 -514q14 125 105 522l170 655q4 20 22 21h312q15 0 14 -17q0 -7 -2 -16l-393 -1395q-4 -18 -19 -18h-407 q-16 0 -21 18l-162 617q-53 256 -73 442q-25 -248 -74 -448l-160 -611q-4 -18 -18 -18h-420q-16 0 -21 18z" />
<glyph unicode="X" horiz-adv-x="1556" d="M24 1436q5 10 19 10h401q20 0 37 -27q166 -236 312 -485q113 188 325 485q20 27 45 27h359q14 0 14 -15q0 -7 -6 -16q-371 -481 -555 -692q182 -207 557 -692q5 -6 5 -12q0 -4 -3 -9q-6 -10 -16 -10h-402q-25 0 -43 29q-174 254 -305 475q-176 -281 -330 -481 q-16 -23 -35 -23h-360q-14 0 -18 12q-1 4 -2 7q0 9 8 20q360 461 551 672q-190 221 -553 702q-7 8 -7 16q0 4 2 7z" />
<glyph unicode="Y" horiz-adv-x="1486" d="M-45 1426.5q0 7.5 5 13.5t17 6h367q20 0 41 -27l176 -243q123 -188 182 -345q80 182 193 343l180 243q20 29 47 29h338q16 0 21 -10q1 -3 1 -7q0 -8 -7 -18l-596 -825v-568q0 -6 -6.5 -12t-12.5 -6h-326q-18 0 -18 18v568l-596 825q-6 8 -6 15.5z" />
<glyph unicode="Z" horiz-adv-x="1404" d="M37 55q0 20 14 39l582 803q139 190 221 277q-172 -18 -369 -19q-51 0 -183 -2t-181 -2q-29 0 -21 23l33 251q2 20 21 21h1169q16 0 27.5 -13.5t11.5 -33.5q0 -18 -12 -39l-576 -823q-109 -152 -211 -273q205 20 391 21q45 0 188.5 2t186.5 2q12 0 20.5 -8.5t6.5 -18.5 l-35 -239q0 -23 -27 -23h-1222q-14 0 -24.5 16t-10.5 39z" />
<glyph unicode="[" horiz-adv-x="874" d="M229 -436v1929q0 20 19 20h631q18 0 18 -20v-166q0 -6 -6 -12t-12 -6h-158q-133 0 -197 4q6 -53 6 -166v-1237q0 -113 -6 -166q63 4 197 4h158q6 0 12 -6t6 -10v-166q0 -20 -18 -21h-631q-19 1 -19 19z" />
<glyph unicode="\" horiz-adv-x="929" d="M-224 1439q3 7 9 7h305q18 0 29 -21l952 -1826q2 -2 2 -5t-2 -7q-4 -7 -12 -7h-305q-12 0 -25 19l-952 1826q-2 4 -3 8z" />
<glyph unicode="]" horiz-adv-x="874" d="M-23 -270q0 6 6.5 12t12.5 6h160q133 0 196 -4q-6 53 -6 166v1239q0 113 6 164q-63 -4 -198 -4h-158q-18 0 -19 20v166q0 6 6.5 12t12.5 6h631q18 0 18 -18v-1929q0 -20 -18 -21h-631q-18 0 -19 21v164z" />
<glyph unicode="^" horiz-adv-x="1056" d="M51 721l408 756q8 20 71 20q61 0 70 -20l412 -760q2 -5 2 -10q0 -4 -1 -9q-3 -10 -14 -10h-133q-20 0 -41 19l-311 368l-283 -364q-20 -23 -45 -23h-120q-21 0 -21 14q-1 7 6 19z" />
<glyph unicode="_" horiz-adv-x="516" d="M0 -63h516v-254h-516v254z" />
<glyph unicode="`" horiz-adv-x="854" d="M190 1446h228q20 0 35 -21l233 -282q7 -9 7 -17q0 -3 -1 -7q-4 -11 -20 -11h-125q-29 0 -53 25l-314 284q-4 5 -4 12q0 17 14 17z" />
<glyph unicode="a" horiz-adv-x="1077" d="M72 233q0 164 153.5 271.5t423.5 130.5v61q0 113 -141 113q-113 0 -158 -72q-43 -61 -106 -61q-55 0 -95 33.5t-40 95.5q0 84 101 156.5t322 72.5q238 0 331 -87t93 -247q0 -68 -5 -205t-5 -188q0 -88 17.5 -156.5t35.5 -87.5q16 -16 17 -36q0 -27 -29 -27h-158 q-47 0 -65 45q-41 84 -43 191q-76 -262 -361 -263q-131 0 -209.5 69.5t-78.5 190.5zM360 293q0 -45 28 -69.5t73 -24.5q82 0 135 62.5t53 144.5v67q-143 -12 -216 -61t-73 -119z" />
<glyph unicode="b" horiz-adv-x="1220" d="M106 18q0 4 4.5 38t9.5 93.5t5 124.5v1151q0 20 18 21h283q18 0 18 -21q0 -381 -14 -587q23 86 97.5 141t195.5 55q201 0 318.5 -155.5t117.5 -374.5q0 -217 -117.5 -374t-318.5 -157q-129 0 -214 54.5t-108 162.5q0 -96 -14 -172q-4 -18 -18 -18h-244q-19 0 -19 18z M444 430q0 -238 172 -237q106 0 159.5 66.5t53.5 236.5q0 303 -206 303q-178 0 -179 -207v-162z" />
<glyph unicode="c" horiz-adv-x="950" d="M63 494q0 209 154 374.5t418 165.5q143 0 233 -63q63 -43 64 -115q0 -63 -35 -102t-86 -39q-41 0 -72 22q-59 35 -121 35q-115 0 -177 -80t-62 -196q0 -135 78 -205t184 -70q129 0 211 76q8 8 20 8q25 0 25 -33v-159q0 -37 -25 -58q-100 -82 -274 -82q-248 0 -391.5 152 t-143.5 369z" />
<glyph unicode="d" horiz-adv-x="1222" d="M63 514q0 213 117 366.5t318 153.5q117 0 193.5 -55t103.5 -139q-14 205 -15 585q0 20 19 21h280q18 0 19 -21v-1151q0 -66 4 -125t9 -92.5t5 -38.5q0 -18 -18 -18h-244q-14 0 -18 18q-12 66 -13 170q-41 -102 -127 -158.5t-194 -56.5q-199 0 -319 161t-120 380zM395 512 q0 -170 53.5 -241.5t159.5 -71.5q172 0 172 233v176q0 205 -176 205q-209 0 -209 -301z" />
<glyph unicode="e" horiz-adv-x="1042" d="M63 504q0 211 143.5 370.5t381.5 159.5q213 0 313 -115.5t100 -318.5q0 -98 -71 -98h-555q-4 -25 -4 -51q0 -94 70.5 -159t193.5 -65q137 0 239 80q12 12 27 12q20 0 21 -28v-174q0 -39 -19 -54q-39 -35 -126 -62.5t-204 -27.5q-240 0 -375 153t-135 378zM391 678h352 q0 156 -157 156q-76 0 -126.5 -42t-68.5 -114z" />
<glyph unicode="f" horiz-adv-x="735" d="M45 782v197q0 18 12 18q68 0 133 -10q-10 45 -10 135q0 342 508 342q39 0 39 -39v-190q0 -23 -27 -23q-127 0 -171 -32.5t-44 -104.5q0 -37 -10 -88q137 10 238 10q14 0 14 -18v-197q0 -16 -14 -16q-109 0 -228 10q12 -139 13 -241v-517q0 -6 -6.5 -12t-12.5 -6h-280 q-18 0 -19 18v517q0 158 10 241q-68 -10 -133 -10q-12 0 -12 16z" />
<glyph unicode="g" horiz-adv-x="1177" d="M25 -199q0 68 37.5 108t74.5 40h197q14 0 14 -12q0 -8 -6 -15q-20 -16 -20 -51q0 -102 182 -102q258 0 258 149q0 88 -105 88q-33 0 -122 -6t-162 -6q-266 0 -267 180q0 76 59.5 135.5t162.5 67.5q-111 29 -169.5 108.5t-58.5 192.5q0 150 120 253t310 103 q260 0 357 -166q47 182 200 183q59 0 92 -41t33 -111q0 -135 -106 -135q-37 0 -65.5 28.5t-45.5 28.5q-47 0 -47 -51q0 -16 9.5 -55t9.5 -76q0 -150 -113 -241t-354 -91q-162 0 -162 -67q0 -51 84 -52q41 0 144.5 14.5t191.5 14.5q162 0 245.5 -73.5t83.5 -204.5 q0 -172 -155.5 -276.5t-437.5 -104.5q-469 -1 -469 243zM412 662q0 -106 32.5 -149.5t98.5 -43.5q68 0 100.5 40t32.5 136q0 106 -34 149.5t-101 43.5q-66 0 -97.5 -40t-31.5 -136z" />
<glyph unicode="h" horiz-adv-x="1202" d="M119 18v1407q0 20 18 21h258q18 0 19 -21q0 -354 -31 -661q45 127 153.5 198.5t235.5 71.5q139 0 230.5 -90t91.5 -262v-664q0 -6 -6.5 -12t-12.5 -6h-280q-18 0 -19 18v564q0 201 -143 200q-86 0 -141.5 -63.5t-55.5 -181.5v-519q0 -6 -6 -12t-12 -6h-281q-18 0 -18 18z " />
<glyph unicode="i" horiz-adv-x="557" d="M100 1303q0 74 53.5 126t125.5 52q74 0 125 -52.5t51 -125.5q0 -72 -51.5 -119t-125 -47t-126 47t-52.5 119zM119 18v959q0 20 18 20h283q18 0 18 -20v-959q0 -6 -6 -12t-12 -6h-283q-18 0 -18 18z" />
<glyph unicode="j" horiz-adv-x="563" d="M-143 -176q0 33 24 33q10 0 25 -9q33 -20 90 -20q53 0 93 35t40 106v1008q0 20 18 20h281q18 0 18 -20v-952q0 -129 -34.5 -224.5t-94 -146.5t-124 -73.5t-136.5 -22.5q-109 0 -182 43q-18 12 -18 55v168zM113 1303q0 74 51 126t125 52q72 0 125 -52.5t53 -125.5 q0 -72 -52.5 -119t-126 -47t-124.5 47t-51 119z" />
<glyph unicode="k" horiz-adv-x="1142" d="M119 18v1407q0 20 18 21h281q18 0 18 -21v-573q0 -66 -8 -217h29q39 0 288 346q14 16 29 16h318q12 0 12 -16q0 -14 -10 -25q-37 -37 -123 -138l-157 -178q-71 -77 -99 -89q35 -18 197.5 -227t209.5 -248q18 -18 19 -39q0 -37 -31 -37h-328q-16 0 -24 12q-37 53 -114 174 t-124 187.5t-65 66.5h-29q10 -158 10 -278v-144q0 -6 -6 -12t-12 -6h-281q-18 0 -18 18z" />
<glyph unicode="l" horiz-adv-x="555" d="M119 18v1407q0 20 18 21h281q18 0 18 -21v-1407q0 -6 -6 -12t-12 -6h-281q-18 0 -18 18z" />
<glyph unicode="m" horiz-adv-x="1802" d="M106 979q0 18 17 18h235q14 0 19 -18q14 -94 14 -221q53 127 153.5 198.5t209.5 71.5q98 0 174 -59.5t104 -173.5q49 109 149.5 174t209.5 65q133 0 219 -90t86 -264v-662q0 -6 -6.5 -12t-12.5 -6h-280q-18 0 -19 18v562q0 106 -31.5 154t-99.5 48q-82 0 -129 -64.5 t-47 -180.5v-519q0 -6 -6 -12t-12 -6h-283q-18 0 -18 18v564q0 106 -31 152t-98 46q-82 0 -130.5 -64.5t-48.5 -180.5v-517q0 -6 -6 -12t-12 -6h-283q-18 0 -18 18v707q0 66 -5 125t-9.5 93t-4.5 36z" />
<glyph unicode="n" horiz-adv-x="1208" d="M104 979q0 18 17 18h233q14 0 19 -18q18 -111 18 -217q43 125 151.5 198.5t237.5 73.5q139 0 229.5 -91t90.5 -265v-660q0 -6 -6.5 -12t-12.5 -6h-280q-18 0 -19 18v562q0 201 -141 200q-88 0 -143.5 -64.5t-55.5 -180.5v-517q0 -6 -6 -12t-12 -6h-283q-18 0 -18 18v707 q0 66 -4 125t-9.5 93t-5.5 36z" />
<glyph unicode="o" horiz-adv-x="1179" d="M63 508q0 100 33 193.5t96.5 168t167 119.5t232.5 45q254 0 389 -155.5t135 -370.5q0 -217 -135 -376t-389 -159q-252 0 -390.5 159t-138.5 376zM395 504q0 -154 45 -228.5t152 -74.5q104 0 148 75.5t44 227.5q0 150 -45 222.5t-147 72.5q-109 0 -153 -72.5t-44 -222.5z " />
<glyph unicode="p" horiz-adv-x="1222" d="M106 979q0 18 19 18h244q14 0 18 -18q12 -66 12 -170q49 117 126 171t198 54q197 0 316.5 -154.5t119.5 -369.5q0 -213 -117.5 -374t-322.5 -161q-113 0 -182.5 44t-108.5 143q14 -227 14 -561q0 -20 -18 -21h-281q-18 0 -18 21v1124q0 66 -5 125t-9.5 92t-4.5 37z M442 389q0 -201 179 -201q207 0 206 318q0 166 -52 232q-53 65 -157 65q-176 0 -176 -238v-176z" />
<glyph unicode="q" horiz-adv-x="1220" d="M61 510q0 215 118 369.5t315 154.5q106 0 194 -61.5t133 -165.5q0 106 13 172q4 18 18 18h244q18 0 18 -18q0 -4 -4 -37t-9 -92t-5 -125v-1124q0 -20 -19 -21h-282q-18 0 -19 21q0 334 17 559q-92 -186 -289 -187q-203 0 -323 162t-120 375zM393 518q0 -315 205 -315 q94 0 136 48t42 148v176q0 240 -172 240q-109 0 -160 -64.5t-51 -232.5z" />
<glyph unicode="r" horiz-adv-x="870" d="M106 979q0 18 17 18h233q14 0 19 -18q18 -119 18 -246q39 141 120 220t189 79q96 0 140.5 -52t44.5 -138q0 -68 -34 -117t-91 -49q-51 0 -84 37t-82 37q-68 0 -110 -59.5t-42 -184.5v-488q0 -6 -6 -12t-12 -6h-283q-18 0 -18 18v707q0 66 -5 125t-9.5 93t-4.5 36z" />
<glyph unicode="s" horiz-adv-x="907" d="M74 711q0 139 114.5 231t298.5 92q188 0 285 -71q51 -41 51 -97q0 -63 -33.5 -102t-72.5 -39q-35 0 -76 29q-74 51 -152 51q-57 0 -85.5 -22.5t-28.5 -59.5q0 -57 135 -105q14 -6 20 -8q168 -57 240 -125.5t72 -185.5q0 -147 -114 -236.5t-306 -89.5q-213 0 -330 84 q-16 14 -16 39v168q0 35 20 35q12 0 25 -14q45 -39 127 -68t153 -29q66 0 101 22.5t35 59.5q0 10 -2.5 19.5t-7.5 17.5t-10 14.5t-17.5 13.5t-20.5 11t-26.5 11.5t-30.5 11.5l-38 13l-42 15q-129 47 -198.5 120t-69.5 194z" />
<glyph unicode="t" horiz-adv-x="753" d="M23 836q0 61 18 69q188 115 373 371q14 20 35 20q33 0 32 -28v-80q0 -98 -20 -201q98 10 225 10q14 0 14 -18v-197q0 -16 -14 -16q-109 0 -225 10q10 -88 10 -241v-183q0 -72 28.5 -103.5t96.5 -31.5q43 0 78 21q27 14 26 -15v-211q0 -16 -18 -20q-82 -20 -164 -21 q-168 0 -266 100.5t-98 290.5v177q0 137 12 237q-68 -10 -121 -10q-22 0 -22 70z" />
<glyph unicode="u" horiz-adv-x="1208" d="M106 330v649q0 6 6.5 12t12.5 6h283q18 0 18 -18v-549q0 -203 141 -203q90 0 144.5 60.5t54.5 175.5v516q0 6 6 12t12 6h283q18 0 18 -18v-705q0 -68 4.5 -127t9.5 -93t5 -36q0 -18 -17 -18h-235q-14 0 -18 18q-16 98 -17 218q-45 -125 -151.5 -193t-237.5 -68 q-139 0 -230.5 90.5t-91.5 264.5z" />
<glyph unicode="v" horiz-adv-x="1044" d="M-16 967q-3 9 -3 15q0 15 17 15h299q14 0 20 -16l148 -506q49 -180 63 -276q20 117 68 278l149 504q6 16 21 16h278q20 0 21 -16q0 -7 -4 -16l-344 -955q-4 -14 -17 -14h-354q-14 0 -20 14z" />
<glyph unicode="w" horiz-adv-x="1644" d="M-8 971q-2 7 -2 12q0 14 16 14h293q12 0 18 -16l127 -465q39 -166 58 -307q23 162 61 305l129 467q6 16 19 16h268q14 0 18 -16l119 -455q37 -156 58 -317q23 180 57 313l121 459q4 16 18 16h268q17 0 18 -13q0 -6 -3 -13l-303 -961q-6 -14 -19 -14h-338q-10 0 -18 14 l-101 389q-29 127 -45 285q-16 -158 -49 -285l-108 -389q-4 -14 -17 -14h-340q-14 0 -18 14z" />
<glyph unicode="x" horiz-adv-x="1087" d="M-16 11q0 6 6 16q203 264 399 456q-158 172 -399 488q-5 8 -6 14q0 3 2 5q4 7 12 7h342q18 0 33 -20q123 -176 182 -293q72 133 197 293q14 20 36 20h302q8 0 10 -7t-6 -19q-281 -348 -396 -453q104 -102 400 -491q8 -9 8 -16q0 -2 -1 -4q-3 -7 -11 -7h-346q-18 0 -35 23 q-106 156 -183 290q-45 -86 -194 -293q-14 -20 -31 -20h-307q-14 0 -14 11z" />
<glyph unicode="y" horiz-adv-x="1048" d="M-16 969q-5 10 -5 16q0 13 19 12h299q16 0 20 -16l148 -502q49 -188 65 -280q18 106 68 282l152 500q4 16 20 16h281q17 0 17 -13q0 -6 -3 -13l-373 -1039q-78 -213 -185.5 -293.5t-268.5 -80.5q-121 0 -189 28q-18 8 -18 56v178q0 33 26 33q12 0 25 -11q59 -35 111 -35 q135 0 176 160z" />
<glyph unicode="z" horiz-adv-x="972" d="M20 45q0 18 15 39l375 532q88 123 110 148q-111 -4 -211 -4q-63 0 -140 -2t-91 -2q-23 0 -19 22l21 201q2 18 18 18h824q39 0 39 -47q0 -20 -9 -30l-364 -523q-74 -109 -123 -168q104 6 235 7q51 0 129 2t95 2q25 0 20 -25l-22 -197q-4 -18 -25 -18h-838q-39 0 -39 45z " />
<glyph unicode="{" horiz-adv-x="874" d="M80 524q0 70 24 70q100 0 137.5 39t37.5 135q0 45 -10.5 142.5t-10.5 158.5q0 186 152.5 313t447.5 127q18 0 19 -20v-164q0 -6 -6.5 -12t-12.5 -6q-162 0 -223.5 -60.5t-61.5 -161.5q0 -61 7.5 -157.5t7.5 -139.5q0 -96 -48 -166.5t-143 -93.5q94 -35 143.5 -108.5 t49.5 -167.5q0 -45 -7.5 -111.5t-7.5 -115.5q0 -133 55.5 -203t227.5 -70q18 0 19 -20v-166q0 -6 -6.5 -12.5t-12.5 -6.5q-295 0 -447.5 121t-152.5 305q0 80 9 180.5t9 133.5q0 94 -36.5 128t-135.5 34q-24 -1 -24 75z" />
<glyph unicode="|" horiz-adv-x="851" d="M264 -401v1949q0 20 19 21h284q18 0 19 -21v-1949q0 -6 -6.5 -12.5t-12.5 -6.5h-284q-19 1 -19 19z" />
<glyph unicode="}" horiz-adv-x="872" d="M0 -268q0 6 6 12t12 6q285 0 285 219q0 61 -7 159.5t-7 139.5q0 96 48 167t140 93q-94 35 -142 108t-48 169q0 43 7 110.5t7 118.5q0 131 -56.5 202t-226.5 71q-18 0 -18 20v164q0 6 6 12t12 6q295 0 445.5 -120.5t150.5 -305.5q0 -80 -8 -179t-8 -132q0 -94 37 -129 t133 -35q25 0 25 -76q0 -72 -25 -71q-98 0 -135 -38t-37 -134q0 -43 9 -141.5t9 -159.5q0 -186 -151.5 -313.5t-444.5 -127.5q-18 0 -18 21v164z" />
<glyph unicode="~" horiz-adv-x="1026" d="M74 698q0 133 76.5 217t222.5 84q86 0 148.5 -34.5t109.5 -68.5t92 -34q43 0 77 33t34 84q0 23 24.5 22.5t60 -7.5t35.5 -19q0 -141 -71.5 -227t-194.5 -86q-84 0 -197.5 75.5t-168.5 75.5q-51 0 -84 -35t-33 -80q0 -27 -33 -26q-29 0 -63.5 7t-34.5 19z" />
<glyph unicode="&#xa1;" horiz-adv-x="677" d="M141 -399l82 985q0 6 6.5 12t12.5 6h170q18 0 18 -18l78 -985q0 -20 -19 -21h-329q-19 1 -19 21zM164 881q0 66 47 112.5t115 46.5q66 0 111.5 -47t45.5 -112q0 -68 -46 -114t-111 -46q-70 0 -116 46t-46 114z" />
<glyph unicode="&#xa2;" horiz-adv-x="985" d="M63 805q0 125 49.5 234.5t158 194.5t259.5 109v248q0 20 19 21h149q18 0 19 -21v-243q111 -12 176 -70q41 -39 41 -88q0 -72 -41 -125t-100 -53q-35 0 -66 22q-43 37 -115 37q-111 0 -169 -75.5t-58 -188.5q0 -137 76 -202.5t188 -65.5q129 0 209 75q10 10 19 11 q25 0 24 -33v-174q0 -37 -22 -56q-70 -57 -162 -73v-271q0 -6 -6 -12t-13 -6h-149q-18 0 -19 18v263q-219 25 -343 173t-124 351z" />
<glyph unicode="&#xa3;" horiz-adv-x="1230" d="M57 641v197q0 18 13 18q63 0 145 -10q-10 96 -10 145v64q0 190 133 311t393 121q283 0 406 -144q39 -49 39 -102q0 -72 -45.5 -121t-112.5 -49q-51 0 -82 43q-2 4 -14.5 19.5t-15.5 20.5t-15 18.5t-22 18.5l-24 13q-15 8 -30.5 12.5t-37 7.5t-46.5 3q-209 0 -209 -221 v-74q0 -47 -6 -86q82 10 221 10q14 0 15 -18v-197q0 -16 -15 -16q-133 0 -225 10q10 -76 10 -191q0 -84 -6 -172q338 6 342 7q29 0 115 1t153 1q12 0 15 -19l-33 -246q-4 -16 -18 -16h-879q-18 0 -18 18v375q0 147 12 242q-68 -10 -135 -10q-13 0 -13 16z" />
<glyph unicode="&#xa4;" horiz-adv-x="1124" d="M45 291l158 158q-57 109 -58 223q0 119 58 225l-158 156l170 166l154 -156q98 57 225 57t225 -57l156 156l168 -168l-158 -156q59 -100 59 -221q0 -125 -59 -225l158 -158l-170 -168l-154 158q-106 -59 -225 -60q-117 0 -223 60l-156 -158zM377 672q0 -90 63.5 -154.5 t153.5 -64.5t154.5 64.5t64.5 154.5t-64.5 154.5t-154.5 64.5t-153.5 -64.5t-63.5 -154.5z" />
<glyph unicode="&#xa5;" horiz-adv-x="1388" d="M-39 1436q6 10 19 10h344q23 0 41 -31l118 -170q139 -225 224 -438q90 231 227 436l127 182q12 20 41 21h309q12 0 19 -7q3 -3 2 -9q0 -7 -5 -19l-374 -547q59 2 176 2q25 0 24 -18v-178q0 -4 -8 -10.5t-16 -6.5q-209 0 -309 4l-52 -71v-88q47 0 136.5 1t134.5 1 q18 0 18 -21v-172q0 -6 -6 -13t-12 -7q-94 0 -275 8q4 -51 4 -158v-119q0 -18 -14 -18h-305q-20 0 -21 18v136q0 51 9 141q-197 -8 -293 -8q-8 0 -15.5 7t-7.5 13v172q0 20 23 21q49 0 143 -1t141 -1v88l-47 71q-109 -4 -336 -4q-8 0 -16 6.5t-8 10.5v178q0 18 24 18 q127 0 197 -2l-377 547q-6 9 -6 16q0 5 2 9z" />
<glyph unicode="&#xa6;" horiz-adv-x="851" d="M264 324h322v-725q0 -6 -6.5 -12.5t-12.5 -6.5h-284q-18 0 -19 19v725zM264 877v671q0 20 19 21h284q18 0 19 -21v-671h-322z" />
<glyph unicode="&#xa7;" horiz-adv-x="1327" d="M47 629q0 209 205 313q-47 70 -47 156q0 176 127 285.5t352 109.5q244 0 350.5 -77t106.5 -165q0 -86 -48.5 -127t-121.5 -41q-86 0 -107 60q-25 66 -65.5 96.5t-116.5 30.5q-156 0 -156 -127q0 -37 20.5 -69t76 -67.5t87.5 -51.5l119 -56q27 -12 39 -18 q209 -94 310.5 -196.5t101.5 -254.5q0 -102 -57.5 -180t-145.5 -121q47 -72 47 -160q0 -180 -129 -286.5t-352 -106.5q-215 0 -324 80q-23 18 -22 49v180q0 31 20 31q16 0 23 -8q47 -45 132 -71.5t171 -26.5q166 0 166 112q0 20 -10.5 41t-33 42.5t-46 37.5t-63.5 38l-68 37 l-80 41l-80 40q-178 90 -279.5 188.5t-101.5 241.5zM297 748q0 -80 66.5 -144.5t205.5 -128.5q307 -143 422 -256q35 41 35 107q0 158 -328 305q-252 123 -364 223q-37 -38 -37 -106z" />
<glyph unicode="&#xa8;" horiz-adv-x="1001" d="M164 1272q0 55 41 95t96 40t95 -40t40 -95q0 -57 -40 -97t-95 -40t-96 40t-41 97zM565 1272q0 55 40 95t95 40q57 0 97.5 -40t40.5 -95q0 -57 -40 -97t-98 -40q-55 0 -95 40t-40 97z" />
<glyph unicode="&#xa9;" horiz-adv-x="1718" d="M106 729q0 315 223.5 539.5t537 224.5t533.5 -223t220 -541q0 -315 -220 -538.5t-533.5 -223.5t-537 223.5t-223.5 538.5zM315 729.5q0 -235.5 161 -402.5t390 -167q227 0 387 167t160 402.5t-159.5 403t-387 167.5t-389.5 -167.5t-162 -403zM444 723q0 182 124 320.5 t335 138.5q147 0 219 -66q37 -33 37 -86q0 -57 -29.5 -99t-78.5 -42q-8 0 -55.5 25.5t-94.5 25.5q-88 0 -134 -60.5t-46 -152.5q0 -115 61.5 -169t149.5 -54q109 0 176 63q10 10 20 11q18 0 19 -27v-156q0 -27 -23 -43q-98 -74 -241 -73q-199 0 -319 131t-120 313z" />
<glyph unicode="&#xaa;" horiz-adv-x="813" d="M78 913q0 106 106.5 177t288.5 88v47q0 76 -96 75q-45 0 -87 -45t-89 -45q-37 0 -68 23.5t-31 66.5q0 61 72 115.5t236 54.5q166 0 230.5 -64.5t64.5 -184.5q0 -49 -4.5 -139.5t-4.5 -123.5q0 -121 31 -163l12 -19q2 -4 2 -10l2 -4q0 -18 -20 -19h-111q-39 0 -60.5 46.5 t-21.5 117.5q-61 -188 -245 -188q-90 0 -148.5 54t-58.5 140zM299 946q0 -55 57.5 -55t87 45t29.5 108v29q-72 -8 -123 -44t-51 -83z" />
<glyph unicode="&#xab;" horiz-adv-x="1427" d="M88 508q0 57 18 70l580 409q11 6 18 6q13 0 13 -20v-121q0 -25 -23 -45l-288 -281l294 -315q16 -16 17 -39v-135q0 -10 -8 -13q-4 -1 -7 -2l-10 3l-586 413q-18 9 -18 70zM711 508q0 55 20 70l580 409q10 7 17 7q12 0 11 -21v-121q0 -25 -20 -45l-289 -281l293 -315 q16 -16 16 -39v-135q0 -10 -8 -13q-4 -1 -7 -2l-9 3l-584 413q-20 11 -20 70z" />
<glyph unicode="&#xac;" horiz-adv-x="1062" d="M86 301v242h881v-781h-287v539h-594z" />
<glyph unicode="&#xad;" horiz-adv-x="686" d="M90 438v236q0 20 19 20h462q18 0 19 -20v-236q0 -6 -6 -12t-13 -6h-462q-19 0 -19 18z" />
<glyph unicode="&#xae;" horiz-adv-x="989" d="M63 1096q0 174 125 286.5t308 112.5q190 0 309 -111.5t119 -287.5t-122 -288t-306 -112q-188 0 -310.5 112t-122.5 288zM211 1096q0 -129 72.5 -208t205.5 -79q139 0 211 51h-77q-39 0 -66 43q-16 27 -35.5 66t-31 55t-21.5 16h-14v-174q0 -6 -6 -6h-93q-41 0 -41 31v440 q0 8 9 8h172q92 0 140 -37.5t48 -97.5q0 -61 -39 -90t-133 -31q63 -8 104 -42.5t70 -77.5t53 -58q39 70 39 191q0 131 -76.5 210.5t-212.5 79.5q-278 1 -278 -290zM455 1124h10q33 0 53.5 20.5t20.5 51.5q0 63 -45 70h-39v-142z" />
<glyph unicode="&#xaf;" horiz-adv-x="845" d="M164 1186v157q0 16 12 17h494q12 0 12 -17v-157q0 -14 -12 -15h-494q-12 1 -12 15z" />
<glyph unicode="&#x2c9;" horiz-adv-x="845" d="M164 1186v157q0 16 12 17h494q12 0 12 -17v-157q0 -14 -12 -15h-494q-12 1 -12 15z" />
<glyph unicode="&#xb0;" horiz-adv-x="925" d="M72 1079q0 160 109.5 278t291.5 118q180 0 280.5 -116t100.5 -280q0 -162 -106.5 -279.5t-282.5 -117.5q-180 0 -286.5 116.5t-106.5 280.5zM336 1071q0 -127 32.5 -179t100.5 -52q74 0 101.5 48t27.5 183q0 125 -29.5 174t-99.5 49q-72 0 -102.5 -49t-30.5 -174z" />
<glyph unicode="&#xb1;" horiz-adv-x="1060" d="M80 705v192q0 20 18 21h166q90 0 146 -7q-10 61 -11 172v134q0 18 21 18h211q6 0 12 -6t6 -12v-132q0 -125 -6 -174q57 6 154 7h153q18 0 19 -21v-192q0 -6 -6.5 -12.5t-12.5 -6.5h-155q-94 0 -152 6q6 -33 6 -147v-158q0 -18 -18 -18h-211q-20 0 -21 18v160q0 88 11 145 q-74 -6 -152 -6h-160q-18 1 -18 19zM88 18v215q0 20 18 21h836q18 0 19 -21v-215q0 -6 -6.5 -12t-12.5 -6h-836q-18 0 -18 18z" />
<glyph unicode="&#xb2;" horiz-adv-x="876" d="M119 799q0 31 14 39q393 207 393 362q0 106 -102 107q-55 0 -81 -27t-28 -63q2 -35 -25.5 -53.5t-68.5 -18.5t-67.5 22.5t-26.5 65.5q0 31 14.5 69.5t46 83t98 74t156.5 29.5q129 0 214 -70.5t85 -181.5q0 -117 -88 -198t-260 -148q102 20 191 20q41 0 99 3.5t69 3.5 q14 0 14 -19l-21 -143q0 -14 -18 -15h-590q-18 1 -18 58z" />
<glyph unicode="&#xb3;" horiz-adv-x="876" d="M125 1284q0 82 74.5 142.5t232.5 60.5q139 0 213 -51.5t74 -147.5q0 -86 -49 -137t-160 -80q109 0 169 -57.5t60 -157.5q0 -123 -103.5 -189.5t-242.5 -66.5q-160 0 -250 62q-14 6 -14 22v131q0 27 18 27q16 0 31 -13q78 -61 189 -61q74 0 106.5 25.5t32.5 83.5 q0 102 -113 102q-39 0 -68.5 -9t-31.5 -9q-10 0 -14 12l-13 92q-2 14 6 18q135 29 181.5 67t46.5 101q0 82 -94 82q-78 0 -95 -82q-6 -55 -82 -55q-43 0 -73.5 21.5t-30.5 66.5z" />
<glyph unicode="&#xb4;" horiz-adv-x="851" d="M201 1119q-1 3 -1 7q0 8 7 17l233 282q14 20 35 21h227q14 0 15 -16q0 -7 -6 -13l-312 -284q-25 -25 -53 -25h-125q-16 0 -20 11z" />
<glyph unicode="&#xb5;" horiz-adv-x="1191" d="M37 -354q0 14 16.5 122.5t31.5 266.5t15 291v653q0 6 6.5 12t12.5 6h282q18 0 19 -18v-547q0 -109 31.5 -156t101.5 -47q88 0 141.5 60.5t53.5 173.5v516q0 6 6 12t12 6h283q18 0 18 -18v-705q0 -68 5 -127t9 -93t4 -36q0 -18 -16 -18h-235q-14 0 -19 18q-14 92 -14 218 q-45 -119 -141.5 -185.5t-221.5 -66.5q-86 0 -131 41q6 -70 16 -157l15 -144q6 -57 6 -74q0 -43 -44 -65.5t-103 -22.5q-68 0 -114 21.5t-46 62.5z" />
<glyph unicode="&#x3bc;" horiz-adv-x="1191" d="M37 -354q0 14 16.5 122.5t31.5 266.5t15 291v653q0 6 6.5 12t12.5 6h282q18 0 19 -18v-547q0 -109 31.5 -156t101.5 -47q88 0 141.5 60.5t53.5 173.5v516q0 6 6 12t12 6h283q18 0 18 -18v-705q0 -68 5 -127t9 -93t4 -36q0 -18 -16 -18h-235q-14 0 -19 18q-14 92 -14 218 q-45 -119 -141.5 -185.5t-221.5 -66.5q-86 0 -131 41q6 -70 16 -157l15 -144q6 -57 6 -74q0 -43 -44 -65.5t-103 -22.5q-68 0 -114 21.5t-46 62.5z" />
<glyph unicode="&#xb6;" horiz-adv-x="1343" d="M20 983q0 197 147.5 330t405.5 133h570q18 0 18 -27v-1401q0 -18 -18 -18h-340q-6 0 -12.5 6t-6.5 12v465h-188q-268 0 -422 130t-154 370z" />
<glyph unicode="&#xb7;" horiz-adv-x="571" d="M98 543q0 80 54.5 133t132.5 53q80 0 134 -53t54 -133q0 -78 -54 -132.5t-134 -54.5q-78 0 -132.5 54.5t-54.5 132.5z" />
<glyph unicode="&#x2219;" horiz-adv-x="571" d="M98 543q0 80 54.5 133t132.5 53q80 0 134 -53t54 -133q0 -78 -54 -132.5t-134 -54.5q-78 0 -132.5 54.5t-54.5 132.5z" />
<glyph unicode="&#xb8;" horiz-adv-x="776" d="M164 -377q0 12 14 10q49 -16 103 -16q104 0 104 92q0 86 -80 86q-29 0 -46 -10t-23 -10q-8 0 -20.5 18.5t-12.5 30.5q0 6 4 10l196 166h129l-133 -119h21q94 0 143 -50t49 -124q0 -88 -67.5 -155.5t-186.5 -67.5q-102 0 -182 18q-12 2 -12 19v102z" />
<glyph unicode="&#xb9;" horiz-adv-x="876" d="M164 1339q-4 14 16 23l365 137q5 2 9.5 2t8.5 -2q8 -4 8 -12v-445q0 -47 -4 -137q18 4 88 4h39q18 0 19 -16l4 -121q0 -10 -19 -10h-487q-16 0 -16 10l8 121q2 16 20 16h56q27 0 83 -4q-4 86 -4 133v92q0 70 7 144q-68 -35 -115 -51l-66 -23q-18 -8 -18 8z" />
<glyph unicode="&#xba;" horiz-adv-x="901" d="M82 1104q0 152 96 260.5t277 108.5q178 0 274 -109t96 -260q0 -154 -96 -264.5t-274.5 -110.5t-275.5 110.5t-97 264.5zM322 1101.5q0 -102.5 29.5 -154.5t103.5 -52q72 0 102.5 50t30.5 157q0 100 -29 151.5t-104 51.5q-74 0 -103.5 -50.5t-29.5 -153z" />
<glyph unicode="&#xbb;" horiz-adv-x="1425" d="M88 43v121q0 25 23 45l286 280l-293 316q-16 16 -16 39v135q0 10 8 13q4 1 7 2l10 -3l585 -413q18 -10 19 -70q0 -57 -19 -70l-579 -409q-11 -6 -18 -6q-13 0 -13 20zM711 43v121q0 25 20 45l289 280l-291 316q-18 16 -18 39v135q0 10 9 14q4 2 7 2q5 0 10 -4l584 -413 q18 -8 18 -70q0 -57 -18 -70l-582 -409q-7 -5 -13 -6q-3 0 -6 2q-9 4 -9 18z" />
<glyph unicode="&#xbc;" horiz-adv-x="1736" d="M149 1339q-4 14 17 23l364 137q5 2 10 2t9 -2q8 -4 8 -12v-445q0 -47 -4 -137q18 4 88 4h39q18 0 18 -16l4 -121q0 -10 -18 -10h-487q-16 0 -17 10l8 121q2 16 21 16h55q27 0 84 -4q-4 86 -4 133v92q0 70 6 144q-68 -35 -114 -51l-66 -23q-18 -8 -18 8zM173 13q-1 4 -1 8 q0 11 10 24l1155 1380q14 20 33 21h199q16 0 21 -13.5t-5 -23.5l-1143 -1391q-12 -18 -28 -18h-217q-19 0 -24 13zM819 20v89q0 14 10 34q190 295 422 553h181q14 0 14 -12v-430q0 -76 -2 -107q57 2 168 3q18 0 14 -15l-12 -117q-4 -18 -21 -18q-96 0 -149 2q2 -27 2 -98 v-105q0 -16 -14 -16h-172q-4 0 -9.5 6t-5.5 10v107q0 72 4 96q-43 -2 -123 -2h-286q-21 0 -21 20zM1018 145q57 5 127 5q68 0 104 -3q-4 29 -4 175q0 76 6 153q-100 -162 -233 -330z" />
<glyph unicode="&#xbd;" horiz-adv-x="1736" d="M143 1339q0 14 17 23l364 137q5 2 10 2t9 -2q8 -4 8 -12v-445q0 -47 -4 -137q18 4 88 4h39q18 0 18 -16l4 -121q0 -10 -18 -10h-488q-16 0 -16 10l8 121q2 16 21 16h55q27 0 84 -4q-4 86 -4 133v92q0 70 6 144q-66 -33 -113 -51l-67 -23q-14 -8 -19 8zM161 20q0 11 9 25 l1155 1380q14 20 33 21h198q16 0 21.5 -13.5t-4.5 -23.5l-1143 -1391q-12 -18 -29 -18h-215q-25 0 -25 20zM989 57q0 29 15 37q393 207 393 363q0 109 -103 108q-55 0 -80.5 -26.5t-27.5 -63.5q2 -35 -24.5 -54.5t-69.5 -19.5q-94 0 -95 91q0 31 14.5 68.5t46.5 81.5 t98.5 73.5t156.5 29.5q129 0 214 -70.5t85 -178.5q0 -117 -88 -198t-262 -151q106 20 192 21q41 0 99.5 3t68.5 3q14 0 14 -16l-20 -146q0 -12 -19 -12h-589q-19 0 -19 57z" />
<glyph unicode="&#xbe;" horiz-adv-x="1736" d="M106 1284q0 82 75 142.5t233 60.5q139 0 212.5 -51.5t73.5 -147.5q0 -86 -49 -137t-159 -80q109 0 169 -57.5t60 -157.5q0 -123 -103.5 -189.5t-242.5 -66.5q-158 0 -252 62q-12 6 -12 22v131q0 27 18 27q14 0 31 -13q78 -61 188 -61q72 0 104.5 25.5t32.5 83.5 q0 53 -25.5 77.5t-84.5 24.5q-39 0 -69 -9t-32 -9q-12 0 -14 12l-14 92q-2 14 8 18q135 29 181 67t46 101q0 82 -94 82q-78 0 -94 -82q-6 -55 -84 -55q-41 0 -72 21.5t-31 66.5zM201 18q0 12 12 27l1155 1380q16 20 33 21h194q18 0 24 -13q2 -4 2 -9q0 -8 -7 -15 l-1143 -1391q-12 -18 -29 -18h-217q-24 0 -24 18zM813 20v89q0 14 10 34q188 295 422 553h180q14 0 15 -12v-430q0 -76 -2 -107q57 2 168 3q18 0 14 -15l-12 -117q-2 -18 -21 -18q-96 0 -149 2q2 -27 2 -98v-105q0 -16 -15 -16h-172q-4 0 -9 6t-5 10v107q0 72 4 96 q-43 -2 -123 -2h-286q-21 0 -21 20zM1012 145q57 5 127 5q68 0 104 -3q-4 29 -4 175q0 76 6 153q-100 -166 -233 -330z" />
<glyph unicode="&#xbf;" horiz-adv-x="1040" d="M55 43q0 203 96.5 309.5t243.5 106.5q92 0 133 -23q0 27 -3 79t-3 71q0 6 6.5 12t12.5 6h202q18 0 19 -18v-367q0 -18 -17 -18q-8 0 -24 6q-70 35 -164 35q-190 0 -190 -205q0 -98 58 -158.5t169 -60.5q100 0 170 82q53 59 114.5 59t96.5 -38t35 -103q0 -90 -98.5 -176 t-297.5 -86q-258 0 -408.5 133t-150.5 354zM475 878.5q0 65.5 46 112.5t114 47q66 0 113 -47t47 -112.5t-47.5 -112.5t-112.5 -47q-68 0 -114 47t-46 112.5z" />
<glyph unicode="&#xc0;" horiz-adv-x="1435" d="M4 33l483 1394q4 18 21 19h405q16 0 25 -19l494 -1394q3 -7 3 -13q0 -5 -2 -10q-5 -10 -20 -10h-340q-14 0 -22 20q-61 162 -90 291q-125 -6 -256 -6q-119 0 -261 6q-25 -127 -86 -291q-8 -20 -20 -20h-315q-22 0 -22 17q-1 7 3 16zM379 1868h219q16 0 35 -19l254 -286 q4 -5 4 -10q0 -2 -1 -5q-3 -6 -13 -6h-142q-18 0 -30 17l-332 282q-7 5 -7 13q0 14 13 14zM518 537q98 6 193 6q123 0 174 -4q-45 117 -82 245q-61 205 -98 428q-35 -195 -103 -424q-47 -159 -84 -251z" />
<glyph unicode="&#xc1;" horiz-adv-x="1435" d="M4 33l483 1394q4 18 21 19h405q16 0 25 -19l494 -1394q3 -7 3 -13q0 -5 -2 -10q-5 -10 -20 -10h-340q-14 0 -22 20q-61 162 -90 291q-125 -6 -256 -6q-119 0 -261 6q-25 -127 -86 -291q-8 -20 -20 -20h-315q-22 0 -22 17q-1 7 3 16zM518 537q98 6 193 6q123 0 174 -4 q-45 117 -82 245q-61 205 -98 428q-35 -195 -103 -424q-47 -159 -84 -251zM542 1548q-1 2 -1 5q0 5 4 10l254 286q18 18 35 19h219q13 0 12 -14q0 -8 -6 -13l-330 -282q-16 -16 -33 -17h-141q-10 0 -13 6z" />
<glyph unicode="&#xc2;" horiz-adv-x="1435" d="M4 33l483 1394q4 18 21 19h405q16 0 25 -19l494 -1394q3 -7 3 -13q0 -5 -2 -10q-5 -10 -20 -10h-340q-14 0 -22 20q-61 162 -90 291q-125 -6 -256 -6q-119 0 -261 6q-25 -127 -86 -291q-8 -20 -20 -20h-315q-22 0 -22 17q-1 7 3 16zM360 1561l259 288q14 18 34 19h115 q18 0 37 -19l256 -290q2 -2 2 -6q0 -2 -1 -5q-3 -6 -11 -6h-160q-18 0 -35 17l-156 139l-151 -139q-16 -16 -35 -17h-145q-11 0 -11 8q-1 5 2 11zM518 537q98 6 193 6q123 0 174 -4q-45 117 -82 245q-61 205 -98 428q-35 -195 -103 -424q-47 -159 -84 -251z" />
<glyph unicode="&#xc3;" horiz-adv-x="1435" d="M4 33l483 1394q4 18 21 19h405q16 0 25 -19l494 -1394q3 -7 3 -13q0 -5 -2 -10q-5 -10 -20 -10h-340q-14 0 -22 20q-61 162 -90 291q-125 -6 -256 -6q-119 0 -261 6q-25 -127 -86 -291q-8 -20 -20 -20h-315q-22 0 -22 17q-1 7 3 16zM369 1571q0 121 62.5 194.5 t172.5 73.5q68 0 117 -30.5t86 -60.5t74 -30q35 0 61.5 28t26.5 73q0 20 18 20q78 0 78 -24q0 -125 -58.5 -200t-154.5 -75q-66 0 -156 65.5t-133 65.5q-41 0 -66.5 -29.5t-25.5 -70.5q0 -23 -25 -23q-77 0 -77 23zM518 537q98 6 193 6q123 0 174 -4q-45 117 -82 245 q-61 205 -98 428q-35 -195 -103 -424q-47 -159 -84 -251z" />
<glyph unicode="&#xc4;" horiz-adv-x="1435" d="M4 33l483 1394q4 18 21 19h405q16 0 25 -19l494 -1394q3 -7 3 -13q0 -5 -2 -10q-5 -10 -20 -10h-340q-14 0 -22 20q-61 162 -90 291q-125 -6 -256 -6q-119 0 -261 6q-25 -127 -86 -291q-8 -20 -20 -20h-315q-22 0 -22 17q-1 7 3 16zM375 1654.5q0 55.5 41 95.5t98 40 q55 0 96 -40t41 -95.5t-41 -92t-96 -36.5q-57 0 -98 36.5t-41 92zM518 537q98 6 193 6q123 0 174 -4q-45 117 -82 245q-61 205 -98 428q-35 -195 -103 -424q-47 -159 -84 -251zM786 1654.5q0 55.5 41 95.5t97 40q57 0 96 -40t39 -95.5t-39 -92t-96 -36.5q-55 0 -96.5 36.5 t-41.5 92z" />
<glyph unicode="&#xc5;" horiz-adv-x="1435" d="M4 33l483 1394q4 18 21 19h405q16 0 25 -19l494 -1394q3 -7 3 -13q0 -5 -2 -10q-5 -10 -20 -10h-340q-14 0 -22 20q-61 162 -90 291q-125 -6 -256 -6q-119 0 -261 6q-25 -127 -86 -291q-8 -20 -20 -20h-315q-22 0 -22 17q-1 7 3 16zM477 1698q0 92 68.5 147.5t171.5 55.5 q104 0 172.5 -55.5t68.5 -147.5q0 -94 -67.5 -144.5t-173.5 -50.5q-104 0 -172 51.5t-68 143.5zM518 537q98 6 193 6q123 0 174 -4q-45 117 -82 245q-61 205 -98 428q-35 -195 -103 -424q-47 -159 -84 -251zM625 1692q0 -39 26.5 -61.5t65.5 -22.5q43 0 67.5 22.5t24.5 61.5 q0 84 -92 84t-92 -84z" />
<glyph unicode="&#xc6;" horiz-adv-x="2101" d="M-86 33l938 1394q14 18 27 19h1091q12 0 15 -19l32 -243q0 -16 -14 -17q-63 0 -226 3.5t-212 3.5q-104 0 -211 8q10 -129 10 -156q0 -96 -10 -168q100 12 250 12q33 0 104.5 2t112.5 2q14 0 14 -18v-235q0 -16 -14 -17q-39 0 -101.5 2t-101.5 2q-166 0 -264 13 q10 -102 10 -179q0 -98 -10 -176q145 8 293 8q68 0 196.5 2.5t188.5 2.5q16 0 14 -19l-33 -244q-4 -16 -14 -16h-979q-18 0 -19 20q0 229 5 287q-117 -6 -246 -6q-117 0 -256 6q-16 -66 -160 -287q-10 -20 -31 -20h-389q-20 0 -20 11q0 8 10 22zM657 532q86 6 172 7 q117 0 179 -4q-6 86 -7 251q0 258 27 428q-59 -170 -207 -426q-88 -150 -164 -256z" />
<glyph unicode="&#xc7;" horiz-adv-x="1394" d="M106 717q0 334 216.5 555t574.5 221q233 0 387 -96q35 -20 35 -72v-244q0 -39 -35 -39q-8 0 -29 13q-168 123 -362 123q-201 0 -302.5 -115t-101.5 -328q0 -225 109 -347t301 -122q217 0 354 107q18 14 29 14q16 0 26.5 -12.5t10.5 -30.5v-197q0 -47 -35 -71 q-119 -82 -338 -99l-106 -96h20q92 0 141.5 -50t49.5 -124q0 -88 -68 -155.5t-186 -67.5q-104 0 -181 18q-12 2 -12 19v102q0 12 14 10q47 -16 101 -16q106 0 106 92q0 86 -82 86q-27 0 -44 -10t-23 -10q-8 0 -21.5 18.5t-13.5 30.5q0 8 6 10l166 141q-330 12 -518.5 226.5 t-188.5 515.5z" />
<glyph unicode="&#xc8;" horiz-adv-x="1273" d="M174 18v1407q0 20 19 21h946q16 0 18 -19l31 -243q4 -16 -14 -17q-63 0 -206 2t-192 2q-131 0 -250 9q10 -92 10.5 -164t-10.5 -158q96 12 250 12q39 0 109.5 2t105.5 2q14 0 15 -18v-235q0 -16 -15 -17q-35 0 -104.5 2t-112.5 2q-137 0 -248 13q10 -98 11 -170 q0 -88 -11 -185q141 8 293 8q66 0 195 2.5t190 2.5q16 0 15 -19l-35 -244q-4 -16 -15 -16h-976q-19 0 -19 18zM397 1868h219q16 0 35 -19l254 -286q4 -5 4 -10q0 -2 -1 -5q-3 -6 -13 -6h-141q-16 0 -33 17l-330 282q-7 5 -6 13q-1 14 12 14z" />
<glyph unicode="&#xc9;" horiz-adv-x="1273" d="M174 18v1407q0 20 19 21h946q16 0 18 -19l31 -243q4 -16 -14 -17q-63 0 -206 2t-192 2q-131 0 -250 9q10 -92 10.5 -164t-10.5 -158q96 12 250 12q39 0 109.5 2t105.5 2q14 0 15 -18v-235q0 -16 -15 -17q-35 0 -104.5 2t-112.5 2q-137 0 -248 13q10 -98 11 -170 q0 -88 -11 -185q141 8 293 8q66 0 195 2.5t190 2.5q16 0 15 -19l-35 -244q-4 -16 -15 -16h-976q-19 0 -19 18zM509 1548q-1 2 -1 5q0 5 4 10l254 286q18 18 35 19h217q15 0 15 -14q0 -8 -7 -13l-332 -282q-12 -16 -30 -17h-142q-10 0 -13 6z" />
<glyph unicode="&#xca;" horiz-adv-x="1273" d="M174 18v1407q0 20 19 21h946q16 0 18 -19l31 -243q4 -16 -14 -17q-63 0 -206 2t-192 2q-131 0 -250 9q10 -92 10.5 -164t-10.5 -158q96 12 250 12q39 0 109.5 2t105.5 2q14 0 15 -18v-235q0 -16 -15 -17q-35 0 -104.5 2t-112.5 2q-137 0 -248 13q10 -98 11 -170 q0 -88 -11 -185q141 8 293 8q66 0 195 2.5t190 2.5q16 0 15 -19l-35 -244q-4 -16 -15 -16h-976q-19 0 -19 18zM360 1561l258 288q14 18 35 19h115q18 0 37 -19l254 -290q3 -3 3 -7q0 -10 -11 -10h-160q-18 0 -35 17l-156 139l-151 -139q-18 -16 -35 -17h-145q-11 0 -11 8 q-1 5 2 11z" />
<glyph unicode="&#xcb;" horiz-adv-x="1273" d="M174 18v1407q0 20 19 21h946q16 0 18 -19l31 -243q4 -16 -14 -17q-63 0 -206 2t-192 2q-131 0 -250 9q10 -92 10.5 -164t-10.5 -158q96 12 250 12q39 0 109.5 2t105.5 2q14 0 15 -18v-235q0 -16 -15 -17q-35 0 -104.5 2t-112.5 2q-137 0 -248 13q10 -98 11 -170 q0 -88 -11 -185q141 8 293 8q66 0 195 2.5t190 2.5q16 0 15 -19l-35 -244q-4 -16 -15 -16h-976q-19 0 -19 18zM352 1654.5q0 55.5 40 95.5t97 40q55 0 96.5 -40t41.5 -95.5t-41 -92t-97 -36.5q-57 0 -97 36.5t-40 92zM764 1654.5q0 55.5 40 95.5t95 40q57 0 97 -40t40 -95.5 t-40 -92t-97 -36.5q-55 0 -95 36.5t-40 92z" />
<glyph unicode="&#xcc;" horiz-adv-x="710" d="M27 1864h217q16 0 35 -19l253 -286q4 -5 5 -10q0 -2 -1 -5q-3 -6 -14 -6h-141q-18 0 -31 16l-332 283q-7 5 -6 13q0 14 15 14zM174 18v1407q0 20 19 21h325q18 0 19 -21v-1407q0 -6 -6.5 -12t-12.5 -6h-325q-19 0 -19 18z" />
<glyph unicode="&#xcd;" horiz-adv-x="710" d="M174 18v1407q0 20 19 21h325q18 0 19 -21v-1407q0 -6 -6.5 -12t-12.5 -6h-325q-19 0 -19 18zM199 1552q0 5 6 11l252 286q18 18 37 19h217q10 0 12 -10v-4q0 -8 -6 -13l-330 -282q-16 -16 -33 -17h-141q-14 0 -14 10z" />
<glyph unicode="&#xce;" horiz-adv-x="710" d="M6 1561l256 288q18 18 37 19h115q18 0 37 -19l254 -290q4 -6 3 -10q0 -7 -12 -7h-159q-18 0 -37 17l-154 139l-151 -139q-18 -16 -37 -17h-144q-12 0 -12 8q0 4 4 11zM174 18v1407q0 20 19 21h325q18 0 19 -21v-1407q0 -6 -6.5 -12t-12.5 -6h-325q-19 0 -19 18z" />
<glyph unicode="&#xcf;" horiz-adv-x="710" d="M12 1654.5q0 55.5 41 95.5t99 40q55 0 95 -40t40 -95.5t-40 -92t-95 -36.5q-57 0 -98.5 36.5t-41.5 92zM174 18v1407q0 20 19 21h325q18 0 19 -21v-1407q0 -6 -6.5 -12t-12.5 -6h-325q-19 0 -19 18zM424 1654.5q0 55.5 41 95.5t96 40q57 0 96 -40t39 -95.5t-39 -92 t-96 -36.5q-55 0 -96 36.5t-41 92z" />
<glyph unicode="&#xd0;" horiz-adv-x="1656" d="M2 635v172q0 16 18 16h70q74 0 125 -6q-10 53 -10 150v458q0 20 18 21h584q358 0 563 -193.5t205 -539.5q0 -344 -203 -528.5t-551 -184.5h-598q-18 0 -18 18v480q0 76 10 127q-72 -6 -131 -7h-64q-18 1 -18 17zM555 627q10 -55 10 -125v-66q0 -88 -8 -160q115 8 223 9 q199 0 306.5 111.5t107.5 324.5q0 205 -107.5 322.5t-330.5 117.5q-109 0 -201 6q10 -78 10 -155v-68q0 -70 -8 -127q55 6 152 6h96q18 0 18 -16v-172q0 -4 -6 -10.5t-12 -6.5h-98q-97 1 -152 9z" />
<glyph unicode="&#xd1;" horiz-adv-x="1687" d="M174 18v1407q0 20 19 21h466q25 0 31 -21l365 -723q92 -209 149 -444q-23 270 -22 530v637q0 20 18 21h295q18 0 18 -21v-1407q0 -6 -6 -12t-12 -6h-442q-18 0 -25 16l-399 803q-82 193 -137 391q16 -283 16 -471v-721q0 -18 -16 -18h-299q-19 0 -19 18zM526 1571 q0 121 61.5 194.5t174.5 73.5q68 0 117 -30.5t85.5 -60.5t73.5 -30q35 0 61.5 28t26.5 73q0 20 19 20q78 0 78 -24q0 -125 -58.5 -200t-154.5 -75q-66 0 -156 65.5t-133 65.5q-41 0 -66.5 -29.5t-25.5 -70.5q0 -23 -25 -23q-78 0 -78 23z" />
<glyph unicode="&#xd2;" horiz-adv-x="1724" d="M106 743q0 334 219.5 542t536.5 208q319 0 537.5 -207t218.5 -543q0 -342 -214 -556t-542 -214q-324 0 -540 215t-216 555zM508 745q0 -229 90 -354t264 -125q354 0 355 479q0 453 -353 453q-178 0 -267 -111t-89 -342zM592 1868h217q16 0 35 -19l254 -286q5 -5 5 -10 q0 -2 -1 -5q-4 -6 -15 -6h-139q-20 0 -33 17l-331 282q-5 5 -6 14q1 13 14 13z" />
<glyph unicode="&#xd3;" horiz-adv-x="1724" d="M106 743q0 334 219.5 542t536.5 208q319 0 537.5 -207t218.5 -543q0 -342 -214 -556t-542 -214q-324 0 -540 215t-216 555zM508 745q0 -229 90 -354t264 -125q354 0 355 479q0 453 -353 453q-178 0 -267 -111t-89 -342zM635 1552q0 5 6 11l254 286q18 18 35 19h217 q10 0 12 -10q1 -3 1 -5q0 -7 -5 -12l-332 -282q-16 -16 -32 -17h-142q-14 0 -14 10z" />
<glyph unicode="&#xd4;" horiz-adv-x="1724" d="M106 743q0 334 219.5 542t536.5 208q319 0 537.5 -207t218.5 -543q0 -342 -214 -556t-542 -214q-324 0 -540 215t-216 555zM508 745q0 -229 90 -354t264 -125q354 0 355 479q0 453 -353 453q-178 0 -267 -111t-89 -342zM511 1551q0 5 3 10l256 288q14 18 37 19h113 q18 0 36 -19l256 -290q2 -2 3 -6q0 -2 -2 -5q-3 -6 -11 -6h-160q-16 0 -34 17l-156 139l-152 -139q-16 -16 -34 -17h-146q-9 0 -9 9z" />
<glyph unicode="&#xd5;" horiz-adv-x="1724" d="M106 743q0 334 219.5 542t536.5 208q319 0 537.5 -207t218.5 -543q0 -342 -214 -556t-542 -214q-324 0 -540 215t-216 555zM508 745q0 -229 90 -354t264 -125q354 0 355 479q0 453 -353 453q-178 0 -267 -111t-89 -342zM514 1571q0 121 61.5 194.5t172.5 73.5 q68 0 117.5 -30.5t86.5 -60.5t74 -30q35 0 61.5 28t26.5 73q0 20 19 20q78 0 77 -24q0 -125 -58 -200t-155 -75q-66 0 -155.5 65.5t-132.5 65.5q-41 0 -67 -29.5t-26 -70.5q0 -23 -24 -23q-78 0 -78 23z" />
<glyph unicode="&#xd6;" horiz-adv-x="1724" d="M106 743q0 334 219.5 542t536.5 208q319 0 537.5 -207t218.5 -543q0 -342 -214 -556t-542 -214q-324 0 -540 215t-216 555zM508 745q0 -229 90 -354t264 -125q354 0 355 479q0 453 -353 453q-178 0 -267 -111t-89 -342zM520 1654.5q0 55.5 40 95.5t97 40q55 0 96.5 -40 t41.5 -95.5t-41 -92t-97 -36.5q-57 0 -97 36.5t-40 92zM932 1654.5q0 55.5 40 95.5t95 40q57 0 97 -40t40 -95.5t-40 -92t-97 -36.5q-55 0 -95 36.5t-40 92z" />
<glyph unicode="&#xd7;" horiz-adv-x="1062" d="M86 802q0 9 6 15l170 170q6 6 13 6t14 -6l127 -125q88 -88 119 -127q37 47 100 111l145 143q2 4 12.5 4t14.5 -6l156 -156q6 -6 6 -12.5t-6 -13.5l-146 -146q-68 -68 -108 -100q27 -14 106 -98l148 -146q6 -7 6 -13.5t-6 -12.5l-172 -170q-8 -10 -15 -10q-6 0 -12 8 l-148 147q-59 59 -94 109q-66 -74 -98 -107l-152 -151q-4 -4 -13 -4t-11 4l-158 157q-7 7 -7 14t7 13l154 156q80 76 102 94q-43 31 -129 113l-127 129q-4 2 -4 11z" />
<glyph unicode="&#xd8;" horiz-adv-x="1724" d="M33 10q0 6 2 8l229 240q-160 203 -160 485q0 332 219.5 541t534.5 209q242 0 440 -135l64 67q20 20 43 21h268q20 0 21 -14q0 -4 -8 -17l-209 -225q139 -184 139 -447q0 -342 -214 -556t-544 -214q-227 0 -416 121l-73 -76q-18 -18 -37 -18h-285q-14 0 -14 10zM506 782 q0 -156 41 -241l545 585q-90 74 -232 74q-172 0 -263 -105.5t-91 -312.5zM647 330q88 -68 211 -68q176 0 267.5 113.5t91.5 318.5q0 125 -33 207z" />
<glyph unicode="&#xd9;" horiz-adv-x="1615" d="M150 473v952q0 20 18 21h330q18 0 18 -21v-882q0 -117 80 -180.5t217 -63.5q133 0 214 63.5t81 180.5v882q0 20 18 21h320q18 0 18 -21v-948q0 -236 -185 -370t-466 -134q-178 0 -324.5 51.5t-242.5 168t-96 280.5zM514 1868h217q18 0 37 -19l252 -286q6 -6 6 -11 q0 -2 -1 -4q-3 -6 -13 -6h-142q-16 0 -32 17l-330 282q-7 5 -7 13q0 14 13 14z" />
<glyph unicode="&#xda;" horiz-adv-x="1615" d="M150 473v952q0 20 18 21h330q18 0 18 -21v-882q0 -117 80 -180.5t217 -63.5q133 0 214 63.5t81 180.5v882q0 20 18 21h320q18 0 18 -21v-948q0 -236 -185 -370t-466 -134q-178 0 -324.5 51.5t-242.5 168t-96 280.5zM609 1548q-1 2 -1 5q0 5 4 10l254 286q18 18 35 19h219 q13 0 13 -14q0 -8 -7 -13l-329 -282q-16 -16 -33 -17h-141q-11 0 -14 6z" />
<glyph unicode="&#xdb;" horiz-adv-x="1615" d="M150 473v952q0 20 18 21h330q18 0 18 -21v-882q0 -117 80 -180.5t217 -63.5q133 0 214 63.5t81 180.5v882q0 20 18 21h320q18 0 18 -21v-948q0 -236 -185 -370t-466 -134q-178 0 -324.5 51.5t-242.5 168t-96 280.5zM455 1551q0 5 4 10l256 288q14 18 37 19h112 q18 0 37 -19l256 -290q2 -2 2 -6q0 -2 -1 -5q-3 -6 -11 -6h-158q-18 0 -37 17l-155 139l-150 -139q-18 -16 -37 -17h-145q-10 0 -10 9z" />
<glyph unicode="&#xdc;" horiz-adv-x="1615" d="M150 473v952q0 20 18 21h330q18 0 18 -21v-882q0 -117 80 -180.5t217 -63.5q133 0 214 63.5t81 180.5v882q0 20 18 21h320q18 0 18 -21v-948q0 -236 -185 -370t-466 -134q-178 0 -324.5 51.5t-242.5 168t-96 280.5zM465 1661q0 57 41 97t96 40t96 -40t41 -97 q0 -55 -40 -91t-97 -36t-97 36t-40 91zM877 1661q0 57 39.5 97t95.5 40q57 0 97 -40t40 -97q0 -55 -40 -91t-97 -36q-55 0 -95 36t-40 91z" />
<glyph unicode="&#xdd;" horiz-adv-x="1486" d="M-45 1426.5q0 7.5 5 13.5t17 6h367q20 0 41 -27l176 -243q123 -188 182 -345q80 182 193 343l180 243q20 29 47 29h338q16 0 21 -10q1 -3 1 -7q0 -8 -7 -18l-596 -825v-568q0 -6 -6.5 -12t-12.5 -6h-326q-18 0 -18 18v568l-596 825q-6 8 -6 15.5zM581 1548q-1 2 -1 5 q0 5 4 10l254 286q18 18 34 19h220q13 0 12 -14q0 -8 -6 -13l-330 -282q-16 -16 -33 -17h-141q-10 0 -13 6z" />
<glyph unicode="&#xde;" horiz-adv-x="1370" d="M174 18v1407q0 20 19 21h325q18 0 19 -21q0 -90 -7 -182h218q256 0 398 -133t142 -332q0 -240 -148.5 -369.5t-414.5 -129.5q-47 0 -117.5 5t-81.5 5q10 -143 11 -271q0 -6 -6.5 -12t-12.5 -6h-325q-19 0 -19 18zM530 532q135 6 144 7q121 0 181 51t60 170 q0 225 -217 225q-84 0 -168 6q6 -90 7 -225q-1 -132 -7 -234z" />
<glyph unicode="&#xdf;" horiz-adv-x="1257" d="M45 782v199q0 16 12 16q70 0 136 -10q-8 39 -9 98q0 164 130 272.5t399 108.5q236 0 361.5 -93t125.5 -230q0 -82 -44 -142.5t-96 -88t-96 -65.5t-44 -79q0 -33 27.5 -67.5t94.5 -96.5q90 -82 129 -155.5t39 -167.5q0 -143 -100 -222t-272 -79q-135 0 -199 47t-64 116 q0 49 29 81t78 32q43 0 84 -34t84 -34q39 0 61.5 24t22.5 62q0 82 -160 207q-154 121 -153 238q0 66 37.5 120t81.5 85.5t82 74.5t38 88q0 139 -160 140q-203 0 -202 -189v-1020q0 -6 -6.5 -12t-12.5 -6h-280q-18 0 -19 18v506q0 152 13 252q-82 -8 -136 -8q-12 0 -12 14z " />
<glyph unicode="&#xe0;" horiz-adv-x="1077" d="M72 233q0 164 153.5 271.5t423.5 130.5v61q0 113 -141 113q-113 0 -158 -72q-43 -61 -106 -61q-55 0 -95 33.5t-40 95.5q0 84 101 156.5t322 72.5q238 0 331 -87t93 -247q0 -68 -5 -205t-5 -188q0 -88 17.5 -156.5t35.5 -87.5q16 -16 17 -36q0 -27 -29 -27h-158 q-47 0 -65 45q-41 84 -43 191q-76 -262 -361 -263q-131 0 -209.5 69.5t-78.5 190.5zM276 1446h228q20 0 35 -21l233 -282q7 -9 7 -17q0 -3 -1 -7q-4 -11 -20 -11h-125q-29 0 -53 25l-314 284q-4 5 -4 12q0 17 14 17zM360 293q0 -45 28 -69.5t73 -24.5q82 0 135 62.5 t53 144.5v67q-143 -12 -216 -61t-73 -119z" />
<glyph unicode="&#xe1;" horiz-adv-x="1077" d="M72 233q0 164 153.5 271.5t423.5 130.5v61q0 113 -141 113q-113 0 -158 -72q-43 -61 -106 -61q-55 0 -95 33.5t-40 95.5q0 84 101 156.5t322 72.5q238 0 331 -87t93 -247q0 -68 -5 -205t-5 -188q0 -88 17.5 -156.5t35.5 -87.5q16 -16 17 -36q0 -27 -29 -27h-158 q-47 0 -65 45q-41 84 -43 191q-76 -262 -361 -263q-131 0 -209.5 69.5t-78.5 190.5zM352 1119q-1 3 -1 7q0 8 7 17l234 282q14 20 35 21h227q14 0 14 -16q0 -7 -6 -13l-311 -284q-25 -25 -53 -25h-125q-17 0 -21 11zM360 293q0 -45 28 -69.5t73 -24.5q82 0 135 62.5 t53 144.5v67q-143 -12 -216 -61t-73 -119z" />
<glyph unicode="&#xe2;" horiz-adv-x="1077" d="M72 233q0 164 153.5 271.5t423.5 130.5v61q0 113 -141 113q-113 0 -158 -72q-43 -61 -106 -61q-55 0 -95 33.5t-40 95.5q0 84 101 156.5t322 72.5q238 0 331 -87t93 -247q0 -68 -5 -205t-5 -188q0 -88 17.5 -156.5t35.5 -87.5q16 -16 17 -36q0 -27 -29 -27h-158 q-47 0 -65 45q-41 84 -43 191q-76 -262 -361 -263q-131 0 -209.5 69.5t-78.5 190.5zM184 1120q0 4 2 6l256 299q16 20 37 21h127q23 0 39 -21l254 -299q2 -2 2 -5t-1 -6q-3 -7 -11 -7h-162q-20 0 -39 18l-156 146l-151 -146q-18 -18 -39 -18h-147q-11 0 -11 12zM360 293 q0 -45 28 -69.5t73 -24.5q82 0 135 62.5t53 144.5v67q-143 -12 -216 -61t-73 -119z" />
<glyph unicode="&#xe3;" horiz-adv-x="1077" d="M72 233q0 164 153.5 271.5t423.5 130.5v61q0 113 -141 113q-113 0 -158 -72q-43 -61 -106 -61q-55 0 -95 33.5t-40 95.5q0 84 101 156.5t322 72.5q238 0 331 -87t93 -247q0 -68 -5 -205t-5 -188q0 -88 17.5 -156.5t35.5 -87.5q16 -16 17 -36q0 -27 -29 -27h-158 q-47 0 -65 45q-41 84 -43 191q-76 -262 -361 -263q-131 0 -209.5 69.5t-78.5 190.5zM221 1153q0 131 60.5 210t169.5 79q63 0 110 -33t83 -64.5t71 -31.5q33 0 58.5 30.5t25.5 79.5q0 20 18 21q76 0 76 -25q0 -137 -56.5 -218t-150.5 -81q-63 0 -149 71t-127 71 q-39 0 -65 -34t-26 -75q0 -25 -22 -25q-20 0 -48 7.5t-28 17.5zM360 293q0 -45 28 -69.5t73 -24.5q82 0 135 62.5t53 144.5v67q-143 -12 -216 -61t-73 -119z" />
<glyph unicode="&#xe4;" horiz-adv-x="1077" d="M72 233q0 164 153.5 271.5t423.5 130.5v61q0 113 -141 113q-113 0 -158 -72q-43 -61 -106 -61q-55 0 -95 33.5t-40 95.5q0 84 101 156.5t322 72.5q238 0 331 -87t93 -247q0 -68 -5 -205t-5 -188q0 -88 17.5 -156.5t35.5 -87.5q16 -16 17 -36q0 -27 -29 -27h-158 q-47 0 -65 45q-41 84 -43 191q-76 -262 -361 -263q-131 0 -209.5 69.5t-78.5 190.5zM211 1272q0 55 41 95t96 40t95 -40t40 -95q0 -57 -40 -97t-95 -40t-96 40t-41 97zM360 293q0 -45 28 -69.5t73 -24.5q82 0 135 62.5t53 144.5v67q-143 -12 -216 -61t-73 -119zM612 1272 q0 55 40 95t96 40q57 0 97 -40t40 -95q0 -57 -40 -97t-97 -40q-55 0 -95.5 40t-40.5 97z" />
<glyph unicode="&#xe5;" horiz-adv-x="1077" d="M72 233q0 164 153.5 271.5t423.5 130.5v61q0 113 -141 113q-113 0 -158 -72q-43 -61 -106 -61q-55 0 -95 33.5t-40 95.5q0 84 101 156.5t322 72.5q238 0 331 -87t93 -247q0 -68 -5 -205t-5 -188q0 -88 17.5 -156.5t35.5 -87.5q16 -16 17 -36q0 -27 -29 -27h-158 q-47 0 -65 45q-41 84 -43 191q-76 -262 -361 -263q-131 0 -209.5 69.5t-78.5 190.5zM313 1282q0 94 71 150.5t171 56.5t170 -56.5t70 -150.5t-69 -147.5t-171 -53.5t-172 53.5t-70 147.5zM360 293q0 -45 28 -69.5t73 -24.5q82 0 135 62.5t53 144.5v67q-143 -12 -216 -61 t-73 -119zM467 1276q0 -37 25.5 -63.5t62.5 -26.5q39 0 64.5 26.5t25.5 63.5q0 39 -24.5 62.5t-65.5 23.5q-39 0 -63.5 -23.5t-24.5 -62.5z" />
<glyph unicode="&#xe6;" horiz-adv-x="1603" d="M72 233q0 164 153.5 271.5t421.5 128.5v63q0 113 -141 113q-111 0 -156 -72q-37 -63 -102 -63q-57 0 -98 34.5t-41 94.5q0 88 96 159.5t317 71.5q104 0 185 -41t114 -102q129 143 334 143q211 0 310.5 -115.5t99.5 -318.5q0 -98 -72 -98h-555q-4 -14 -4 -58 q0 -90 70.5 -153.5t193.5 -63.5q137 0 238 80q12 12 28 12q20 0 21 -28v-174q0 -35 -19 -54q-104 -90 -331 -90q-311 0 -412 275q-29 -131 -124 -203t-241 -72q-131 0 -208.5 69.5t-77.5 190.5zM360 293q0 -45 28 -69.5t71 -24.5q84 0 136 60t52 142v74q-141 -14 -214 -63 t-73 -119zM952 678h355q0 74 -41 115t-119 41q-154 0 -195 -156z" />
<glyph unicode="&#xe7;" horiz-adv-x="950" d="M63 494q0 209 154 374.5t418 165.5q143 0 233 -63q63 -43 64 -115q0 -63 -35 -102t-86 -39q-41 0 -72 22q-59 35 -121 35q-115 0 -177 -80t-62 -196q0 -135 78 -205t184 -70q129 0 211 76q8 8 20 8q25 0 25 -33v-159q0 -37 -25 -58q-84 -70 -221 -80l-104 -94h20 q94 0 143.5 -50t49.5 -124q0 -88 -67.5 -155.5t-186.5 -67.5q-102 0 -182 18q-12 2 -13 19v102q0 12 15 10q49 -16 102 -16q104 0 104 92q0 86 -79 86q-29 0 -46.5 -10t-23.5 -10q-8 0 -20.5 18.5t-12.5 30.5q0 6 4 10l170 143q-215 25 -338 171.5t-123 345.5z" />
<glyph unicode="&#xe8;" horiz-adv-x="1042" d="M63 504q0 211 143.5 370.5t381.5 159.5q213 0 313 -115.5t100 -318.5q0 -98 -71 -98h-555q-4 -25 -4 -51q0 -94 70.5 -159t193.5 -65q137 0 239 80q12 12 27 12q20 0 21 -28v-174q0 -39 -19 -54q-39 -35 -126 -62.5t-204 -27.5q-240 0 -375 153t-135 378zM287 1446h227 q18 0 35 -21l233 -282q7 -9 8 -17q0 -3 -2 -7q-4 -11 -20 -11h-125q-29 0 -53 25l-314 284q-4 5 -4 12q1 17 15 17zM391 678h352q0 156 -157 156q-76 0 -126.5 -42t-68.5 -114z" />
<glyph unicode="&#xe9;" horiz-adv-x="1042" d="M63 504q0 211 143.5 370.5t381.5 159.5q213 0 313 -115.5t100 -318.5q0 -98 -71 -98h-555q-4 -25 -4 -51q0 -94 70.5 -159t193.5 -65q137 0 239 80q12 12 27 12q20 0 21 -28v-174q0 -39 -19 -54q-39 -35 -126 -62.5t-204 -27.5q-240 0 -375 153t-135 378zM365 1119 q-1 3 -2 7q0 8 8 17l233 282q14 20 35 21h227q14 0 14 -16q0 -7 -6 -13l-311 -284q-25 -25 -53 -25h-125q-16 0 -20 11zM391 678h352q0 156 -157 156q-76 0 -126.5 -42t-68.5 -114z" />
<glyph unicode="&#xea;" horiz-adv-x="1042" d="M63 504q0 211 143.5 370.5t381.5 159.5q213 0 313 -115.5t100 -318.5q0 -98 -71 -98h-555q-4 -25 -4 -51q0 -94 70.5 -159t193.5 -65q137 0 239 80q12 12 27 12q20 0 21 -28v-174q0 -39 -19 -54q-39 -35 -126 -62.5t-204 -27.5q-240 0 -375 153t-135 378zM227 1120 q0 4 2 6l256 299q14 20 37 21h127q23 0 39 -21l254 -299q2 -2 2 -5t-1 -6q-3 -7 -11 -7h-162q-20 0 -39 18l-156 146l-151 -146q-18 -18 -39 -18h-147q-11 0 -11 12zM391 678h352q0 156 -157 156q-76 0 -126.5 -42t-68.5 -114z" />
<glyph unicode="&#xeb;" horiz-adv-x="1042" d="M63 504q0 211 143.5 370.5t381.5 159.5q213 0 313 -115.5t100 -318.5q0 -98 -71 -98h-555q-4 -25 -4 -51q0 -94 70.5 -159t193.5 -65q137 0 239 80q12 12 27 12q20 0 21 -28v-174q0 -39 -19 -54q-39 -35 -126 -62.5t-204 -27.5q-240 0 -375 153t-135 378zM254 1272 q0 55 41 95t96 40t95 -40t40 -95q0 -57 -40 -97t-95 -40t-96 40t-41 97zM391 678h352q0 156 -157 156q-76 0 -126.5 -42t-68.5 -114zM655 1272q0 55 40 95t96 40q57 0 97 -40t40 -95q0 -57 -40 -97t-97 -40q-55 0 -95.5 40t-40.5 97z" />
<glyph unicode="&#xec;" horiz-adv-x="555" d="M0 1446h227q18 0 35 -21l234 -282q7 -9 7 -17q0 -3 -1 -7q-4 -11 -21 -11h-125q-29 0 -53 25l-313 284q-4 5 -4 12q0 17 14 17zM119 18v959q0 20 18 20h283q18 0 18 -20v-959q0 -6 -6 -12t-12 -6h-283q-18 0 -18 18z" />
<glyph unicode="&#xed;" horiz-adv-x="555" d="M55 1119q-1 3 -1 7q0 8 7 17l234 282q16 20 35 21h227q14 0 14 -16q0 -7 -6 -13l-311 -284q-25 -25 -53 -25h-125q-17 0 -21 11zM119 18v959q0 20 18 20h283q18 0 18 -20v-959q0 -6 -6 -12t-12 -6h-283q-18 0 -18 18z" />
<glyph unicode="&#xee;" horiz-adv-x="555" d="M-81 1120q0 4 3 6l256 299q14 20 37 21h127q23 0 39 -21l254 -299q2 -2 2 -5t-1 -6q-3 -7 -11 -7h-162q-20 0 -39 18l-156 146l-151 -146q-18 -18 -39 -18h-148q-11 0 -11 12zM119 18v959q0 20 18 20h283q18 0 18 -20v-959q0 -6 -6 -12t-12 -6h-283q-18 0 -18 18z" />
<glyph unicode="&#xef;" horiz-adv-x="555" d="M-57 1272q0 55 41 95t96 40t95 -40t40 -95q0 -57 -40 -97t-95 -40t-96 40t-41 97zM119 18v959q0 20 18 20h283q18 0 18 -20v-959q0 -6 -6 -12t-12 -6h-283q-18 0 -18 18zM344 1272q0 55 40 95t95 40q57 0 97 -40t40 -95q0 -57 -39.5 -97t-97.5 -40q-55 0 -95 40t-40 97z " />
<glyph unicode="&#xf0;" horiz-adv-x="1243" d="M90 485q0 248 113.5 366t290.5 118q125 0 217 -56.5t131 -146.5q-8 88 -37 183t-66 153l-202 -53q-16 -4 -23 8l-43 92q-10 20 14 27l125 30q-61 51 -129 51q-90 0 -153.5 -39.5t-102.5 -39.5q-51 0 -82.5 34.5t-31.5 92.5q0 188 311 188q303 0 489 -199l158 45 q16 4 23 -12l41 -100q12 -16 -17 -23l-112 -30q139 -221 139 -564q0 -289 -142.5 -462t-392.5 -173q-233 0 -375.5 141.5t-142.5 368.5zM424 467q0 -270 190 -270q88 0 138.5 77.5t50.5 221.5q0 139 -45 206.5t-156 67.5q-178 0 -178 -303z" />
<glyph unicode="&#xf1;" horiz-adv-x="1208" d="M104 979q0 18 17 18h233q14 0 19 -18q18 -111 18 -217q43 125 151.5 198.5t237.5 73.5q139 0 229.5 -91t90.5 -265v-660q0 -6 -6.5 -12t-12.5 -6h-280q-18 0 -19 18v562q0 201 -141 200q-88 0 -143.5 -64.5t-55.5 -180.5v-517q0 -6 -6 -12t-12 -6h-283q-18 0 -18 18v707 q0 66 -4 125t-9.5 93t-5.5 36zM268 1153q0 131 60.5 210t169.5 79q63 0 110 -33t83 -64.5t71 -31.5q33 0 58.5 30.5t25.5 79.5q0 20 18 21q76 0 76 -25q0 -137 -56.5 -218t-150.5 -81q-63 0 -149 71t-127 71q-39 0 -64.5 -34t-25.5 -75q0 -25 -23 -25q-20 0 -48 7.5 t-28 17.5z" />
<glyph unicode="&#xf2;" horiz-adv-x="1179" d="M63 508q0 100 33 193.5t96.5 168t167 119.5t232.5 45q254 0 389 -155.5t135 -370.5q0 -217 -135 -376t-389 -159q-252 0 -390.5 159t-138.5 376zM303 1446h227q18 0 35 -21l234 -282q7 -9 7 -17q0 -3 -1 -7q-4 -11 -21 -11h-125q-29 0 -53 25l-313 284q-4 5 -4 12 q0 17 14 17zM395 504q0 -154 45 -228.5t152 -74.5q104 0 148 75.5t44 227.5q0 150 -45 222.5t-147 72.5q-109 0 -153 -72.5t-44 -222.5z" />
<glyph unicode="&#xf3;" horiz-adv-x="1179" d="M63 508q0 100 33 193.5t96.5 168t167 119.5t232.5 45q254 0 389 -155.5t135 -370.5q0 -217 -135 -376t-389 -159q-252 0 -390.5 159t-138.5 376zM369 1119q-1 3 -2 7q0 8 8 17l233 282q14 20 35 21h227q14 0 15 -16q0 -7 -6 -13l-312 -284q-25 -25 -53 -25h-125 q-16 0 -20 11zM395 504q0 -154 45 -228.5t152 -74.5q104 0 148 75.5t44 227.5q0 150 -45 222.5t-147 72.5q-109 0 -153 -72.5t-44 -222.5z" />
<glyph unicode="&#xf4;" horiz-adv-x="1179" d="M63 508q0 100 33 193.5t96.5 168t167 119.5t232.5 45q254 0 389 -155.5t135 -370.5q0 -217 -135 -376t-389 -159q-252 0 -390.5 159t-138.5 376zM231 1120q0 4 2 6l256 299q14 20 37 21h127q23 0 39 -21l254 -299q2 -2 3 -5q0 -3 -2 -6q-3 -7 -11 -7h-162q-20 0 -39 18 l-155 146l-152 -146q-18 -18 -39 -18h-147q-11 0 -11 12zM395 504q0 -154 45 -228.5t152 -74.5q104 0 148 75.5t44 227.5q0 150 -45 222.5t-147 72.5q-109 0 -153 -72.5t-44 -222.5z" />
<glyph unicode="&#xf5;" horiz-adv-x="1179" d="M63 508q0 100 33 193.5t96.5 168t167 119.5t232.5 45q254 0 389 -155.5t135 -370.5q0 -217 -135 -376t-389 -159q-252 0 -390.5 159t-138.5 376zM254 1153q0 131 60.5 210t168.5 79q63 0 110.5 -33t83.5 -64.5t71 -31.5q33 0 58 30.5t25 79.5q0 20 19 21q76 0 76 -25 q0 -137 -56.5 -218t-150.5 -81q-63 0 -149.5 71t-127.5 71q-39 0 -64.5 -34t-25.5 -75q0 -25 -22 -25q-20 0 -48 7.5t-28 17.5zM395 504q0 -154 45 -228.5t152 -74.5q104 0 148 75.5t44 227.5q0 150 -45 222.5t-147 72.5q-109 0 -153 -72.5t-44 -222.5z" />
<glyph unicode="&#xf6;" horiz-adv-x="1179" d="M63 508q0 100 33 193.5t96.5 168t167 119.5t232.5 45q254 0 389 -155.5t135 -370.5q0 -217 -135 -376t-389 -159q-252 0 -390.5 159t-138.5 376zM252 1272q0 55 41 95t96 40t95 -40t40 -95q0 -57 -40 -97t-95 -40t-96 40t-41 97zM395 504q0 -154 45 -228.5t152 -74.5 q104 0 148 75.5t44 227.5q0 150 -45 222.5t-147 72.5q-109 0 -153 -72.5t-44 -222.5zM653 1272q0 55 40 95t95 40q57 0 97.5 -40t40.5 -95q0 -57 -40 -97t-98 -40q-55 0 -95 40t-40 97z" />
<glyph unicode="&#xf7;" horiz-adv-x="1062" d="M86 469v205q0 20 18 20h850q18 0 19 -20v-205q0 -6 -6 -12t-13 -6h-850q-18 0 -18 18zM395 213q0 55 40 96t95.5 41t97.5 -41t42 -96q0 -57 -42 -98t-97.5 -41t-95.5 41t-40 98zM395 934q0 55 40 96t95.5 41t97.5 -41t42 -96q0 -57 -42 -99t-97.5 -42t-95.5 42t-40 99z " />
<glyph unicode="&#xf8;" horiz-adv-x="1179" d="M31 18l145 148q-113 143 -113 344q0 137 55.5 253t178.5 193.5t295 77.5q184 0 313 -96l39 39q20 20 41 20h148q26 0 25 -11q0 -7 -9 -17l-131 -138q98 -137 98 -321q0 -217 -135 -376t-389 -159q-176 0 -303 91l-43 -48q-14 -18 -37 -18h-166q-16 0 -16 8q0 4 4 10z M393 510q0 -57 17 -98l321 333q-47 55 -139 56q-106 0 -152.5 -72t-46.5 -219zM455 250q49 -53 137 -53q197 0 196 303q0 47 -16 82z" />
<glyph unicode="&#xf9;" horiz-adv-x="1208" d="M106 330v649q0 6 6.5 12t12.5 6h283q18 0 18 -18v-549q0 -203 141 -203q90 0 144.5 60.5t54.5 175.5v516q0 6 6 12t12 6h283q18 0 18 -18v-705q0 -68 4.5 -127t9.5 -93t5 -36q0 -18 -17 -18h-235q-14 0 -18 18q-16 98 -17 218q-45 -125 -151.5 -193t-237.5 -68 q-139 0 -230.5 90.5t-91.5 264.5zM324 1446h227q18 0 35 -21l233 -282q7 -9 8 -17q0 -3 -2 -7q-4 -11 -20 -11h-125q-29 0 -53 25l-314 284q-4 5 -4 12q1 17 15 17z" />
<glyph unicode="&#xfa;" horiz-adv-x="1208" d="M106 330v649q0 6 6.5 12t12.5 6h283q18 0 18 -18v-549q0 -203 141 -203q90 0 144.5 60.5t54.5 175.5v516q0 6 6 12t12 6h283q18 0 18 -18v-705q0 -68 4.5 -127t9.5 -93t5 -36q0 -18 -17 -18h-235q-14 0 -18 18q-16 98 -17 218q-45 -125 -151.5 -193t-237.5 -68 q-139 0 -230.5 90.5t-91.5 264.5zM416 1119q-1 3 -1 7q0 8 7 17l233 282q16 20 35 21h228q14 0 14 -16q0 -7 -6 -13l-312 -284q-25 -25 -53 -25h-125q-16 0 -20 11z" />
<glyph unicode="&#xfb;" horiz-adv-x="1208" d="M106 330v649q0 6 6.5 12t12.5 6h283q18 0 18 -18v-549q0 -203 141 -203q90 0 144.5 60.5t54.5 175.5v516q0 6 6 12t12 6h283q18 0 18 -18v-705q0 -68 4.5 -127t9.5 -93t5 -36q0 -18 -17 -18h-235q-14 0 -18 18q-16 98 -17 218q-45 -125 -151.5 -193t-237.5 -68 q-139 0 -230.5 90.5t-91.5 264.5zM247 1120q0 4 3 6l256 299q14 20 37 21h127q23 0 39 -21l254 -299q2 -2 2 -5t-1 -6q-3 -7 -12 -7h-161q-20 0 -39 18l-156 146l-152 -146q-18 -18 -38 -18h-148q-11 0 -11 12z" />
<glyph unicode="&#xfc;" horiz-adv-x="1208" d="M106 330v649q0 6 6.5 12t12.5 6h283q18 0 18 -18v-549q0 -203 141 -203q90 0 144.5 60.5t54.5 175.5v516q0 6 6 12t12 6h283q18 0 18 -18v-705q0 -68 4.5 -127t9.5 -93t5 -36q0 -18 -17 -18h-235q-14 0 -18 18q-16 98 -17 218q-45 -125 -151.5 -193t-237.5 -68 q-139 0 -230.5 90.5t-91.5 264.5zM268 1272q0 55 41 95t96.5 40t95.5 -40t40 -95q0 -57 -40 -97t-95.5 -40t-96.5 40t-41 97zM670 1272q0 55 40 95t95 40q57 0 97 -40t40 -95q0 -57 -40 -97t-97 -40q-55 0 -95 40t-40 97z" />
<glyph unicode="&#xfd;" horiz-adv-x="1048" d="M-16 969q-5 10 -5 16q0 13 19 12h299q16 0 20 -16l148 -502q49 -188 65 -280q18 106 68 282l152 500q4 16 20 16h281q17 0 17 -13q0 -6 -3 -13l-373 -1039q-78 -213 -185.5 -293.5t-268.5 -80.5q-121 0 -189 28q-18 8 -18 56v178q0 33 26 33q12 0 25 -11q59 -35 111 -35 q135 0 176 160zM328 1119q-1 3 -1 7q0 8 7 17l233 282q14 20 35 21h227q14 0 15 -16q0 -7 -6 -13l-312 -284q-25 -25 -53 -25h-125q-16 0 -20 11z" />
<glyph unicode="&#xfe;" horiz-adv-x="1220" d="M125 -399v1824q0 20 18 21h281q18 0 18 -21l-43 -616q90 225 322 225q203 0 320.5 -156.5t117.5 -367.5t-117.5 -374t-320.5 -163q-115 0 -184.5 44t-108.5 143q14 -225 14 -559q0 -20 -18 -21h-281q-18 1 -18 21zM442 389q0 -201 179 -201q207 0 206 318q0 166 -52 232 q-53 65 -157 65q-176 0 -176 -238v-176z" />
<glyph unicode="&#xff;" horiz-adv-x="1048" d="M-16 969q-5 10 -5 16q0 13 19 12h299q16 0 20 -16l148 -502q49 -188 65 -280q18 106 68 282l152 500q4 16 20 16h281q17 0 17 -13q0 -6 -3 -13l-373 -1039q-78 -213 -185.5 -293.5t-268.5 -80.5q-121 0 -189 28q-18 8 -18 56v178q0 33 26 33q12 0 25 -11q59 -35 111 -35 q135 0 176 160zM201 1272q0 55 41 95t96 40t95 -40t40 -95q0 -57 -40 -97t-95 -40t-96 40t-41 97zM602 1272q0 55 40 95t95 40q57 0 97.5 -40t40.5 -95q0 -57 -40 -97t-98 -40q-55 0 -95 40t-40 97z" />
<glyph unicode="&#x152;" horiz-adv-x="2316" d="M106 743q0 332 220.5 541t535.5 209q143 0 279 -47h1044q10 0 15 -19l30 -243q4 -16 -12 -17q-63 0 -200.5 2t-188.5 2q-233 0 -363 15q119 -135 142 -324q76 8 217 8q37 0 106.5 2t104.5 2q12 0 12 -18v-235q0 -16 -12 -17q-33 0 -94.5 2t-104.5 2q-104 0 -231 10 q-23 -231 -160 -358q172 14 405 14q66 0 201 2.5t195 2.5q18 0 14 -19l-35 -244q-4 -16 -14 -16h-1137q-100 -27 -213 -27q-322 0 -539 215t-217 555zM508 745q0 -229 90 -354t264 -125q354 0 355 479q0 453 -353 453q-178 0 -267 -111t-89 -342z" />
<glyph unicode="&#x153;" horiz-adv-x="1746" d="M63 508q0 100 33 193.5t96.5 168t167 119.5t232.5 45q229 0 352 -149q133 150 348 149q213 0 313.5 -116.5t100.5 -323.5q0 -92 -78 -92h-549q-4 -25 -4 -51q0 -94 71 -159t193 -65q137 0 238 80q12 12 29 12q20 0 20 -28v-174q0 -35 -18 -54q-104 -90 -332 -90 q-217 0 -342 142q-121 -141 -342 -142q-252 0 -390.5 159t-138.5 376zM397 504q0 -154 44 -228.5t151 -74.5q104 0 149 75.5t45 227.5q0 150 -45 222.5t-149 72.5q-106 0 -150.5 -74t-44.5 -221zM1096 678h352q0 156 -158 156q-76 0 -126 -42t-68 -114z" />
<glyph unicode="&#x178;" horiz-adv-x="1486" d="M-45 1426.5q0 7.5 5 13.5t17 6h367q20 0 41 -27l176 -243q123 -188 182 -345q80 182 193 343l180 243q20 29 47 29h338q16 0 21 -10q1 -3 1 -7q0 -8 -7 -18l-596 -825v-568q0 -6 -6.5 -12t-12.5 -6h-326q-18 0 -18 18v568l-596 825q-6 8 -6 15.5zM401 1654.5 q0 55.5 41 95.5t96.5 40t96.5 -40t41 -95.5t-41 -92t-96.5 -36.5t-96.5 36.5t-41 92zM813 1654.5q0 55.5 40 95.5t95 40q57 0 97 -40t40 -95.5t-39.5 -92t-97.5 -36.5q-55 0 -95 36.5t-40 92z" />
<glyph unicode="&#x2c6;" horiz-adv-x="1044" d="M165 1120q0 4 3 6l256 299q14 20 37 21h127q23 0 39 -21l254 -299q2 -2 2 -5t-1 -6q-3 -7 -12 -7h-161q-20 0 -39 18l-156 146l-151 -146q-18 -18 -39 -18h-148q-11 0 -11 12z" />
<glyph unicode="&#x2dc;" horiz-adv-x="1024" d="M178 1153q0 131 60.5 210t169.5 79q63 0 110 -33t83 -64.5t71 -31.5q33 0 58.5 30.5t25.5 79.5q0 20 18 21q76 0 76 -25q0 -137 -56.5 -218t-150.5 -81q-63 0 -149 71t-127 71q-39 0 -65 -34t-26 -75q0 -25 -22 -25q-20 0 -48 7.5t-28 17.5z" />
<glyph unicode="&#x2013;" horiz-adv-x="1062" d="M86 444v224q0 20 18 20h850q18 0 19 -20v-224q0 -6 -6 -12t-13 -6h-850q-18 0 -18 18z" />
<glyph unicode="&#x2014;" horiz-adv-x="1492" d="M86 444v224q0 20 18 20h1285q18 0 18 -20v-224q0 -6 -6 -12t-12 -6h-1285q-18 0 -18 18z" />
<glyph unicode="&#x2018;" horiz-adv-x="512" d="M70 1057l200 479q10 27 25 27h129q23 0 18 -27l-88 -489q-4 -20 -18 -21h-248q-30 0 -18 31z" />
<glyph unicode="&#x2019;" horiz-adv-x="512" d="M80 1053l88 489q4 20 18 21h248q22 0 22 -13q0 -6 -5 -16l-199 -481q-14 -27 -25 -27h-129q-20 0 -19 17q0 5 1 10z" />
<glyph unicode="&#x201a;" horiz-adv-x="512" d="M70 -188l88 489q4 20 18 21h248q22 0 22 -13q0 -6 -6 -16l-198 -481q-12 -27 -25 -27h-129q-20 0 -20 17z" />
<glyph unicode="&#x201c;" horiz-adv-x="921" d="M72 1057l196 479q16 27 27 27h127q25 0 20 -27l-88 -489q0 -20 -18 -21h-250q-19 0 -19 14q0 7 5 17zM483 1057l199 479q14 27 25 27h129q19 0 19 -14q0 -5 -3 -13l-84 -489q-8 -20 -23 -21h-245q-20 0 -20 15q-1 7 3 16z" />
<glyph unicode="&#x201d;" horiz-adv-x="917" d="M68 1053l86 489q4 20 20 21h250q8 0 13 -8.5t1 -20.5l-198 -481q-14 -27 -27 -27h-127q-21 0 -21 15q0 5 3 12zM479 1053l86 489q4 20 21 21h248q20 0 20 -14q0 -6 -4 -15l-199 -481q-16 -27 -24 -27h-129q-20 0 -20 17q0 5 1 10z" />
<glyph unicode="&#x201e;" horiz-adv-x="917" d="M68 -188l86 489q4 20 20 21h250q8 0 13 -8.5t1 -20.5l-198 -481q-14 -27 -27 -27h-127q-21 0 -21 14q0 6 3 13zM479 -188l86 489q4 20 21 21h248q20 0 20 -15q0 -6 -4 -14l-199 -481q-16 -27 -24 -27h-129q-20 0 -20 17q0 5 1 10z" />
<glyph unicode="&#x2022;" horiz-adv-x="864" d="M111 520q0 131 95 226.5t228 95.5q131 0 226.5 -95.5t95.5 -226.5q0 -133 -95.5 -227t-226.5 -94q-133 0 -228 94t-95 227z" />
<glyph unicode="&#x2026;" horiz-adv-x="2197" d="M184 158q0 78 55.5 133t133.5 55q80 0 133 -54t53 -134t-53 -134.5t-133 -54.5q-78 0 -133.5 55.5t-55.5 133.5zM911 158q0 78 54.5 133t134.5 55q78 0 132 -55t54 -133t-54 -133.5t-132 -55.5q-80 0 -134.5 55.5t-54.5 133.5zM1636 158q0 78 55.5 133t135.5 55 q78 0 132 -55t54 -133t-54 -133.5t-132 -55.5q-80 0 -135.5 55.5t-55.5 133.5z" />
<glyph unicode="&#x2039;" horiz-adv-x="804" d="M88 508q0 57 18 70l580 409q11 6 18 6q13 0 13 -20v-121q0 -25 -23 -45l-288 -281l294 -315q16 -16 17 -39v-135q0 -10 -8 -13q-4 -1 -7 -2l-10 3l-586 413q-18 9 -18 70z" />
<glyph unicode="&#x203a;" horiz-adv-x="804" d="M88 43v121q0 25 21 45l288 280l-293 316q-16 16 -16 39v135q0 10 8 13q4 1 7 2l10 -3l585 -413q18 -10 19 -70q0 -57 -19 -70l-581 -409q-10 -7 -17 -7q-12 0 -12 21z" />
<glyph unicode="&#x20ac;" horiz-adv-x="1327" d="M39 840v131q0 23 29 22q90 0 163 -4q178 504 656 504q129 0 240.5 -39t111.5 -96v-228q0 -41 -31 -40q-12 0 -24 12q-117 106 -297 106q-242 0 -328 -221q113 6 211 6h109q18 0 18 -26v-129q0 -23 -23 -23h-61q-186 0 -287 6q-2 -31 -2 -92q0 -55 2 -84q158 10 269 10h82 q20 0 20 -22v-131q0 -23 -23 -23h-65q-170 0 -254 10q41 -121 126 -187t204 -66q201 0 301 96q12 12 31 12q23 0 22 -41v-194q0 -59 -122 -97.5t-283 -38.5q-229 0 -399.5 147.5t-219.5 366.5q-92 -10 -156 -10q-18 0 -18 31v125q0 23 24.5 22.5t76 -4.5t53.5 -4 q-2 23 -2 64q0 55 6 106q-49 -2 -142 -2q-18 0 -18 25z" />
<glyph unicode="&#x2122;" horiz-adv-x="1556" d="M72 1315l10 119q0 12 6 12h492q8 0 8 -12l8 -119q0 -8 -6 -8l-170 6v-385q0 -10 -8 -10h-152q-10 0 -10 10v385l-172 -6q-6 0 -6 8zM698 928v506q0 12 9 12h249q10 0 15 -12l90 -353l84 353q2 12 12 12h240q10 0 10 -12v-506q0 -10 -10 -10h-146q-8 0 -8 10l6 407 l-112 -411q0 -6 -9 -6h-149q-2 0 -8 6l-117 411l14 -407q0 -10 -10 -10h-151q-9 0 -9 10z" />
<glyph unicode="&#xe000;" horiz-adv-x="995" d="M0 995h995v-995h-995v995z" />
<glyph unicode="&#xfb01;" horiz-adv-x="1263" d="M43 782v197q0 18 12 18q76 0 133 -12q-10 61 -10 117q0 178 103.5 270t347.5 92q39 0 39 -39v-168q0 -23 -29 -22h-21q-82 -2 -108.5 -38t-26.5 -120v-16q0 -49 -10 -76q137 12 236 12h415q18 0 19 -20v-959q0 -6 -6.5 -12t-12.5 -6h-280q-18 0 -19 18v531q0 123 13 242 q-68 -10 -170 -11q-66 0 -185 11l6 -105q8 -119 9 -194v-474q0 -6 -6.5 -12t-12.5 -6h-282q-18 0 -19 18v457q0 80 4 199l6 100q-55 -8 -133 -8q-12 0 -12 16zM809 1303q0 74 51 125t125 51q72 0 124 -51.5t52 -124.5q0 -72 -51 -119t-125 -47t-125 47t-51 119z" />
<glyph unicode="&#xfb02;" horiz-adv-x="1261" d="M45 782v197q0 18 12 18q68 0 133 -10q-10 45 -10 135q0 168 105.5 255t343.5 87q39 0 39 -39v-165q0 -23 -27 -23q-94 0 -125 -34t-31 -124q0 -41 -10 -92q92 10 178 10q88 0 185 -10q-12 129 -13 146v292q0 20 19 21h282q18 0 19 -21v-1407q0 -6 -6 -12t-13 -6h-282 q-18 0 -19 18v533q0 127 15 242q-61 -12 -170 -13q-6 0 -185 11q12 -209 13 -240v-533q0 -6 -6.5 -12t-12.5 -6h-280q-18 0 -19 18v517q0 158 10 241q-68 -10 -133 -10q-12 0 -12 16z" />
<glyph unicode="&#xfb03;" horiz-adv-x="1910" d="M45 782v197q0 18 12 18q68 0 133 -10q-10 45 -10 135q0 342 508 342q39 0 39 -39v-190q0 -23 -27 -23q-127 0 -171 -32.5t-44 -104.5q0 -37 -10 -88q137 10 189 10q111 0 176 -10q-14 47 -15 135q0 342 451 342q39 0 39 -39v-165q0 -23 -27 -23q-94 0 -123.5 -34 t-29.5 -124q0 -45 -15 -92q117 10 242 10h412q18 0 18 -20v-959q0 -6 -6 -12t-12 -6h-281q-18 0 -18 18v533q0 119 12 242q-82 -12 -170 -13q-6 0 -187 11q14 -123 15 -240v-533q0 -6 -6 -12t-13 -6h-282q-18 0 -19 18v533q0 121 15 240q-102 -10 -162 -11q-14 0 -193 11 q12 -209 13 -240v-533q0 -6 -6.5 -12t-12.5 -6h-280q-18 0 -19 18v517q0 129 10 241q-68 -10 -133 -10q-12 0 -12 16zM1458 1303q0 74 51.5 126t122.5 52q76 0 127 -52.5t51 -125.5q0 -72 -51 -119t-127 -47q-74 0 -124 47t-50 119z" />
<glyph unicode="&#xfb04;" horiz-adv-x="1908" d="M45 782v197q0 18 12 18q68 0 133 -10q-10 45 -10 135q0 342 508 342q39 0 39 -39v-190q0 -23 -27 -23q-127 0 -171 -32.5t-44 -104.5q0 -37 -10 -88q137 10 189 10q111 0 176 -10q-14 47 -15 135q0 342 451 342q39 0 39 -39v-165q0 -23 -27 -23q-94 0 -123.5 -34 t-29.5 -124q0 -45 -15 -92q139 10 203 10q82 0 160 -10q-10 106 -10 146v292q0 20 18 21h283q18 0 18 -21v-1407q0 -6 -6 -12t-12 -6h-283q-18 0 -18 18v533q0 98 14 242q-70 -12 -170 -13q-6 0 -187 11q14 -123 15 -240v-533q0 -6 -6 -12t-13 -6h-282q-18 0 -19 18v533 q0 121 15 240q-102 -10 -162 -11q-14 0 -193 11q12 -209 13 -240v-533q0 -6 -6.5 -12t-12.5 -6h-280q-18 0 -19 18v517q0 129 10 241q-68 -10 -133 -10q-12 0 -12 16z" />
<glyph horiz-adv-x="516" />
</font>
</defs>
</svg>
