<?xml version="1.0" standalone="no"?>
<!DOCTYPE svg PUBLIC "-//W3C//DTD SVG 1.1//EN" "http://www.w3.org/Graphics/SVG/1.1/DTD/svg11.dtd" >
<svg xmlns="http://www.w3.org/2000/svg">
<metadata>
This is a custom SVG webfont generated by Font Squirrel.
Copyright   : Copyright c 2009 by Frantisek Storm wwwstormtypecom All rights reserved
Designer    : Frantisek Storm
Foundry     : Frantisek Storm wwwstormtypecom
Foundry URL : wwwstormtypecom
</metadata>
<defs>
<font id="JohnSansTextProRegular" horiz-adv-x="1138" >
<font-face units-per-em="2048" ascent="1638" descent="-410" />
<missing-glyph horiz-adv-x="516" />
<glyph unicode=" "  horiz-adv-x="516" />
<glyph unicode="&#x09;" horiz-adv-x="516" />
<glyph unicode="&#xa0;" horiz-adv-x="516" />
<glyph unicode="!" horiz-adv-x="677" d="M225 109q0 51 34 84.5t83 33.5q51 0 86 -33.5t35 -84.5q0 -49 -35 -83t-86 -34q-49 0 -83 34t-34 83zM227 1425q0 20 19 21h192q18 0 19 -21l-47 -1028q0 -6 -6.5 -12t-12.5 -6h-98q-18 0 -19 18z" />
<glyph unicode="&#x22;" horiz-adv-x="722" d="M102 1425q-4 20 17 21h164q6 0 12 -6t4 -15l-39 -389q0 -6 -6 -12t-12 -6h-82q-18 0 -19 18zM422 1425q0 20 18 21h162q8 0 14.5 -6t4.5 -15l-39 -389q0 -6 -7.5 -12t-13.5 -6h-80q-20 0 -20 18z" />
<glyph unicode="#" horiz-adv-x="1355" d="M100 401v86q0 18 19 19h289v264h-289q-6 0 -12.5 6t-6.5 12v86q0 18 19 19h289v356q0 20 18 21h106q18 0 19 -21v-356h256v356q0 20 18 21h107q18 0 18 -21v-356h285q20 0 20 -19v-86q0 -18 -20 -18h-285v-264h285q20 0 20 -19v-86q0 -18 -20 -18h-285v-365q0 -6 -6 -12 t-12 -6h-107q-18 0 -18 18v365h-256v-365q0 -6 -6 -12t-13 -6h-106q-18 0 -18 18v365h-289q-6 0 -12.5 6t-6.5 12zM551 506h256v264h-256v-264z" />
<glyph unicode="$" horiz-adv-x="1132" d="M158 250v98q0 29 14 29q20 0 27 -8q123 -143 315 -152v438q-182 63 -260 148.5t-78 220.5q0 127 88 228.5t250 123.5v213q0 20 18 21h89q6 0 13 -6.5t7 -14.5v-211q207 -10 303 -123q31 -31 31 -67q0 -39 -22.5 -62.5t-59.5 -23.5q-41 0 -68 31q-66 86 -184 102v-442 q209 -74 288 -157t79 -218q0 -141 -101.5 -233.5t-261.5 -108.5v-250q0 -6 -7 -13.5t-13 -7.5h-93q-18 0 -18 21v250q-207 10 -338 127q-18 18 -18 47zM342 1042q0 -84 42 -132t142 -81v406q-86 -12 -135 -65.5t-49 -127.5zM633 215q92 10 151.5 61.5t59.5 131t-50.5 131 t-160.5 86.5v-410z" />
<glyph unicode="%" horiz-adv-x="1777" d="M115 1112.5q0 147.5 91 256t253 108.5q166 0 256 -108.5t90 -256t-93 -255t-255 -107.5t-252 107.5t-90 255zM181 8q-1 3 -1 6q0 5 4 11l1196 1400q16 20 33 21h141q6 0 9.5 -4t3.5 -9.5t-4 -11.5l-1194 -1403q-12 -18 -29 -18h-145q-11 0 -14 8zM283 1106 q0 -129 43 -186.5t133 -57.5q180 0 180 244q0 127 -43 186.5t-137 59.5t-135 -58.5t-41 -187.5zM961 346.5q0 147.5 92 256t254 108.5q164 0 254 -108.5t90 -256t-93.5 -255t-255 -107.5t-251.5 107.5t-90 255zM1128 340q0 -246 177 -246q90 0 135 57.5t45 188.5 q0 127 -43 186.5t-137.5 59.5t-135.5 -58.5t-41 -187.5z" />
<glyph unicode="&#x26;" horiz-adv-x="1667" d="M86 319q0 154 101.5 264.5t314.5 196.5q-158 193 -158 365q0 147 109.5 247.5t279.5 100.5q164 0 261.5 -84t97.5 -219q0 -131 -99.5 -238.5t-275.5 -177.5q139 -170 272 -297q131 309 226.5 426t243 117t147.5 -121q0 -104 -82 -104q-29 0 -58.5 24.5t-64.5 24.5 q-70 0 -134.5 -91t-193.5 -354q254 -254 410 -254q31 0 53 9q29 8 29 -19v-100q0 -49 -117 -49q-182 0 -459 266q-86 -156 -197.5 -217.5t-287.5 -61.5q-195 0 -306.5 92t-111.5 254zM295 367q0 -106 69.5 -178t180.5 -72q121 0 203.5 47t144.5 168q-158 143 -334 366 q-147 -72 -205.5 -151.5t-58.5 -179.5zM522 1159q0 -76 32 -144.5t103 -164.5q141 66 202 143.5t61 182.5q0 84 -47.5 133t-139.5 49q-106 0 -158.5 -53.5t-52.5 -145.5z" />
<glyph unicode="'" horiz-adv-x="401" d="M102 1425q-4 20 17 21h164q6 0 12 -6t4 -15l-39 -389q0 -6 -6 -12t-12 -6h-82q-18 0 -19 18z" />
<glyph unicode="(" horiz-adv-x="860" d="M190 522q0 225 62.5 413.5t160 304.5t209 179.5t216.5 63.5q18 0 18 -21v-82q0 -6 -6 -12t-12 -6q-166 0 -304.5 -225.5t-138.5 -614.5t138.5 -614t304.5 -225q6 0 12 -6.5t6 -12.5v-82q0 -20 -18 -20q-104 0 -216 63.5t-209.5 179t-160 305t-62.5 412.5z" />
<glyph unicode=")" horiz-adv-x="864" d="M2 -336q0 6 6 12.5t12 6.5q168 0 306.5 225t138.5 614t-138.5 614.5t-306.5 225.5q-6 0 -12 6t-6 12v82q0 20 18 21q104 0 216 -63.5t209.5 -179.5t160 -304t62.5 -414q0 -223 -62.5 -412.5t-160 -305t-209 -179t-216.5 -63.5q-18 0 -18 20v82z" />
<glyph unicode="*" horiz-adv-x="944" d="M57 1130l43 136q12 20 33 8l281 -119l-35 303q-2 10 4 19.5t16 9.5h144q20 0 20 -27l-26 -307l278 127q18 12 33 -10l43 -137q4 -23 -19 -27l-303 -68l211 -223q6 -8 6 -19.5t-8 -15.5l-114 -84q-6 -3 -13 -3q-12 0 -22 14l-156 264l-149 -269q-8 -17 -19 -16q-7 0 -16 8 l-111 80q-23 25 -2 39l201 231l-301 56q-10 2 -17 12q-4 6 -3 12q-1 3 1 6z" />
<glyph unicode="+" horiz-adv-x="1021" d="M90 496v116q0 20 19 21h165q102 0 162 -6q-10 70 -10 178v145q0 18 20 19h132q6 0 12 -6.5t6 -12.5v-143q0 -125 -6 -180q66 6 162 6h161q18 0 19 -21v-116q0 -6 -6 -12.5t-13 -6.5h-163q-49 0 -160 6q6 -45 6 -155v-168q0 -18 -18 -19h-132q-20 0 -20 19v170 q0 98 10 153q-63 -6 -168 -6h-159q-19 1 -19 19z" />
<glyph unicode="," horiz-adv-x="548" d="M66 -262l129 473q8 23 22 22h184q8 0 15 -8q4 -5 3 -10q0 -3 -1 -6l-213 -471q-8 -23 -25 -23h-96q-22 0 -18 23z" />
<glyph unicode="-" horiz-adv-x="614" d="M84 487v138q0 20 18 20h408q18 0 18 -20v-138q0 -6 -6 -12t-12 -6h-408q-18 0 -18 18z" />
<glyph unicode="." horiz-adv-x="542" d="M141 114.5q0 53.5 38 91.5t91 38q55 0 92 -38t37 -91.5t-36.5 -91t-92.5 -37.5q-53 0 -91 37.5t-38 91z" />
<glyph unicode="/" horiz-adv-x="985" d="M-80 -401l952 1826q10 20 29 21h162q6 0 9 -7q1 -3 1 -6q0 -4 -2 -8l-952 -1826q-12 -18 -25 -19h-162q-8 0 -12 7q-2 4 -2 7t2 5z" />
<glyph unicode="0" d="M74 729q0 336 137 550t364 214q233 0 359.5 -213t126.5 -551t-128 -547t-372 -209q-231 0 -359 209t-128 547zM285 723q0 -289 71.5 -447.5t212.5 -158.5q281 0 281 606q0 614 -279 614q-286 0 -286 -614z" />
<glyph unicode="1" d="M193 1153v117q0 20 20 28l463 175q6 2 12 1q7 0 14 -3q12 -5 13 -15v-1128q0 -98 -6 -195q45 4 139 4h108q23 0 23 -18l10 -101q2 -8 -4 -13t-18 -5h-703q-12 0 -18 5t-4 13l10 101q0 18 22 18h119q92 0 133 -4q-6 96 -6 191v745q0 96 6 195q-70 -35 -155 -64l-152 -57 q-26 -10 -26 10z" />
<glyph unicode="2" d="M102 57q0 35 13 43q385 324 544.5 529t159.5 418q0 133 -66.5 207.5t-185 74.5t-182 -64.5t-63.5 -154.5q0 -41 -28 -62.5t-73 -21.5q-100 0 -100 100q0 49 23.5 106.5t73.5 119t146.5 101.5t221.5 40q201 0 319.5 -119t118.5 -317q0 -422 -664 -914q324 23 662 23 q22 0 22 -15q0 -3 -2 -8l-14 -125q-4 -18 -24 -18h-869q-12 0 -22.5 16t-10.5 41z" />
<glyph unicode="3" d="M111 129v100q0 25 16 25q10 0 27 -12q145 -121 348 -121q141 0 229 72.5t88 201.5q0 158 -101.5 216.5t-342.5 58.5q-20 0 -21 20v90q0 25 21 25q223 0 318 70.5t95 228.5q0 236 -245 235q-176 0 -242 -141q-25 -45 -82 -45q-37 0 -62.5 21.5t-25.5 66.5q0 33 20.5 72 t65.5 81t133 70.5t205 28.5q211 0 327.5 -97.5t116.5 -252.5q0 -166 -106.5 -270.5t-284.5 -120.5q201 -6 312.5 -103.5t111.5 -271.5q0 -176 -138 -290t-375.5 -114t-389.5 117q-18 12 -18 39z" />
<glyph unicode="4" d="M35 416v65q0 18 14 43q244 432 621 922h151q20 0 21 -21v-710q0 -123 -4 -180q82 4 254 4q23 0 22 -19l-12 -106q-4 -18 -23 -19q-166 0 -241 4q4 -53 4 -172v-209q0 -18 -21 -18h-139q-20 0 -20 18v213q0 117 4 168q-61 -4 -179 -4h-426q-26 1 -26 21zM215 532 q111 6 281 7q111 0 170 -4q-4 57 -4 182v254q0 162 8 254q-332 -480 -455 -693z" />
<glyph unicode="5" d="M98 162q0 45 27 70.5t65 25.5q25 0 38.5 -6t30.5 -29.5t20 -25.5q76 -76 204 -76q145 0 235.5 89t90.5 247q0 145 -83 232t-253 87q-74 0 -131 -9t-88 -19.5t-39 -10.5q-25 0 -25 17v663q0 29 33 29h672q23 0 25 -16l10 -117q2 -10 -5 -16.5t-20 -6.5q-190 0 -538 13 q4 -131 4 -197q0 -70 -4 -201q53 12 147 13q250 0 376 -122t126 -327q0 -211 -143.5 -353.5t-399.5 -142.5q-104 0 -183 19.5t-118 50.5t-56.5 60.5t-17.5 58.5z" />
<glyph unicode="6" d="M90 616q0 420 186.5 648.5t468.5 228.5q145 0 211 -39t66 -98q0 -37 -22.5 -61.5t-59.5 -24.5q-27 0 -87 36.5t-146 36.5q-172 0 -288 -159.5t-145 -478.5q41 104 136.5 170.5t236.5 66.5q190 0 302 -127t112 -334q0 -223 -133 -365.5t-350 -142.5q-227 0 -357.5 169 t-130.5 474zM299 492q0 -178 79 -280.5t214 -102.5q129 0 194.5 91t65.5 253q0 354 -260 354q-141 0 -217 -89t-76 -226z" />
<glyph unicode="7" d="M102 1292l21 138q2 16 20 16h934q25 0 25 -33q0 -14 -8 -24q-236 -432 -362 -744.5t-126 -578.5q0 -41 -32.5 -66t-81.5 -25q-53 0 -87 26t-34 73q0 158 122.5 477t372.5 739q-137 -10 -327 -10q-115 0 -260.5 -3t-157.5 -3q-23 0 -19 18z" />
<glyph unicode="8" d="M78 336q0 229 350 405q-139 74 -218 164t-79 223q0 147 124 256t320 109q205 0 322 -95t117 -235q0 -213 -314 -377q197 -98 278 -195t81 -226q0 -178 -137.5 -284t-350.5 -106q-229 0 -361 97.5t-132 263.5zM289 344q0 -113 78.5 -177.5t205.5 -64.5q133 0 208 67 t75 171t-69.5 177t-258.5 171q-133 -82 -186 -161t-53 -183zM328 1151q0 -90 64.5 -161.5t203.5 -143.5q221 127 221 305q0 96 -63.5 153.5t-182 57.5t-181 -58.5t-62.5 -152.5z" />
<glyph unicode="9" d="M94 979q0 225 137.5 369.5t348.5 144.5q238 0 358.5 -177t120.5 -480q0 -426 -169 -644.5t-446 -218.5q-184 0 -299 86q-16 12 -16 33v111q0 25 16 24q6 0 23 -10q121 -94 283 -94q197 0 304 167t126 447q-43 -117 -143.5 -179t-225.5 -62q-182 0 -300 129t-118 354z M301 997q0 -188 70.5 -277t189.5 -89q145 0 218 97t73 249q0 180 -75 281.5t-195 101.5q-145 0 -213 -98.5t-68 -264.5z" />
<glyph unicode=":" horiz-adv-x="542" d="M141 114.5q0 53.5 38 91.5t91 38q55 0 92 -38t37 -91.5t-36.5 -91t-92.5 -37.5q-53 0 -91 37.5t-38 91zM141 883q0 55 38 92t91 37q55 0 92 -37t37 -92q0 -53 -36.5 -91t-92.5 -38q-53 0 -91 38t-38 91z" />
<glyph unicode=";" horiz-adv-x="546" d="M66 -262l129 473q4 23 22 22h182q10 0 15.5 -7t1.5 -17l-213 -471q-8 -20 -25 -21h-96q-8 0 -14 7q-4 4 -4 8q0 3 2 6zM160 883q0 55 38 92t93 37q53 0 91 -37t38 -92q0 -53 -38 -91t-91 -38t-92 38t-39 91z" />
<glyph unicode="&#x3c;" horiz-adv-x="991" d="M100 508q0 43 21 53l739 387q13 7 21 7q12 0 12 -17v-57q0 -23 -23 -37l-499 -324l503 -348q18 -14 19 -33v-65q0 -10 -10 -14q-3 -1 -7 -1q-6 0 -12 4l-743 392q-21 12 -21 53z" />
<glyph unicode="=" horiz-adv-x="1005" d="M84 285v112q0 20 18 21h801q18 0 19 -21v-112q0 -6 -6.5 -12.5t-12.5 -6.5h-801q-18 1 -18 19zM84 682v113q0 20 18 20h801q18 0 19 -20v-113q0 -6 -6.5 -12t-12.5 -6h-801q-18 0 -18 18z" />
<glyph unicode="&#x3e;" horiz-adv-x="991" d="M100 78v57q0 23 23 37l500 324l-504 348q-18 12 -19 33v65q0 10 10 13q3 1 6 1q6 0 13 -4l743 -391q20 -12 21 -53q0 -43 -21 -53l-739 -387q-13 -7 -21 -8q-12 1 -12 18z" />
<glyph unicode="?" horiz-adv-x="985" d="M94 1251q0 74 85 146.5t263 72.5q221 0 353.5 -120.5t132.5 -325.5q0 -176 -92.5 -277.5t-251.5 -101.5q-88 0 -135 27q8 -201 8 -279q0 -6 -6.5 -12t-12.5 -6h-110q-18 0 -19 18v418q0 18 17 18q8 0 22 -10q76 -41 166 -41q106 0 162.5 64.5t56.5 185.5q0 129 -76.5 205 t-201.5 76q-121 0 -189 -86q-43 -59 -90 -60q-82 0 -82 88zM276 109q0 51 34 84.5t83 33.5q51 0 86 -33.5t35 -84.5q0 -49 -35 -83t-86 -34q-49 0 -83 34t-34 83z" />
<glyph unicode="@" horiz-adv-x="1939" d="M100 406q0 375 264.5 630.5t622.5 255.5q193 0 283 -88t90 -231q0 -63 -7 -288.5t-7 -305.5q0 -74 16 -143q8 -27 28.5 -52.5t20.5 -33.5q0 -20 -18 -21h-78q-49 0 -76 45t-29 160q-37 -96 -128 -165t-218 -69q-131 0 -211 73t-80 187q0 164 154 276t449 130v168 q0 106 -44.5 154.5t-152.5 48.5q-213 0 -376 -109.5t-240.5 -268.5t-77.5 -333q0 -262 168 -435t475 -173q344 0 561 186t217 526q0 221 -111 414q-6 12 -6 23q0 18 19 18h75q23 0 35 -22q125 -225 125 -471q0 -377 -266 -601.5t-678 -224.5q-367 0 -583 214.5t-216 525.5z M770 397q0 -72 44 -111.5t106 -39.5q100 0 178 76.5t78 183.5v164q-209 -14 -307.5 -89t-98.5 -184z" />
<glyph unicode="A" horiz-adv-x="1292" d="M4 33l526 1394q4 18 21 19h186q16 0 25 -19l526 -1394q4 -9 4 -16q0 -17 -22 -17h-176q-16 0 -25 20q-123 328 -158 451q-133 -6 -272 -6t-272 6q-53 -182 -160 -451q-8 -20 -23 -20h-161q-22 0 -22 17q-1 7 3 16zM412 602q113 6 231 6q154 0 221 -4q-47 113 -104 273 q-86 242 -121 403q-41 -174 -121 -395q-73 -207 -106 -283z" />
<glyph unicode="B" horiz-adv-x="1318" d="M188 18v1407q0 20 19 21h438q254 0 363.5 -100.5t109.5 -239.5q0 -123 -90 -209t-221 -117q164 -12 287 -121.5t123 -275.5q0 -176 -127 -279.5t-351 -103.5h-532q-19 0 -19 18zM389 147q154 6 320 7q293 0 292 254q0 133 -91 207.5t-279 74.5q-127 0 -242 6 q6 -131 6 -270q0 -138 -6 -279zM389 825q90 6 186 6q166 0 247 63.5t81 170.5q0 229 -289 229q-156 0 -225 4q6 -119 6 -233q0 -127 -6 -240z" />
<glyph unicode="C" horiz-adv-x="1366" d="M121 717q0 330 208 553t552 223q248 0 405 -111q23 -18 23 -53v-137q0 -33 -27 -33q-10 0 -27 12q-150 143 -374 144q-256 0 -397.5 -162t-141.5 -428t146.5 -425t378 -159t393.5 133q16 10 24 11q25 0 25 -29v-109q0 -29 -23 -45q-174 -129 -459 -129q-311 0 -508.5 208 t-197.5 536z" />
<glyph unicode="D" horiz-adv-x="1538" d="M188 18v1407q0 20 19 21h452q350 0 554 -193.5t204 -539.5q0 -344 -201.5 -528.5t-539.5 -184.5h-469q-19 0 -19 18zM389 156q160 6 283 6q233 0 377.5 135t144.5 424q0 254 -136 408.5t-415 154.5q-143 0 -254 6q6 -123 6 -252v-563q0 -176 -6 -319z" />
<glyph unicode="E" horiz-adv-x="1163" d="M188 18v1407q0 20 19 21h860q14 0 16 -19l15 -127q0 -16 -15 -16q-61 0 -224 2t-222 2q-143 0 -248 6q6 -119 6 -231q0 -117 -6 -236q84 8 238 9q59 0 135 1t94 1q14 0 14 -19v-123q0 -16 -14 -16q-18 0 -96 1t-137 1q-121 0 -234 10q6 -135 6 -260q0 -141 -6 -280 q96 6 328 6q66 0 201 2t196 2q14 0 14 -19l-16 -127q-4 -16 -14 -16h-891q-19 0 -19 18z" />
<glyph unicode="F" horiz-adv-x="1058" d="M188 18v1407q0 20 19 21h862q12 0 14 -19l15 -127q0 -16 -15 -16q-61 0 -224 2t-222 2q-174 0 -248 6q6 -119 6 -245q0 -123 -6 -238q123 8 240 8q74 0 153.5 1t83.5 1q14 0 15 -18v-125q0 -16 -15 -16q-6 0 -85 2t-150 2q-125 0 -242 6q6 -131 6 -291v-363q0 -6 -6 -12 t-12 -6h-170q-19 0 -19 18z" />
<glyph unicode="G" horiz-adv-x="1542" d="M121 717q0 324 212 550t568 226q279 0 449 -115q23 -10 22 -45v-145q0 -33 -29 -33q-12 0 -24 12q-72 68 -185.5 113t-240.5 45q-260 0 -405.5 -166t-145.5 -434q0 -266 143.5 -427t376.5 -161q172 0 316 78v424q0 20 18 20h158q18 0 18 -20v-514q-244 -152 -541 -152 q-311 0 -510.5 207t-199.5 537z" />
<glyph unicode="H" horiz-adv-x="1570" d="M188 18v1407q0 20 19 21h170q18 0 18 -21v-317q0 -133 -6 -258q94 6 207 6h373q113 0 207 -6q-6 125 -7 258v317q0 20 19 21h172q18 0 18 -21v-1407q0 -6 -6 -12t-12 -6h-172q-18 0 -19 18v383q0 147 7 289q-82 -4 -203 -4h-381q-121 0 -203 4q6 -141 6 -289v-383 q0 -6 -6 -12t-12 -6h-170q-19 0 -19 18z" />
<glyph unicode="I" horiz-adv-x="583" d="M188 18v1407q0 20 19 21h170q18 0 18 -21v-1407q0 -6 -6 -12t-12 -6h-170q-19 0 -19 18z" />
<glyph unicode="J" horiz-adv-x="606" d="M-88 -260q0 20 18 20q8 0 23 -6q39 -25 104 -24q70 0 112 36.5t42 112.5v1546q0 20 18 21h170q18 0 19 -21v-1540v-14q0 -155 -89 -232q-93 -81 -243 -81q-94 0 -156 28q-18 10 -18 35v119z" />
<glyph unicode="K" horiz-adv-x="1400" d="M188 18v1407q0 20 19 21h170q18 0 18 -21v-335q0 -174 -6 -254h33q49 0 307 284q188 211 289 310q16 16 35 16h204q16 0 17 -21q0 -16 -12 -22q-66 -35 -394 -373q-203 -207 -264 -242q47 -18 309 -294q365 -385 457 -435q16 -8 16 -28q0 -31 -16 -31h-217q-20 0 -41 16 q-174 162 -358 377q-262 305 -330 305h-37q8 -113 8 -282v-398q0 -6 -6 -12t-12 -6h-170q-19 0 -19 18z" />
<glyph unicode="L" horiz-adv-x="1146" d="M188 18v1407q0 20 19 21h170q18 0 18 -21v-974q0 -156 -8 -297q201 10 367 10q63 0 188 1t186 1q16 0 17 -16l-15 -132q0 -18 -16 -18h-907q-19 0 -19 18z" />
<glyph unicode="M" horiz-adv-x="1837" d="M188 18v1407q0 20 17 21h260q18 0 24 -21l347 -917q72 -213 98 -334q39 170 96 338l338 913q10 20 25 21h239q18 0 19 -21v-1407q0 -6 -6.5 -12t-12.5 -6h-149q-18 0 -19 18v891q0 225 13 359l-443 -1250q-4 -18 -20 -18h-176q-16 0 -25 18l-444 1250q8 -188 8 -322v-928 q0 -6 -6 -12t-13 -6h-153q-17 0 -17 18z" />
<glyph unicode="N" horiz-adv-x="1581" d="M188 18v1407q0 20 19 21h231q18 0 31 -21l596 -913q104 -176 156 -322q-16 162 -17 375v860q0 20 19 21h151q18 0 19 -21v-1407q0 -6 -6.5 -12t-12.5 -6h-200q-16 0 -25 16l-649 998q-94 166 -135 274q12 -158 12 -315v-955q0 -18 -17 -18h-153q-19 0 -19 18z" />
<glyph unicode="O" horiz-adv-x="1697" d="M121 745q0 336 213 542t514 206q195 0 359.5 -86t268 -260t103.5 -402q0 -346 -205 -559t-526 -213q-307 0 -517 213t-210 559zM350 745q0 -270 132 -438t366 -168q240 0 370 165t130 441q0 283 -138.5 431.5t-359.5 148.5t-360.5 -147.5t-139.5 -432.5z" />
<glyph unicode="P" horiz-adv-x="1202" d="M188 18v1401q0 27 19 27h403q254 0 384 -128t130 -323q0 -205 -137 -323.5t-399 -118.5q-121 0 -199 6q6 -123 6 -276v-265q0 -6 -6 -12t-12 -6h-170q-19 0 -19 18zM389 702q59 4 184 5q332 0 332 290q0 133 -72.5 213t-228.5 80q-145 0 -215 6q6 -113 6 -290 q0 -228 -6 -304z" />
<glyph unicode="Q" horiz-adv-x="1703" d="M121 748q0 334 214 539.5t517 205.5t515 -203t212 -540q0 -276 -151.5 -470t-387.5 -235q102 -23 223 -83t230 -104t215 -44q72 0 119 20l37 10q23 0 22 -30v-107q0 -33 -49 -54.5t-129 -21.5q-113 0 -235.5 51.5t-214 115t-210 117.5t-225.5 60q-303 12 -502.5 222.5 t-199.5 550.5zM350 745q0 -270 132 -438t366 -168q240 0 370 165t130 441q0 283 -138.5 431.5t-359.5 148.5t-360.5 -147.5t-139.5 -432.5z" />
<glyph unicode="R" horiz-adv-x="1331" d="M188 18v1401q0 27 19 27h418q240 0 362.5 -112.5t122.5 -291.5q0 -162 -123 -274.5t-289 -124.5q131 -29 404 -338q203 -225 239 -244q12 -4 13 -28q0 -33 -27 -33h-188q-39 0 -92 74l-110 132l-121 144l-108 119q-60 63 -111.5 94t-92.5 31q-43 0 -117 4q8 -117 8 -276 v-304q0 -6 -6 -12t-12 -6h-170q-19 0 -19 18zM389 735q111 6 152 6q352 0 352 295q0 121 -74 187.5t-219 66.5q-106 0 -211 6q6 -113 6 -311q0 -127 -6 -250z" />
<glyph unicode="S" horiz-adv-x="1144" d="M117 147v113q0 33 20 33q12 0 27 -14q182 -147 391 -148q137 0 217 64.5t80 166.5q0 109 -69.5 163.5t-243.5 125.5q-25 8 -37 15q-172 68 -269.5 163t-97.5 254q0 168 129 289t352 121q211 0 361 -100q20 -16 20 -52v-139q0 -29 -24 -28q-14 0 -27 12q-143 141 -344 141 q-121 0 -190.5 -64.5t-69.5 -160.5q0 -45 18.5 -84t41 -62.5t72.5 -51t80 -41t97 -40.5q213 -80 310.5 -179t97.5 -259q0 -190 -139.5 -302t-356.5 -112q-143 0 -234 29t-192 100q-20 20 -20 47z" />
<glyph unicode="T" horiz-adv-x="1247" d="M-6 1292l18 135q4 18 15 19h1212q14 0 14 -16v-140q0 -14 -14 -14q-39 0 -121 2t-121 2q-139 0 -274 6q6 -115 6 -227v-1041q0 -6 -6 -12t-12 -6h-170q-18 0 -19 18v1045q0 117 6 223q-123 -6 -247 -6q-47 0 -136.5 -2t-136.5 -2q-18 0 -14 16z" />
<glyph unicode="U" horiz-adv-x="1542" d="M168 487v938q0 20 18 21h172q18 0 19 -21v-907q0 -172 108.5 -266t284.5 -98q193 0 296 90t103 266v915q0 20 19 21h164q18 0 18 -21v-944q0 -231 -164 -369.5t-436 -138.5q-270 0 -436 139t-166 375z" />
<glyph unicode="V" horiz-adv-x="1292" d="M4 1413q-4 9 -3 16q0 17 22 17h176q20 0 24 -21l328 -901q78 -233 104 -360q37 166 103 360l325 901q8 20 25 21h162q22 0 22 -17q0 -7 -4 -16l-526 -1395q-4 -18 -21 -18h-186q-20 0 -25 18z" />
<glyph unicode="W" horiz-adv-x="2066" d="M12 1413q-4 10 -3 17q0 16 20 16h180q14 0 22 -21l273 -854q61 -223 90 -391q27 160 90 387l260 860q6 18 23 19h151q20 0 23 -19l258 -835q70 -252 96 -412q23 133 109 436l254 809q4 20 22 21h160q18 0 18 -19q0 -6 -2 -14l-454 -1395q-4 -18 -19 -18h-180 q-16 0 -21 18l-268 865q-53 207 -78 338q-33 -192 -78 -344l-266 -859q-4 -18 -18 -18h-189q-16 0 -20 18z" />
<glyph unicode="X" horiz-adv-x="1462" d="M55 1436q4 10 21 10h203q20 0 34 -23q256 -336 426 -583q156 225 435 583q18 23 40 23h189q17 0 17 -11q0 -7 -9 -20l-162 -198l-134 -166l-90 -110l-97 -116l-90 -100q117 -133 567 -700q8 -8 4 -16.5t-18 -8.5h-207q-23 0 -39 23q-223 291 -420 575 q-219 -311 -430 -580q-18 -18 -33 -18h-188q-14 0 -16.5 11.5t5.5 21.5q434 539 564 682l-566 698q-7 9 -7 17q0 3 1 6z" />
<glyph unicode="Y" horiz-adv-x="1388" d="M0 1413q-10 14 -10 22q0 11 20 11h191q25 0 35 -23l335 -444q86 -123 123 -207q59 113 127 205l338 446q14 23 43 23h172q20 0 21 -11q0 -8 -11 -22l-591 -782v-613q0 -6 -6.5 -12t-12.5 -6h-170q-18 0 -18 18v613z" />
<glyph unicode="Z" horiz-adv-x="1370" d="M90 39q0 12 8 22l678 953q141 199 215 274q-205 -6 -413 -6q-66 0 -205.5 -2t-202.5 -2q-20 0 -16 16l16 133q2 18 16 19h1061q27 0 27 -31q0 -12 -6 -24l-662 -940q-135 -188 -229 -301q186 8 440 8q66 0 212.5 2t211.5 2q18 0 16 -21l-16 -125q-4 -16 -18 -16h-1108 q-8 0 -16.5 12.5t-8.5 26.5z" />
<glyph unicode="[" horiz-adv-x="815" d="M213 -416v1868q0 20 18 21h562q18 0 18 -21v-84q0 -6 -6 -12t-12 -6h-209q-133 0 -197 4q6 -53 6 -166v-1321q0 -125 -6 -182q63 4 191 4h215q6 0 12 -6.5t6 -12.5v-84q0 -20 -18 -20h-562q-18 0 -18 18z" />
<glyph unicode="\" horiz-adv-x="948" d="M-112 1439q3 7 10 7h161q18 0 29 -21l952 -1826q2 -2 2 -5t-2 -7q-4 -7 -12 -7h-162q-12 0 -24 19l-953 1826q-2 4 -2 8q0 3 1 6z" />
<glyph unicode="]" horiz-adv-x="815" d="M4 -330q0 6 6 12.5t13 6.5h208q133 0 197 -4q-6 53 -6 165v1321q0 125 6 183q-63 -4 -190 -4h-215q-18 0 -19 20v84q0 6 6 12.5t13 6.5h561q18 0 18 -19v-1868q0 -20 -18 -20h-561q-18 0 -19 20v84z" />
<glyph unicode="^" horiz-adv-x="1054" d="M90 741l389 742q8 20 51 20q41 0 54 -20l391 -746q2 -5 2 -10q0 -4 -1 -8q-3 -10 -13 -10h-68q-20 0 -35 18l-338 500l-319 -496q-14 -23 -39 -22h-60q-21 0 -21 13q0 7 7 19z" />
<glyph unicode="_" horiz-adv-x="516" d="M0 -125h516v-166h-516v166z" />
<glyph unicode="`" horiz-adv-x="761" d="M178 1446h154q16 0 33 -21l229 -290q5 -5 5 -11q0 -3 -1 -5q-4 -7 -14 -7h-76q-16 0 -41 21l-293 290q-5 5 -5 11q0 12 9 12z" />
<glyph unicode="a" horiz-adv-x="1050" d="M102 233q0 162 157 270.5t458 127.5v67q0 90 -47 136.5t-160 46.5q-125 0 -182 -70q-2 -2 -10.5 -12.5t-10.5 -12.5t-9 -10t-10 -10l-10 -7q-7 -5 -12.5 -6t-13.5 -3t-16 -2q-35 0 -57.5 20t-22.5 57q0 66 95 131.5t273 65.5q375 0 375 -305q0 -63 -5 -217t-5 -209 q0 -201 59 -244q10 -10 10 -24q0 -8 -7 -15.5t-15 -7.5h-90q-39 0 -55 37q-37 66 -41 170q-94 -233 -349 -234q-137 0 -218 72.5t-81 187.5zM285 266q0 -72 48 -112.5t120 -40.5q117 0 190.5 83t73.5 203v131q-223 -16 -327.5 -87t-104.5 -177z" />
<glyph unicode="b" horiz-adv-x="1200" d="M145 18q0 4 5.5 38t9.5 93.5t4 124.5v1151q0 20 18 21h150q18 0 18 -21q0 -354 -10 -591q31 82 113 135t198 53q205 0 332 -148.5t127 -373.5q0 -229 -129 -378t-326 -149q-129 0 -218 58.5t-120 165.5q0 -113 -12 -179q-4 -18 -18 -18h-123q-19 0 -19 18zM350 381 q0 -121 66.5 -198t187.5 -77q141 0 223 98.5t82 291.5q0 178 -82 282.5t-225 104.5q-121 0 -186.5 -72t-65.5 -176v-254z" />
<glyph unicode="c" horiz-adv-x="964" d="M92 481q0 219 148.5 380t388.5 161q158 0 245 -74q49 -35 50 -88q0 -35 -21.5 -60.5t-54.5 -25.5t-74 37q-66 57 -162 57q-150 0 -238.5 -112.5t-88.5 -263.5q0 -174 93 -271.5t236 -97.5q147 0 240 78q16 12 23 12q18 0 18 -25v-88q0 -23 -14 -34q-117 -92 -291 -93 q-225 0 -361.5 139.5t-136.5 368.5z" />
<glyph unicode="d" horiz-adv-x="1196" d="M92 502q0 225 126 372.5t331 147.5q117 0 198.5 -53.5t114.5 -132.5q-10 236 -10 589q0 20 18 21h150q18 0 18 -21v-1151q0 -66 4.5 -125t9.5 -92.5t5 -38.5q0 -18 -19 -18h-123q-14 0 -18 18q-12 66 -12 177q-37 -104 -126 -163t-212 -59q-197 0 -326 150t-129 379z M293 502q0 -193 82 -293t223 -100q121 0 187.5 75.5t66.5 196.5v260q0 104 -65.5 175t-186.5 71q-143 0 -225 -103.5t-82 -281.5z" />
<glyph unicode="e" horiz-adv-x="1044" d="M92 483q0 215 136.5 377t365.5 162q186 0 283.5 -103.5t97.5 -283.5q0 -61 -55 -62h-627q-10 -47 -10 -110q0 -145 88 -242.5t241.5 -97.5t257.5 82q10 10 23 10q14 0 14 -20v-95q0 -23 -16 -34q-119 -92 -307 -93q-227 0 -359.5 143.5t-132.5 366.5zM311 684h500 q0 94 -57.5 152.5t-161.5 58.5q-209 0 -281 -211z" />
<glyph unicode="f" horiz-adv-x="632" d="M49 862v107q0 18 12 18q80 0 132 -8q-8 82 -9 158q0 150 96.5 238.5t290.5 88.5q29 0 29 -28v-111q0 -23 -22 -22q-123 0 -167 -41t-44 -148q0 -57 -9 -135q100 8 228 8q14 0 14 -18v-107q0 -16 -14 -16q-115 0 -224 6q8 -115 9 -227v-607q0 -6 -6.5 -12t-12.5 -6h-149 q-18 0 -19 18v607q0 117 9 227q-61 -6 -132 -6q-12 0 -12 16z" />
<glyph unicode="g" horiz-adv-x="1126" d="M63 -184q0 59 30 98t59 39h108q14 0 14 -14q0 -6 -6 -13q-27 -27 -26 -73q0 -164 258 -164q154 0 244 56t90 153q0 63 -35 94t-117 31q-53 0 -148.5 -7.5t-158.5 -7.5q-115 0 -177.5 43t-62.5 121q0 74 55.5 128t147.5 62q-96 31 -150.5 112t-54.5 194q0 158 110.5 256 t272.5 98q225 0 322 -166q20 80 72.5 126t127.5 46q49 0 75 -30.5t26 -77.5q0 -96 -82 -97q-31 0 -58.5 22.5t-48.5 22.5q-29 0 -46 -21.5t-17 -55.5q0 -20 7 -64.5t7 -81.5q0 -152 -103.5 -243t-320.5 -91q-197 0 -196 -100q0 -78 118 -78q45 0 149.5 10.5t194.5 10.5 q143 0 212 -64.5t69 -173.5q0 -160 -142.5 -259t-387.5 -99q-213 0 -322 68.5t-109 189.5zM322 666q0 -125 54 -184.5t146 -59.5q209 0 209 235q0 117 -55 178.5t-156 61.5q-94 0 -146 -59t-52 -172z" />
<glyph unicode="h" horiz-adv-x="1167" d="M154 18v1407q0 20 18 21h139q18 0 19 -21q0 -367 -15 -649q43 111 148.5 178.5t243.5 67.5q139 0 229 -83t90 -234v-687q0 -6 -6 -12t-12 -6h-150q-18 0 -18 18v644q0 211 -203 210q-121 0 -209 -83.5t-88 -227.5v-543q0 -6 -6 -12t-12 -6h-150q-18 0 -18 18z" />
<glyph unicode="i" horiz-adv-x="495" d="M133 1339q0 47 34 81t81 34t80.5 -34t33.5 -81q0 -45 -33.5 -76.5t-80.5 -31.5t-81 31.5t-34 76.5zM154 18v949q0 20 18 20h150q18 0 18 -20v-949q0 -6 -6 -12t-12 -6h-150q-18 0 -18 18z" />
<glyph unicode="j" horiz-adv-x="495" d="M-57 -270q0 20 14 20q4 0 20 -8q31 -20 78 -21q45 0 77 31t32 90v1125q0 20 18 20h150q18 0 18 -20v-1090q0 -168 -75.5 -243.5t-188.5 -75.5q-72 0 -129 28q-14 8 -14 33v111zM141 1339q0 47 34 81t81 34t81 -34t34 -81q0 -45 -34 -76.5t-81 -31.5t-81 31.5t-34 76.5z " />
<glyph unicode="k" horiz-adv-x="999" d="M154 18v1407q0 20 18 21h150q18 0 18 -21v-624q0 -8 -6 -217h33q20 0 145 135t223 252q10 16 31 16h166q14 0 14 -16q0 -10 -8 -19q-55 -53 -155 -159l-169 -179q-70 -72 -94 -79q29 -10 220.5 -231.5t238.5 -254.5q14 -10 14 -26q0 -23 -16 -23h-191q-16 0 -30 12 q-37 41 -132 164l-167 208q-72 85 -92 85h-33q8 -147 8 -225v-226q0 -6 -6 -12t-12 -6h-150q-18 0 -18 18z" />
<glyph unicode="l" horiz-adv-x="493" d="M154 18v1407q0 20 18 21h150q18 0 18 -21v-1407q0 -6 -6 -12t-12 -6h-150q-18 0 -18 18z" />
<glyph unicode="m" horiz-adv-x="1751" d="M145 969q0 18 17 18h131q14 0 18 -18q12 -80 13 -185q51 109 149 172.5t213 63.5q98 0 173 -57.5t99 -163.5q45 96 141.5 159.5t219.5 63.5q131 0 212 -83t81 -228v-693q0 -6 -6.5 -12t-12.5 -6h-149q-18 0 -19 18v650q0 205 -184 204q-106 0 -184 -77.5t-78 -208.5v-568 q0 -6 -6 -12t-12 -6h-150q-18 0 -18 18v656q0 199 -185 198q-106 0 -184 -82.5t-78 -228.5v-543q0 -6 -6 -12t-12 -6h-150q-18 0 -18 18v787q0 47 -4 84t-7.5 56.5t-3.5 23.5z" />
<glyph unicode="n" horiz-adv-x="1169" d="M141 969q0 18 17 18h129q14 0 18 -18q12 -86 12 -193q43 111 148.5 178.5t245 67.5t228.5 -84t89 -236v-684q0 -6 -6 -12t-12 -6h-150q-18 0 -18 18v641q0 213 -201 213q-123 0 -211 -83.5t-88 -227.5v-543q0 -6 -6 -12t-12 -6h-150q-18 0 -18 18v787q0 47 -4.5 84 t-7.5 56.5t-3 23.5z" />
<glyph unicode="o" horiz-adv-x="1171" d="M90 504q0 213 129 365.5t367 152.5q162 0 276.5 -77t165.5 -190.5t51 -250.5q0 -217 -128 -374t-365 -157q-160 0 -275.5 79t-168 197t-52.5 255zM291 500q0 -172 73.5 -281.5t221 -109.5t221.5 109.5t74 281.5t-74 277.5t-221 105.5q-150 0 -222.5 -105.5t-72.5 -277.5z " />
<glyph unicode="p" horiz-adv-x="1202" d="M145 969q0 18 19 18h121q14 0 18 -18q14 -76 14 -176q80 229 338 229q197 0 326 -147.5t129 -374.5q0 -225 -127 -376t-332 -151q-236 0 -311 181q10 -244 10 -553q0 -20 -18 -21h-150q-18 0 -18 21v1112q0 66 -4 125t-9.5 93t-5.5 38zM350 346q0 -102 66 -170 q65 -70 186 -70q143 0 225 105.5t82 286.5q0 190 -82 288.5t-223 98.5q-121 0 -187.5 -77t-66.5 -198v-264z" />
<glyph unicode="q" horiz-adv-x="1200" d="M90 500q0 227 128 374.5t325 147.5q123 0 213 -61.5t127 -167.5q0 100 14 176q4 18 18 18h121q18 0 19 -18q0 -4 -5.5 -38t-9.5 -93.5t-4 -124.5v-1112q0 -20 -18 -21h-150q-18 0 -18 21q0 307 10 553q-39 -82 -120 -131.5t-189 -49.5q-205 0 -333 152t-128 375zM291 502 q0 -180 82 -285.5t225 -105.5q123 0 187.5 68.5t64.5 170.5v264q0 121 -66.5 198t-187.5 77q-141 0 -223 -97t-82 -290z" />
<glyph unicode="r" horiz-adv-x="798" d="M145 969q0 18 17 18h129q14 0 18 -18q12 -80 13 -203q39 117 118.5 186.5t188.5 69.5q92 0 138 -40t46 -99q0 -45 -22.5 -74t-59.5 -29q-31 0 -72 35t-100 35q-100 0 -156.5 -86t-56.5 -209v-537q0 -6 -6 -12t-12 -6h-150q-18 0 -18 18v787q0 47 -4 84t-7.5 56.5 t-3.5 23.5z" />
<glyph unicode="s" horiz-adv-x="872" d="M104 90v94q0 27 15 27q16 0 28 -12q109 -88 261 -88q94 0 147 41t53 102q0 68 -47 99.5t-160 70.5q-20 6 -30 10q-123 41 -194 106.5t-71 190.5q0 121 100.5 206t264.5 85q168 0 258 -76q35 -29 35 -69q0 -37 -21.5 -61.5t-48.5 -24.5q-29 0 -57 22q-80 66 -176 66 q-84 0 -129 -41t-45 -101q0 -37 11 -62.5t48 -47t55 -28.5l80 -30q164 -57 235.5 -120.5t71.5 -182.5q0 -131 -105 -212t-273 -81q-174 0 -289 82q-17 15 -17 35z" />
<glyph unicode="t" horiz-adv-x="657" d="M41 885q0 33 14 41q154 96 267 295q8 16 24 16q25 0 25 -25v-61q0 -78 -15 -170q82 6 222 6q14 0 14 -18v-107q0 -16 -14 -16q-150 0 -222 6q6 -59 6 -227v-326q0 -96 33 -134t101 -38q45 0 73 14q23 10 23 -12v-123q0 -16 -19 -20q-55 -12 -104 -13q-131 0 -212 82 t-81 240v330q0 131 10 227q-41 -6 -125 -6q-20 0 -20 39z" />
<glyph unicode="u" horiz-adv-x="1169" d="M141 293v676q0 6 6.5 12t12.5 6h149q18 0 19 -18v-633q0 -213 202 -213q123 0 210 83t87 224v539q0 6 6.5 12t12.5 6h149q18 0 19 -18v-787q0 -47 4 -85t8 -56t4 -23q0 -18 -16 -18h-131q-14 0 -19 18q-12 86 -12 197q-43 -109 -147.5 -175.5t-245.5 -66.5 q-139 0 -228.5 84t-89.5 236z" />
<glyph unicode="v" horiz-adv-x="970" d="M10 958q-4 10 -4 16q0 13 17 13h157q16 0 27 -20l192 -535q59 -166 90 -293q43 160 91 291l196 537q10 20 27 20h143q17 0 18 -15q0 -6 -3 -16l-375 -950q-6 -18 -23 -18h-157q-14 0 -21 18z" />
<glyph unicode="w" horiz-adv-x="1554" d="M20 961q-2 8 -2 13q0 14 15 13h157q16 0 23 -20l166 -523q51 -172 74 -294q29 156 71 290l168 527q6 20 23 20h143q18 0 25 -20l161 -518q47 -154 74 -299q29 156 72 292l164 525q6 20 22 20h146q15 0 14 -11q0 -6 -4 -15l-324 -955q-8 -18 -20 -18h-156q-12 0 -18 18 l-176 553q-37 137 -58 260q-16 -102 -61 -264l-178 -549q-6 -18 -19 -18h-157q-16 0 -19 18z" />
<glyph unicode="x" horiz-adv-x="1024" d="M25 7q-1 2 -2 6q0 6 6 14q221 279 391 460q-113 121 -387 474q-8 12 -5 19t13 7h184q16 0 33 -20q182 -248 258 -363q47 74 268 363q16 20 37 20h158q8 0 11 -8t-7 -18q-274 -340 -383 -455q92 -90 393 -479q8 -9 8 -16q0 -11 -12 -11h-186q-18 0 -35 23 q-170 225 -264 366q-33 -49 -273 -369q-16 -20 -30 -20h-162q-10 0 -14 7z" />
<glyph unicode="y" horiz-adv-x="970" d="M8 -276q0 20 17 20q8 0 16 -6q35 -20 78 -21q176 0 278 277l-387 964q-4 10 -4 16q0 13 17 13h157q20 0 27 -20l192 -533q74 -229 93 -295q33 127 90 293l196 535q6 20 27 20h143q17 0 18 -13q0 -6 -3 -13l-388 -990q-88 -221 -197.5 -315t-250.5 -94q-70 0 -107 16 q-12 6 -12 31v115z" />
<glyph unicode="z" horiz-adv-x="940" d="M53 41q0 20 15 37l464 610q78 102 132 164q-94 -4 -281 -4q-53 0 -143 -2t-134 -2q-10 0 -15 4t-3 12l12 109q2 18 19 18h760q33 0 32 -43q0 -14 -10 -29l-459 -606q-92 -121 -141 -176q68 4 301 4q47 0 138 2t130 2q12 0 17.5 -5t3.5 -13l-12 -107q-2 -16 -23 -16h-770 q-33 0 -33 41z" />
<glyph unicode="{" horiz-adv-x="870" d="M121 516q0 51 24 51q111 0 152 56.5t41 171.5q0 39 -7 127t-7 137q0 190 118.5 300.5t409.5 110.5q18 0 18 -20v-82q0 -6 -6 -12t-12 -6q-209 0 -279.5 -73t-70.5 -218q0 -53 7 -145.5t7 -135.5q0 -219 -170 -260q172 -49 172 -266q0 -45 -7 -131t-7 -133 q0 -154 69.5 -228.5t278.5 -74.5q18 0 18 -21v-82q0 -6 -6 -12t-12 -6q-291 0 -409.5 109.5t-118.5 299.5q0 53 6 141.5t6 123.5q0 113 -42 170t-149 57q-16 0 -20 10t-4 41z" />
<glyph unicode="|" horiz-adv-x="714" d="M264 -401v1949q0 20 19 21h149q18 0 19 -21v-1949q0 -6 -6.5 -12.5t-12.5 -6.5h-149q-19 1 -19 19z" />
<glyph unicode="}" horiz-adv-x="868" d="M-2 1372v80q0 6 6 12t12 6q291 0 411 -109.5t120 -299.5q0 -51 -7.5 -139t-7.5 -123q0 -113 42 -171.5t149 -58.5q16 0 20.5 -10t4.5 -41q0 -51 -25 -51q-109 0 -151 -57.5t-42 -169.5q0 -39 8.5 -127t8.5 -136q0 -414 -531 -413q-18 0 -18 20v82q0 6 6 12.5t12 6.5 q209 0 281 73.5t72 216.5q0 53 -7.5 146.5t-7.5 136.5q0 219 170 260q-172 47 -172 264q0 45 7.5 131t7.5 136q0 152 -70 227.5t-281 75.5q-18 0 -18 20z" />
<glyph unicode="~" horiz-adv-x="1021" d="M96 750q0 102 65.5 169.5t182.5 67.5q84 0 151.5 -34.5t122 -70.5t101.5 -36t81 30.5t34 81.5q0 23 24 23q68 0 68 -27q0 -109 -62.5 -178t-165.5 -69q-80 0 -203.5 79.5t-181.5 79.5q-53 0 -85.5 -35.5t-32.5 -80.5q0 -27 -31 -27q-68 0 -68 27z" />
<glyph unicode="&#xa1;" horiz-adv-x="677" d="M213 918q0 49 35 82.5t86 33.5q49 0 83 -33.5t34 -82.5q0 -51 -34 -85t-83 -34q-51 0 -86 34t-35 85zM215 -399l47 1028q0 6 6 12t13 6h98q18 0 18 -18l47 -1028q0 -20 -18 -21h-193q-18 1 -18 21z" />
<glyph unicode="&#xa2;" horiz-adv-x="980" d="M92 801q0 201 123 354.5t330 183.5v252q0 20 18 21h90q18 0 19 -21v-248q139 -8 215 -77q39 -33 39 -76q0 -39 -24.5 -71t-61.5 -32q-27 0 -70 37q-61 55 -160 56q-150 0 -235.5 -108.5t-85.5 -258.5q0 -176 91 -272.5t236 -96.5q141 0 242 78q12 12 21 13q18 0 18 -25 v-90q0 -25 -14 -37q-88 -68 -211 -86v-279q0 -6 -6.5 -12t-12.5 -6h-90q-18 0 -18 18v275q-207 14 -330 152.5t-123 355.5z" />
<glyph unicode="&#xa3;" horiz-adv-x="1191" d="M72 680v102q0 18 12 19q76 0 143 -6q-8 63 -8 141v104q0 203 127 326t346 123q260 0 373 -146q29 -35 29 -79q0 -41 -27 -69t-68 -28t-65 35q-47 68 -96.5 97.5t-147.5 29.5q-137 0 -210.5 -83t-73.5 -236v-82q0 -76 -7 -133q96 6 299 6q14 0 15 -19v-102q0 -16 -15 -16 q-203 0 -301 6q8 -72 9 -252q0 -160 -5 -262q258 6 326 6q55 0 166 1t172 1q12 0 14 -19l-16 -129q0 -16 -14 -16h-818q-18 0 -18 18v424q0 156 8 228q-61 -6 -137 -6q-12 0 -12 16z" />
<glyph unicode="&#xa4;" horiz-adv-x="1124" d="M74 285l151 151q-76 106 -75 242q0 131 75 246l-151 151l104 101l152 -152q106 76 241 76q137 0 242 -76l152 152l104 -105l-151 -151q76 -104 75 -242q0 -133 -78 -240l154 -153l-102 -103l-154 154q-106 -78 -242 -78q-125 0 -239 74l-154 -152zM293 678 q0 -117 81 -200t197.5 -83t197.5 83t81 200t-81 201t-197.5 84t-197.5 -84t-81 -201z" />
<glyph unicode="&#xa5;" horiz-adv-x="1320" d="M4 1437q4 9 16 9h175q16 0 34 -23l234 -325q109 -156 203 -336q94 178 202 334l238 331q14 18 39 19h158q19 0 18 -11q0 -8 -10 -22l-402 -561q55 4 183 4q18 0 18 -16v-109q0 -14 -18 -14q-186 0 -271 4l-63 -90v-84q176 4 264 4q6 0 12 -6t6 -10v-107q0 -16 -18 -16 q-88 0 -268 4q4 -63 4 -197v-201q0 -6 -6.5 -12t-12.5 -6h-161q-16 0 -17 18v211q0 100 6 187q-188 -4 -286 -4q-18 0 -19 16v107q0 16 19 16q96 0 280 -4v84l-59 90q-92 -4 -295 -4q-20 0 -21 14v109q0 16 21 16q141 0 203 -4l-402 561q-5 10 -5 17q0 4 1 7z" />
<glyph unicode="&#xa6;" horiz-adv-x="714" d="M264 324h187v-725q0 -6 -6.5 -12.5t-12.5 -6.5h-149q-18 0 -19 19v725zM264 877v671q0 20 19 21h149q18 0 19 -21v-671h-187z" />
<glyph unicode="&#xa7;" horiz-adv-x="1261" d="M74 739q0 197 182 291q-23 41 -23 90q0 160 115 266q116 107 314 107q109 0 191.5 -24.5t124.5 -60.5t62.5 -69.5t20.5 -60.5q0 -49 -28.5 -75.5t-71.5 -26.5q-55 0 -76 41q-66 131 -232 131q-109 0 -168 -55.5t-59 -147.5q0 -53 24.5 -100.5t83 -93.5t101.5 -73.5 t131 -78.5q207 -113 316.5 -223.5t109.5 -266.5q0 -190 -184 -282q20 -41 20 -93q0 -152 -104.5 -260t-311.5 -108q-172 0 -280 78q-18 12 -19 41v100q0 27 19 27q8 0 22 -11q113 -92 273 -92q92 0 151.5 56.5t59.5 144.5q0 53 -25 99t-83 92t-101 74t-131 79q-16 10 -25 14 q-92 53 -149.5 93t-122 99.5t-96 129t-31.5 149.5zM225 803q0 -104 83 -186t245 -175q354 -205 416 -340q68 53 67 146q0 113 -93 202t-275 191q-141 84 -231.5 154.5t-141.5 160.5q-70 -51 -70 -153z" />
<glyph unicode="&#xa8;" horiz-adv-x="919" d="M164 1264q0 43 30.5 73.5t73.5 30.5t74 -30.5t31 -73.5q0 -41 -31 -73t-74 -32t-73.5 32t-30.5 73zM547 1264q0 43 30.5 73.5t73.5 30.5t74 -30.5t31 -73.5q0 -41 -31 -73t-74 -32t-73.5 32t-30.5 73z" />
<glyph unicode="&#xa9;" horiz-adv-x="1763" d="M129 729q0 315 223 539.5t537 224.5q315 0 531 -223t216 -541q0 -315 -216 -536.5t-531 -221.5q-313 0 -536.5 222.5t-223.5 535.5zM270 729q0 -260 181.5 -447.5t437.5 -187.5t435 186.5t179 448.5t-179 450.5t-435 188.5t-437.5 -188.5t-181.5 -450.5zM467 729 q0 188 127 328.5t326 140.5q141 0 221 -68q37 -31 37 -73q0 -35 -20.5 -60.5t-51.5 -25.5q-8 0 -67.5 35.5t-129.5 35.5q-127 0 -194.5 -88t-67.5 -217q0 -150 77 -232.5t200 -82.5q127 0 204 70q20 10 23 10q14 0 14 -21v-94q0 -20 -14 -29q-102 -82 -252 -82 q-190 0 -311 128t-121 325z" />
<glyph unicode="&#xaa;" horiz-adv-x="718" d="M70 942q0 106 104.5 178t300.5 86v43q0 57 -29.5 86t-99.5 29q-61 0 -105 -45t-75 -45q-23 0 -42.5 16.5t-19.5 42.5q0 45 63.5 91t186.5 46q150 0 206 -62t56 -175q0 -45 -4 -135t-4 -121q0 -115 27 -148l16 -20q4 -6 4 -10q0 -20 -14 -21h-68q-72 0 -71 142 q-29 -68 -88.5 -114t-143.5 -46q-92 0 -146 51t-54 131zM211 963q0 -94 96 -95q168 0 168 217v52q-133 -10 -198.5 -58t-65.5 -116z" />
<glyph unicode="&#xab;" horiz-adv-x="1304" d="M84 508q0 41 16 53l594 387q9 7 15 7q10 0 10 -19v-59q0 -25 -17 -41l-401 -314l404 -344q14 -12 14 -35v-67q0 -10 -7 -14q-3 -1 -7 -1t-9 2l-596 392q-16 16 -16 53zM586 508q0 41 18 53l592 387q7 5 13 6q3 0 5 -2q8 -4 9 -16v-59q0 -25 -19 -41l-399 -314l401 -344 q16 -12 17 -35v-67q0 -10 -9 -14q-4 -1 -7 -1l-9 2l-594 392q-18 16 -18 53z" />
<glyph unicode="&#xac;" horiz-adv-x="1056" d="M94 426v156h834v-676h-172v520h-662z" />
<glyph unicode="&#xad;" horiz-adv-x="614" d="M84 487v138q0 20 18 20h408q18 0 18 -20v-138q0 -6 -6 -12t-12 -6h-408q-18 0 -18 18z" />
<glyph unicode="&#xae;" horiz-adv-x="929" d="M68 1102q0 166 115.5 279.5t281.5 113.5q170 0 282.5 -112.5t112.5 -280.5t-113.5 -280.5t-281.5 -112.5t-282.5 112.5t-114.5 280.5zM168 1102q0 -135 80 -223t211 -88q133 0 217 69h-49q-33 0 -109 98.5t-100 98.5h-23v-189q0 -8 -10 -8h-70q-18 0 -18 17v473q0 8 8 8 h139q90 0 139.5 -40t49.5 -95q0 -57 -44 -94t-128 -39q53 -10 102 -52.5t87 -85.5t59 -51q51 90 51 201q0 135 -83 222t-218 87t-213 -87t-78 -222zM395 1124h21q53 0 83.5 25t30.5 63q0 35 -21.5 60.5t-57.5 25.5h-56v-174z" />
<glyph unicode="&#xaf;" horiz-adv-x="831" d="M164 1200v98q0 16 12 17h479q12 0 13 -17v-98q0 -14 -13 -14h-479q-12 0 -12 14z" />
<glyph unicode="&#x2c9;" horiz-adv-x="831" d="M164 1200v98q0 16 12 17h479q12 0 13 -17v-98q0 -14 -13 -14h-479q-12 0 -12 14z" />
<glyph unicode="&#xb0;" horiz-adv-x="919" d="M92 1094q0 154 102.5 268.5t274.5 114.5q168 0 265 -113t97 -270.5t-102 -270t-264 -112.5q-164 0 -268.5 110.5t-104.5 272.5zM262 1090q0 -131 53.5 -201t153.5 -70t147.5 65.5t47.5 205.5q0 264 -195 264q-207 0 -207 -264z" />
<glyph unicode="&#xb1;" horiz-adv-x="1024" d="M92 653v107q0 20 19 20h165q104 0 166 -6q-10 70 -10 178v148q0 18 21 18h118q6 0 12.5 -6t6.5 -12v-146q0 -125 -6 -180q63 6 161 6h164q18 0 19 -20v-107q0 -6 -6.5 -12t-12.5 -6h-166q-49 0 -159 6q6 -47 6 -156v-170q0 -18 -19 -18h-118q-20 0 -21 18v172 q0 98 10 154q-66 -6 -172 -6h-159q-19 0 -19 18zM94 18v117q0 20 19 21h794q18 0 19 -21v-117q0 -6 -6.5 -12t-12.5 -6h-794q-19 0 -19 18z" />
<glyph unicode="&#xb2;" horiz-adv-x="821" d="M117 801q0 27 10 30q410 174 410 379q0 152 -140 152q-59 0 -94 -28.5t-37 -76.5q-4 -55 -67.5 -55t-63.5 64q0 68 67.5 142.5t205.5 74.5q123 0 198.5 -70t75.5 -176q0 -256 -360 -383q123 12 210 12q57 0 110.5 2t55.5 2q14 0 15 -14l-11 -92q0 -10 -16 -10h-549 q-20 0 -20 47z" />
<glyph unicode="&#xb3;" horiz-adv-x="821" d="M131 1307q0 61 68.5 115.5t201.5 54.5q123 0 186.5 -50.5t63.5 -136.5q0 -164 -200 -225q113 0 173 -55.5t60 -155.5q0 -113 -91 -180.5t-216 -67.5q-135 0 -227 62q-12 8 -13 30v66q0 25 17 24q10 0 20 -8q70 -57 186 -57q174 0 175 143q0 135 -160 135q-49 0 -79 -10 t-32 -10q-10 0 -14 12l-10 58q-2 12 8 16q135 29 197.5 76t62.5 127q0 104 -125 104q-106 0 -133 -94q-6 -35 -55 -35q-27 0 -45.5 15.5t-18.5 46.5z" />
<glyph unicode="&#xb4;" horiz-adv-x="759" d="M178 1119q-1 2 -1 5q0 5 5 11l230 290q14 20 32 21h154q9 0 9 -12q0 -6 -5 -11l-293 -290q-25 -20 -41 -21h-75q-11 0 -15 7z" />
<glyph unicode="&#xb5;" horiz-adv-x="1140" d="M94 -354q0 14 10.5 108t21.5 237.5t11 278.5v699q0 6 6.5 12t12.5 6h149q18 0 19 -18v-633q0 -211 186 -211q117 0 201 81t84 220v543q0 6 6 12t12 6h150q18 0 18 -18v-787q0 -47 4 -85t8 -56t4 -23q0 -18 -16 -18h-131q-14 0 -19 18q-14 92 -14 191 q-47 -106 -142 -167.5t-224 -61.5q-127 0 -185 73q4 -72 11.5 -167t11.5 -156.5t4 -79.5q0 -41 -28.5 -64.5t-67.5 -23.5q-43 0 -73 21.5t-30 62.5z" />
<glyph unicode="&#x3bc;" horiz-adv-x="1140" d="M94 -354q0 14 10.5 108t21.5 237.5t11 278.5v699q0 6 6.5 12t12.5 6h149q18 0 19 -18v-633q0 -211 186 -211q117 0 201 81t84 220v543q0 6 6 12t12 6h150q18 0 18 -18v-787q0 -47 4 -85t8 -56t4 -23q0 -18 -16 -18h-131q-14 0 -19 18q-14 92 -14 191 q-47 -106 -142 -167.5t-224 -61.5q-127 0 -185 73q4 -72 11.5 -167t11.5 -156.5t4 -79.5q0 -41 -28.5 -64.5t-67.5 -23.5q-43 0 -73 21.5t-30 62.5z" />
<glyph unicode="&#xb6;" horiz-adv-x="1171" d="M63 999q0 190 135.5 318.5t389.5 128.5h405q18 0 19 -27v-1401q0 -18 -19 -18h-176q-6 0 -12 6t-6 12v541h-189q-264 0 -405.5 116.5t-141.5 323.5z" />
<glyph unicode="&#xb7;" horiz-adv-x="499" d="M121 555q0 53 38 90t91 37q55 0 92 -37t37 -90q0 -55 -37 -93t-92 -38q-53 0 -91 38t-38 93z" />
<glyph unicode="&#x2219;" horiz-adv-x="499" d="M121 555q0 53 38 90t91 37q55 0 92 -37t37 -90q0 -55 -37 -93t-92 -38q-53 0 -91 38t-38 93z" />
<glyph unicode="&#xb8;" horiz-adv-x="745" d="M164 -399q0 16 14 10q51 -18 111 -19q76 0 108.5 27t32.5 82q0 109 -131 109q-10 0 -19.5 -2.5l-21.5 -5.5t-18 -5q-8 0 -15.5 12.5t-7.5 24.5q0 4 4 12l166 154h92l-133 -119h21q102 0 158.5 -52t56.5 -126q0 -80 -66.5 -141.5t-185.5 -61.5q-78 0 -154 23q-12 2 -12 18 v60z" />
<glyph unicode="&#xb9;" horiz-adv-x="821" d="M203 1368q-2 10 12 16l270 89q7 2 12 2q13 0 13 -15v-440q0 -57 -4 -168q25 4 74 4h59q14 0 14 -14l4 -74q0 -12 -16 -12h-410q-16 0 -16 12l4 74q0 14 19 14h55q29 0 78 -4q-4 119 -4 176v135q0 76 4 170q-33 -18 -82 -33l-64 -20q-14 -2 -16 10z" />
<glyph unicode="&#xba;" horiz-adv-x="815" d="M72 1118q0 145 88 250t252 105q162 0 251 -104.5t89 -250.5q0 -147 -89.5 -253.5t-250.5 -106.5q-164 0 -252 106.5t-88 253.5zM221 1116q0 -254 191 -254q186 0 186 254t-186 254q-191 0 -191 -254z" />
<glyph unicode="&#xbb;" horiz-adv-x="1304" d="M86 80v59q0 25 16 41l400 314l-402 344q-14 12 -14 34v68q0 10 7 13q3 1 7 2q4 0 9 -3l593 -391q18 -16 19 -53q0 -41 -19 -53l-591 -387q-9 -7 -15 -7q-10 0 -10 19zM588 80v59q0 25 16 41l402 314l-402 344q-16 12 -16 34v68q0 10 8 13q4 1 7 2l9 -3l594 -391 q16 -14 17 -53q0 -41 -17 -53l-594 -387q-7 -5 -12 -6q-3 0 -5 1q-7 5 -7 17z" />
<glyph unicode="&#xbc;" horiz-adv-x="1726" d="M189 8q-1 3 -1 6q0 5 5 11l1185 1400q14 20 33 21h131q10 0 12 -8t-6 -17l-1181 -1403q-12 -18 -29 -18h-135q-11 0 -14 8zM209 1368q-2 10 12 16l273 89q6 2 11 2q11 0 11 -15v-440q0 -57 -4 -168q25 4 74 4h59q16 0 17 -14l2 -74q0 -12 -17 -12h-409q-16 0 -17 12l4 74 q4 14 19 14h55q29 0 78 -4q-4 119 -4 176v135q0 98 6 170q-31 -16 -84 -33l-64 -20q-14 -4 -14 10zM817 16v43q0 14 8 25q188 317 420 606h115q14 0 14 -12v-453q0 -82 -2 -121q63 2 180 2q18 0 15 -14l-6 -69q0 -23 -17 -23q-113 0 -172 4q2 -35 2 -117v-86q0 -12 -14 -12 h-105q-14 0 -14 12v90q0 78 4 113q-41 -4 -143 -4h-268q-17 0 -17 16zM965 102q55 4 141 4q100 0 139 -2q-6 49 -6 205q0 63 8 215z" />
<glyph unicode="&#xbd;" horiz-adv-x="1726" d="M172 12q0 6 4 13l1186 1400q14 20 33 21h131q8 0 10 -8t-4 -17l-1182 -1403q-12 -18 -28 -18h-138q-12 0 -12 12zM195 1368q-2 10 12 16l272 89q6 2 11 2q11 0 12 -15v-440q0 -57 -4 -168q25 4 73 4h60q16 0 16 -14l2 -74q0 -12 -16 -12h-410q-16 0 -16 12l4 74 q0 14 18 14h56q29 0 77 -4q-4 119 -4 176v135q0 98 7 170q-37 -18 -84 -33l-64 -20q-14 -2 -16 10zM981 47q0 27 10 33q410 172 410 379q0 152 -139 151q-59 0 -94 -28.5t-38 -77.5q-4 -55 -67.5 -55t-63.5 65q0 27 14.5 60.5t43 69.5t86 60.5t129.5 24.5q123 0 198.5 -69.5 t75.5 -176.5q0 -252 -360 -383q123 12 211 13q55 0 109.5 2t56.5 2q14 0 14 -15l-10 -90q0 -12 -17 -12h-549q-20 0 -20 47z" />
<glyph unicode="&#xbe;" horiz-adv-x="1726" d="M129 1307q0 61 68.5 115.5t201.5 54.5q125 0 188.5 -50.5t63.5 -136.5q0 -164 -200 -225q113 0 172 -54.5t59 -156.5q0 -113 -91 -180.5t-216 -67.5q-133 0 -225 62q-14 10 -15 30v66q0 25 17 24q12 0 20 -8q70 -57 186 -57q174 0 174 143q0 135 -159 135q-47 0 -77 -10 t-32 -10q-10 0 -14 12l-10 58q-2 12 6 16q137 29 199.5 76t62.5 127q0 104 -125 104q-104 0 -135 -94q-6 -35 -55 -35q-27 0 -45.5 15.5t-18.5 46.5zM202 8q-1 3 -1 6q0 5 4 11l1186 1400q14 20 32 21h131q8 0 12 -8q1 -3 1 -6q0 -5 -4 -11l-1184 -1403q-12 -18 -29 -18 h-135q-10 0 -13 8zM803 16v43q0 12 6 25q180 305 420 606h117q14 0 14 -12v-453q0 -82 -4 -121q66 2 182 2q18 0 14 -14l-6 -69q0 -23 -16 -23q-113 0 -174 4q4 -35 4 -117v-86q0 -12 -14 -12h-107q-14 0 -14 12v90q0 78 4 113q-39 -4 -142 -4h-268q-16 0 -16 16zM950 102 q53 4 142 4q100 0 137 -2q-4 33 -4 205q0 100 6 215z" />
<glyph unicode="&#xbf;" horiz-adv-x="985" d="M100 0q0 186 93.5 288.5t248.5 102.5q86 0 136 -29q0 47 -4.5 143.5t-4.5 127.5q0 6 6.5 12t12.5 6h110q18 0 19 -18v-412q0 -18 -17 -18q-6 0 -22 10q-74 45 -168 45q-102 0 -160.5 -66.5t-58.5 -193.5q0 -133 76.5 -209t207.5 -76q117 0 185 86q47 59 90 60 q39 0 61.5 -23.5t22.5 -64.5q0 -74 -85 -144.5t-259 -70.5q-219 0 -354.5 118.5t-135.5 325.5zM514 917.5q0 49.5 34 84t85 34.5q49 0 84 -34.5t35 -84t-35 -83t-84 -33.5q-51 0 -85 33.5t-34 83z" />
<glyph unicode="&#xc0;" horiz-adv-x="1292" d="M4 33l526 1394q4 18 21 19h186q16 0 25 -19l526 -1394q4 -9 4 -16q0 -17 -22 -17h-176q-16 0 -25 20q-123 328 -158 451q-133 -6 -272 -6t-272 6q-53 -182 -160 -451q-8 -20 -23 -20h-161q-22 0 -22 17q-1 7 3 16zM336 1868h156q16 0 32 -21l256 -286q4 -6 2 -12.5 t-10 -6.5h-84q-14 0 -31 17l-327 286q-5 5 -5 11q0 12 11 12zM412 602q113 6 231 6q154 0 221 -4q-47 113 -104 273q-86 242 -121 403q-41 -174 -121 -395q-73 -207 -106 -283z" />
<glyph unicode="&#xc1;" horiz-adv-x="1292" d="M4 33l526 1394q4 18 21 19h186q16 0 25 -19l526 -1394q4 -9 4 -16q0 -17 -22 -17h-176q-16 0 -25 20q-123 328 -158 451q-133 -6 -272 -6t-272 6q-53 -182 -160 -451q-8 -20 -23 -20h-161q-22 0 -22 17q-1 7 3 16zM412 602q113 6 231 6q154 0 221 -4q-47 113 -104 273 q-86 242 -121 403q-41 -174 -121 -395q-73 -207 -106 -283zM493 1548q-1 2 -1 4q0 4 4 9l256 286q14 20 32 21h156q11 0 11 -12q0 -6 -7 -11l-326 -286q-16 -16 -30 -17h-84q-8 0 -11 6z" />
<glyph unicode="&#xc2;" horiz-adv-x="1292" d="M4 33l526 1394q4 18 21 19h186q16 0 25 -19l526 -1394q4 -9 4 -16q0 -17 -22 -17h-176q-16 0 -25 20q-123 328 -158 451q-133 -6 -272 -6t-272 6q-53 -182 -160 -451q-8 -20 -23 -20h-161q-22 0 -22 17q-1 7 3 16zM314 1551q0 5 3 10l250 288q14 18 31 19h86q16 0 33 -19 l244 -288q2 -4 2 -7t-1 -6q-3 -6 -10 -6h-88q-12 0 -30 19l-201 188l-199 -188q-18 -18 -31 -19h-79q-10 0 -10 9zM412 602q113 6 231 6q154 0 221 -4q-47 113 -104 273q-86 242 -121 403q-41 -174 -121 -395q-73 -207 -106 -283z" />
<glyph unicode="&#xc3;" horiz-adv-x="1292" d="M4 33l526 1394q4 18 21 19h186q16 0 25 -19l526 -1394q4 -9 4 -16q0 -17 -22 -17h-176q-16 0 -25 20q-123 328 -158 451q-133 -6 -272 -6t-272 6q-53 -182 -160 -451q-8 -20 -23 -20h-161q-22 0 -22 17q-1 7 3 16zM326 1587q0 109 56 167t140 58q61 0 113.5 -31.5 t93.5 -63t78 -31.5t62.5 24.5t25.5 71.5q0 23 18 22q53 0 54 -26q0 -104 -52.5 -168t-130.5 -64q-57 0 -151 72t-139 72q-41 0 -67 -30t-26 -73q0 -25 -24 -24q-51 -1 -51 24zM412 602q113 6 231 6q154 0 221 -4q-47 113 -104 273q-86 242 -121 403q-41 -174 -121 -395 q-73 -207 -106 -283z" />
<glyph unicode="&#xc4;" horiz-adv-x="1292" d="M4 33l526 1394q4 18 21 19h186q16 0 25 -19l526 -1394q4 -9 4 -16q0 -17 -22 -17h-176q-16 0 -25 20q-123 328 -158 451q-133 -6 -272 -6t-272 6q-53 -182 -160 -451q-8 -20 -23 -20h-161q-22 0 -22 17q-1 7 3 16zM342 1657q0 43 30.5 73.5t73.5 30.5t74 -30.5t31 -73.5 q0 -41 -31 -72t-74 -31t-73.5 31t-30.5 72zM412 602q113 6 231 6q154 0 221 -4q-47 113 -104 273q-86 242 -121 403q-41 -174 -121 -395q-73 -207 -106 -283zM739 1657q0 43 32 73.5t73 30.5q43 0 73.5 -30.5t30.5 -73.5q0 -41 -30.5 -72t-73.5 -31q-41 0 -73 31t-32 72z " />
<glyph unicode="&#xc5;" horiz-adv-x="1292" d="M4 33l526 1394q4 18 21 19h186q16 0 25 -19l526 -1394q4 -9 4 -16q0 -17 -22 -17h-176q-16 0 -25 20q-123 328 -158 451q-133 -6 -272 -6t-272 6q-53 -182 -160 -451q-8 -20 -23 -20h-161q-22 0 -22 17q-1 7 3 16zM410 1698q0 86 67.5 142t167.5 56q102 0 169 -56 t67 -142q0 -88 -66.5 -143.5t-169.5 -55.5q-100 0 -167.5 56.5t-67.5 142.5zM412 602q113 6 231 6q154 0 221 -4q-47 113 -104 273q-86 242 -121 403q-41 -174 -121 -395q-73 -207 -106 -283zM520 1694q0 -55 36 -86t89 -31q123 0 123 117q0 115 -123 114q-125 1 -125 -114z " />
<glyph unicode="&#xc6;" horiz-adv-x="2015" d="M-51 33l1024 1394q14 18 28 19h920q12 0 14 -19l17 -127q0 -16 -15 -16q-61 0 -196 2t-193 2q-152 0 -305 6q6 -115 6 -227q0 -123 -6 -240q152 8 236 9q39 0 115.5 1t115.5 1q14 0 14 -19v-123q0 -16 -14 -16q-39 0 -113.5 1t-113.5 1q-145 0 -240 10q6 -119 6 -264 t-6 -276q117 6 342 6q66 0 193 2t188 2q16 0 14 -19l-14 -127q0 -16 -14 -16h-893q-18 0 -19 18q0 356 4 451q-129 -6 -266 -6q-139 0 -276 6q-33 -70 -309 -449q-16 -20 -33 -20h-205q-17 0 -17 10q0 8 11 23zM598 604q111 6 223 6q115 0 226 -6q-6 98 -7 301q0 272 15 383 q-33 -84 -248 -399q-133 -199 -209 -285z" />
<glyph unicode="&#xc7;" horiz-adv-x="1366" d="M121 717q0 330 208 553t552 223q248 0 405 -111q23 -18 23 -53v-137q0 -33 -27 -33q-10 0 -27 12q-150 143 -374 144q-256 0 -397.5 -162t-141.5 -428t146.5 -425t378 -159t393.5 133q16 10 24 11q25 0 25 -29v-109q0 -29 -23 -45q-158 -117 -393 -125l-105 -96h21 q102 0 157.5 -52t55.5 -126q0 -80 -66.5 -141.5t-185.5 -61.5q-74 0 -154 23q-12 2 -12 18v60q0 16 14 10q55 -18 113 -19q141 0 141 109t-131 109l-61 -13q-8 0 -15.5 12.5t-7.5 24.5q0 6 7 12l137 127q-301 10 -490.5 216t-189.5 528z" />
<glyph unicode="&#xc8;" horiz-adv-x="1163" d="M188 18v1407q0 20 19 21h860q14 0 16 -19l15 -127q0 -16 -15 -16q-61 0 -224 2t-222 2q-143 0 -248 6q6 -119 6 -231q0 -117 -6 -236q84 8 238 9q59 0 135 1t94 1q14 0 14 -19v-123q0 -16 -14 -16q-18 0 -96 1t-137 1q-121 0 -234 10q6 -135 6 -260q0 -141 -6 -280 q96 6 328 6q66 0 201 2t196 2q14 0 14 -19l-16 -127q-4 -16 -14 -16h-891q-19 0 -19 18zM395 1868h156q18 0 33 -21l256 -286q2 -4 2 -8.5t-3 -7.5t-10 -3h-81q-14 0 -31 17l-328 286q-5 5 -4 11q-1 12 10 12z" />
<glyph unicode="&#xc9;" horiz-adv-x="1163" d="M188 18v1407q0 20 19 21h860q14 0 16 -19l15 -127q0 -16 -15 -16q-61 0 -224 2t-222 2q-143 0 -248 6q6 -119 6 -231q0 -117 -6 -236q84 8 238 9q59 0 135 1t94 1q14 0 14 -19v-123q0 -16 -14 -16q-18 0 -96 1t-137 1q-121 0 -234 10q6 -135 6 -260q0 -141 -6 -280 q96 6 328 6q66 0 201 2t196 2q14 0 14 -19l-16 -127q-4 -16 -14 -16h-891q-19 0 -19 18zM503 1548q-1 2 -1 4q0 4 4 9l256 286q16 20 33 21h155q11 0 11 -12q0 -6 -7 -11l-325 -286q-16 -16 -31 -17h-84q-8 0 -11 6z" />
<glyph unicode="&#xca;" horiz-adv-x="1163" d="M188 18v1407q0 20 19 21h860q14 0 16 -19l15 -127q0 -16 -15 -16q-61 0 -224 2t-222 2q-143 0 -248 6q6 -119 6 -231q0 -117 -6 -236q84 8 238 9q59 0 135 1t94 1q14 0 14 -19v-123q0 -16 -14 -16q-18 0 -96 1t-137 1q-121 0 -234 10q6 -135 6 -260q0 -141 -6 -280 q96 6 328 6q66 0 201 2t196 2q14 0 14 -19l-16 -127q-4 -16 -14 -16h-891q-19 0 -19 18zM342 1552q0 4 4 9l250 288q18 18 31 19h86q16 0 32 -19l246 -288q2 -3 2 -6.5t-2 -6.5q-4 -6 -10 -6h-86q-10 0 -33 19l-198 188l-199 -188q-18 -18 -33 -19h-78q-6 0 -9 3t-3 7z" />
<glyph unicode="&#xcb;" horiz-adv-x="1163" d="M188 18v1407q0 20 19 21h860q14 0 16 -19l15 -127q0 -16 -15 -16q-61 0 -224 2t-222 2q-143 0 -248 6q6 -119 6 -231q0 -117 -6 -236q84 8 238 9q59 0 135 1t94 1q14 0 14 -19v-123q0 -16 -14 -16q-18 0 -96 1t-137 1q-121 0 -234 10q6 -135 6 -260q0 -141 -6 -280 q96 6 328 6q66 0 201 2t196 2q14 0 14 -19l-16 -127q-4 -16 -14 -16h-891q-19 0 -19 18zM358 1657q0 43 32 73.5t73 30.5q43 0 73.5 -30.5t30.5 -73.5q0 -41 -30.5 -72t-73.5 -31q-41 0 -73 31t-32 72zM756 1657q0 43 31.5 73.5t72.5 30.5q43 0 74 -30.5t31 -73.5 q0 -41 -31 -72t-74 -31q-41 0 -72.5 31t-31.5 72z" />
<glyph unicode="&#xcc;" horiz-adv-x="583" d="M-27 1858h156q18 0 33 -21l256 -287q2 -4 2 -8t-3 -7t-9 -3h-82q-14 0 -31 16l-328 287q-5 5 -4 10q-1 13 10 13zM188 18v1407q0 20 19 21h170q18 0 18 -21v-1407q0 -6 -6 -12t-12 -6h-170q-19 0 -19 18z" />
<glyph unicode="&#xcd;" horiz-adv-x="583" d="M182 1552q0 4 2 9l256 286q14 20 33 21h156q8 0 10 -8q1 -2 0 -4q0 -6 -4 -11l-328 -286q-16 -16 -31 -17h-83q-11 0 -11 10zM188 18v1407q0 20 19 21h170q18 0 18 -21v-1407q0 -6 -6 -12t-12 -6h-170q-19 0 -19 18z" />
<glyph unicode="&#xce;" horiz-adv-x="583" d="M-35 1552q0 4 4 9l250 288q18 18 31 19h86q16 0 33 -19l245 -288q2 -3 2 -6.5t-2 -6.5q-4 -6 -10 -6h-86q-10 0 -33 19l-198 188l-199 -188q-18 -18 -33 -19h-78q-6 0 -9 3t-3 7zM188 18v1407q0 20 19 21h170q18 0 18 -21v-1407q0 -6 -6 -12t-12 -6h-170q-19 0 -19 18z " />
<glyph unicode="&#xcf;" horiz-adv-x="583" d="M-10 1657q0 43 30.5 73.5t71.5 30.5q45 0 76 -30.5t31 -73.5q0 -41 -31 -72t-76 -31q-41 0 -71.5 31t-30.5 72zM188 18v1407q0 20 19 21h170q18 0 18 -21v-1407q0 -6 -6 -12t-12 -6h-170q-19 0 -19 18zM385 1657q0 43 32 73.5t72 30.5q43 0 74 -30.5t31 -73.5 q0 -41 -31 -72t-74 -31q-41 0 -72.5 31t-31.5 72z" />
<glyph unicode="&#xd0;" horiz-adv-x="1558" d="M0 680v98q0 18 18 19h72q78 0 137 -6q-10 66 -10 170v464q0 20 19 21h450q350 0 555 -194.5t205 -538.5q0 -342 -203 -527.5t-538 -185.5h-469q-18 0 -19 18v504q0 92 10 148q-63 -6 -137 -6h-72q-18 0 -18 16zM416 670q6 -51 6 -148v-106q0 -174 -4 -260q156 6 280 6 q233 0 379 135t146 424q0 254 -137.5 408.5t-415.5 154.5q-143 0 -254 6q6 -72 6 -223v-115q0 -109 -6 -161q61 6 162 6h141q18 0 18 -19v-98q0 -4 -6 -10t-12 -6h-144q-104 0 -159 6z" />
<glyph unicode="&#xd1;" horiz-adv-x="1581" d="M188 18v1407q0 20 19 21h231q18 0 31 -21l596 -913q104 -176 156 -322q-16 162 -17 375v860q0 20 19 21h151q18 0 19 -21v-1407q0 -6 -6.5 -12t-12.5 -6h-200q-16 0 -25 16l-649 998q-94 166 -135 274q12 -158 12 -315v-955q0 -18 -17 -18h-153q-19 0 -19 18zM500 1587 q0 109 55 167t141 58q61 0 112.5 -31.5t92.5 -63t78 -31.5t62.5 24.5t25.5 71.5q0 23 18 22q53 0 54 -26q0 -104 -51.5 -168t-129.5 -64q-59 0 -152 72t-138 72q-41 0 -67 -30t-26 -73q0 -25 -24 -24q-51 -1 -51 24z" />
<glyph unicode="&#xd2;" horiz-adv-x="1697" d="M121 745q0 336 213 542t514 206q195 0 359.5 -86t268 -260t103.5 -402q0 -346 -205 -559t-526 -213q-307 0 -517 213t-210 559zM350 745q0 -270 132 -438t366 -168q240 0 370 165t130 441q0 283 -138.5 431.5t-359.5 148.5t-360.5 -147.5t-139.5 -432.5zM618 1868h154 q18 0 33 -21l256 -286q4 -4 4 -9q0 -2 -1 -4q-3 -6 -11 -6h-82q-12 0 -33 17l-326 286q-5 5 -4 11q-1 12 10 12z" />
<glyph unicode="&#xd3;" horiz-adv-x="1697" d="M121 745q0 336 213 542t514 206q195 0 359.5 -86t268 -260t103.5 -402q0 -346 -205 -559t-526 -213q-307 0 -517 213t-210 559zM350 745q0 -270 132 -438t366 -168q240 0 370 165t130 441q0 283 -138.5 431.5t-359.5 148.5t-360.5 -147.5t-139.5 -432.5zM644 1548 q-1 3 -1 6q0 4 2 7l256 286q16 20 33 21h156q11 0 10 -12q0 -6 -4 -11l-328 -286q-16 -16 -31 -17h-82q-8 0 -11 6z" />
<glyph unicode="&#xd4;" horiz-adv-x="1697" d="M121 745q0 336 213 542t514 206q195 0 359.5 -86t268 -260t103.5 -402q0 -346 -205 -559t-526 -213q-307 0 -517 213t-210 559zM350 745q0 -270 132 -438t366 -168q240 0 370 165t130 441q0 283 -138.5 431.5t-359.5 148.5t-360.5 -147.5t-139.5 -432.5zM524 1551 q0 5 4 10l248 288q18 18 31 19h86q20 0 35 -19l243 -288q2 -3 2.5 -6.5t-2.5 -6.5q-4 -6 -10 -6h-86q-12 0 -31 19l-200 188l-199 -188q-18 -18 -31 -19h-79q-11 0 -11 9z" />
<glyph unicode="&#xd5;" horiz-adv-x="1697" d="M121 745q0 336 213 542t514 206q195 0 359.5 -86t268 -260t103.5 -402q0 -346 -205 -559t-526 -213q-307 0 -517 213t-210 559zM350 745q0 -270 132 -438t366 -168q240 0 370 165t130 441q0 283 -138.5 431.5t-359.5 148.5t-360.5 -147.5t-139.5 -432.5zM528 1587 q0 109 56.5 167t140.5 58q61 0 113.5 -31.5t93.5 -63t78 -31.5t62.5 24.5t25.5 71.5q0 23 18 22q53 0 53 -26q0 -104 -52 -168t-130 -64q-57 0 -151.5 72t-139.5 72q-41 0 -66.5 -30t-25.5 -73q0 -25 -24 -24q-52 -1 -52 24z" />
<glyph unicode="&#xd6;" horiz-adv-x="1697" d="M121 745q0 336 213 542t514 206q195 0 359.5 -86t268 -260t103.5 -402q0 -346 -205 -559t-526 -213q-307 0 -517 213t-210 559zM350 745q0 -270 132 -438t366 -168q240 0 370 165t130 441q0 283 -138.5 431.5t-359.5 148.5t-360.5 -147.5t-139.5 -432.5zM547 1657 q0 43 30.5 73.5t73.5 30.5t74 -30.5t31 -73.5q0 -41 -31 -72t-74 -31t-73.5 31t-30.5 72zM942 1657q0 43 32 73.5t73 30.5q43 0 74.5 -30.5t31.5 -73.5q0 -41 -31.5 -72t-74.5 -31q-41 0 -73 31t-32 72z" />
<glyph unicode="&#xd7;" horiz-adv-x="1024" d="M125 270q0 6 6 13l158 159q45 51 119 111q-55 37 -134 119l-143 143q-4 2 -4 10q0 10 48 61.5t65 51.5q8 0 12 -4l63 -60.5l71 -68.5l61 -65q38 -40 69 -78q63 80 266 274q4 4 11 4q10 0 16 -6l82 -82q4 -8 4 -14q0 -8 -4 -13l-156 -157q-57 -57 -119 -107 q61 -51 117 -106l160 -160q6 -6 6 -12q0 -14 -51 -64.5t-64 -50.5q-6 0 -12 6q-193 184 -264 277q-31 -41 -113 -123l-155 -154q-6 -6 -13 -6q-10 0 -12 6l-84 82q-6 6 -6 14z" />
<glyph unicode="&#xd8;" horiz-adv-x="1697" d="M115 12q0 4 2 6l186 199q-184 207 -184 526q0 336 214 543t513 207q268 0 465 -166l90 98q20 20 35 21h151q12 0 12 -12q0 -6 -6 -13l-176 -194q160 -197 160 -484q0 -346 -205 -558t-526 -212q-248 0 -438 146l-97 -101q-12 -18 -28 -18h-156q-12 0 -12 12zM350 754 q0 -236 105 -379l737 819q-131 131 -344 131q-221 0 -359.5 -147.5t-138.5 -423.5zM526 256q129 -119 320 -119q233 0 367.5 158t134.5 418q0 211 -88 354z" />
<glyph unicode="&#xd9;" horiz-adv-x="1542" d="M168 487v938q0 20 18 21h172q18 0 19 -21v-907q0 -172 108.5 -266t284.5 -98q193 0 296 90t103 266v915q0 20 19 21h164q18 0 18 -21v-944q0 -231 -164 -369.5t-436 -138.5q-270 0 -436 139t-166 375zM516 1868h156q16 0 33 -21l256 -286q4 -4 4 -9q0 -2 -1 -4 q-3 -6 -12 -6h-84q-14 0 -30 17l-326 286q-7 5 -7 11q0 12 11 12z" />
<glyph unicode="&#xda;" horiz-adv-x="1542" d="M168 487v938q0 20 18 21h172q18 0 19 -21v-907q0 -172 108.5 -266t284.5 -98q193 0 296 90t103 266v915q0 20 19 21h164q18 0 18 -21v-944q0 -231 -164 -369.5t-436 -138.5q-270 0 -436 139t-166 375zM601 1548q-1 3 -1 6q0 4 2 7l258 286q16 20 31 21h156q11 0 10 -12 q0 -6 -4 -11l-328 -286q-16 -16 -31 -17h-82q-8 0 -11 6z" />
<glyph unicode="&#xdb;" horiz-adv-x="1542" d="M168 487v938q0 20 18 21h172q18 0 19 -21v-907q0 -172 108.5 -266t284.5 -98q193 0 296 90t103 266v915q0 20 19 21h164q18 0 18 -21v-944q0 -231 -164 -369.5t-436 -138.5q-270 0 -436 139t-166 375zM442 1552q0 4 4 9l250 288q18 18 31 19h86q18 0 33 -19l246 -288 q2 -6 -1.5 -12.5t-9.5 -6.5h-86q-12 0 -32 19l-199 188l-199 -188q-20 -18 -33 -19h-77q-6 0 -9.5 3t-3.5 7z" />
<glyph unicode="&#xdc;" horiz-adv-x="1542" d="M168 487v938q0 20 18 21h172q18 0 19 -21v-907q0 -172 108.5 -266t284.5 -98q193 0 296 90t103 266v915q0 20 19 21h164q18 0 18 -21v-944q0 -231 -164 -369.5t-436 -138.5q-270 0 -436 139t-166 375zM465 1661q0 41 30.5 72.5t73.5 31.5t74 -31.5t31 -72.5 q0 -43 -31 -74t-74 -31t-73.5 31t-30.5 74zM862 1661q0 41 32 72.5t73 31.5q43 0 73.5 -31.5t30.5 -72.5q0 -43 -30.5 -74t-73.5 -31q-41 0 -73 31t-32 74z" />
<glyph unicode="&#xdd;" horiz-adv-x="1388" d="M0 1413q-10 14 -10 22q0 11 20 11h191q25 0 35 -23l335 -444q86 -123 123 -207q59 113 127 205l338 446q14 23 43 23h172q20 0 21 -11q0 -8 -11 -22l-591 -782v-613q0 -6 -6.5 -12t-12.5 -6h-170q-18 0 -18 18v613zM556 1548q-1 3 -1 6q0 4 2 7l258 286q16 20 31 21h155 q11 0 11 -12q0 -6 -4 -11l-328 -286q-16 -16 -31 -17h-82q-8 0 -11 6z" />
<glyph unicode="&#xde;" horiz-adv-x="1191" d="M188 18v1407q0 20 19 21h170q18 0 18 -21q0 -143 -4 -217h219q250 0 382 -127t132 -317q0 -209 -138 -329t-402 -120q-35 0 -195 7q6 -123 6 -304q0 -6 -6 -12t-12 -6h-170q-19 0 -19 18zM391 465q86 6 178 6q336 0 336 289q0 133 -74.5 214t-226.5 81q-141 0 -213 4 q4 -76 4 -289q0 -225 -4 -305z" />
<glyph unicode="&#xdf;" horiz-adv-x="1126" d="M49 866v103q0 18 12 18q80 0 132 -8q-6 33 -7 78q0 170 114 286.5t339 116.5q176 0 276.5 -84t100.5 -213q0 -84 -43 -150.5t-94.5 -102.5t-94.5 -83t-43 -94q0 -27 17.5 -55.5t39.5 -48.5l60 -56q10 -8 14 -12q102 -84 144.5 -152.5t42.5 -156.5q0 -139 -92.5 -208 t-225.5 -69q-121 0 -187.5 42t-66.5 106q0 35 19.5 58.5t56.5 23.5q27 0 45.5 -15.5t28.5 -35t39 -35t76 -15.5q59 0 97 36t38 98q0 53 -33 102t-117 115q-4 4 -23 19l-26 21l-23 20q-17 15 -23.5 22.5t-20 21.5t-18.5 24.5t-14 26t-12.5 29.5t-6.5 30.5t-3 35.5 q0 66 40 124t87 96t87 93t40 115q0 184 -200 184q-250 0 -250 -285v-1014q0 -6 -6.5 -12t-12.5 -6h-149q-18 0 -19 18v682q0 98 6 158q-55 -8 -129 -8q-12 0 -12 16z" />
<glyph unicode="&#xe0;" horiz-adv-x="1050" d="M102 233q0 162 157 270.5t458 127.5v67q0 90 -47 136.5t-160 46.5q-125 0 -182 -70q-2 -2 -10.5 -12.5t-10.5 -12.5t-9 -10t-10 -10l-10 -7q-7 -5 -12.5 -6t-13.5 -3t-16 -2q-35 0 -57.5 20t-22.5 57q0 66 95 131.5t273 65.5q375 0 375 -305q0 -63 -5 -217t-5 -209 q0 -201 59 -244q10 -10 10 -24q0 -8 -7 -15.5t-15 -7.5h-90q-39 0 -55 37q-37 66 -41 170q-94 -233 -349 -234q-137 0 -218 72.5t-81 187.5zM285 266q0 -72 48 -112.5t120 -40.5q117 0 190.5 83t73.5 203v131q-223 -16 -327.5 -87t-104.5 -177zM309 1446h154q16 0 33 -21 l229 -290q5 -5 5 -11q0 -3 -1 -5q-4 -7 -14 -7h-76q-16 0 -41 21l-293 290q-5 5 -4 11q-1 12 8 12z" />
<glyph unicode="&#xe1;" horiz-adv-x="1050" d="M102 233q0 162 157 270.5t458 127.5v67q0 90 -47 136.5t-160 46.5q-125 0 -182 -70q-2 -2 -10.5 -12.5t-10.5 -12.5t-9 -10t-10 -10l-10 -7q-7 -5 -12.5 -6t-13.5 -3t-16 -2q-35 0 -57.5 20t-22.5 57q0 66 95 131.5t273 65.5q375 0 375 -305q0 -63 -5 -217t-5 -209 q0 -201 59 -244q10 -10 10 -24q0 -8 -7 -15.5t-15 -7.5h-90q-39 0 -55 37q-37 66 -41 170q-94 -233 -349 -234q-137 0 -218 72.5t-81 187.5zM285 266q0 -72 48 -112.5t120 -40.5q117 0 190.5 83t73.5 203v131q-223 -16 -327.5 -87t-104.5 -177zM363 1119q-1 2 -2 5q0 5 6 11 l229 290q14 20 33 21h153q9 0 9 -12q0 -6 -5 -11l-292 -290q-25 -20 -41 -21h-76q-10 0 -14 7z" />
<glyph unicode="&#xe2;" horiz-adv-x="1050" d="M102 233q0 162 157 270.5t458 127.5v67q0 90 -47 136.5t-160 46.5q-125 0 -182 -70q-2 -2 -10.5 -12.5t-10.5 -12.5t-9 -10t-10 -10l-10 -7q-7 -5 -12.5 -6t-13.5 -3t-16 -2q-35 0 -57.5 20t-22.5 57q0 66 95 131.5t273 65.5q375 0 375 -305q0 -63 -5 -217t-5 -209 q0 -201 59 -244q10 -10 10 -24q0 -8 -7 -15.5t-15 -7.5h-90q-39 0 -55 37q-37 66 -41 170q-94 -233 -349 -234q-137 0 -218 72.5t-81 187.5zM229 1130l224 295q14 20 30 21h101q14 0 30 -21l224 -295q2 -6 -1 -12t-10 -6h-88q-14 0 -32 18l-181 195l-176 -195 q-18 -18 -33 -18h-81q-10 0 -11 7q0 4 4 11zM285 266q0 -72 48 -112.5t120 -40.5q117 0 190.5 83t73.5 203v131q-223 -16 -327.5 -87t-104.5 -177z" />
<glyph unicode="&#xe3;" horiz-adv-x="1050" d="M102 233q0 162 157 270.5t458 127.5v67q0 90 -47 136.5t-160 46.5q-125 0 -182 -70q-2 -2 -10.5 -12.5t-10.5 -12.5t-9 -10t-10 -10l-10 -7q-7 -5 -12.5 -6t-13.5 -3t-16 -2q-35 0 -57.5 20t-22.5 57q0 66 95 131.5t273 65.5q375 0 375 -305q0 -63 -5 -217t-5 -209 q0 -201 59 -244q10 -10 10 -24q0 -8 -7 -15.5t-15 -7.5h-90q-39 0 -55 37q-37 66 -41 170q-94 -233 -349 -234q-137 0 -218 72.5t-81 187.5zM252 1188q0 102 51 158.5t129 56.5q70 0 143.5 -59.5t110.5 -59.5q33 0 55.5 23.5t22.5 70.5q0 18 18 19q47 0 47 -23 q0 -102 -46 -160.5t-117 -58.5q-51 0 -135.5 64.5t-124.5 64.5q-37 0 -60.5 -28.5t-23.5 -67.5q0 -25 -23 -25q-47 0 -47 25zM285 266q0 -72 48 -112.5t120 -40.5q117 0 190.5 83t73.5 203v131q-223 -16 -327.5 -87t-104.5 -177z" />
<glyph unicode="&#xe4;" horiz-adv-x="1050" d="M102 233q0 162 157 270.5t458 127.5v67q0 90 -47 136.5t-160 46.5q-125 0 -182 -70q-2 -2 -10.5 -12.5t-10.5 -12.5t-9 -10t-10 -10l-10 -7q-7 -5 -12.5 -6t-13.5 -3t-16 -2q-35 0 -57.5 20t-22.5 57q0 66 95 131.5t273 65.5q375 0 375 -305q0 -63 -5 -217t-5 -209 q0 -201 59 -244q10 -10 10 -24q0 -8 -7 -15.5t-15 -7.5h-90q-39 0 -55 37q-37 66 -41 170q-94 -233 -349 -234q-137 0 -218 72.5t-81 187.5zM238 1264q0 43 30.5 73.5t73.5 30.5t73.5 -30.5t30.5 -73.5q0 -41 -30.5 -73t-73.5 -32t-73.5 32t-30.5 73zM285 266 q0 -72 48 -112.5t120 -40.5q117 0 190.5 83t73.5 203v131q-223 -16 -327.5 -87t-104.5 -177zM621 1264q0 43 30.5 73.5t73.5 30.5t73.5 -30.5t30.5 -73.5q0 -41 -30.5 -73t-73.5 -32t-73.5 32t-30.5 73z" />
<glyph unicode="&#xe5;" horiz-adv-x="1050" d="M102 233q0 162 157 270.5t458 127.5v67q0 90 -47 136.5t-160 46.5q-125 0 -182 -70q-2 -2 -10.5 -12.5t-10.5 -12.5t-9 -10t-10 -10l-10 -7q-7 -5 -12.5 -6t-13.5 -3t-16 -2q-35 0 -57.5 20t-22.5 57q0 66 95 131.5t273 65.5q375 0 375 -305q0 -63 -5 -217t-5 -209 q0 -201 59 -244q10 -10 10 -24q0 -8 -7 -15.5t-15 -7.5h-90q-39 0 -55 37q-37 66 -41 170q-94 -233 -349 -234q-137 0 -218 72.5t-81 187.5zM285 266q0 -72 48 -112.5t120 -40.5q117 0 190.5 83t73.5 203v131q-223 -16 -327.5 -87t-104.5 -177zM309 1282q0 90 66.5 149.5 t161 59.5t162 -59.5t67.5 -149.5t-66.5 -148.5t-162.5 -58.5q-94 0 -161 59.5t-67 147.5zM424 1280q0 -51 31.5 -87t81.5 -36q51 0 82.5 36t31.5 87q0 53 -31.5 87t-83 34t-82 -34t-30.5 -87z" />
<glyph unicode="&#xe6;" horiz-adv-x="1640" d="M102 233q0 160 156 269.5t453 128.5v65q0 90 -47.5 137.5t-159.5 47.5q-123 0 -176 -70q-20 -27 -27.5 -35t-26 -19.5t-38.5 -11.5q-35 0 -57.5 21.5t-22.5 58.5q0 66 90 131.5t268 65.5q258 0 315 -199q113 199 365 199q186 0 282.5 -103.5t96.5 -283.5q0 -61 -55 -62 h-629q-8 -41 -8 -112q0 -143 88 -240.5t239 -97.5q154 0 258 82q10 10 24.5 10t14.5 -20v-95q0 -23 -16 -34q-119 -92 -307 -93q-162 0 -266.5 81t-147.5 220q-27 -137 -129 -219t-246 -82q-131 0 -211 72.5t-80 187.5zM285 266q0 -72 48 -112.5t113 -40.5q117 0 191 81.5 t74 202.5v133q-219 -16 -322.5 -87t-103.5 -177zM909 684h500q0 94 -57.5 152.5t-161.5 58.5q-209 0 -281 -211z" />
<glyph unicode="&#xe7;" horiz-adv-x="964" d="M92 481q0 219 148.5 380t388.5 161q158 0 245 -74q49 -35 50 -88q0 -35 -21.5 -60.5t-54.5 -25.5t-74 37q-66 57 -162 57q-150 0 -238.5 -112.5t-88.5 -263.5q0 -174 93 -271.5t236 -97.5q147 0 240 78q16 12 23 12q18 0 18 -25v-88q0 -23 -14 -34q-100 -82 -260 -91 l-105 -94h21q102 0 158.5 -52t56.5 -126q0 -80 -67 -141.5t-185 -61.5q-78 0 -154 23q-12 2 -12 18v60q0 16 14 10q53 -18 111 -19q76 0 108.5 27t32.5 82q0 109 -131 109q-10 0 -19.5 -2.5l-21.5 -5.5t-18 -5q-8 0 -15.5 12.5t-7.5 24.5q0 4 4 12l139 129 q-203 18 -320.5 155.5t-117.5 350.5z" />
<glyph unicode="&#xe8;" horiz-adv-x="1044" d="M92 483q0 215 136.5 377t365.5 162q186 0 283.5 -103.5t97.5 -283.5q0 -61 -55 -62h-627q-10 -47 -10 -110q0 -145 88 -242.5t241.5 -97.5t257.5 82q10 10 23 10q14 0 14 -20v-95q0 -23 -16 -34q-119 -92 -307 -93q-227 0 -359.5 143.5t-132.5 366.5zM311 684h500 q0 94 -57.5 152.5t-161.5 58.5q-209 0 -281 -211zM344 1446h154q18 0 32 -21l230 -290q5 -5 5 -11q0 -3 -1 -5q-4 -7 -14 -7h-76q-16 0 -41 21l-293 290q-5 5 -5 11q0 12 9 12z" />
<glyph unicode="&#xe9;" horiz-adv-x="1044" d="M92 483q0 215 136.5 377t365.5 162q186 0 283.5 -103.5t97.5 -283.5q0 -61 -55 -62h-627q-10 -47 -10 -110q0 -145 88 -242.5t241.5 -97.5t257.5 82q10 10 23 10q14 0 14 -20v-95q0 -23 -16 -34q-119 -92 -307 -93q-227 0 -359.5 143.5t-132.5 366.5zM311 684h500 q0 94 -57.5 152.5t-161.5 58.5q-209 0 -281 -211zM387 1119q-1 2 -1 5q0 5 5 11l230 290q14 20 32 21h154q9 0 9 -12q0 -6 -5 -11l-293 -290q-25 -20 -41 -21h-76q-10 0 -14 7z" />
<glyph unicode="&#xea;" horiz-adv-x="1044" d="M92 483q0 215 136.5 377t365.5 162q186 0 283.5 -103.5t97.5 -283.5q0 -61 -55 -62h-627q-10 -47 -10 -110q0 -145 88 -242.5t241.5 -97.5t257.5 82q10 10 23 10q14 0 14 -20v-95q0 -23 -16 -34q-119 -92 -307 -93q-227 0 -359.5 143.5t-132.5 366.5zM293 1130l223 295 q16 20 31 21h100q14 0 31 -21l223 -295q2 -6 -1 -12t-9 -6h-88q-14 0 -33 18l-180 195l-176 -195q-18 -18 -33 -18h-82q-10 0 -10 7q0 4 4 11zM311 684h500q0 94 -57.5 152.5t-161.5 58.5q-209 0 -281 -211z" />
<glyph unicode="&#xeb;" horiz-adv-x="1044" d="M92 483q0 215 136.5 377t365.5 162q186 0 283.5 -103.5t97.5 -283.5q0 -61 -55 -62h-627q-10 -47 -10 -110q0 -145 88 -242.5t241.5 -97.5t257.5 82q10 10 23 10q14 0 14 -20v-95q0 -23 -16 -34q-119 -92 -307 -93q-227 0 -359.5 143.5t-132.5 366.5zM301 1264 q0 43 30.5 73.5t74 30.5t74 -30.5t30.5 -73.5q0 -41 -30.5 -73t-74 -32t-74 32t-30.5 73zM311 684h500q0 94 -57.5 152.5t-161.5 58.5q-209 0 -281 -211zM684 1264q0 43 30.5 73.5t73.5 30.5t74 -30.5t31 -73.5q0 -41 -31 -73t-74 -32t-73.5 32t-30.5 73z" />
<glyph unicode="&#xec;" horiz-adv-x="493" d="M-8 1446h153q18 0 33 -21l230 -290q5 -5 5 -11q0 -3 -1 -5q-4 -7 -15 -7h-75q-16 0 -41 21l-293 290q-5 5 -5 11q0 12 9 12zM154 18v949q0 20 18 20h150q18 0 18 -20v-949q0 -6 -6 -12t-12 -6h-150q-18 0 -18 18z" />
<glyph unicode="&#xed;" horiz-adv-x="493" d="M84 1119q-1 2 -1 5q0 5 5 11l229 290q14 20 33 21h154q9 0 9 -12q0 -6 -5 -11l-293 -290q-25 -20 -41 -21h-76q-10 0 -14 7zM154 18v949q0 20 18 20h150q18 0 18 -20v-949q0 -6 -6 -12t-12 -6h-150q-18 0 -18 18z" />
<glyph unicode="&#xee;" horiz-adv-x="493" d="M-55 1130l223 295q16 20 31 21h100q14 0 31 -21l223 -295q2 -6 -1 -12t-9 -6h-88q-14 0 -33 18l-180 195l-176 -195q-18 -18 -33 -18h-82q-10 0 -10 7q0 4 4 11zM154 18v949q0 20 18 20h150q18 0 18 -20v-949q0 -6 -6 -12t-12 -6h-150q-18 0 -18 18z" />
<glyph unicode="&#xef;" horiz-adv-x="493" d="M-49 1264q0 43 30.5 73.5t73.5 30.5t74 -30.5t31 -73.5q0 -41 -31 -73t-74 -32t-73.5 32t-30.5 73zM154 18v949q0 20 18 20h150q18 0 18 -20v-949q0 -6 -6 -12t-12 -6h-150q-18 0 -18 18zM334 1264q0 43 30.5 73.5t73.5 30.5t74 -30.5t31 -73.5q0 -41 -31 -73t-74 -32 t-73.5 32t-30.5 73z" />
<glyph unicode="&#xf0;" horiz-adv-x="1146" d="M119 467q0 219 104.5 349t276.5 130q121 0 213 -62.5t131 -162.5q-18 268 -119 438l-215 -59q-16 -4 -23 10l-26 61q-12 25 14 31l170 41q-92 104 -207 105q-78 0 -133 -37t-76 -37q-78 0 -77 86q0 53 57 93t184 40q262 0 430 -199l174 43q18 4 25 -10l31 -67q1 -4 1 -8 q0 -12 -18 -17l-145 -35q141 -229 141 -596q0 -283 -118.5 -457t-340.5 -174q-203 0 -328.5 139.5t-125.5 354.5zM319 453q0 -160 61.5 -252t184.5 -92q121 0 190.5 94t69.5 272q0 150 -65.5 246t-202.5 96q-109 0 -173.5 -88t-64.5 -276z" />
<glyph unicode="&#xf1;" horiz-adv-x="1169" d="M141 969q0 18 17 18h129q14 0 18 -18q12 -86 12 -193q43 111 148.5 178.5t245 67.5t228.5 -84t89 -236v-684q0 -6 -6 -12t-12 -6h-150q-18 0 -18 18v641q0 213 -201 213q-123 0 -211 -83.5t-88 -227.5v-543q0 -6 -6 -12t-12 -6h-150q-18 0 -18 18v787q0 47 -4.5 84 t-7.5 56.5t-3 23.5zM301 1188q0 102 51 158.5t129 56.5q70 0 143.5 -59.5t110.5 -59.5q33 0 55.5 23.5t22.5 70.5q0 18 18 19q47 0 48 -23q0 -102 -46.5 -160.5t-117.5 -58.5q-51 0 -135 64.5t-125 64.5q-37 0 -60.5 -28.5t-23.5 -67.5q0 -25 -23 -25q-47 0 -47 25z" />
<glyph unicode="&#xf2;" horiz-adv-x="1171" d="M90 504q0 213 129 365.5t367 152.5q162 0 276.5 -77t165.5 -190.5t51 -250.5q0 -217 -128 -374t-365 -157q-160 0 -275.5 79t-168 197t-52.5 255zM291 500q0 -172 73.5 -281.5t221 -109.5t221.5 109.5t74 281.5t-74 277.5t-221 105.5q-150 0 -222.5 -105.5t-72.5 -277.5z M338 1446h154q16 0 32 -21l230 -290q5 -5 5 -11q0 -3 -1 -5q-4 -7 -15 -7h-75q-16 0 -41 21l-293 290q-5 5 -5 11q0 12 9 12z" />
<glyph unicode="&#xf3;" horiz-adv-x="1171" d="M90 504q0 213 129 365.5t367 152.5q162 0 276.5 -77t165.5 -190.5t51 -250.5q0 -217 -128 -374t-365 -157q-160 0 -275.5 79t-168 197t-52.5 255zM291 500q0 -172 73.5 -281.5t221 -109.5t221.5 109.5t74 281.5t-74 277.5t-221 105.5q-150 0 -222.5 -105.5t-72.5 -277.5z M397 1119q-1 2 -1 5q0 5 5 11l230 290q16 20 33 21h153q9 0 9 -12q0 -6 -5 -11l-293 -290q-25 -20 -41 -21h-75q-11 0 -15 7z" />
<glyph unicode="&#xf4;" horiz-adv-x="1171" d="M90 504q0 213 129 365.5t367 152.5q162 0 276.5 -77t165.5 -190.5t51 -250.5q0 -217 -128 -374t-365 -157q-160 0 -275.5 79t-168 197t-52.5 255zM283 1130l223 295q14 20 31 21h100q14 0 31 -21l223 -295q2 -6 -1 -12t-9 -6h-88q-14 0 -33 18l-180 195l-177 -195 q-18 -18 -32 -18h-82q-10 0 -10 7q0 4 4 11zM291 500q0 -172 73.5 -281.5t221 -109.5t221.5 109.5t74 281.5t-74 277.5t-221 105.5q-150 0 -222.5 -105.5t-72.5 -277.5z" />
<glyph unicode="&#xf5;" horiz-adv-x="1171" d="M90 504q0 213 129 365.5t367 152.5q162 0 276.5 -77t165.5 -190.5t51 -250.5q0 -217 -128 -374t-365 -157q-160 0 -275.5 79t-168 197t-52.5 255zM291 500q0 -172 73.5 -281.5t221 -109.5t221.5 109.5t74 281.5t-74 277.5t-221 105.5q-150 0 -222.5 -105.5t-72.5 -277.5z M301 1188q0 102 51 158.5t129 56.5q70 0 143.5 -59.5t110.5 -59.5q33 0 55.5 23.5t22.5 70.5q0 18 18 19q47 0 48 -23q0 -102 -46.5 -160.5t-117.5 -58.5q-51 0 -135 64.5t-125 64.5q-37 0 -60.5 -28.5t-23.5 -67.5q0 -25 -23 -25q-47 0 -47 25z" />
<glyph unicode="&#xf6;" horiz-adv-x="1171" d="M90 504q0 213 129 365.5t367 152.5q162 0 276.5 -77t165.5 -190.5t51 -250.5q0 -217 -128 -374t-365 -157q-160 0 -275.5 79t-168 197t-52.5 255zM289 1264q0 43 30.5 73.5t73.5 30.5t74 -30.5t31 -73.5q0 -41 -31 -73t-74 -32t-73.5 32t-30.5 73zM291 500 q0 -172 73.5 -281.5t221 -109.5t221.5 109.5t74 281.5t-74 277.5t-221 105.5q-150 0 -222.5 -105.5t-72.5 -277.5zM672 1264q0 43 30.5 73.5t73.5 30.5t74 -30.5t31 -73.5q0 -41 -31 -73t-74 -32t-73.5 32t-30.5 73z" />
<glyph unicode="&#xf7;" horiz-adv-x="1024" d="M94 504v117q0 20 19 20h798q18 0 19 -20v-117q0 -6 -6 -12.5t-13 -6.5h-798q-19 1 -19 19zM395 891q0 45 33 76.5t78 31.5t77.5 -31.5t32.5 -76.5t-32.5 -79t-77.5 -34t-78 33t-33 80zM395 246q0 45 32 76.5t79 31.5q45 0 77.5 -31.5t32.5 -76.5t-32.5 -78t-77.5 -33 q-47 0 -79 33t-32 78z" />
<glyph unicode="&#xf8;" horiz-adv-x="1173" d="M45 10q0 4 4 8l148 148q-104 139 -105 338q0 213 128 365.5t368 152.5q193 0 325 -117l60 62q27 20 35 20h102q12 0 15 -8q1 -3 1 -6q0 -5 -4 -10l-137 -136q96 -129 96 -323q0 -217 -128 -374t-365 -157q-190 0 -320 115l-67 -70q-14 -18 -31 -18h-113q-6 0 -9 3t-3 7z M291 504q0 -121 41 -197l471 481q-78 96 -215 97q-150 0 -223.5 -105.5t-73.5 -275.5zM373 203q80 -97 215 -97q147 0 221 111t74 283q0 100 -39 184z" />
<glyph unicode="&#xf9;" horiz-adv-x="1169" d="M141 293v676q0 6 6.5 12t12.5 6h149q18 0 19 -18v-633q0 -213 202 -213q123 0 210 83t87 224v539q0 6 6.5 12t12.5 6h149q18 0 19 -18v-787q0 -47 4 -85t8 -56t4 -23q0 -18 -16 -18h-131q-14 0 -19 18q-12 86 -12 197q-43 -109 -147.5 -175.5t-245.5 -66.5 q-139 0 -228.5 84t-89.5 236zM352 1446h154q18 0 33 -21l229 -290q5 -5 5 -11q0 -3 -1 -5q-4 -7 -14 -7h-76q-16 0 -41 21l-293 290q-5 5 -4 11q-1 12 8 12z" />
<glyph unicode="&#xfa;" horiz-adv-x="1169" d="M141 293v676q0 6 6.5 12t12.5 6h149q18 0 19 -18v-633q0 -213 202 -213q123 0 210 83t87 224v539q0 6 6.5 12t12.5 6h149q18 0 19 -18v-787q0 -47 4 -85t8 -56t4 -23q0 -18 -16 -18h-131q-14 0 -19 18q-12 86 -12 197q-43 -109 -147.5 -175.5t-245.5 -66.5 q-139 0 -228.5 84t-89.5 236zM422 1119q-1 2 -1 5q0 5 5 11l229 290q16 20 33 21h154q9 0 8 -12q0 -6 -4 -11l-293 -290q-25 -20 -41 -21h-76q-10 0 -14 7z" />
<glyph unicode="&#xfb;" horiz-adv-x="1169" d="M141 293v676q0 6 6.5 12t12.5 6h149q18 0 19 -18v-633q0 -213 202 -213q123 0 210 83t87 224v539q0 6 6.5 12t12.5 6h149q18 0 19 -18v-787q0 -47 4 -85t8 -56t4 -23q0 -18 -16 -18h-131q-14 0 -19 18q-12 86 -12 197q-43 -109 -147.5 -175.5t-245.5 -66.5 q-139 0 -228.5 84t-89.5 236zM283 1130l223 295q14 20 31 21h100q14 0 31 -21l223 -295q2 -6 -1 -12t-9 -6h-88q-14 0 -33 18l-180 195l-177 -195q-18 -18 -32 -18h-82q-10 0 -10 7q0 4 4 11z" />
<glyph unicode="&#xfc;" horiz-adv-x="1169" d="M141 293v676q0 6 6.5 12t12.5 6h149q18 0 19 -18v-633q0 -213 202 -213q123 0 210 83t87 224v539q0 6 6.5 12t12.5 6h149q18 0 19 -18v-787q0 -47 4 -85t8 -56t4 -23q0 -18 -16 -18h-131q-14 0 -19 18q-12 86 -12 197q-43 -109 -147.5 -175.5t-245.5 -66.5 q-139 0 -228.5 84t-89.5 236zM289 1264q0 43 30.5 73.5t73.5 30.5t74 -30.5t31 -73.5q0 -41 -31 -73t-74 -32t-73.5 32t-30.5 73zM672 1264q0 43 30.5 73.5t73.5 30.5t74 -30.5t31 -73.5q0 -41 -31 -73t-74 -32t-73.5 32t-30.5 73z" />
<glyph unicode="&#xfd;" horiz-adv-x="970" d="M8 -276q0 20 17 20q8 0 16 -6q35 -20 78 -21q176 0 278 277l-387 964q-4 10 -4 16q0 13 17 13h157q20 0 27 -20l192 -533q74 -229 93 -295q33 127 90 293l196 535q6 20 27 20h143q17 0 18 -13q0 -6 -3 -13l-388 -990q-88 -221 -197.5 -315t-250.5 -94q-70 0 -107 16 q-12 6 -12 31v115zM332 1119q-1 2 -2 5q0 5 6 11l229 290q16 20 33 21h154q9 0 8 -12q0 -6 -4 -11l-293 -290q-25 -20 -41 -21h-76q-10 0 -14 7z" />
<glyph unicode="&#xfe;" horiz-adv-x="1200" d="M164 -399v1824q0 20 18 21h150q18 0 18 -21l-26 -632q33 109 116.5 169t206.5 60q223 0 343 -155.5t120 -377.5q0 -209 -127 -362.5t-330 -153.5q-236 0 -311 183q8 -248 8 -555q0 -20 -18 -21h-150q-18 1 -18 21zM350 346q0 -102 65.5 -171t186.5 -69q143 0 225 105.5 t82 286.5q0 190 -82 288.5t-223 98.5q-121 0 -187.5 -77t-66.5 -198v-264z" />
<glyph unicode="&#xff;" horiz-adv-x="970" d="M8 -276q0 20 17 20q8 0 16 -6q35 -20 78 -21q176 0 278 277l-387 964q-4 10 -4 16q0 13 17 13h157q20 0 27 -20l192 -533q74 -229 93 -295q33 127 90 293l196 535q6 20 27 20h143q17 0 18 -13q0 -6 -3 -13l-388 -990q-88 -221 -197.5 -315t-250.5 -94q-70 0 -107 16 q-12 6 -12 31v115zM199 1264q0 43 30.5 73.5t73.5 30.5t74 -30.5t31 -73.5q0 -41 -31 -73t-74 -32t-73.5 32t-30.5 73zM582 1264q0 43 30.5 73.5t73.5 30.5t74 -30.5t31 -73.5q0 -41 -31 -73t-74 -32t-73.5 32t-30.5 73z" />
<glyph unicode="&#x152;" horiz-adv-x="2326" d="M121 745q0 336 214 542t513 206q137 0 266 -47h1118q14 0 15 -19l14 -127q0 -16 -14 -16q-59 0 -221 2t-224 2q-354 0 -469 8q215 -168 240 -467q90 6 219 7q59 0 135 1t94 1q12 0 13 -19v-123q0 -16 -13 -16q-18 0 -93 1t-134 1q-86 0 -221 8q-4 -176 -72.5 -316.5 t-189.5 -223.5q131 8 512 8q66 0 230.5 2t223.5 2q14 0 15 -19l-17 -127q0 -16 -14 -16h-1206q-94 -27 -207 -27q-307 0 -517 213t-210 559zM350 745q0 -270 132 -438t366 -168q240 0 370 165t130 441q0 283 -138.5 431.5t-359.5 148.5t-360.5 -147.5t-139.5 -432.5z" />
<glyph unicode="&#x153;" horiz-adv-x="1822" d="M92 504q0 213 128 365.5t368 152.5q270 0 393 -217q133 217 391 217q186 0 284.5 -103.5t98.5 -285.5q0 -59 -59 -60h-625q-10 -47 -10 -110q0 -145 88 -242.5t241.5 -97.5t258.5 82q12 10 22 10q14 0 15 -20v-95q0 -23 -17 -34q-119 -92 -305 -93q-270 0 -393 203 q-123 -203 -383 -203q-238 0 -367 157t-129 374zM293 500q0 -174 72.5 -282.5t222.5 -108.5q147 0 220 109.5t73 281.5q0 174 -73 278.5t-220 104.5q-150 0 -222.5 -105.5t-72.5 -277.5zM1090 684h501q0 94 -58 152.5t-163 58.5q-208 0 -280 -211z" />
<glyph unicode="&#x178;" horiz-adv-x="1388" d="M0 1413q-10 14 -10 22q0 11 20 11h191q25 0 35 -23l335 -444q86 -123 123 -207q59 113 127 205l338 446q14 23 43 23h172q20 0 21 -11q0 -8 -11 -22l-591 -782v-613q0 -6 -6.5 -12t-12.5 -6h-170q-18 0 -18 18v613zM391 1657q0 43 31 73.5t74 30.5t73.5 -30.5t30.5 -73.5 q0 -41 -30.5 -72t-73.5 -31t-74 31t-31 72zM788 1657q0 43 31 73.5t74 30.5t73.5 -30.5t30.5 -73.5q0 -41 -30.5 -72t-73.5 -31t-74 31t-31 72z" />
<glyph unicode="&#x2c6;" horiz-adv-x="940" d="M168 1130l223 295q14 20 31 21h100q14 0 31 -21l223 -295q2 -6 -1 -12t-9 -6h-88q-14 0 -33 18l-180 195l-176 -195q-18 -18 -33 -18h-82q-10 0 -10 7q0 4 4 11z" />
<glyph unicode="&#x2dc;" horiz-adv-x="968" d="M201 1188q0 102 51 158.5t129 56.5q70 0 143.5 -59.5t110.5 -59.5q33 0 55.5 23.5t22.5 70.5q0 18 18 19q47 0 47 -23q0 -102 -46 -160.5t-118 -58.5q-53 0 -137 64.5t-123 64.5q-37 0 -60.5 -28.5t-23.5 -67.5q0 -25 -22 -25q-47 0 -47 25z" />
<glyph unicode="&#x2013;" horiz-adv-x="1024" d="M94 494v124q0 20 19 21h798q18 0 19 -21v-124q0 -6 -6 -12.5t-13 -6.5h-798q-19 1 -19 19z" />
<glyph unicode="&#x2014;" horiz-adv-x="1484" d="M94 494v124q0 20 19 21h1261q18 0 19 -21v-124q0 -6 -6.5 -12.5t-12.5 -6.5h-1261q-19 1 -19 19z" />
<glyph unicode="&#x2018;" horiz-adv-x="444" d="M66 1079l192 457q8 20 23 20h84q20 0 16 -20l-121 -461q-8 -20 -22 -20h-158q-20 -1 -14 24z" />
<glyph unicode="&#x2019;" horiz-adv-x="444" d="M68 1077l122 461q4 20 21 21h158q8 0 13 -8q3 -4 3 -8q0 -3 -2 -7l-193 -459q-8 -20 -22 -20h-84q-20 0 -16 20z" />
<glyph unicode="&#x201a;" horiz-adv-x="444" d="M63 -248l123 461q4 20 21 20h158q8 0 13 -7q3 -4 3 -8q0 -3 -2 -7l-193 -459q-8 -20 -22 -20h-82q-23 0 -19 20z" />
<glyph unicode="&#x201c;" horiz-adv-x="804" d="M66 1079l192 457q8 20 23 20h82q23 0 18 -20l-121 -461q-8 -20 -22 -20h-158q-8 0 -13 7q-3 4 -3 9q0 3 2 8zM428 1079l190 457q8 20 23 20h84q20 0 16 -20l-120 -461q-8 -20 -23 -20h-158q-6 0 -11 7q-3 4 -3 9q0 3 2 8z" />
<glyph unicode="&#x201d;" horiz-adv-x="802" d="M63 1077l121 461q8 20 23 21h158q6 0 11 -7.5t1 -15.5l-191 -459q-8 -20 -24 -20h-82q-21 0 -17 20zM424 1077l121 461q8 20 22 21h158q6 0 11 -7.5t3 -15.5l-192 -459q-8 -20 -23 -20h-84q-20 0 -16 20z" />
<glyph unicode="&#x201e;" horiz-adv-x="802" d="M63 -248l121 461q8 20 23 20h158q6 0 11 -7t1 -15l-191 -459q-8 -20 -24 -20h-82q-21 0 -17 20zM424 -248l121 461q8 20 22 20h158q6 0 11 -7t3 -15l-192 -459q-8 -20 -23 -20h-84q-20 0 -16 20z" />
<glyph unicode="&#x2022;" horiz-adv-x="856" d="M104 520q0 131 95.5 226.5t228.5 95.5q131 0 226.5 -95.5t95.5 -226.5q0 -133 -95.5 -227t-226.5 -94q-133 0 -228.5 94t-95.5 227z" />
<glyph unicode="&#x2026;" horiz-adv-x="1953" d="M205 115q0 53 38 91t91 38q55 0 93 -38t38 -91q0 -55 -38 -93t-93 -38q-53 0 -91 38t-38 93zM846 115q0 53 39 91t92 38t91 -38t38 -91q0 -55 -38 -93t-91 -38t-92 38t-39 93zM1489 115q0 53 38 91t93 38q53 0 91 -38t38 -91q0 -55 -38 -93t-91 -38q-55 0 -93 38t-38 93z " />
<glyph unicode="&#x2039;" horiz-adv-x="802" d="M84 508q0 41 16 53l594 387q9 7 15 7q10 0 10 -19v-59q0 -25 -17 -41l-401 -314l404 -344q14 -12 14 -35v-67q0 -10 -7 -14q-3 -1 -7 -1t-9 2l-596 392q-16 16 -16 53z" />
<glyph unicode="&#x203a;" horiz-adv-x="802" d="M84 80v59q0 25 18 41l400 314l-404 344q-14 12 -14 34v68q0 10 7 13l6 2q4 0 9 -3l596 -391q16 -16 17 -53q0 -41 -17 -53l-591 -387q-10 -6 -16 -6q-11 0 -11 18z" />
<glyph unicode="&#x20ac;" horiz-adv-x="1392" d="M49 541v90q0 16 23 16q27 0 131 -6q-4 49 -4 72q0 55 10 127q-102 -4 -146 -4q-14 0 -14 18v92q0 16 25 17q84 0 157 -5q66 233 232 384t422 151q127 0 246.5 -43t119.5 -98v-144q0 -33 -26 -32q-10 0 -23 12q-125 139 -317 139q-174 0 -292 -104.5t-163 -266.5 q90 6 180 7h228q14 0 14 -21v-90q0 -16 -16 -16h-252q-88 0 -176 6q-8 -55 -9 -115q0 -35 4 -88q113 8 211 8h224q14 0 14 -18v-92q0 -16 -16 -17h-242q-90 0 -172 6q41 -180 159.5 -288.5t284.5 -108.5q211 0 342 125q10 10 23 10q20 0 20 -31v-102q0 -29 -22 -43 q-150 -115 -395 -115q-240 0 -405 156t-212 395q-78 -6 -151 -6q-17 0 -17 23z" />
<glyph unicode="&#x2122;" horiz-adv-x="1550" d="M100 1358l4 82q0 6 7 6h483q6 0 6 -6l4 -82q0 -6 -6 -6l-184 2v-428q0 -8 -8 -8h-105q-8 0 -8 8v428l-187 -2q-6 0 -6 6zM717 926v514q0 6 8 6h154q10 0 12 -6l143 -391l140 391q2 6 10 6h149q8 0 8 -6v-514q0 -8 -8 -8h-92q-10 0 -10 8l10 430l-164 -430q0 -8 -8 -8h-78 q-6 0 -10 8l-164 430l10 -430q0 -8 -8 -8h-94q-8 0 -8 8z" />
<glyph unicode="&#xe000;" horiz-adv-x="985" d="M0 985h985v-985h-985v985z" />
<glyph unicode="&#xfb01;" horiz-adv-x="1112" d="M49 860v107q0 18 12 18q74 0 132 -6q-8 53 -9 106v70q0 145 95.5 227t267.5 82q29 0 28 -30v-101q0 -23 -22 -22q-109 0 -148.5 -42t-39.5 -155v-43q0 -39 -9 -92q80 6 228 6h356q18 0 18 -20v-947q0 -6 -6 -12t-12 -6h-149q-18 0 -19 18v615q0 166 6 227 q-68 -10 -211 -10q-63 0 -207 8q10 -106 11 -371v-469q0 -6 -6.5 -12t-12.5 -6h-149q-18 0 -19 18v463q0 289 9 371q-82 -8 -132 -8q-12 0 -12 16zM750 1339q0 45 34.5 80t79.5 35q47 0 81 -34t34 -81t-34 -78.5t-81 -31.5t-80.5 31.5t-33.5 78.5z" />
<glyph unicode="&#xfb02;" horiz-adv-x="1112" d="M49 862v107q0 18 12 18q80 0 132 -8q-8 82 -9 158q0 156 93.5 241.5t271.5 85.5q29 0 29 -28v-103q0 -23 -25 -22q-109 0 -147.5 -41t-38.5 -154q0 -59 -9 -137q119 8 205 8q137 0 215 -8q-6 66 -6 143v303q0 20 19 21h149q18 0 18 -21v-1407q0 -6 -6 -12t-12 -6h-149 q-18 0 -19 18v615q0 147 8 227q-82 -8 -209 -8q-100 0 -209 6q8 -119 9 -227v-613q0 -6 -6.5 -12t-12.5 -6h-149q-18 0 -19 18v607q0 117 9 227q-61 -6 -132 -6q-12 0 -12 16z" />
<glyph unicode="&#xfb03;" horiz-adv-x="1697" d="M49 862v107q0 18 12 18q80 0 132 -8q-8 82 -9 158q0 150 96.5 238.5t290.5 88.5q29 0 29 -28v-111q0 -23 -22 -22q-123 0 -167 -41t-44 -148q0 -57 -9 -135q100 8 209 8q162 0 213 -8q-8 82 -8 158q0 156 93 241.5t272 85.5q29 0 28 -28v-103q0 -23 -24 -22 q-109 0 -148 -41t-39 -154q0 -59 -8 -137q106 8 228 8h354q18 0 18 -20v-949q0 -6 -6 -12t-12 -6h-150q-18 0 -18 18v615q0 147 8 227q-82 -8 -211 -8q-100 0 -207 6q8 -119 8 -227v-613q0 -6 -6 -12t-12 -6h-149q-18 0 -19 18v613q0 113 8 227q-61 -6 -207 -6 q-103 0 -211 6q8 -119 9 -227v-613q0 -6 -6.5 -12t-12.5 -6h-149q-18 0 -19 18v607q0 117 9 227q-61 -6 -132 -6q-12 0 -12 16zM1337 1339q0 47 34 81t81 34t81 -34t34 -81q0 -45 -34 -76.5t-81 -31.5t-81 31.5t-34 76.5z" />
<glyph unicode="&#xfb04;" horiz-adv-x="1699" d="M49 862v107q0 18 12 18q80 0 132 -8q-8 82 -9 158q0 150 96.5 238.5t290.5 88.5q29 0 29 -28v-111q0 -23 -22 -22q-123 0 -167 -41t-44 -148q0 -57 -9 -135q100 8 209 8q162 0 213 -8q-8 82 -8 158q0 156 93 241.5t272 85.5q29 0 28 -28v-103q0 -23 -24 -22 q-109 0 -148 -41t-39 -154q0 -59 -8 -137q100 8 213 8q133 0 207 -8q-8 86 -8 143v303q0 20 18 21h150q18 0 18 -21v-1407q0 -6 -6 -12t-12 -6h-150q-18 0 -18 18v615q0 129 10 227q-78 -8 -211 -8q-100 0 -207 6q8 -119 8 -227v-613q0 -6 -6 -12t-12 -6h-149q-18 0 -19 18 v613q0 113 8 227q-61 -6 -207 -6q-103 0 -211 6q8 -119 9 -227v-613q0 -6 -6.5 -12t-12.5 -6h-149q-18 0 -19 18v607q0 117 9 227q-61 -6 -132 -6q-12 0 -12 16z" />
<glyph horiz-adv-x="516" />
</font>
</defs>
</svg>
