<svg id="Layer_1" data-name="Layer 1" xmlns="http://www.w3.org/2000/svg" viewBox="0 0 900 900"><defs><style>.cls-1,.cls-4{fill:#fff;}.cls-1,.cls-3{opacity:0.7;}.cls-2,.cls-3{fill:#676b59;}</style></defs><title>Artboard 1</title><circle class="cls-1" cx="311.2" cy="311.2" r="244.44"/><circle class="cls-1" cx="588.8" cy="588.8" r="244.44"/><circle class="cls-1" cx="311.2" cy="588.8" r="244.44"/><circle class="cls-1" cx="588.8" cy="311.2" r="244.44"/><path class="cls-2" d="M484.05,138.35l-.36.35A243.94,243.94,0,1,1,311.2,67.25,243.18,243.18,0,0,1,483.69,138.7l.36-.35.35-.35a244.95,244.95,0,1,0,71.74,173.2A244.19,244.19,0,0,0,484.4,138Z"/><path class="cls-2" d="M761.65,416l-.35.36a243.95,243.95,0,1,1-345,0C462,370.65,521.2,345,581,345c65,0,130.7,21.71,180.32,71.33l.35-.36.35-.35C712.18,365.77,646.23,344,581,344c-60.07,0-119.55,25.79-165.38,71.62a245,245,0,1,0,346.4,0Z"/><path class="cls-2" d="M138.35,416l.35.36a243.94,243.94,0,1,1,345,345c-48,48-110.93,71.44-173.79,71.44-62,0-123.89-24.14-171.2-71.44C90.08,712.67,67.29,648.63,67.29,584.89c0-61.11,24.77-121.94,71.41-168.58l-.35-.36-.35-.35C91.17,462.43,66.29,523.51,66.29,584.89c0,64,22.88,128.29,71.71,177.11,47.49,47.5,109.64,71.74,171.9,71.74,63.11,0,126.34-23.58,174.5-71.74A244.94,244.94,0,0,0,138,415.6Z"/><path class="cls-2" d="M416,138.35l.36.35a243.95,243.95,0,1,1,0,345c-48.63-48.62-71.42-112.66-71.42-176.4,0-61.11,24.77-121.94,71.42-168.59l-.36-.35-.35-.35c-46.83,46.82-71.71,107.9-71.71,169.29,0,64,22.88,128.28,71.71,177.11a245,245,0,1,0,0-346.4Z"/><path class="cls-2" d="M182.19,322.56a10.88,10.88,0,0,1-5.77,5.3.74.74,0,0,0-.4.31c-.11.24,0,.42.32.57l1.44.69a.79.79,0,0,0,.76,0,11.11,11.11,0,0,0,5.71-6c2.16-4.53,1.2-9.15-2.91-11.11-3.78-1.8-6.77-.2-10.6,3.32-2.61,2.29-4.78,4.37-7.73,3-2.33-1.11-3.4-3.81-2-6.83a8.14,8.14,0,0,1,5-4.35.72.72,0,0,0,.41-.34.43.43,0,0,0-.25-.63l-1.71-.82a.87.87,0,0,0-.9-.05,10.51,10.51,0,0,0-4.55,5c-2.37,5-.36,9.14,2.9,10.69,4,1.9,7.17-.28,9.78-2.66,3.41-3,5.41-5.08,8.64-3.55C182.89,316.33,183.73,319.34,182.19,322.56Z"/><path class="cls-2" d="M196,316.76c1.56-2.78,1-6.24-2.77-11l-12.25-15.09c-.21-.25-.41-.28-.54,0l-.9,1.62a.52.52,0,0,0,.07.65l7,8.33c1.11,1.36,2.33,2.69,3.87,4.29a53.2,53.2,0,0,0-5.72-1.06L174,302.83a.54.54,0,0,0-.6.28l-1,1.82c-.11.2,0,.43.32.44l19,2.32c3.09,3.82,3.15,6.37,2.28,7.93a1.84,1.84,0,0,1-.89.9.77.77,0,0,0-.22.22c0,.1,0,.26.19.37l1.49.83a.42.42,0,0,0,.48,0A4.2,4.2,0,0,0,196,316.76Z"/><path class="cls-2" d="M200.91,293.17c2.11-3.34,1.77-6.84-.84-8.48s-4.77-.56-7.74,1.79c-1.73,1.38-3.14,2.61-5,1.43-1.28-.82-1.87-2.58-.57-4.64a5,5,0,0,1,3-2.21,1.14,1.14,0,0,0,.81-.57,1.19,1.19,0,0,0-.47-1.6,1.48,1.48,0,0,0-1.3-.15,7.27,7.27,0,0,0-3.67,3.17c-2.17,3.43-1.3,6.82,1,8.24,2.89,1.83,5.22.34,7.21-1.23,2.19-1.76,3.7-3.15,5.53-2,1.41.89,1.83,2.87.4,5.11a7.38,7.38,0,0,1-3.9,3.11.89.89,0,0,0-.47.33c-.11.16.05.34.24.47l1.09.69a.84.84,0,0,0,.76.07A8.69,8.69,0,0,0,200.91,293.17Z"/><path class="cls-2" d="M191.33,275.27c0,.22.11.36.36.53s.53.18.66,0c.3-.43.86-1.29,1.23-2a38.17,38.17,0,0,0,3.34,2.52l5.76,4c3.12,2.18,5.81,1.37,7.42-.93a7.25,7.25,0,0,0,.77-1.37.41.41,0,0,0-.11-.5l-1.44-1c-.18-.13-.36-.07-.4.18a3.91,3.91,0,0,1-.58,1.22c-.89,1.28-2.08,1.65-4.26.13l-5.7-4c-1.65-1.16-2.49-1.75-3.4-2.29.8-1,1.66-2.18,2.42-3.27.11-.16.06-.28-.1-.39l-1.18-.83c-.19-.13-.35-.1-.43,0-.74,1.06-1.74,2.55-2.27,3.38a27,27,0,0,0-2.32-1.86l-.84-.58a.36.36,0,0,0-.58.1c-.11.15-.13.24,0,.46A12.46,12.46,0,0,1,191.33,275.27Z"/><path class="cls-2" d="M210.7,256.73l-6.23,8c-1.42-2.26-1.72-4.72.15-7.11A4.07,4.07,0,0,1,210.7,256.73Zm7.64,11.72a9.71,9.71,0,0,0,2-5.43.56.56,0,0,0-.28-.56l-1-.77c-.18-.14-.32-.15-.41,0s-.09.17-.06.39a8.09,8.09,0,0,1-1.83,4.83c-2.57,3.3-6.54,3.2-9.53.86a12.49,12.49,0,0,1-1.78-1.67l7.44-9.56a.77.77,0,0,0-.13-1.26c-3.36-2.61-6.95-2.33-9.68,1.18-3.66,4.71-1.64,10.33,2.29,13.39C209.72,273.15,214.88,272.89,218.34,268.45Z"/><path class="cls-2" d="M226.41,241.18a5.37,5.37,0,0,1-.47-7.78c1.68-1.82,3.51-1.78,5.35-.08l9.21,8.52a.37.37,0,0,0,.48,0l1.34-1.45a.41.41,0,0,0,0-.48L232.73,231c-2.48-2.29-5.51-2.15-7.68.2a7.13,7.13,0,0,0-1.53,7.64,5,5,0,0,0-6.39,1,7.38,7.38,0,0,0-1.52,7.75,21.42,21.42,0,0,0-2.5-2,.42.42,0,0,0-.49,0l-1.21,1.31a.38.38,0,0,0,.05.46,10.86,10.86,0,0,1,2,1.48l11.07,10.24a.37.37,0,0,0,.49,0l1.34-1.45a.41.41,0,0,0,0-.48l-7.5-6.94c-3-2.73-2.66-6.19-.88-8.11s3.58-1.81,5.23-.29l9.34,8.65a.38.38,0,0,0,.49,0l1.34-1.45a.42.42,0,0,0,0-.49Z"/><path class="cls-2" d="M248.37,199.68c0-.16-.25-.29-.36-.19l-1.59,1.36a.78.78,0,0,0-.15.64l8.7,37.22a.26.26,0,0,0,.4.11l1.58-1.36c.12-.1.14-.42.13-.56Z"/><path class="cls-2" d="M268.79,183.18c-5.75,3.91-8.08,11.84-3.22,19,5,7.32,13.08,8.42,19.08,4.34,6.44-4.38,7.88-12.21,3-19.37C282.67,179.8,274.48,179.31,268.79,183.18Zm14.56,21.39c-5.31,3.62-11.27,1.42-15.11-4.24-4.39-6.44-2.62-12.15,1.91-15.23s10.47-2.57,14.83,3.84C288.94,194.75,288.72,200.92,283.35,204.57Z"/><path class="cls-2" d="M299.44,181.57c-1,.53-2.16,1.2-3.15,1.84-.68-1.36-2.07-3.85-2.88-5.31s-2.1-3.74-2.89-5c1.26-.62,2.52-1.32,3.75-2,3.85-2.15,6.59-.68,8.16,2.14C304.34,176.64,303.35,179.38,299.44,181.57Zm1.1,1.9c5.77-3.23,6.95-7.59,4.67-11.67-2.1-3.74-6.4-5.82-12.17-2.59l-5.73,3.21c-.14.07-.19.36-.06.6l12.69,22.67a.37.37,0,0,0,.47.14l1.92-1.08a.41.41,0,0,0,.13-.47l-2.52-4.5c-.88-1.56-1.78-3.19-2.65-4.58C298.17,184.75,299.25,184.19,300.54,183.47Z"/><path class="cls-2" d="M321.75,185c3.56-1.72,5.11-4.88,3.77-7.65s-3.76-3-7.52-2.57c-2.2.26-4,.56-5-1.42-.67-1.37-.23-3.18,2-4.24a5,5,0,0,1,3.69-.31,1.16,1.16,0,0,0,1-.05,1.19,1.19,0,0,0,.45-1.61,1.46,1.46,0,0,0-1-.81,7.17,7.17,0,0,0-4.79.75c-3.66,1.77-4.71,5.1-3.55,7.49,1.49,3.08,4.26,3,6.77,2.76,2.8-.33,4.81-.71,5.75,1.24.73,1.5,0,3.4-2.36,4.55a7.44,7.44,0,0,1-4.95.58.9.9,0,0,0-.58,0c-.17.08-.14.32,0,.52l.56,1.17a.86.86,0,0,0,.61.46A8.74,8.74,0,0,0,321.75,185Z"/><path class="cls-2" d="M640.48,199.61c-1.49,2-4,2.4-7.46-.13-.92-.68-1.92-1.37-2.85-2,.9-1.08,1.86-2.31,2.74-3.5s1.66-2.32,2.48-3.55c1,.82,2.25,1.75,3.32,2.54C641.67,195.19,642.16,197.35,640.48,199.61Zm-13,11.45c-1.52-1.13-3.26-2.37-4.83-3.44,1.1-1.36,2.17-2.74,3.17-4.08s2-2.75,2.89-4.1c1.08.89,2.37,1.9,3.53,2.75,3.91,2.9,4.27,5.81,2.42,8.31S630.46,213.23,627.52,211.06Zm-1.23,2.63c4.46,3.3,8.79,3,11.34-.45s1.17-8-1.72-10.45c2.85,1.26,6.31,1.18,8.23-1.42,1.72-2.32,2.26-6.18-3.3-10.29l-6.54-4.84a.37.37,0,0,0-.5.11l-15.53,21a.37.37,0,0,0,.07.48Z"/><path class="cls-2" d="M654.25,217.67a1.64,1.64,0,0,0,2.38-.47c.89-1,.89-2.64-.94-4.19-2.12-1.79-4.93-1.58-7.42,0a28.39,28.39,0,0,0,2.26-3,.42.42,0,0,0,0-.48l-1.83-1.55a.38.38,0,0,0-.46.07,17,17,0,0,1-1.76,2.49L637,221.62a.37.37,0,0,0,0,.48l2.12,1.79a.39.39,0,0,0,.48,0l6.43-7.6c1.87-2.21,4.58-3.3,6.55-1.63C654.18,215.92,653.26,216.83,654.25,217.67Z"/><path class="cls-2" d="M665.27,221.73c-3.59-3.39-6.59-3-7.48-2a1.37,1.37,0,0,0,.09,2.07c.61.57,1.22.42,2,.32a4.1,4.1,0,0,1,3.35,1.38c2.1,2,1.9,3.57.47,5.09l-.86.91c-5.92-5-10.74-5.22-13.35-2.46-1.9,2-1.79,4.94.72,7.32a6.55,6.55,0,0,0,7.67,1.28,7.32,7.32,0,0,0-1.61,2.81,1,1,0,0,0,.28,1.21l1.21,1.14a.47.47,0,0,0,.6,0,.55.55,0,0,0,.17-.47c-.13-.69.48-2.11,2.3-4,1.44-1.52,4-4,5.56-5.62C668.66,228.27,669.06,225.3,665.27,221.73Zm-3.66,9.09-1.67,1.76c-2,2.16-5.09,2.52-7.21.51a2.84,2.84,0,0,1-.31-4.21C654.09,227.11,657.07,227.1,661.61,230.82Z"/><path class="cls-2" d="M674.07,231.62a16.66,16.66,0,0,1-2.05,2.26l-10.71,9.91a.36.36,0,0,0,0,.48l1.88,2a.42.42,0,0,0,.49,0l7.39-6.84a5.5,5.5,0,0,1,8,.15c1.54,1.67,1.66,3.53-.38,5.42L670,253.13a.38.38,0,0,0,0,.49l1.89,2a.41.41,0,0,0,.48,0l9.32-8.62a5.53,5.53,0,0,0,.35-8.35,7.59,7.59,0,0,0-8.3-2.26,27.82,27.82,0,0,0,2.46-2.59.39.39,0,0,0,0-.48l-1.62-1.76A.38.38,0,0,0,674.07,231.62Z"/><path class="cls-2" d="M688.91,265.4c-2.23,1.78-4.94,1.91-6.89-.53-2.13-2.67-1.63-5.94,2.17-9,3.44-2.75,6.91-2.79,9.14,0a4.36,4.36,0,0,1-.65,6.5ZM686,272.56a36.93,36.93,0,0,1,3.49-3.23L706.21,256a.39.39,0,0,0,.09-.51l-1.74-2.16a.4.4,0,0,0-.51,0c-2.79,2.22-5.79,4.67-8.43,7a6,6,0,0,0-.92-6.7c-3.21-4-8.56-4-12.83-.6-4.43,3.54-5.44,8.91-2.4,12.71a6.24,6.24,0,0,0,7.12,2.34,22.07,22.07,0,0,0-2.41,2.22.45.45,0,0,0-.06.48l1.43,1.78A.31.31,0,0,0,686,272.56Z"/><path class="cls-2" d="M166.24,599a12.47,12.47,0,0,1-1.35-7.5.86.86,0,0,0,0-.63c-.16-.3-.54-.36-.94-.15l-3.33,1.77a1.31,1.31,0,0,0-.84,1.17c-.17,2.11.23,4.57,2.05,8,2.78,5.24,7.6,8,12.54,5.4,3.39-1.8,4.73-4.62,3.55-10.66-.42-2.58-.94-5.1.84-6,1.28-.68,2.82-.29,4,1.86a10.44,10.44,0,0,1,1,7.51.85.85,0,0,0,0,.54.64.64,0,0,0,.92.2l4.13-2.19c.67-.36.82-.65.81-1.16a14.41,14.41,0,0,0-1.87-7c-3.26-6.14-8.63-7.51-12.73-5.34-3.66,1.94-4.35,5.5-3.56,10.24.66,4,.78,5.6-.86,6.48C169.12,602.26,167.58,601.54,166.24,599Z"/><path class="cls-2" d="M177.79,620.72c-1.44-2.29-.27-4.14,2.82-6.08s5.1-2.18,6.57.17.29,4-2.73,5.94S179.2,623,177.79,620.72Zm13.09-8.23c-3.53-5.63-9.36-5.7-13.48-3.11s-6.72,8-3.19,13.58,9.43,5.57,13.58,3S194.44,618.15,190.88,612.49Z"/><path class="cls-2" d="M202.52,628.4c1.33-.95,2.45-.95,4.39,1.77.24.34.44.3.62.16l2.88-2c.41-.29.5-.55.17-1-4.29-6-7.91-5.94-10.63-4a13,13,0,0,0-1.93,1.61,17.57,17.57,0,0,0-1.28-2.12c-.07-.1-.23-.12-.41,0l-3,2.11c-.15.11-.2.24-.11.37a16.85,16.85,0,0,0,1.59,1.9,34.61,34.61,0,0,0-3.77,2.44l-7.8,5.56a.36.36,0,0,0-.08.47l3,4.25a.43.43,0,0,0,.48.08l7.8-5.56c1.64-1.17,2.53-1.94,3.52-2.78.68,1.15,1.52,2.46,2.29,3.54.11.16.25.15.4,0l3-2.11c.19-.13.22-.29.13-.42-.75-1-1.74-2.31-2.71-3.48A9.44,9.44,0,0,0,202.52,628.4Z"/><path class="cls-2" d="M203.08,634.58c-.33-.17-.57,0-1.23.53s-.94.88-.76,1.12a20.74,20.74,0,0,0,1.53,1.65,36.34,36.34,0,0,0-3.61,2.54l-2.58,2c-3.8,3-4.06,6.59-1.55,9.8a12.67,12.67,0,0,0,2.17,2.16.48.48,0,0,0,.51,0l3.08-2.41c.24-.19.19-.44-.09-.56a2.76,2.76,0,0,1-1.19-.9c-1-1.32-.86-2.27.55-3.37l2.66-2.08A36.26,36.26,0,0,0,206,642.2c.71,1.09,1.61,2.36,2.43,3.41.11.15.25.14.4,0l2.87-2.25c.18-.14.2-.3.11-.42-1-1.22-2-2.38-2.72-3.17a20.51,20.51,0,0,0,3.17-2l1.17-.91a.51.51,0,0,0,0-.8.7.7,0,0,0-.7-.28A25.71,25.71,0,0,1,203.08,634.58Z"/><path class="cls-2" d="M221.08,653.81a.41.41,0,0,0-.46,0l-8,4a46.15,46.15,0,0,0-5,3,49.31,49.31,0,0,0,3.52-4.61L216,648.6a.39.39,0,0,0,0-.45l-3.64-4c-.21-.22-.34-.2-.55.14l-9.43,16.14a.38.38,0,0,0,0,.44l4.22,4.68a.32.32,0,0,0,.4,0l6.71-3.34a40.89,40.89,0,0,0,4.53-2.86,50,50,0,0,0-3.36,4.16l-4.11,6.22a.48.48,0,0,0,0,.43l4.21,4.65a.41.41,0,0,0,.42.08l17-7.77c.38-.15.36-.33.19-.53l-3.34-3.7a.35.35,0,0,0-.46,0l-7.81,4a42.46,42.46,0,0,0-5,3.11,54,54,0,0,0,3.66-4.74l4.78-7.28a.35.35,0,0,0,0-.46Z"/><path class="cls-2" d="M240.39,672.67c-4.46-4.19-7.53-3.48-8.65-2.29a2.34,2.34,0,0,0,.19,3.46,2.17,2.17,0,0,0,2.22.52,3.18,3.18,0,0,1,3,1c1.36,1.28,1.34,2.41.48,3.32l-.78.83c-5.26-4.17-10.15-4.85-12.91-1.92-2.06,2.19-1.76,5,.59,7.19,2.6,2.45,5.38,2.71,8.21,1a9.48,9.48,0,0,0-1.84,3.12,1.08,1.08,0,0,0,.31,1.44l2.13,2a.52.52,0,0,0,.73,0,.77.77,0,0,0,.24-.7,8.22,8.22,0,0,1,2.38-4c1.39-1.47,3.5-3.44,5.14-5.19C244.32,680,245,677,240.39,672.67Zm-5.56,9.07-.86.91a3.67,3.67,0,0,1-5.18.4,1.67,1.67,0,0,1-.15-2.55C229.76,679.31,231.91,679.46,234.83,681.74Z"/><path class="cls-2" d="M254.23,693.61c1.17,1,2.76.33,3.75-.87,1.25-1.49,1.57-3.29-.35-4.9s-5-1.53-8,.57a31.94,31.94,0,0,0,2.66-3.72.39.39,0,0,0,0-.48L249,681.43a.37.37,0,0,0-.46.07,35.19,35.19,0,0,1-2.76,3.83l-8.41,10.06a.37.37,0,0,0,0,.48l4,3.36a.39.39,0,0,0,.48,0l5.8-6.94c2.1-2.5,3.89-2.64,5.06-1.66C254.15,691.76,252.77,692.4,254.23,693.61Z"/><path class="cls-2" d="M266.71,703.07l-5.23-3.9a3.54,3.54,0,0,1,4.62-.16A2.61,2.61,0,0,1,266.71,703.07Zm-10.34,8.6c2.53,1.88,4.78,2.42,5.9,2.31.3,0,.53-.13.87-.58l1.93-2.59c.2-.28.23-.5,0-.66a.63.63,0,0,0-.53-.11,7.13,7.13,0,0,1-4.45-1.47c-2.53-1.89-2.77-4.48-1.45-6.25a5.26,5.26,0,0,1,.63-.72l8.25,6.16c.79.59,1.43.31,2.16-.67,2.84-3.8,3.05-7.77-1.34-11a9.6,9.6,0,0,0-13.68,2.07C251.51,702.35,251.41,708,256.37,711.67Z"/><path class="cls-2" d="M604,705.88a.42.42,0,0,0-.49-.16l-5.21,3.06a.38.38,0,0,0-.1.51l13.23,22.5a.35.35,0,0,0,.46.12l5.21-3.06a.4.4,0,0,0,.12-.47Z"/><path class="cls-2" d="M612.54,710.46a33.83,33.83,0,0,1,2.9,3.73l7.29,10.9a.36.36,0,0,0,.47.1l4.36-2.92a.4.4,0,0,0,.1-.47l-5.32-8c-1.65-2.46-1.21-4.68.53-5.84,1.39-.93,2.73-.63,4.25,1.64l5.78,8.66a.38.38,0,0,0,.48.1l4.33-2.9a.4.4,0,0,0,.09-.47L631,704.84c-2.51-3.76-5.92-4-8.6-2.2a7.6,7.6,0,0,0-3.2,8.21,31.16,31.16,0,0,0-2.52-3.16.41.41,0,0,0-.48-.09L612.6,710A.35.35,0,0,0,612.54,710.46Z"/><path class="cls-2" d="M630.42,687.91a.41.41,0,0,0-.5-.09l-3.78,2.94a.38.38,0,0,0,0,.51l16,20.61a.36.36,0,0,0,.48.06l4.11-3.19a.41.41,0,0,0,.06-.48l-5.9-7.59c-1.87-2.4-1.51-4.61.08-5.84,1.41-1.1,2.8-.74,4.38,1.3l6.42,8.25a.36.36,0,0,0,.48.06l4.11-3.19a.41.41,0,0,0,.06-.48l-7.56-9.72c-2.73-3.51-6.14-3.51-8.72-1.5a7.58,7.58,0,0,0-2.62,8.39C636.29,696,632.57,690.67,630.42,687.91Z"/><path class="cls-2" d="M653.62,678.17c-4.56,4.08-4.12,7.2-3,8.42a2.33,2.33,0,0,0,3.46.11,2.18,2.18,0,0,0,.72-2.16,3.18,3.18,0,0,1,1.29-2.95c1.39-1.24,2.52-1.12,3.35-.18l.76.85c-4.61,4.88-5.71,9.68-3,12.69,2,2.24,4.8,2.18,7.21,0,2.67-2.38,3.17-5.13,1.75-8.08a9.47,9.47,0,0,0,2.95,2.1,1.08,1.08,0,0,0,1.46-.19l2.18-1.95a.51.51,0,0,0,.07-.72.78.78,0,0,0-.68-.31c-.59,0-2.18-1-3.75-2.71-1.34-1.5-3.12-3.78-4.72-5.57C661.23,674.89,658.29,674,653.62,678.17Zm8.55,6.32.84.94a3.67,3.67,0,0,1,0,5.19,1.68,1.68,0,0,1-2.56-.06C659.31,689.34,659.65,687.21,662.17,684.49Z"/><path class="cls-2" d="M661.64,660.6a.4.4,0,0,0-.51,0l-3.71,3.65a.37.37,0,0,0,0,.51l18.32,18.6a.39.39,0,0,0,.49,0l3.71-3.65a.42.42,0,0,0,0-.49Z"/><path class="cls-2" d="M670.5,665.42c-.12.35.1.56.71,1.13s1,.81,1.23.58a18.63,18.63,0,0,0,1.4-1.76,35.37,35.37,0,0,0,3,3.18l2.39,2.24c3.52,3.3,7.14,3,9.92,0a12.59,12.59,0,0,0,1.8-2.48.5.5,0,0,0,0-.51l-2.86-2.67c-.22-.21-.46-.12-.53.17a2.83,2.83,0,0,1-.71,1.32c-1.14,1.22-2.11,1.19-3.41,0L681,664.31a35.26,35.26,0,0,0-3.4-2.93c1-.87,2.09-2,3-2.92.13-.14.1-.27,0-.4l-2.66-2.5c-.17-.15-.33-.15-.43,0-1.07,1.14-2.05,2.3-2.72,3.18a19.73,19.73,0,0,0-2.46-2.82l-1.08-1c-.22-.21-.49-.25-.81.08a.7.7,0,0,0-.16.73A25.61,25.61,0,0,1,670.5,665.42Z"/><path class="cls-2" d="M691.7,648l-4.22,5a3.55,3.55,0,0,1,.12-4.62A2.62,2.62,0,0,1,691.7,648Zm8,10.84c2-2.42,2.71-4.63,2.67-5.76,0-.3-.1-.53-.54-.9l-2.47-2.08c-.26-.22-.48-.26-.65,0a.6.6,0,0,0-.14.52,7.25,7.25,0,0,1-1.74,4.36c-2,2.41-4.64,2.5-6.32,1.08a6.15,6.15,0,0,1-.68-.67l6.63-7.88c.64-.76.4-1.41-.53-2.19-3.64-3.06-7.59-3.51-11.11.68A9.61,9.61,0,0,0,686,659.75C690.08,663.16,695.67,663.59,699.66,658.86Z"/><path class="cls-2" d="M176.34,245.15c-.89,1.18-1.51,2.06-2.38,3.4-1.13-1-2.28-2-4.46-3.61l-5.25-4c-1.27-1-2.32-1.66-3.48-2.39.75-.87,1.68-2,2.32-2.87,3.48-4.61,7.55-4.44,11.4-1.53C178.7,237.36,179.32,241.21,176.34,245.15ZM181,247.7c5.09-6.73,4.78-13.82-2.16-19.07s-14.08-3.93-19.42,3.13l-6.54,8.64a.39.39,0,0,0,.1.51l20.83,15.74a.36.36,0,0,0,.48-.07Z"/><path class="cls-2" d="M190.14,216.83l-4.31,4.91a3.57,3.57,0,0,1,.21-4.62A2.62,2.62,0,0,1,190.14,216.83Zm7.75,11c2.08-2.37,2.8-4.57,2.78-5.7,0-.3-.09-.54-.52-.91l-2.43-2.13c-.25-.23-.47-.27-.65-.07a.66.66,0,0,0-.15.53,7.18,7.18,0,0,1-1.82,4.31c-2.08,2.38-4.69,2.41-6.34,1a5,5,0,0,1-.67-.69l6.79-7.74c.65-.74.42-1.4-.49-2.2-3.57-3.13-7.51-3.65-11.12.46a9.62,9.62,0,0,0,1,13.8C188.22,231.92,193.81,232.47,197.89,227.82Z"/><path class="cls-2" d="M208.86,216c3.31-3.4,3.72-7.25,1.11-9.8-2.1-2-4.36-1.85-8.17.11-1.71.83-2.7,1.4-3.52.61-.59-.59-.63-1.53.4-2.59a4.89,4.89,0,0,1,2.64-1.35,2.19,2.19,0,0,0,1.37-.63,2.39,2.39,0,0,0-.5-3.25,2.09,2.09,0,0,0-1.95-.57,8.86,8.86,0,0,0-4.64,2.86c-3.23,3.32-3.47,7.33-1,9.69s4.91,1.82,7.64.49c2.4-1.16,3.31-1.82,4.21-.94.62.61.5,1.66-.67,2.86a9,9,0,0,1-4.91,2.48.6.6,0,0,0-.51.14c-.18.19-.07.46.2.72l2.23,2.18a.81.81,0,0,0,.73.28A10.42,10.42,0,0,0,208.86,216Z"/><path class="cls-2" d="M199.5,185.9a3.32,3.32,0,0,0-.12,4.67,3.15,3.15,0,0,0,4.51,0,3.11,3.11,0,0,0,.26-4.49A3.28,3.28,0,0,0,199.5,185.9Zm8.58,4.74a.4.4,0,0,0-.51,0l-3.8,3.61a.37.37,0,0,0,0,.51L216,207.62a.37.37,0,0,0,.49,0l3.8-3.6a.41.41,0,0,0,0-.49Z"/><path class="cls-2" d="M219.29,184c1.21-1,2.44-1,4.23,1.07,1.62,1.87,1.48,3,.27,4.08s-2.39,1-4.18-1.11C218,186.21,218.11,185.06,219.29,184Zm8.83-5.82c1-.84.9-2-.14-3.19s-2.44-1.61-3.59-.61c-1.47,1.26-1.6,3-.61,5-1.95-.68-4.29-.37-7,2-3.65,3.16-4,7.52-1.72,10.23a5.43,5.43,0,0,0,6.85,1.47c-1.92,1.9-1.77,4.23-.65,5.53s3.16,1.68,5.93-.7c1.89-1.64,2.72-2.66,3.84-3.63s1.82-.86,2.54,0c1.19,1.38.55,3.2-1.81,5.23-1.93,1.67-3,1.7-3.8.78a1.25,1.25,0,0,1-.34-1,.36.36,0,0,0-.08-.28c-.1-.11-.21-.12-.35,0l-2.77,2.39a2.56,2.56,0,0,0,.21,3.44c1.79,2.07,4.91,1.73,9.54-2.27,5.44-4.7,6.43-9.42,3.72-12.55-2.08-2.42-4.9-2.6-8,.08-2.25,1.94-3,3.29-4.37,4.48-.81.7-1.41.76-1.8.3s-.31-1.4,1.45-2.91c4.8-4.15,4.74-7.77,2.53-10.33-.82-.94-1.35-1-1.85-1.61a.86.86,0,0,1,0-1.29C226.45,178.26,227.17,179,228.12,178.22Z"/><path class="cls-2" d="M228.65,172.68a34.39,34.39,0,0,1,3.11,3.55l7.92,10.45a.38.38,0,0,0,.48.07l4.18-3.17a.41.41,0,0,0,.07-.48l-5.79-7.63c-1.79-2.37-1.48-4.6.19-5.86,1.33-1,2.68-.8,4.34,1.38l6.28,8.3a.38.38,0,0,0,.48.07l4.15-3.15a.41.41,0,0,0,.07-.48L246.74,166c-2.73-3.6-6.14-3.64-8.72-1.69a7.61,7.61,0,0,0-2.7,8.39,31,31,0,0,0-2.71-3,.41.41,0,0,0-.48-.06l-3.45,2.61A.36.36,0,0,0,228.65,172.68Z"/><path class="cls-2" d="M670.65,170c-1.25,2-2.83,4.93-4,7.29l-4.72,10.84a.41.41,0,0,0,.08.51l5.94,4.68a.45.45,0,0,0,.48-.06l21.76-15.81c.37-.28.4-.45.2-.62l-4.54-3.57a.52.52,0,0,0-.57,0l-10,7.6a85.25,85.25,0,0,0-7.52,6.41,84.86,84.86,0,0,0,4.59-8.53l5.23-11.61a.48.48,0,0,0-.21-.59l-4.59-3.63a.48.48,0,0,0-.54,0L662,170.75a93.52,93.52,0,0,0-7.19,6.29,89.88,89.88,0,0,0,4.47-8.43l5.15-11.81a.53.53,0,0,0-.06-.53l-5.1-4c-.27-.21-.45-.11-.62.29L648.4,177.42a.38.38,0,0,0,.08.51l6.12,4.82a.45.45,0,0,0,.48-.06l9.34-7.06A62.47,62.47,0,0,0,670.65,170Z"/><path class="cls-2" d="M690.76,197.16,686,192.71a3.54,3.54,0,0,1,4.61.35A2.61,2.61,0,0,1,690.76,197.16Zm-11.21,7.42c2.31,2.15,4.49,2.93,5.62,2.95.29,0,.53-.08.92-.49l2.2-2.37c.23-.25.28-.47.08-.65a.64.64,0,0,0-.51-.17,7.16,7.16,0,0,1-4.27-1.94c-2.31-2.15-2.26-4.76-.76-6.37a5.54,5.54,0,0,1,.7-.64l7.54,7c.72.67,1.38.46,2.21-.43,3.24-3.48,3.88-7.4-.13-11.12a9.6,9.6,0,0,0-13.82.58C675.73,194.8,675,200.37,679.55,204.58Z"/><path class="cls-2" d="M704.84,211.37c1.06,1.09,2.7.6,3.82-.48,1.4-1.35,1.91-3.12.16-4.92s-4.78-2-8-.26a32.54,32.54,0,0,0,3-3.42.39.39,0,0,0,0-.48l-3-3.11a.36.36,0,0,0-.46,0,34.5,34.5,0,0,1-3.14,3.53l-9.42,9.13a.35.35,0,0,0,0,.48l3.65,3.76a.39.39,0,0,0,.48,0l6.49-6.3c2.35-2.27,4.15-2.22,5.21-1.13C705,209.51,703.52,210,704.84,211.37Z"/><path class="cls-2" d="M710.1,210.77c-.34-.15-.57,0-1.19.61s-.89.94-.69,1.17a19.7,19.7,0,0,0,1.63,1.55,35,35,0,0,0-3.45,2.75L704,219c-3.61,3.21-3.64,6.84-.94,9.88a13,13,0,0,0,2.31,2,.49.49,0,0,0,.51,0l2.92-2.6c.23-.21.17-.45-.13-.55a2.81,2.81,0,0,1-1.24-.83c-1.11-1.25-1-2.21.34-3.4l2.53-2.24a36.8,36.8,0,0,0,3.22-3.12c.78,1,1.75,2.25,2.64,3.25.12.14.26.12.4,0l2.73-2.43c.17-.15.18-.31.08-.42-1-1.17-2.1-2.25-2.92-3a20.29,20.29,0,0,0,3-2.19l1.1-1c.23-.2.3-.46,0-.8a.69.69,0,0,0-.72-.23A25.81,25.81,0,0,1,710.1,210.77Z"/><path class="cls-2" d="M724.62,234.39l-4.1-5.09a3.55,3.55,0,0,1,4.52,1A2.62,2.62,0,0,1,724.62,234.39Zm-12.16,5.74c2,2.46,4,3.55,5.14,3.72.29.06.54,0,1-.35l2.52-2c.27-.21.34-.42.18-.63a.65.65,0,0,0-.49-.24,7.18,7.18,0,0,1-3.94-2.53c-2-2.46-1.57-5,.15-6.42a4.85,4.85,0,0,1,.79-.54l6.45,8c.62.77,1.31.65,2.26-.11,3.7-3,4.89-6.77,1.46-11a9.61,9.61,0,0,0-13.77-1.41C710.08,229.9,708.57,235.31,712.46,240.13Z"/><path class="cls-2" d="M119.6,614c-1.32-2.69-2-4.12-2.85-5.63,1.74-.76,3.52-1.63,5.22-2.47s3.18-1.55,4.78-2.43c.43,1.15,1,2.42,1.74,3.89.92,1.88,1.55,3.26,1.92,4,.08.17.22.19.39.11l1.47-.72c.2-.1.25-.26.19-.39-.35-.72-1-2-2-3.91-.82-1.67-1.46-2.8-2-3.82,1.5-.65,3-1.39,4.4-2.08,1.22-.6,2.76-1.35,4.16-2.12.53,1.26,1.09,2.39,1.94,4.13,1,2.11,2.71,5.69,3.71,7.74a.24.24,0,0,0,.39.11l1.4-.86c.2-.1.26-.25.17-.42l-6.79-13.85a.37.37,0,0,0-.49-.14l-23.44,11.49a.35.35,0,0,0-.15.45l7,14.37c.08.17.22.18.39.1l1.55-.55a.27.27,0,0,0,.19-.39C121.92,618.61,120.67,616.22,119.6,614Z"/><path class="cls-2" d="M138.63,616.86a11.67,11.67,0,0,1-2,1.45l-13.13,7.43a.37.37,0,0,0-.13.46l1,1.72a.39.39,0,0,0,.47.13l8.9-5a6,6,0,0,1,8.37,2.29c1.25,2.21,1,4.15-1.45,5.53L129.83,637a.35.35,0,0,0-.13.46l1,1.72a.39.39,0,0,0,.47.13l11.17-6.33c3.24-1.83,3.69-5,2.08-7.9-1.8-3.17-4.81-4.56-7.43-4.17a25.3,25.3,0,0,0,2.86-1.89.38.38,0,0,0,.13-.46l-.88-1.56A.35.35,0,0,0,138.63,616.86Z"/><path class="cls-2" d="M148,634.23c-.19-.1-.37,0-.63.13s-.37.41-.25.6c.28.46.86,1.3,1.33,1.91a36.57,36.57,0,0,0-3.61,2.09l-5.95,3.75c-3.22,2-3.52,4.82-2,7.2a7.72,7.72,0,0,0,1,1.24.4.4,0,0,0,.51.08l1.48-.93a.23.23,0,0,0,0-.44,4.09,4.09,0,0,1-.9-1c-.83-1.32-.72-2.56,1.53-4l5.89-3.71c1.7-1.07,2.57-1.62,3.43-2.25.62,1.14,1.36,2.38,2.07,3.5a.26.26,0,0,0,.4.07l1.22-.77c.19-.12.23-.28.15-.41-.69-1.09-1.68-2.58-2.23-3.4a26.75,26.75,0,0,0,2.61-1.42l.86-.54a.36.36,0,0,0,.13-.58c-.1-.16-.17-.21-.42-.18A12.52,12.52,0,0,1,148,634.23Z"/><path class="cls-2" d="M161.83,653.52c-.11-.16-.29-.21-.57-.15l-10.21,3.15a47.37,47.37,0,0,0-5.12,1.91,37.05,37.05,0,0,0,3.51-4.31l6.31-8.5a.54.54,0,0,0,0-.62l-1.22-1.7c-.08-.13-.29-.22-.51.13l-10.86,15.22c-.14.2-.17.36-.06.51l1,1.46a.4.4,0,0,0,.5.11l11.26-3.44a40.65,40.65,0,0,0,4.63-1.75,29.33,29.33,0,0,0-3.15,3.64l-7.06,9.54c-.14.2-.21.29-.08.48l1,1.45c.09.13.22.18.5.11l18-5.22c.4-.09.38-.31.3-.44L169,663.55a.4.4,0,0,0-.57-.15l-10.18,3.13a48.18,48.18,0,0,0-5.15,1.94,39.54,39.54,0,0,0,3.56-4.3l6.27-8.51a.45.45,0,0,0,0-.59Z"/><path class="cls-2" d="M180.11,663.59a1.77,1.77,0,0,0-2.46-.29,1.75,1.75,0,1,0,2.46.29Zm-6.21,6.61a.41.41,0,0,0,.09-.5l-1.23-1.55a.37.37,0,0,0-.51,0L158.52,679a.36.36,0,0,0-.05.48l1.22,1.55a.39.39,0,0,0,.48.05Z"/><path class="cls-2" d="M183.66,686.77a1.22,1.22,0,0,0,1.75.06,1.87,1.87,0,0,0,.61-1.57,7.08,7.08,0,0,0-2-4.44,9.78,9.78,0,0,0-14-.93c-4.39,3.76-4.71,8.88-1.23,13a9.11,9.11,0,0,0,4.89,3,.71.71,0,0,0,.58-.19l.87-.75a.36.36,0,0,0,.12-.5.65.65,0,0,0-.48-.14,7.38,7.38,0,0,1-4.13-2.61c-2.45-2.86-2.18-6.64,1.46-9.75,2.88-2.48,7.3-3.1,10,.1a4.24,4.24,0,0,1,1.15,3.22C183.35,685.94,183.29,686.34,183.66,686.77Z"/><path class="cls-2" d="M197.37,696.26a.69.69,0,0,0-.61-.21c-2.69.09-10,.21-10.43-.23l-.44-.47c1-.83,2.2-1.93,3-2.68l8.64-8.18a.4.4,0,0,0,0-.51l-1.36-1.44a.37.37,0,0,0-.51,0l-19,17.94a.38.38,0,0,0,0,.49l1.35,1.43a.41.41,0,0,0,.49,0l3.39-3.21c.67-.63,1.88-1.83,2.74-2.75l.45.47c.57.61-.9,9-.94,11.62a.78.78,0,0,0,.22.57l1.86,2c.1.11.26.11.43,0a.43.43,0,0,0,.15-.46c-.43-2,.94-11.72.51-12.67.9.45,7,.22,11.14.44a.62.62,0,0,0,.35-.12c.11-.11.14-.24,0-.41Z"/><path class="cls-2" d="M209.64,696.87a.39.39,0,0,0,0-.51L208.25,695a.38.38,0,0,0-.51,0l-18.28,18.64a.37.37,0,0,0,0,.49l1.41,1.38a.39.39,0,0,0,.48,0Z"/><path class="cls-2" d="M207.8,730.7a10.8,10.8,0,0,1,1.45-2l10.1-11.2a.38.38,0,0,0,0-.49l-1.47-1.32a.39.39,0,0,0-.48,0l-6.77,7.5a6,6,0,0,1-8.64.45c-1.89-1.7-2.26-3.62-.38-5.71l8.19-9.09a.37.37,0,0,0,0-.48l-1.47-1.32a.41.41,0,0,0-.48,0l-8.5,9.43c-2.49,2.77-1.89,6,.53,8.15,2.71,2.44,6,2.87,8.38,1.66a30,30,0,0,0-2.23,2.76.41.41,0,0,0,0,.48l1.32,1.2A.38.38,0,0,0,207.8,730.7Z"/><path class="cls-2" d="M223.76,721.23a10.22,10.22,0,0,1-1.33,2.1L213,735.12a.37.37,0,0,0,.06.48l1.54,1.23a.39.39,0,0,0,.48-.05l6.38-8a6,6,0,0,1,8.62-1c2,1.59,2.47,3.48.72,5.68l-7.73,9.68a.37.37,0,0,0,.06.48l1.54,1.24a.41.41,0,0,0,.48-.06l8-10c2.33-2.91,1.54-6.07-1-8.1-2.85-2.28-6.17-2.45-8.45-1.11a26.32,26.32,0,0,0,1.95-2.81.39.39,0,0,0,0-.48l-1.4-1.12A.37.37,0,0,0,223.76,721.23Z"/><path class="cls-2" d="M245.57,739c2.23,1.58,2.52,4,.83,6.4-2,2.8-4.21,2.8-6.26,1.35s-2.57-3.53-.6-6.33C241.21,738.07,243.46,737.52,245.57,739Zm7.19,6.75a1.34,1.34,0,0,0,2-.45,1.63,1.63,0,0,0-.36-2.45,3.88,3.88,0,0,0-4.84.4c.22-2-.58-4.13-3-5.81a6.44,6.44,0,0,0-9.3,1.44,5.64,5.64,0,0,0-.3,6.76c-1.94-1.09-3.93-.77-5,.75s-.36,3.28,1.84,4.84c1.77,1.25,3.08,1.89,4.89,3.16s2,2.51,1.1,3.85c-1.45,2-4.58,1.93-7.9-.41-3.08-2.17-3.49-4.09-2.31-5.77a2.33,2.33,0,0,1,1.26-.92.37.37,0,0,0,.25-.15c.09-.13.1-.21-.09-.34l-1.18-.84c-.49-.35-1.79-.1-2.66,1.14-1.71,2.43-.7,5.47,3.56,8.47,4.78,3.38,9.3,3.17,11.47.09,1.31-1.86,1.33-4.12-1.62-6.21-2.51-1.77-3.81-2.31-5.42-3.45-1.37-1-1.62-1.93-1.09-2.68.7-1,2.1-1.07,4.37.53,4.41,3.11,7.72,2.24,9.76-.65.72-1,.9-1.73,1.43-2.48a1.38,1.38,0,0,1,1.94-.58C252.33,744.53,252,745.19,252.76,745.76Z"/><path class="cls-2" d="M662.71,751.92a10.89,10.89,0,0,1-7.62,1.79.68.68,0,0,0-.5.08c-.22.15-.2.37,0,.65l.92,1.31a.84.84,0,0,0,.67.36,11.1,11.1,0,0,0,7.89-2.41c4.09-2.89,5.52-7.39,2.89-11.11-2.41-3.41-5.8-3.48-10.86-2.28-3.4.72-6.31,1.47-8.19-1.2-1.49-2.11-1.11-5,1.62-6.91a8.13,8.13,0,0,1,6.5-1.33.82.82,0,0,0,.54-.1.44.44,0,0,0,.09-.67l-1.1-1.55a.86.86,0,0,0-.76-.49,10.45,10.45,0,0,0-6.43,2.17c-4.5,3.17-4.77,7.79-2.69,10.74,2.54,3.6,6.39,3.25,9.82,2.45,4.45-.95,7.21-1.78,9.27,1.14C666.37,746.82,665.63,749.86,662.71,751.92Z"/><path class="cls-2" d="M663,732.48c-.08.2,0,.38.19.62s.45.32.63.18c.42-.32,1.21-1,1.76-1.51a37.2,37.2,0,0,0,2.44,3.4l4.31,5.55c2.33,3,5.15,3,7.37,1.31a7.67,7.67,0,0,0,1.14-1.08.41.41,0,0,0,0-.51l-1.07-1.38a.24.24,0,0,0-.44.05,4.26,4.26,0,0,1-.91,1c-1.23.95-2.48,1-4.11-1.14l-4.26-5.5c-1.24-1.59-1.87-2.4-2.58-3.19,1.07-.73,2.23-1.59,3.28-2.4a.26.26,0,0,0,0-.41l-.89-1.14c-.14-.18-.3-.2-.42-.1-1,.79-2.41,1.91-3.16,2.55a27.78,27.78,0,0,0-1.67-2.46l-.63-.81a.36.36,0,0,0-.59-.07c-.15.11-.18.19-.13.44A12.5,12.5,0,0,1,663,732.48Z"/><path class="cls-2" d="M689.88,731.13c-3.24,2.76-7,1.12-9.71-2s-3.57-7-.33-9.76,6.86-1.27,9.55,1.88S693.09,728.39,689.88,731.13Zm-11.33-13.26c-4.68,4-3.79,9.43-.63,13.13s8.54,5.6,13.22,1.61,3.64-9.56.45-13.28S683.18,713.92,678.55,717.87Z"/><path class="cls-2" d="M698.92,704.46a1.31,1.31,0,0,0-.13-2c-.84-.88-2.31-1-4,.7-2,1.93-2.15,4.69-1.07,7.12a23.82,23.82,0,0,0-2.51-2.39.4.4,0,0,0-.48,0l-1.3,1.23a.36.36,0,0,0,0,.45,10.6,10.6,0,0,1,1.89,1.62l10.37,11a.36.36,0,0,0,.48,0l1.44-1.36a.4.4,0,0,0,0-.49l-7-7.42c-1.93-2-3-5.17-.87-7.18C697.2,704.3,698.12,705.22,698.92,704.46Z"/><path class="cls-2" d="M717.56,718.66c2.22-2.3,2.62-5.77.16-11.37l-8-17.75c-.14-.29-.33-.37-.52-.18L708,690.7a.52.52,0,0,0-.1.65l4.6,9.84c.72,1.6,1.56,3.2,2.64,5.14a52.11,52.11,0,0,0-5.26-2.49l-9.91-4.3a.52.52,0,0,0-.64.12l-1.45,1.5c-.16.17-.13.41.19.51l17.75,7.13c2,4.48,1.41,7,.16,8.24a1.81,1.81,0,0,1-1.09.64.77.77,0,0,0-.26.17c-.08.08-.08.24.08.4l1.23,1.19a.39.39,0,0,0,.46.12A4.07,4.07,0,0,0,717.56,718.66Z"/><path class="cls-2" d="M338.11,449.34c2,0,3.19,1.27,3.19,3.62,0,2.61-1.3,3.57-3.16,3.57s-3-1.06-3-3.69C335.1,450.54,336.21,449.34,338.11,449.34Zm8.12,1.11c.81,0,1.24-.56,1.24-1.46a1.47,1.47,0,0,0-1.52-1.64,3.12,3.12,0,0,0-3,2.61,5.18,5.18,0,0,0-4.87-2.52c-3.16,0-5.79,2.11-5.79,5.37a4.54,4.54,0,0,0,3.1,4.62,3,3,0,0,0-3.07,2.88c0,1.55,1.27,2.48,3.62,2.48,1.86,0,3-.22,4.66-.22s2.29.69,2.29,1.9c0,1.92-2,3.16-5.05,3.16-2.83,0-3.91-1-3.91-2.48a1.72,1.72,0,0,1,.4-1.12l.09-.18a.19.19,0,0,0-.21-.22h-1.65c-.49,0-1.33.77-1.33,2.08,0,2.35,2.11,3.9,6.51,3.9,5.09,0,8-2.29,8-5.42,0-2.05-1.21-3.6-4.25-3.6-2.48,0-3.62.31-5.2.31-1.24,0-1.8-.46-1.8-1.18,0-.87.83-1.52,3-1.52,4.62,0,6.42-2.2,6.42-5.05,0-1-.21-1.49-.21-2.2s.37-1.18,1-1.18S345.36,450.45,346.23,450.45Zm-31.56-2.2a13.93,13.93,0,0,1,.22,2.48v11.91a.3.3,0,0,0,.27.28h2.27a.34.34,0,0,0,.28-.28v-8.22a4.47,4.47,0,0,1,4.52-4.71c1.86,0,3,1,3,3.22v9.71a.31.31,0,0,0,.28.28h2.26a.33.33,0,0,0,.28-.28V452.28a4.52,4.52,0,0,0-4.8-4.84,6.19,6.19,0,0,0-6,3.72,25.4,25.4,0,0,0-.18-2.91c0-.12-.13-.28-.28-.28h-1.95A.3.3,0,0,0,314.67,448.25Zm-5.89-7.35a1.74,1.74,0,0,0-1.74,1.74,1.68,1.68,0,0,0,1.74,1.64,1.7,1.7,0,0,0,1.74-1.64A1.76,1.76,0,0,0,308.78,440.9Zm1.39,7.38a.33.33,0,0,0-.27-.31h-2.27a.31.31,0,0,0-.28.31v14.36a.31.31,0,0,0,.28.28h2.27a.33.33,0,0,0,.27-.28ZM304,451.1c.77,0,1.24-.65,1.24-1.55,0-1.11-.84-2.11-2.79-2.11-2.27,0-3.91,1.62-4.65,3.88a22.6,22.6,0,0,0-.19-3.07c0-.12-.13-.28-.28-.28h-1.95a.3.3,0,0,0-.25.28,13.93,13.93,0,0,1,.22,2.48v11.91a.3.3,0,0,0,.27.28h2.27a.34.34,0,0,0,.28-.28v-8.13c0-2.35,1.11-4.46,3.22-4.46C303,450.05,303,451.1,304,451.1Zm-14.6,1.46h-7.57a4.25,4.25,0,0,1,4.25-3.19A3,3,0,0,1,289.41,452.56ZM286,463.32a7.76,7.76,0,0,0,4.65-1.4.56.56,0,0,0,.25-.52V460c0-.22-.09-.31-.21-.31a.41.41,0,0,0-.34.16,6.38,6.38,0,0,1-3.91,1.24,4.82,4.82,0,0,1-5-5.15,7.76,7.76,0,0,1,.15-1.68h9.49c.65,0,.84-.34.84-.93,0-3.56-1.93-5.86-5.77-5.86-4.9,0-7.6,4.13-7.6,8.16C278.52,460,281.25,463.32,286,463.32ZM273.6,452.56H266a4.25,4.25,0,0,1,4.25-3.19A3,3,0,0,1,273.6,452.56Zm-3.45,10.76a7.82,7.82,0,0,0,4.66-1.4.57.57,0,0,0,.24-.52V460c0-.22-.09-.31-.21-.31a.44.44,0,0,0-.35.16,6.33,6.33,0,0,1-3.9,1.24,4.82,4.82,0,0,1-5-5.15,7.76,7.76,0,0,1,.15-1.68h9.49c.65,0,.84-.34.84-.93,0-3.56-1.93-5.86-5.77-5.86-4.9,0-7.6,4.13-7.6,8.16C262.71,460,265.44,463.32,270.15,463.32Zm-24.39-15.07a14.57,14.57,0,0,1,.21,2.48v11.91a.31.31,0,0,0,.28.28h2.27a.33.33,0,0,0,.27-.28v-8.22a4.48,4.48,0,0,1,4.53-4.71c1.86,0,3,1,3,3.22v9.71a.3.3,0,0,0,.28.28h2.26a.33.33,0,0,0,.28-.28V452.28a4.52,4.52,0,0,0-4.8-4.84,6.18,6.18,0,0,0-6,3.72,25.4,25.4,0,0,0-.18-2.91c0-.12-.13-.28-.28-.28h-2C245.88,448,245.76,448.13,245.76,448.25Zm-5.89-7.35a1.74,1.74,0,0,0-1.74,1.74,1.74,1.74,0,0,0,3.47,0A1.75,1.75,0,0,0,239.87,440.9Zm1.39,7.38A.33.33,0,0,0,241,448h-2.26a.31.31,0,0,0-.28.31v14.36a.3.3,0,0,0,.28.28H241a.33.33,0,0,0,.28-.28Zm-14.32,1.06c2,0,3.19,1.27,3.19,3.62,0,2.61-1.3,3.57-3.16,3.57s-3-1.06-3-3.69C223.93,450.54,225.05,449.34,226.94,449.34Zm8.12,1.11c.81,0,1.24-.56,1.24-1.46a1.46,1.46,0,0,0-1.52-1.64,3.11,3.11,0,0,0-3,2.61,5.19,5.19,0,0,0-4.87-2.52c-3.16,0-5.8,2.11-5.8,5.37a4.55,4.55,0,0,0,3.1,4.62,3.05,3.05,0,0,0-3.07,2.88c0,1.55,1.27,2.48,3.63,2.48,1.86,0,3-.22,4.65-.22s2.29.69,2.29,1.9c0,1.92-2,3.16-5.05,3.16-2.82,0-3.91-1-3.91-2.48a1.72,1.72,0,0,1,.41-1.12l.09-.18a.2.2,0,0,0-.22-.22h-1.64c-.5,0-1.33.77-1.33,2.08,0,2.35,2.1,3.9,6.51,3.9,5.08,0,8-2.29,8-5.42,0-2.05-1.21-3.6-4.25-3.6-2.48,0-3.63.31-5.21.31-1.24,0-1.8-.46-1.8-1.18,0-.87.84-1.52,3-1.52,4.62,0,6.42-2.2,6.42-5.05,0-1-.22-1.49-.22-2.2s.37-1.18,1-1.18S234.2,450.45,235.06,450.45Zm-31.56-2.2a13.93,13.93,0,0,1,.22,2.48v11.91a.3.3,0,0,0,.28.28h2.26a.33.33,0,0,0,.28-.28v-8.22a4.48,4.48,0,0,1,4.53-4.71c1.86,0,3,1,3,3.22v9.71a.3.3,0,0,0,.28.28h2.26a.34.34,0,0,0,.28-.28V452.28a4.52,4.52,0,0,0-4.81-4.84,6.18,6.18,0,0,0-6,3.72,23.1,23.1,0,0,0-.19-2.91c0-.12-.12-.28-.27-.28h-2A.31.31,0,0,0,203.5,448.25Zm-5.67,4.31h-7.56a4.25,4.25,0,0,1,4.25-3.19A3,3,0,0,1,197.83,452.56Zm-3.44,10.76a7.76,7.76,0,0,0,4.65-1.4.56.56,0,0,0,.25-.52V460c0-.22-.09-.31-.22-.31a.43.43,0,0,0-.34.16,6.34,6.34,0,0,1-3.91,1.24,4.83,4.83,0,0,1-5-5.15,7.65,7.65,0,0,1,.16-1.68h9.49c.65,0,.83-.34.83-.93,0-3.56-1.92-5.86-5.76-5.86-4.9,0-7.6,4.13-7.6,8.16C187,460,189.68,463.32,194.39,463.32Zm-11.69-22a.32.32,0,0,0-.28-.31h-2.57a.31.31,0,0,0-.28.31v21.3a.31.31,0,0,0,.28.28h2.57a.33.33,0,0,0,.28-.28ZM171.36,441a.31.31,0,0,0-.28.31V455.2c0,3.62-2.23,5.39-6,5.39-3.45-.06-6-1.92-6-5.52V441.34a.32.32,0,0,0-.28-.31h-2.6a.3.3,0,0,0-.28.31v14.2c0,4.77,3.72,7.78,9.12,7.78s9.08-3,9.08-7.69V441.34a.33.33,0,0,0-.28-.31Z"/><path class="cls-2" d="M519.22,291c2,0,3.2,1.27,3.2,3.63,0,2.61-1.3,3.57-3.17,3.57s-3-1.06-3-3.69C516.22,292.19,517.33,291,519.22,291Zm8.13,1.12c.8,0,1.24-.56,1.24-1.46a1.46,1.46,0,0,0-1.52-1.64,3.11,3.11,0,0,0-3,2.6,5.2,5.2,0,0,0-4.87-2.51c-3.16,0-5.8,2.11-5.8,5.37a4.55,4.55,0,0,0,3.1,4.62,3.05,3.05,0,0,0-3.07,2.88c0,1.55,1.28,2.48,3.63,2.48,1.86,0,3-.22,4.65-.22s2.3.69,2.3,1.89c0,1.93-2,3.17-5.06,3.17-2.82,0-3.9-1-3.9-2.48a1.72,1.72,0,0,1,.4-1.12l.09-.19a.19.19,0,0,0-.21-.21h-1.65c-.49,0-1.33.77-1.33,2.07,0,2.36,2.11,3.91,6.51,3.91,5.09,0,8-2.29,8-5.43,0-2-1.21-3.59-4.25-3.59-2.48,0-3.62.31-5.21.31-1.24,0-1.79-.47-1.79-1.18,0-.87.83-1.52,3-1.52,4.62,0,6.42-2.2,6.42-5.05,0-1-.22-1.49-.22-2.2s.38-1.18,1-1.18S526.48,292.1,527.35,292.1Zm-31.56-2.2a14.57,14.57,0,0,1,.21,2.48v11.91a.3.3,0,0,0,.28.27h2.27a.33.33,0,0,0,.28-.27v-8.22a4.47,4.47,0,0,1,4.52-4.71c1.86,0,3,1,3,3.22v9.71a.29.29,0,0,0,.28.27h2.26a.32.32,0,0,0,.28-.27V293.93a4.52,4.52,0,0,0-4.8-4.84,6.18,6.18,0,0,0-6,3.72,25.4,25.4,0,0,0-.18-2.91c0-.13-.13-.28-.28-.28h-2A.29.29,0,0,0,495.79,289.9Zm-4.25,14.39a12,12,0,0,1-.25-2.49V289.9a.29.29,0,0,0-.27-.28h-2.27a.33.33,0,0,0-.28.28v8.15A4.42,4.42,0,0,1,484,302.7c-1.89,0-3.07-1-3.07-3.22V289.9a.3.3,0,0,0-.28-.28h-2.27a.32.32,0,0,0-.27.28v10.23a4.52,4.52,0,0,0,4.8,4.84,6.08,6.08,0,0,0,5.95-3.66,25.71,25.71,0,0,0,.19,3c0,.12.12.27.28.27h2A.29.29,0,0,0,491.54,304.29ZM473.62,283a.33.33,0,0,0-.28-.31h-2.26a.31.31,0,0,0-.28.31v21.31a.29.29,0,0,0,.28.27h2.26a.32.32,0,0,0,.28-.27Zm-7.47,0a.33.33,0,0,0-.28-.31h-2.26a.31.31,0,0,0-.28.31v21.31a.29.29,0,0,0,.28.27h2.26a.32.32,0,0,0,.28-.27Zm-8.68,11.23h-7.56a4.26,4.26,0,0,1,4.25-3.2A3,3,0,0,1,457.47,294.21ZM454,305a7.76,7.76,0,0,0,4.65-1.4.57.57,0,0,0,.25-.53v-1.42c0-.22-.09-.31-.22-.31a.45.45,0,0,0-.34.15,6.28,6.28,0,0,1-3.91,1.24,4.82,4.82,0,0,1-5-5.14,7.65,7.65,0,0,1,.16-1.68h9.49c.65,0,.83-.34.83-.93,0-3.56-1.92-5.86-5.76-5.86-4.9,0-7.6,4.13-7.6,8.16C446.59,301.65,449.32,305,454,305Zm-17.95-14.42c-.19.09-.22.28-.22.62s.13.59.31.59a14.76,14.76,0,0,0,1.9-.09,28.12,28.12,0,0,0-.16,3.44v5c0,3.32,1.89,4.87,4.43,4.87a7,7,0,0,0,1.59-.19.3.3,0,0,0,.27-.31v-1.86c0-.19-.12-.28-.34-.19a2.39,2.39,0,0,1-1.11.22c-1.27,0-2-.59-2-2.6v-4.93c0-1.65,0-2.55-.09-3.44,1.08.09,2.26.09,3.35.09.15,0,.21-.09.21-.25V289.9c0-.19-.09-.28-.21-.28-1.12,0-2.51,0-3.35.09a19,19,0,0,0,.22-2.57v-.93a.33.33,0,0,0-.38-.37.36.36,0,0,0-.37.24A12.23,12.23,0,0,1,436.08,290.55ZM428.24,305c3.41,0,5.73-1.8,5.73-4.44s-1.64-3.53-4.65-4.59c-1.64-.58-2.94-1-2.94-2.54,0-1.11.84-2.14,2.63-2.14a4.08,4.08,0,0,1,2.67,1,1.12,1.12,0,0,0,1.92-1,1.22,1.22,0,0,0-.52-1.05,6.24,6.24,0,0,0-3.91-1.15c-3.44,0-5.52,2.08-5.52,4.41,0,2.75,2,3.81,4,4.49s3.6,1.12,3.6,2.73c0,1.21-1.06,2.17-3,2.17a6.5,6.5,0,0,1-3.94-1.33.54.54,0,0,0-.43-.19c-.16,0-.22.16-.22.4v1.43a.65.65,0,0,0,.25.53A7.5,7.5,0,0,0,428.24,305Zm-6.91-12.22c.77,0,1.24-.65,1.24-1.55,0-1.12-.84-2.11-2.79-2.11-2.27,0-3.91,1.61-4.66,3.88a22.65,22.65,0,0,0-.18-3.07c0-.13-.12-.28-.28-.28h-2a.29.29,0,0,0-.25.28,13.93,13.93,0,0,1,.22,2.48v11.91a.29.29,0,0,0,.28.27h2.26a.33.33,0,0,0,.28-.27v-8.13c0-2.36,1.11-4.46,3.22-4.46C420.37,291.7,420.27,292.75,421.33,292.75Zm-19-3.66c-4,0-5.58,1.92-5.58,3a1.12,1.12,0,0,0,1.21,1.18c.68,0,1-.44,1.4-1a3.31,3.31,0,0,1,2.76-1.06c2.35,0,3.13,1.06,3.13,2.76v1c-6.3.38-9.3,2.92-9.3,6,0,2.26,1.7,3.94,4.52,3.94a5.34,5.34,0,0,0,5.27-3.54,6,6,0,0,0,.62,2.58.8.8,0,0,0,.84.55h1.36a.37.37,0,0,0,.35-.34.47.47,0,0,0-.16-.37c-.46-.34-.9-1.52-.9-3.69,0-1.7.16-4.59.16-6.45C408,291.08,406.54,289.09,402.29,289.09Zm2.92,7.44v2a4.06,4.06,0,0,1-4,4.34,2.32,2.32,0,0,1-2.54-2.33C398.67,298.55,400.43,296.87,405.21,296.53Zm-24,5.58c-1.52,0-2.66,0-4.27.1.06-1.46.09-2.95.09-4.84v-8.53c0-1.33,0-2.57-.09-3.81,1.11.06,2.69.09,3.84.09,5.92,0,8.34,3.72,8.34,8.53C389.15,299.85,385.55,302.11,381.24,302.11Zm.07,2.45c6.63,0,11.22-3.69,11.22-10.79s-4.5-11.1-11.47-11.1h-6.85a.31.31,0,0,0-.28.31v21.31a.29.29,0,0,0,.28.27Z"/><path class="cls-2" d="M506.1,600.72h-7.57a4.25,4.25,0,0,1,4.25-3.19A3,3,0,0,1,506.1,600.72Zm-3.45,10.76a7.83,7.83,0,0,0,4.65-1.39.58.58,0,0,0,.25-.53v-1.43c0-.21-.09-.31-.21-.31a.41.41,0,0,0-.34.16,6.38,6.38,0,0,1-3.91,1.24,4.82,4.82,0,0,1-5-5.15,7.59,7.59,0,0,1,.15-1.67h9.49c.65,0,.84-.35.84-.93,0-3.57-1.93-5.86-5.77-5.86-4.9,0-7.6,4.12-7.6,8.15C495.21,608.16,497.94,611.48,502.65,611.48Zm-10.6-12.12a1.23,1.23,0,0,0,1.15-1.3,1.56,1.56,0,0,0-.74-1.34,5.61,5.61,0,0,0-3.72-1.11,8,8,0,0,0-8.13,8.18c0,4.59,2.95,7.69,7.54,7.69a7,7,0,0,0,4.4-1.39.63.63,0,0,0,.22-.53v-1.33c0-.19-.1-.38-.28-.38s-.22.1-.34.19a5.41,5.41,0,0,1-3.63,1.18c-2.79,0-5-1.93-5-5.58,0-2.89,1.8-5.71,5-5.71a3.56,3.56,0,0,1,2.45.87A1.46,1.46,0,0,0,492.05,599.36Zm-20.8-3.75c-4,0-5.58,1.92-5.58,3a1.11,1.11,0,0,0,1.21,1.18c.68,0,1-.43,1.39-1a3.36,3.36,0,0,1,2.76-1c2.36,0,3.14,1,3.14,2.75v1c-6.3.37-9.31,2.91-9.31,6,0,2.27,1.71,3.94,4.53,3.94a5.33,5.33,0,0,0,5.27-3.53,5.92,5.92,0,0,0,.62,2.57.8.8,0,0,0,.84.56h1.36a.37.37,0,0,0,.34-.34.48.48,0,0,0-.15-.38c-.47-.34-.9-1.51-.9-3.69,0-1.7.16-4.58.16-6.44C476.93,597.59,475.5,595.61,471.25,595.61Zm2.92,7.44v2a4.06,4.06,0,0,1-4,4.34,2.32,2.32,0,0,1-2.55-2.32C467.62,605.06,469.39,603.39,474.17,603.05Zm-14.39-8.84c0-2.14.68-2.85,3.19-2.85a.32.32,0,0,0,.35-.34v-1.68c0-.25-.1-.43-.44-.43-4.06,0-5.86,2.08-5.86,5a20.13,20.13,0,0,0,.13,2.39,12.8,12.8,0,0,0-2-.13c-.09,0-.18.1-.18.28V598c0,.16.06.25.18.25.62,0,1.37,0,2-.09-.07.84-.13,1.77-.13,3.44v9.18a.31.31,0,0,0,.28.28h2.26a.33.33,0,0,0,.28-.28v-9.18c0-1.64-.06-2.57-.12-3.44,1.08.06,2.29.09,3.38.09.15,0,.22-.09.22-.25v-1.61c0-.18-.1-.28-.22-.28-1.06,0-2.3,0-3.44.13A19.72,19.72,0,0,0,459.78,594.21Zm-6.57,5c.78,0,1.24-.65,1.24-1.55,0-1.11-.84-2.1-2.79-2.1-2.26,0-3.91,1.61-4.65,3.87a21.19,21.19,0,0,0-.19-3.07c0-.12-.12-.28-.28-.28h-2a.31.31,0,0,0-.25.28,13.93,13.93,0,0,1,.22,2.48V610.8a.3.3,0,0,0,.28.28h2.26a.33.33,0,0,0,.28-.28v-8.13c0-2.35,1.12-4.46,3.23-4.46C452.25,598.21,452.16,599.26,453.21,599.26Zm-14.6,1.46H431a4.27,4.27,0,0,1,4.25-3.19A3,3,0,0,1,438.61,600.72Zm-3.44,10.76a7.85,7.85,0,0,0,4.65-1.39.61.61,0,0,0,.25-.53v-1.43c0-.21-.1-.31-.22-.31a.42.42,0,0,0-.34.16,6.36,6.36,0,0,1-3.91,1.24,4.83,4.83,0,0,1-5-5.15,6.92,6.92,0,0,1,.16-1.67h9.48c.65,0,.84-.35.84-.93,0-3.57-1.92-5.86-5.77-5.86-4.9,0-7.59,4.12-7.59,8.15C427.73,608.16,430.46,611.48,435.17,611.48Zm-17.95-14.42c-.19.1-.22.28-.22.62s.12.59.31.59a14.69,14.69,0,0,0,1.89-.09,31.15,31.15,0,0,0-.15,3.44v5c0,3.32,1.89,4.87,4.43,4.87a6.94,6.94,0,0,0,1.58-.19.3.3,0,0,0,.28-.31v-1.86c0-.18-.12-.27-.34-.18a2.54,2.54,0,0,1-1.12.22c-1.27,0-2-.59-2-2.61v-4.93c0-1.64,0-2.54-.09-3.44,1.08.09,2.26.09,3.34.09.16,0,.22-.09.22-.25v-1.61c0-.18-.09-.28-.22-.28-1.11,0-2.51,0-3.34.1a19.08,19.08,0,0,0,.21-2.58v-.93a.32.32,0,0,0-.37-.37.35.35,0,0,0-.37.25A12.36,12.36,0,0,1,417.22,597.06Zm-16.4-.65a13.93,13.93,0,0,1,.22,2.48V610.8a.3.3,0,0,0,.27.28h2.27a.34.34,0,0,0,.28-.28v-8.22a4.47,4.47,0,0,1,4.52-4.71c1.86,0,3,1,3,3.22v9.71a.31.31,0,0,0,.28.28H414a.33.33,0,0,0,.28-.28V600.44a4.51,4.51,0,0,0-4.8-4.83,6.17,6.17,0,0,0-5.95,3.72,25.19,25.19,0,0,0-.19-2.92c0-.12-.13-.28-.28-.28h-1.95A.3.3,0,0,0,400.82,596.41Zm-5-6.91a.33.33,0,0,0-.28-.31H393a.3.3,0,0,0-.28.31v21.3a.3.3,0,0,0,.28.28h2.57a.34.34,0,0,0,.28-.28Z"/><path class="cls-2" d="M698.47,448.9c-.19.09-.22.28-.22.62s.13.59.31.59a14.61,14.61,0,0,0,1.89-.09,31.15,31.15,0,0,0-.15,3.44v5c0,3.32,1.89,4.87,4.43,4.87a6.87,6.87,0,0,0,1.58-.19.3.3,0,0,0,.28-.31V461c0-.18-.12-.28-.34-.18a2.53,2.53,0,0,1-1.11.21c-1.28,0-2-.59-2-2.6v-4.93c0-1.64,0-2.54-.09-3.44,1.08.09,2.26.09,3.35.09.15,0,.21-.09.21-.25v-1.61c0-.19-.09-.28-.21-.28-1.12,0-2.52,0-3.35.09a18.81,18.81,0,0,0,.21-2.57v-.93a.32.32,0,0,0-.37-.37.36.36,0,0,0-.37.25A12.36,12.36,0,0,1,698.47,448.9Zm-5.76-6.7a1.6,1.6,0,0,0-1.59,1.59,1.59,1.59,0,0,0,3.17,0A1.6,1.6,0,0,0,692.71,442.2Zm-5.8,0a1.59,1.59,0,0,0-1.58,1.59,1.58,1.58,0,0,0,3.16,0A1.59,1.59,0,0,0,686.91,442.2Zm2.76,5.24c-4,0-5.58,1.93-5.58,3a1.11,1.11,0,0,0,1.2,1.18c.69,0,1-.44,1.4-1a3.37,3.37,0,0,1,2.76-1.06c2.36,0,3.13,1.06,3.13,2.76v1c-6.29.37-9.3,2.91-9.3,6,0,2.27,1.7,3.94,4.53,3.94a5.35,5.35,0,0,0,5.27-3.54,5.93,5.93,0,0,0,.62,2.58.79.79,0,0,0,.83.56h1.37a.38.38,0,0,0,.34-.35.45.45,0,0,0-.16-.37c-.46-.34-.89-1.52-.89-3.69,0-1.7.15-4.59.15-6.45C695.34,449.43,693.91,447.44,689.67,447.44Zm2.91,7.45v2a4.05,4.05,0,0,1-4,4.34,2.32,2.32,0,0,1-2.54-2.32C686,456.9,687.81,455.23,692.58,454.89Zm-20-6c-.19.09-.22.28-.22.62s.12.59.31.59a14.69,14.69,0,0,0,1.89-.09,30.61,30.61,0,0,0-.16,3.44v5c0,3.32,1.9,4.87,4.44,4.87a6.94,6.94,0,0,0,1.58-.19.3.3,0,0,0,.28-.31V461c0-.18-.12-.28-.34-.18a2.55,2.55,0,0,1-1.12.21c-1.27,0-2-.59-2-2.6v-4.93a31.69,31.69,0,0,0-.1-3.44c1.09.09,2.27.09,3.35.09.16,0,.22-.09.22-.25v-1.61c0-.19-.09-.28-.22-.28-1.11,0-2.51,0-3.35.09a17.37,17.37,0,0,0,.22-2.57v-.93a.32.32,0,0,0-.37-.37.35.35,0,0,0-.37.25A12.36,12.36,0,0,1,672.62,448.9Zm-4.59-8a1.74,1.74,0,0,0-1.74,1.74,1.74,1.74,0,0,0,3.47,0A1.75,1.75,0,0,0,668,440.9Zm1.39,7.38a.33.33,0,0,0-.28-.31h-2.26a.31.31,0,0,0-.28.31v14.36a.31.31,0,0,0,.28.28h2.26a.33.33,0,0,0,.28-.28ZM662,441.34a.32.32,0,0,0-.28-.31h-2.26a.3.3,0,0,0-.28.31v21.3a.3.3,0,0,0,.28.28h2.26a.33.33,0,0,0,.28-.28Zm-13.11,6.1c-4,0-5.58,1.93-5.58,3a1.11,1.11,0,0,0,1.21,1.18c.68,0,1-.44,1.39-1a3.37,3.37,0,0,1,2.76-1.06c2.36,0,3.14,1.06,3.14,2.76v1c-6.3.37-9.31,2.91-9.31,6,0,2.27,1.71,3.94,4.53,3.94a5.34,5.34,0,0,0,5.27-3.54,5.93,5.93,0,0,0,.62,2.58.8.8,0,0,0,.84.56h1.36a.37.37,0,0,0,.34-.35.47.47,0,0,0-.15-.37c-.47-.34-.9-1.52-.9-3.69,0-1.7.15-4.59.15-6.45C654.51,449.43,653.09,447.44,648.84,447.44Zm2.92,7.45v2a4.06,4.06,0,0,1-4,4.34,2.33,2.33,0,0,1-2.55-2.32C645.21,456.9,647,455.23,651.76,454.89Zm-26.42-6.64a13.93,13.93,0,0,1,.22,2.48v11.91a.3.3,0,0,0,.28.28h2.26a.33.33,0,0,0,.28-.28v-8.22a4.48,4.48,0,0,1,4.53-4.71c1.86,0,3,1,3,3.22v9.71a.3.3,0,0,0,.27.28h2.27a.34.34,0,0,0,.28-.28V452.28a4.52,4.52,0,0,0-4.81-4.84,6.18,6.18,0,0,0-6,3.72,23.1,23.1,0,0,0-.19-2.91c0-.12-.12-.28-.28-.28h-1.95A.31.31,0,0,0,625.34,448.25Zm-11,13c-3.13,0-4.47-2.66-4.47-5.92s1.31-5.8,4.47-5.8,4.46,2.51,4.46,5.8S617.5,461.27,614.34,461.27Zm0-13.83c-5.09,0-7.51,3.88-7.51,7.85s2.42,8,7.51,8,7.47-4,7.47-8S619.45,447.44,614.34,447.44ZM609,441H590.59c-.12,0-.19.09-.22.28l-.28,2a.2.2,0,0,0,.22.25c1.43,0,2.7-.06,4.13-.06,1.24,0,2.51,0,3.75-.1-.07,1.09-.1,2.24-.1,3.38v15.82a.31.31,0,0,0,.28.28H601a.34.34,0,0,0,.28-.28V446.89c0-1.15,0-2.3-.1-3.45,1.37.07,2.79.1,4.16.1,1.14,0,2.51.06,3.66.06a.19.19,0,0,0,.21-.22v-2.11C609.16,441.12,609.1,441,609,441Z"/><path class="cls-3" d="M484.05,416A246.22,246.22,0,0,0,450,387.55,246,246,0,0,0,387.55,450,246.3,246.3,0,0,0,450,512.46,246.55,246.55,0,0,0,512.46,450,247,247,0,0,0,484.05,416Z"/><path class="cls-4" d="M465.81,452c2.24-2.54,4.19-5,8.41-10.48.18-.25.09-.46-.13-.46h-5.42a.76.76,0,0,0-.68.4c-2.27,3.16-3.45,4.87-4.93,7.35a87,87,0,0,0-4.72-7.35c-.18-.31-.34-.4-.56-.4h-6.07c-.31,0-.41.24-.22.49,4.22,5.58,6,7.85,8.37,10.64-2,2.26-4.68,5.49-8.34,10.17-.22.28-.09.59.19.59h5.45c.25,0,.38-.13.53-.35a79.86,79.86,0,0,0,5-7.28c1.43,2.42,2.64,4.31,4.62,7.19a.83.83,0,0,0,.65.44H474a.29.29,0,0,0,.22-.47C470.16,457.15,467.89,454.33,465.81,452ZM443.65,441a.31.31,0,0,0-.28.31V454.7c0,2.45-1.89,3.69-4.46,3.69s-4.5-1.27-4.5-3.69V441.34a.32.32,0,0,0-.28-.31h-5a.31.31,0,0,0-.28.31v14.41c0,5.21,4.84,7.57,10.05,7.57,5.45,0,9.86-2.73,9.86-7.63V441.34a.33.33,0,0,0-.28-.31Z"/></svg>