<svg id="Layer_1" data-name="Layer 1" xmlns="http://www.w3.org/2000/svg" viewBox="0 0 797.26 797.78"><defs><style>.cls-1,.cls-4{fill:#fff;}.cls-1,.cls-3{opacity:0.7;}.cls-2,.cls-3{fill:#676b59;}</style></defs><title>Artboard 1</title><circle class="cls-1" cx="259.58" cy="260.09" r="244.44"/><circle class="cls-1" cx="537.18" cy="537.69" r="244.44"/><circle class="cls-1" cx="259.58" cy="537.69" r="244.44"/><circle class="cls-1" cx="537.18" cy="260.09" r="244.44"/><path class="cls-2" d="M432.43,87.24l-.36.35A243.94,243.94,0,1,1,259.58,16.14,243.18,243.18,0,0,1,432.07,87.59l.36-.35.35-.35a244.95,244.95,0,1,0,71.74,173.2,244.19,244.19,0,0,0-71.74-173.2Z"/><path class="cls-2" d="M710,364.84l-.35.36a243.95,243.95,0,1,1-345,0c45.65-45.66,104.89-71.33,164.67-71.33,65,0,130.7,21.71,180.32,71.33l.35-.36.35-.35c-49.82-49.83-115.77-71.62-181-71.62-60.07,0-119.55,25.79-165.38,71.62a245,245,0,1,0,346.4,0Z"/><path class="cls-2" d="M86.73,364.84l.35.36a243.94,243.94,0,1,1,345,345c-48,48-110.93,71.44-173.79,71.44-62,0-123.89-24.14-171.2-71.44C38.46,661.56,15.67,597.52,15.66,533.78c0-61.11,24.78-121.94,71.42-168.58l-.35-.36-.35-.35C39.55,411.32,14.66,472.4,14.66,533.78c0,64,22.89,128.29,71.72,177.11,47.49,47.5,109.64,71.74,171.9,71.74,63.11,0,126.34-23.58,174.5-71.74a244.94,244.94,0,0,0-346.4-346.4Z"/><path class="cls-2" d="M364.33,87.24l.36.35a243.95,243.95,0,1,1,0,345c-48.63-48.62-71.42-112.66-71.42-176.4,0-61.12,24.77-121.94,71.42-168.59l-.36-.35-.35-.35c-46.83,46.82-71.71,107.9-71.71,169.29,0,64,22.88,128.28,71.71,177.11a245,245,0,1,0,0-346.4Z"/><path class="cls-2" d="M130.57,271.45a10.88,10.88,0,0,1-5.77,5.3.74.74,0,0,0-.4.31c-.11.24,0,.42.32.57l1.44.69a.79.79,0,0,0,.76,0,11.11,11.11,0,0,0,5.71-5.95c2.16-4.53,1.2-9.15-2.91-11.11-3.78-1.8-6.77-.2-10.6,3.32-2.61,2.29-4.78,4.37-7.73,3-2.33-1.11-3.4-3.81-2-6.83a8.11,8.11,0,0,1,5-4.35.72.72,0,0,0,.41-.34.43.43,0,0,0-.25-.63l-1.71-.82a.87.87,0,0,0-.9-.05,10.51,10.51,0,0,0-4.55,5c-2.37,5-.36,9.14,2.9,10.69,4,1.9,7.17-.28,9.78-2.66,3.41-3,5.41-5.08,8.63-3.55C131.27,265.22,132.11,268.23,130.57,271.45Z"/><path class="cls-2" d="M144.34,265.65c1.56-2.78,1-6.24-2.77-11l-12.25-15.09c-.21-.25-.41-.28-.54,0l-.9,1.62a.52.52,0,0,0,.07.65l7,8.33c1.11,1.36,2.33,2.69,3.87,4.29a53.2,53.2,0,0,0-5.72-1.06l-10.67-1.6a.54.54,0,0,0-.6.28l-1,1.82c-.11.2,0,.43.32.44l19,2.32c3.09,3.82,3.15,6.37,2.28,7.93a1.88,1.88,0,0,1-.89.9.77.77,0,0,0-.22.22c0,.1,0,.26.19.37l1.49.83a.42.42,0,0,0,.48,0A4.2,4.2,0,0,0,144.34,265.65Z"/><path class="cls-2" d="M149.29,242.06c2.11-3.34,1.77-6.84-.84-8.48s-4.77-.56-7.74,1.79c-1.73,1.38-3.14,2.61-5,1.43-1.28-.82-1.87-2.58-.57-4.64a5,5,0,0,1,3-2.21,1.14,1.14,0,0,0,.81-.57,1.19,1.19,0,0,0-.47-1.6,1.48,1.48,0,0,0-1.3-.15,7.22,7.22,0,0,0-3.67,3.17c-2.17,3.43-1.3,6.82,1,8.24,2.89,1.83,5.22.34,7.21-1.23,2.19-1.76,3.7-3.15,5.53-2,1.41.89,1.83,2.87.4,5.11a7.38,7.38,0,0,1-3.9,3.11.84.84,0,0,0-.47.33c-.11.16.05.34.24.47l1.09.69a.87.87,0,0,0,.76.07A8.69,8.69,0,0,0,149.29,242.06Z"/><path class="cls-2" d="M139.71,224.16c0,.22.11.36.36.53s.53.18.66,0c.3-.43.86-1.29,1.23-2a38.17,38.17,0,0,0,3.34,2.52l5.76,4c3.12,2.17,5.81,1.37,7.42-.93a7.25,7.25,0,0,0,.77-1.37.41.41,0,0,0-.11-.5l-1.44-1c-.18-.13-.36-.07-.4.18a3.91,3.91,0,0,1-.58,1.22c-.89,1.28-2.08,1.65-4.26.13l-5.7-4c-1.65-1.16-2.49-1.75-3.4-2.29.8-1,1.66-2.18,2.42-3.27.11-.16.06-.28-.1-.39l-1.18-.83c-.19-.13-.35-.1-.43,0-.74,1.06-1.74,2.55-2.27,3.38a27,27,0,0,0-2.32-1.86l-.84-.58a.36.36,0,0,0-.58.1c-.11.15-.13.24,0,.46A12.56,12.56,0,0,1,139.71,224.16Z"/><path class="cls-2" d="M159.08,205.62l-6.23,8c-1.42-2.26-1.72-4.72.14-7.11A4.09,4.09,0,0,1,159.08,205.62Zm7.64,11.72a9.71,9.71,0,0,0,2.05-5.43.56.56,0,0,0-.28-.56l-1-.77c-.18-.14-.32-.15-.41,0s-.09.17-.06.39a8.16,8.16,0,0,1-1.83,4.83c-2.57,3.3-6.54,3.2-9.54.86a12.89,12.89,0,0,1-1.77-1.67l7.44-9.57a.76.76,0,0,0-.13-1.25c-3.36-2.61-6.95-2.33-9.68,1.18-3.66,4.71-1.64,10.33,2.29,13.39C158.1,222,163.26,221.78,166.72,217.34Z"/><path class="cls-2" d="M174.79,190.07a5.37,5.37,0,0,1-.47-7.78c1.68-1.82,3.51-1.78,5.35-.08l9.21,8.52a.37.37,0,0,0,.48,0l1.34-1.45a.42.42,0,0,0,0-.49l-9.57-8.85c-2.48-2.29-5.51-2.15-7.68.2a7.13,7.13,0,0,0-1.53,7.64,5,5,0,0,0-6.39,1,7.38,7.38,0,0,0-1.52,7.75,21.42,21.42,0,0,0-2.5-2,.42.42,0,0,0-.49,0l-1.21,1.31a.37.37,0,0,0,.05.46,10.86,10.86,0,0,1,2,1.48L172.9,208a.37.37,0,0,0,.49,0l1.34-1.45a.41.41,0,0,0,0-.48l-7.5-6.94c-3-2.74-2.66-6.19-.88-8.11s3.58-1.81,5.23-.29l9.34,8.65a.38.38,0,0,0,.49,0l1.34-1.45a.42.42,0,0,0,0-.49Z"/><path class="cls-2" d="M196.75,148.57c0-.16-.25-.29-.36-.19l-1.59,1.36a.78.78,0,0,0-.15.64l8.7,37.22a.26.26,0,0,0,.4.11l1.58-1.36c.12-.1.14-.42.13-.56Z"/><path class="cls-2" d="M217.17,132.07c-5.75,3.91-8.08,11.84-3.22,19,5,7.32,13.08,8.42,19.08,4.34,6.44-4.38,7.88-12.21,3-19.37C231.05,128.69,222.86,128.2,217.17,132.07Zm14.56,21.39c-5.31,3.62-11.27,1.42-15.11-4.24-4.39-6.44-2.62-12.15,1.91-15.23s10.47-2.57,14.83,3.84C237.32,143.64,237.1,149.81,231.73,153.46Z"/><path class="cls-2" d="M247.82,130.46c-1,.53-2.16,1.2-3.15,1.84-.68-1.36-2.07-3.85-2.88-5.31s-2.1-3.74-2.89-5c1.26-.62,2.52-1.32,3.75-2,3.85-2.15,6.59-.68,8.16,2.14C252.72,125.53,251.73,128.27,247.82,130.46Zm1.1,1.9c5.77-3.23,7-7.59,4.67-11.67-2.1-3.74-6.4-5.82-12.17-2.59l-5.73,3.21c-.14.07-.19.36-.06.59l12.69,22.68a.37.37,0,0,0,.47.14l1.92-1.08a.41.41,0,0,0,.13-.47l-2.52-4.51c-.88-1.55-1.78-3.18-2.65-4.57C246.55,133.64,247.63,133.08,248.92,132.36Z"/><path class="cls-2" d="M270.13,133.92c3.56-1.72,5.11-4.88,3.77-7.65s-3.76-3-7.52-2.57c-2.2.26-4,.56-5-1.42-.67-1.37-.23-3.18,2-4.24a5,5,0,0,1,3.69-.31,1.16,1.16,0,0,0,1,0,1.19,1.19,0,0,0,.45-1.61,1.44,1.44,0,0,0-1-.81,7.17,7.17,0,0,0-4.79.75c-3.66,1.77-4.71,5.1-3.55,7.49,1.49,3.08,4.26,3,6.77,2.76,2.8-.33,4.81-.71,5.75,1.24.72,1.5,0,3.4-2.36,4.55a7.44,7.44,0,0,1-4.95.58.9.9,0,0,0-.58,0c-.17.08-.14.32,0,.52l.56,1.17a.86.86,0,0,0,.61.46A8.74,8.74,0,0,0,270.13,133.92Z"/><path class="cls-2" d="M588.86,148.5c-1.49,2-4,2.4-7.46-.13-.92-.68-1.92-1.37-2.85-2,.9-1.08,1.86-2.31,2.74-3.51s1.66-2.31,2.48-3.55c1,.83,2.25,1.76,3.32,2.55C590.05,144.08,590.54,146.24,588.86,148.5ZM575.9,160c-1.52-1.13-3.26-2.37-4.83-3.44,1.1-1.36,2.17-2.74,3.17-4.08s2-2.75,2.89-4.1c1.08.89,2.37,1.9,3.53,2.75,3.91,2.9,4.27,5.8,2.42,8.31S578.84,162.12,575.9,160Zm-1.23,2.63c4.46,3.3,8.79,3,11.34-.45s1.17-8-1.72-10.45c2.85,1.26,6.31,1.18,8.23-1.42,1.72-2.32,2.26-6.18-3.3-10.29l-6.54-4.84a.37.37,0,0,0-.5.11l-15.53,21a.37.37,0,0,0,.07.48Z"/><path class="cls-2" d="M602.63,166.56a1.64,1.64,0,0,0,2.38-.47c.89-1.05.89-2.64-.94-4.19-2.12-1.79-4.93-1.58-7.42-.05a28.39,28.39,0,0,0,2.26-3,.42.42,0,0,0,0-.48L597,156.8a.38.38,0,0,0-.46.07,17,17,0,0,1-1.76,2.49l-9.42,11.15a.37.37,0,0,0,0,.48l2.12,1.79a.4.4,0,0,0,.48,0l6.43-7.6c1.87-2.21,4.58-3.3,6.55-1.63C602.56,164.81,601.64,165.72,602.63,166.56Z"/><path class="cls-2" d="M613.65,170.62c-3.59-3.39-6.59-3-7.48-2a1.37,1.37,0,0,0,.09,2.07c.61.57,1.22.42,2,.31a4.14,4.14,0,0,1,3.35,1.39c2.1,2,1.9,3.57.47,5.09l-.86.91c-5.92-5-10.74-5.22-13.35-2.46-1.9,2-1.79,4.94.72,7.32a6.55,6.55,0,0,0,7.67,1.28,7.32,7.32,0,0,0-1.61,2.81,1,1,0,0,0,.28,1.21l1.21,1.14a.47.47,0,0,0,.6,0,.58.58,0,0,0,.17-.47c-.13-.69.48-2.11,2.3-4,1.44-1.52,4-4,5.56-5.62C617,177.16,617.44,174.19,613.65,170.62ZM610,179.71l-1.67,1.76c-2,2.16-5.09,2.52-7.21.51a2.84,2.84,0,0,1-.31-4.21C602.47,176,605.45,176,610,179.71Z"/><path class="cls-2" d="M622.45,180.51a17.53,17.53,0,0,1-2.05,2.26l-10.71,9.91a.36.36,0,0,0,0,.48l1.88,2a.42.42,0,0,0,.49,0l7.39-6.84a5.5,5.5,0,0,1,8,.15c1.54,1.67,1.66,3.53-.38,5.42L618.33,202a.36.36,0,0,0,0,.48l1.89,2a.41.41,0,0,0,.48,0l9.32-8.62a5.53,5.53,0,0,0,.35-8.35,7.59,7.59,0,0,0-8.3-2.26,27.82,27.82,0,0,0,2.46-2.59.39.39,0,0,0,0-.48l-1.62-1.76A.38.38,0,0,0,622.45,180.51Z"/><path class="cls-2" d="M637.29,214.29c-2.23,1.78-4.94,1.9-6.89-.53-2.13-2.67-1.63-5.94,2.17-9,3.44-2.75,6.91-2.79,9.14,0a4.36,4.36,0,0,1-.65,6.5Zm-2.88,7.16a36.93,36.93,0,0,1,3.49-3.23l16.69-13.32a.39.39,0,0,0,.09-.51l-1.74-2.16a.4.4,0,0,0-.51,0c-2.79,2.22-5.79,4.67-8.43,7a6,6,0,0,0-.92-6.7c-3.21-4-8.56-4-12.84-.6s-5.43,8.91-2.39,12.71a6.23,6.23,0,0,0,7.12,2.34,22.07,22.07,0,0,0-2.41,2.22.45.45,0,0,0-.06.48l1.43,1.78A.31.31,0,0,0,634.41,221.45Z"/><path class="cls-2" d="M147,559.75,135.38,540c-.08-.13-.22-.14-.43-.06l-4.42,1.71a.29.29,0,0,0-.19.42c.88,1.51,1.43,2.29,2.31,3.8a41.15,41.15,0,0,0,2.42,3.6c-1.18.61-2.54,1.36-3.76,2.08l-14.78,8.67a.35.35,0,0,0-.12.46l3.06,5.22a.4.4,0,0,0,.46.12l14.72-8.63c1.21-.72,2.5-1.6,3.67-2.38.72,1.52,1.37,2.86,2.22,4.3.55,1,1.22,2.23,1.8,3.22.09.16.23.17.39.07l4.1-2.4C147,560,147.09,559.91,147,559.75Z"/><path class="cls-2" d="M140.15,574.84l-3.62-5.44a3.56,3.56,0,0,1,4.41,1.41A2.61,2.61,0,0,1,140.15,574.84Zm-12.64,4.61c1.75,2.62,3.68,3.89,4.78,4.17a1.12,1.12,0,0,0,1-.26l2.69-1.79c.29-.19.38-.39.24-.61a.67.67,0,0,0-.47-.29,7.13,7.13,0,0,1-3.69-2.88c-1.74-2.63-1.1-5.16.74-6.38a6,6,0,0,1,.83-.46l5.7,8.58c.54.83,1.24.78,2.25.1,4-2.62,5.5-6.29,2.47-10.85a9.61,9.61,0,0,0-13.58-2.66C126.08,569,124.09,574.28,127.51,579.45Z"/><path class="cls-2" d="M153,591.24a2.38,2.38,0,0,0,3.45.22,2.52,2.52,0,0,0,1-2.22,7,7,0,0,0-1.67-4.17c-4.2-5.59-10.62-5.27-14.39-2.43-4,3-5.6,8.59-1.74,13.72a7.55,7.55,0,0,0,4.28,3.15,1.11,1.11,0,0,0,1.12-.27l2.37-1.78a.54.54,0,0,0,.21-.73.49.49,0,0,0-.35-.22,5.55,5.55,0,0,1-3.48-2.28,4.69,4.69,0,0,1,1.14-6.94c2.16-1.63,5-1.91,6.77.46a4.27,4.27,0,0,1,.84,2.18A1.93,1.93,0,0,0,153,591.24Z"/><path class="cls-2" d="M169.59,590.74a.4.4,0,0,0,.07-.51l-3.12-3.63a.36.36,0,0,0-.51,0l-19.81,17a.36.36,0,0,0,0,.48l3.39,3.95a.39.39,0,0,0,.48,0l7.29-6.27c2.31-2,4.53-1.73,5.84-.2,1.16,1.35.87,2.76-1.09,4.44l-7.93,6.81a.36.36,0,0,0,0,.48l3.39,3.95a.39.39,0,0,0,.48,0l9.34-8c3.37-2.9,3.2-6.31,1.07-8.79a7.6,7.6,0,0,0-8.51-2.21C161.79,597,166.94,593,169.59,590.74Z"/><path class="cls-2" d="M174.11,608.5a35,35,0,0,1-3.1,3.56l-9.31,9.24a.38.38,0,0,0,0,.48l3.7,3.72a.41.41,0,0,0,.48,0l6.8-6.75c2.1-2.09,4.36-2.08,5.83-.6,1.18,1.19,1.15,2.56-.79,4.48L170.33,630a.37.37,0,0,0,0,.49l3.66,3.69a.41.41,0,0,0,.49,0l8.68-8.62c3.21-3.19,2.79-6.58.51-8.87a7.6,7.6,0,0,0-8.67-1.56,31.54,31.54,0,0,0,2.62-3.08.41.41,0,0,0,0-.48l-3.05-3.08A.38.38,0,0,0,174.11,608.5Z"/><path class="cls-2" d="M198.66,619.43a3.33,3.33,0,0,0-4.67.23,3.17,3.17,0,0,0,.39,4.5,3.11,3.11,0,0,0,4.49-.08A3.28,3.28,0,0,0,198.66,619.43Zm-4.08,8.92a.41.41,0,0,0,0-.51l-3.89-3.52a.38.38,0,0,0-.51,0l-11.94,13.17a.38.38,0,0,0,0,.49l3.88,3.52a.39.39,0,0,0,.48,0Z"/><path class="cls-2" d="M207.41,638.66a.64.64,0,0,0-.6-.1c-3.58,1-7.77,1.94-8.22,1.58l-.41-.34c.95-1,2.09-2.31,2.67-3l6.74-8.24a.4.4,0,0,0,0-.51l-4-3.29a.36.36,0,0,0-.5.07L186.5,645a.36.36,0,0,0,.05.48l4,3.3a.39.39,0,0,0,.48,0l1.68-2.06c.75-.91,2.11-2.69,3.13-4.12l.41.34c.59.48-.39,6.06-.68,9.71a.59.59,0,0,0,.21.46l4.71,3.85c.18.15.49.31.87-.16a.9.9,0,0,0,.2-.78c-.45-2.28.26-10.29-.28-11.61,1.26.38,7.59-1.11,10.21-1.38a.54.54,0,0,0,.44-.23.27.27,0,0,0,0-.38Z"/><path class="cls-2" d="M552.33,654.77a.42.42,0,0,0-.49-.16l-5.21,3.06a.37.37,0,0,0-.1.5l13.23,22.51a.35.35,0,0,0,.46.12l5.21-3.06a.4.4,0,0,0,.12-.47Z"/><path class="cls-2" d="M560.92,659.35a33.83,33.83,0,0,1,2.9,3.73l7.29,10.9a.36.36,0,0,0,.47.1l4.36-2.92a.4.4,0,0,0,.1-.47l-5.32-8c-1.65-2.46-1.21-4.68.53-5.84,1.39-.93,2.73-.63,4.25,1.64l5.78,8.66a.38.38,0,0,0,.48.1l4.33-2.9a.4.4,0,0,0,.09-.47l-6.8-10.18c-2.51-3.76-5.92-4-8.6-2.2a7.6,7.6,0,0,0-3.2,8.21,31.16,31.16,0,0,0-2.52-3.16.41.41,0,0,0-.48-.09L561,658.9A.35.35,0,0,0,560.92,659.35Z"/><path class="cls-2" d="M578.8,636.8a.41.41,0,0,0-.5-.09l-3.78,2.94a.38.38,0,0,0,0,.51l16,20.61a.36.36,0,0,0,.48.06l4.11-3.19a.41.41,0,0,0,.06-.48l-5.9-7.59c-1.87-2.4-1.51-4.61.08-5.84,1.41-1.1,2.8-.74,4.38,1.3l6.42,8.25a.36.36,0,0,0,.48.06l4.11-3.19a.41.41,0,0,0,.06-.48L597.23,640c-2.73-3.51-6.14-3.51-8.72-1.5a7.58,7.58,0,0,0-2.62,8.39C584.67,644.9,581,639.56,578.8,636.8Z"/><path class="cls-2" d="M602,627.06c-4.56,4.08-4.12,7.2-3,8.42a2.33,2.33,0,0,0,3.46.11,2.19,2.19,0,0,0,.72-2.17,3.17,3.17,0,0,1,1.29-2.94c1.39-1.24,2.52-1.12,3.35-.19l.76.86c-4.61,4.88-5.71,9.68-3,12.69,2,2.24,4.8,2.18,7.21,0,2.67-2.38,3.17-5.13,1.75-8.08a9.47,9.47,0,0,0,2.95,2.1,1.08,1.08,0,0,0,1.46-.19l2.18-2a.51.51,0,0,0,.07-.72.78.78,0,0,0-.68-.31c-.59,0-2.18-1-3.75-2.71-1.34-1.5-3.12-3.78-4.72-5.57C609.61,623.78,606.67,622.89,602,627.06Zm8.55,6.32.84.94a3.67,3.67,0,0,1,0,5.19,1.68,1.68,0,0,1-2.56-.06C607.69,638.23,608,636.09,610.55,633.38Z"/><path class="cls-2" d="M610,609.49a.4.4,0,0,0-.51,0l-3.71,3.65a.37.37,0,0,0,0,.51l18.32,18.6a.39.39,0,0,0,.49,0l3.71-3.65a.42.42,0,0,0,0-.49Z"/><path class="cls-2" d="M618.88,614.31c-.12.35.1.56.71,1.13s1,.81,1.23.58a18.63,18.63,0,0,0,1.4-1.76,35.37,35.37,0,0,0,3,3.18l2.39,2.24c3.52,3.3,7.14,3,9.92,0a12.59,12.59,0,0,0,1.8-2.48.5.5,0,0,0,0-.51l-2.86-2.67c-.22-.21-.46-.12-.53.17a2.83,2.83,0,0,1-.71,1.32c-1.14,1.22-2.11,1.19-3.41,0l-2.47-2.31a35.26,35.26,0,0,0-3.4-2.93c1-.87,2.09-1.95,3-2.92.13-.14.1-.27,0-.4l-2.66-2.5c-.17-.15-.33-.15-.43,0-1.07,1.14-2.05,2.3-2.72,3.18a20.36,20.36,0,0,0-2.46-2.83l-1.08-1c-.22-.21-.49-.25-.81.08a.7.7,0,0,0-.16.73A25.61,25.61,0,0,1,618.88,614.31Z"/><path class="cls-2" d="M640.08,596.91l-4.22,5a3.55,3.55,0,0,1,.12-4.62A2.62,2.62,0,0,1,640.08,596.91Zm8,10.84c2-2.42,2.71-4.63,2.67-5.76,0-.3-.1-.53-.54-.9L647.7,599c-.26-.22-.48-.26-.65,0a.6.6,0,0,0-.14.52,7.25,7.25,0,0,1-1.74,4.36c-2,2.41-4.64,2.5-6.32,1.08a6.15,6.15,0,0,1-.68-.67l6.63-7.88c.64-.76.4-1.41-.53-2.19-3.64-3.06-7.59-3.51-11.11.68a9.6,9.6,0,0,0,1.26,13.78C638.46,612,644.05,612.48,648,607.75Z"/><path class="cls-2" d="M124.72,194c-.89,1.18-1.51,2.06-2.38,3.4-1.14-1-2.28-2-4.46-3.61l-5.25-4c-1.27-1-2.32-1.66-3.48-2.39.75-.87,1.68-2,2.32-2.87,3.48-4.61,7.55-4.45,11.4-1.53C127.08,186.25,127.7,190.1,124.72,194Zm4.69,2.55c5.09-6.73,4.78-13.82-2.16-19.07s-14.08-3.93-19.42,3.13l-6.54,8.64a.39.39,0,0,0,.1.51l20.83,15.74a.36.36,0,0,0,.48-.07Z"/><path class="cls-2" d="M138.52,165.72l-4.31,4.91a3.56,3.56,0,0,1,.21-4.62A2.62,2.62,0,0,1,138.52,165.72Zm7.75,11c2.08-2.37,2.8-4.57,2.78-5.7,0-.3-.09-.54-.52-.91L146.1,168c-.25-.23-.47-.27-.65-.07a.65.65,0,0,0-.15.52,7.18,7.18,0,0,1-1.82,4.32c-2.08,2.37-4.69,2.41-6.34,1a5,5,0,0,1-.67-.69l6.79-7.74c.65-.74.42-1.4-.49-2.2-3.57-3.13-7.51-3.65-11.12.46a9.62,9.62,0,0,0,1,13.8C136.6,180.81,142.19,181.36,146.27,176.71Z"/><path class="cls-2" d="M157.24,164.86c3.31-3.4,3.72-7.25,1.11-9.8-2.1-2-4.36-1.85-8.17.11-1.71.83-2.7,1.4-3.52.61-.6-.59-.63-1.53.4-2.59a4.89,4.89,0,0,1,2.64-1.35,2.19,2.19,0,0,0,1.37-.63,2.39,2.39,0,0,0-.5-3.25,2.09,2.09,0,0,0-1.95-.57,8.86,8.86,0,0,0-4.64,2.86c-3.23,3.32-3.47,7.33-1,9.69s4.91,1.82,7.64.49c2.4-1.16,3.31-1.82,4.2-.94.63.61.51,1.66-.66,2.86a9,9,0,0,1-4.91,2.48.57.57,0,0,0-.51.14c-.18.19-.07.46.2.72l2.23,2.18a.81.81,0,0,0,.73.28A10.42,10.42,0,0,0,157.24,164.86Z"/><path class="cls-2" d="M147.88,134.79a3.32,3.32,0,0,0-.12,4.67,3.16,3.16,0,0,0,4.51,0,3.11,3.11,0,0,0,.26-4.49A3.28,3.28,0,0,0,147.88,134.79Zm8.58,4.74a.4.4,0,0,0-.51,0l-3.8,3.61a.37.37,0,0,0,0,.51l12.24,12.9a.37.37,0,0,0,.49,0l3.8-3.6a.41.41,0,0,0,0-.49Z"/><path class="cls-2" d="M167.67,132.93c1.21-1,2.44-1,4.23,1.07,1.62,1.87,1.48,3,.27,4.08s-2.39,1-4.18-1.11C166.38,135.1,166.49,134,167.67,132.93Zm8.83-5.82c1-.84.9-2-.14-3.19s-2.44-1.61-3.6-.61c-1.46,1.26-1.59,3-.6,5-1.95-.68-4.29-.37-7,2-3.65,3.16-4,7.52-1.72,10.23a5.43,5.43,0,0,0,6.85,1.47c-1.92,1.9-1.77,4.23-.65,5.53s3.16,1.68,5.93-.7c1.89-1.64,2.72-2.66,3.84-3.63s1.82-.86,2.54,0c1.19,1.38.55,3.2-1.81,5.23-1.93,1.67-3,1.7-3.8.78a1.21,1.21,0,0,1-.34-1,.36.36,0,0,0-.08-.28c-.1-.11-.21-.12-.35,0l-2.77,2.39a2.56,2.56,0,0,0,.21,3.44c1.79,2.07,4.91,1.73,9.54-2.27,5.44-4.7,6.43-9.42,3.72-12.55-2.08-2.42-4.9-2.6-8,.08-2.24,1.94-3,3.29-4.36,4.48-.81.7-1.41.76-1.8.3s-.31-1.4,1.45-2.91c4.8-4.15,4.74-7.77,2.53-10.33-.82-1-1.35-1-1.85-1.61a.86.86,0,0,1,0-1.29C174.83,127.15,175.55,127.93,176.5,127.11Z"/><path class="cls-2" d="M177,121.57a34.39,34.39,0,0,1,3.11,3.55l7.92,10.45a.36.36,0,0,0,.48.06l4.18-3.16a.41.41,0,0,0,.07-.48L187,124.36c-1.79-2.37-1.48-4.6.19-5.86,1.33-1,2.68-.8,4.34,1.38l6.28,8.3a.38.38,0,0,0,.48.07l4.15-3.15a.41.41,0,0,0,.07-.48l-7.39-9.75c-2.73-3.61-6.14-3.64-8.72-1.69a7.61,7.61,0,0,0-2.7,8.39,31,31,0,0,0-2.71-3,.41.41,0,0,0-.48-.06l-3.45,2.61A.36.36,0,0,0,177,121.57Z"/><path class="cls-2" d="M619,118.83c-1.25,2-2.83,4.94-4,7.3L610.3,137a.41.41,0,0,0,.08.51l5.94,4.68a.45.45,0,0,0,.48-.06l21.76-15.81c.37-.28.4-.45.19-.62l-4.53-3.57a.52.52,0,0,0-.57,0l-10,7.6a85.25,85.25,0,0,0-7.52,6.41,84.86,84.86,0,0,0,4.59-8.53L626,116a.48.48,0,0,0-.21-.59l-4.59-3.63a.48.48,0,0,0-.54,0l-10.25,7.84a93.52,93.52,0,0,0-7.19,6.29,91.15,91.15,0,0,0,4.47-8.43l5.15-11.81a.53.53,0,0,0-.06-.53l-5.11-4c-.26-.21-.44-.11-.61.29l-10.23,24.89a.38.38,0,0,0,.08.51l6.12,4.82a.45.45,0,0,0,.48-.06l9.34-7.06A62.4,62.4,0,0,0,619,118.83Z"/><path class="cls-2" d="M639.14,146.05l-4.78-4.45A3.54,3.54,0,0,1,639,142,2.61,2.61,0,0,1,639.14,146.05Zm-11.21,7.42c2.31,2.15,4.49,2.93,5.62,2.95.29,0,.53-.08.92-.49l2.2-2.37c.23-.25.28-.47.08-.65a.64.64,0,0,0-.51-.17A7.16,7.16,0,0,1,632,150.8c-2.31-2.15-2.27-4.76-.76-6.37a5.54,5.54,0,0,1,.7-.64l7.54,7c.72.67,1.38.46,2.21-.43,3.24-3.48,3.88-7.4-.13-11.12a9.6,9.6,0,0,0-13.82.57C624.11,143.69,623.4,149.25,627.93,153.47Z"/><path class="cls-2" d="M653.22,160.26c1.06,1.09,2.7.6,3.82-.48,1.4-1.35,1.91-3.12.16-4.92s-4.78-2-8-.26a32.54,32.54,0,0,0,3-3.42.39.39,0,0,0,0-.48l-3-3.11a.36.36,0,0,0-.46,0,35.77,35.77,0,0,1-3.14,3.53l-9.42,9.12a.37.37,0,0,0,0,.49l3.65,3.76a.39.39,0,0,0,.48,0l6.49-6.3c2.35-2.27,4.15-2.22,5.21-1.13C653.33,158.4,651.9,158.89,653.22,160.26Z"/><path class="cls-2" d="M658.48,159.66c-.34-.15-.57.05-1.19.61s-.89.94-.69,1.17a21.52,21.52,0,0,0,1.63,1.55,35,35,0,0,0-3.45,2.75l-2.44,2.17c-3.61,3.21-3.64,6.84-.94,9.88a13,13,0,0,0,2.31,2,.47.47,0,0,0,.51,0l2.92-2.59c.23-.21.17-.45-.13-.55a2.89,2.89,0,0,1-1.24-.83c-1.11-1.25-1-2.21.34-3.4l2.53-2.24a36.8,36.8,0,0,0,3.22-3.12c.78,1,1.75,2.25,2.64,3.25.12.14.26.12.4,0l2.73-2.43c.17-.15.18-.31.08-.42-1-1.17-2.1-2.25-2.92-3a20.29,20.29,0,0,0,3-2.19l1.1-1c.23-.2.3-.46,0-.8a.69.69,0,0,0-.72-.23A25.79,25.79,0,0,1,658.48,159.66Z"/><path class="cls-2" d="M673,183.28l-4.1-5.09a3.53,3.53,0,0,1,4.51,1A2.62,2.62,0,0,1,673,183.28ZM660.84,189c2,2.46,4,3.55,5.14,3.72.29.06.54,0,1-.35l2.52-2c.27-.21.34-.42.18-.63a.65.65,0,0,0-.49-.24,7.18,7.18,0,0,1-3.94-2.53c-2-2.46-1.57-5,.15-6.42a5.36,5.36,0,0,1,.78-.54l6.46,8c.62.76,1.31.65,2.26-.11,3.7-3,4.89-6.77,1.46-11a9.62,9.62,0,0,0-13.77-1.4C658.46,178.79,657,184.2,660.84,189Z"/><path class="cls-2" d="M68,562.92c-1.32-2.69-2-4.13-2.85-5.63,1.74-.76,3.52-1.63,5.22-2.47s3.18-1.56,4.78-2.43c.43,1.15,1,2.42,1.74,3.89.92,1.88,1.55,3.26,1.92,4,.08.17.22.19.39.11l1.47-.72c.2-.1.25-.26.19-.39-.35-.72-1-2-2-3.91-.82-1.67-1.46-2.8-2-3.82,1.5-.65,3-1.39,4.4-2.08,1.22-.6,2.76-1.35,4.16-2.12.53,1.26,1.09,2.39,1.94,4.13,1,2.11,2.71,5.69,3.71,7.74a.24.24,0,0,0,.39.11l1.4-.86c.2-.1.26-.25.17-.42l-6.79-13.85a.37.37,0,0,0-.49-.14L62.29,555.55a.37.37,0,0,0-.15.46l7,14.37c.08.17.22.18.39.1l1.55-.55a.27.27,0,0,0,.19-.39C70.3,567.5,69.05,565.11,68,562.92Z"/><path class="cls-2" d="M87,565.75a12.19,12.19,0,0,1-2,1.45l-13.13,7.43a.37.37,0,0,0-.13.46l1,1.72a.39.39,0,0,0,.47.13l8.9-5a6,6,0,0,1,8.37,2.29c1.25,2.21,1,4.15-1.45,5.53l-10.78,6.11a.35.35,0,0,0-.13.46l1,1.72a.39.39,0,0,0,.47.13l11.17-6.33c3.24-1.83,3.69-5.05,2.08-7.9-1.8-3.17-4.81-4.56-7.43-4.17a25.3,25.3,0,0,0,2.86-1.89.38.38,0,0,0,.13-.46l-.88-1.56A.35.35,0,0,0,87,565.75Z"/><path class="cls-2" d="M96.33,583.12c-.19-.1-.37,0-.63.13s-.37.41-.25.6c.28.45.86,1.3,1.33,1.9a40.71,40.71,0,0,0-3.62,2.1l-5.94,3.75c-3.22,2-3.52,4.82-2,7.2a7.18,7.18,0,0,0,1,1.24.4.4,0,0,0,.51.08l1.48-.93a.23.23,0,0,0,0-.44,4.09,4.09,0,0,1-.9-1c-.83-1.32-.72-2.56,1.53-4l5.89-3.71c1.7-1.07,2.57-1.62,3.43-2.25.62,1.14,1.36,2.38,2.07,3.5a.26.26,0,0,0,.4.07l1.22-.77c.19-.12.23-.28.15-.41-.69-1.09-1.68-2.58-2.23-3.4a25.46,25.46,0,0,0,2.6-1.42l.87-.55a.35.35,0,0,0,.13-.57c-.1-.16-.17-.21-.42-.18A12.52,12.52,0,0,1,96.33,583.12Z"/><path class="cls-2" d="M110.21,602.41c-.11-.16-.29-.21-.57-.15l-10.21,3.15a47.37,47.37,0,0,0-5.12,1.91A37.05,37.05,0,0,0,97.82,603l6.31-8.5a.54.54,0,0,0,0-.62l-1.22-1.7c-.08-.13-.29-.22-.51.13L91.57,607.54c-.14.2-.17.36-.06.51l1,1.46a.4.4,0,0,0,.5.11l11.26-3.44a40.65,40.65,0,0,0,4.63-1.75,29.33,29.33,0,0,0-3.15,3.64l-7.06,9.54c-.14.19-.21.29-.08.48l1,1.45c.09.13.22.18.5.11l18-5.22c.4-.09.38-.31.3-.44l-1.11-1.55a.4.4,0,0,0-.57-.15l-10.18,3.13a48.18,48.18,0,0,0-5.15,1.94,40.74,40.74,0,0,0,3.56-4.3l6.27-8.51a.45.45,0,0,0,0-.59Z"/><path class="cls-2" d="M128.49,612.48a1.77,1.77,0,0,0-2.46-.29,1.75,1.75,0,0,0,2.17,2.74A1.76,1.76,0,0,0,128.49,612.48Zm-6.21,6.61a.41.41,0,0,0,.09-.5L121.14,617a.37.37,0,0,0-.51,0L106.9,627.89a.36.36,0,0,0-.05.48l1.22,1.55a.39.39,0,0,0,.48.05Z"/><path class="cls-2" d="M132,635.66a1.22,1.22,0,0,0,1.75.06,1.87,1.87,0,0,0,.61-1.57,7.08,7.08,0,0,0-2-4.44,9.78,9.78,0,0,0-14-.93c-4.39,3.76-4.71,8.88-1.23,13a9.11,9.11,0,0,0,4.89,3,.71.71,0,0,0,.58-.19l.87-.75a.36.36,0,0,0,.12-.5.65.65,0,0,0-.48-.14,7.35,7.35,0,0,1-4.13-2.62c-2.45-2.85-2.18-6.63,1.46-9.75,2.88-2.47,7.3-3.09,10,.11a4.24,4.24,0,0,1,1.15,3.22C131.73,634.83,131.67,635.23,132,635.66Z"/><path class="cls-2" d="M145.75,645.15a.66.66,0,0,0-.61-.21c-2.69.09-10,.21-10.43-.23l-.44-.47c1-.83,2.2-1.93,3-2.69l8.64-8.17a.4.4,0,0,0,0-.51l-1.36-1.44a.36.36,0,0,0-.51,0l-19,17.94a.38.38,0,0,0,0,.49l1.35,1.43a.41.41,0,0,0,.49,0l3.39-3.21c.67-.63,1.88-1.83,2.74-2.75l.44.47c.58.61-.89,9-.93,11.62a.78.78,0,0,0,.22.57l1.86,2c.1.11.26.11.43,0a.43.43,0,0,0,.15-.46c-.43-2,.94-11.72.51-12.67.9.45,7,.22,11.14.44a.56.56,0,0,0,.35-.13c.11-.1.14-.23,0-.4Z"/><path class="cls-2" d="M158,645.76a.39.39,0,0,0,0-.51l-1.41-1.39a.38.38,0,0,0-.51,0l-18.28,18.64a.37.37,0,0,0,0,.49l1.41,1.38a.39.39,0,0,0,.48,0Z"/><path class="cls-2" d="M156.18,679.58a11.36,11.36,0,0,1,1.45-2l10.1-11.2a.38.38,0,0,0,0-.49l-1.47-1.32a.41.41,0,0,0-.48,0L159,672.09a6,6,0,0,1-8.64.45c-1.89-1.7-2.26-3.62-.38-5.71l8.19-9.09a.37.37,0,0,0,0-.48l-1.47-1.32a.39.39,0,0,0-.48,0l-8.5,9.43c-2.49,2.77-1.89,6,.53,8.15,2.71,2.44,6,2.87,8.38,1.66a30,30,0,0,0-2.23,2.76.41.41,0,0,0,0,.48l1.32,1.2A.37.37,0,0,0,156.18,679.58Z"/><path class="cls-2" d="M172.14,670.12a10.22,10.22,0,0,1-1.33,2.1L161.4,684a.37.37,0,0,0,.06.48l1.54,1.23a.39.39,0,0,0,.48-.05l6.38-8a6,6,0,0,1,8.62-1c2,1.59,2.47,3.48.72,5.68L171.47,692a.37.37,0,0,0,.06.48l1.54,1.24a.41.41,0,0,0,.48-.06l8-10c2.33-2.91,1.54-6.07-1-8.1-2.85-2.28-6.17-2.45-8.45-1.11a26.32,26.32,0,0,0,1.95-2.81.39.39,0,0,0,0-.48l-1.4-1.12A.37.37,0,0,0,172.14,670.12Z"/><path class="cls-2" d="M194,687.9c2.23,1.58,2.52,4,.83,6.4-2,2.8-4.21,2.8-6.26,1.35s-2.57-3.53-.6-6.33C189.59,687,191.84,686.41,194,687.9Zm7.19,6.75a1.34,1.34,0,0,0,2-.45,1.63,1.63,0,0,0-.37-2.45,3.87,3.87,0,0,0-4.83.4c.22-2-.58-4.13-3-5.82a6.45,6.45,0,0,0-9.3,1.45,5.64,5.64,0,0,0-.3,6.76c-1.94-1.09-3.93-.77-5,.75s-.36,3.28,1.84,4.84c1.77,1.24,3.08,1.89,4.89,3.16s2,2.51,1.1,3.85c-1.45,2.05-4.58,1.93-7.9-.41-3.08-2.17-3.49-4.09-2.31-5.77a2.3,2.3,0,0,1,1.26-.92.35.35,0,0,0,.25-.16c.09-.12.1-.2-.09-.33l-1.18-.84c-.49-.35-1.79-.1-2.66,1.14-1.71,2.43-.7,5.47,3.56,8.47,4.78,3.38,9.3,3.17,11.47.09,1.31-1.86,1.33-4.12-1.62-6.21-2.52-1.77-3.81-2.31-5.42-3.45-1.37-1-1.62-1.93-1.09-2.68.7-1,2.1-1.07,4.37.53,4.41,3.11,7.72,2.24,9.76-.65.72-1,.9-1.74,1.43-2.48a1.38,1.38,0,0,1,1.94-.58C200.71,693.41,200.33,694.08,201.14,694.65Z"/><path class="cls-2" d="M611.09,700.81a10.89,10.89,0,0,1-7.62,1.79.68.68,0,0,0-.5.08c-.22.15-.2.37,0,.65l.92,1.3a.83.83,0,0,0,.67.37,11.15,11.15,0,0,0,7.89-2.41c4.09-2.89,5.52-7.39,2.89-11.11-2.41-3.41-5.8-3.48-10.86-2.28-3.4.72-6.31,1.47-8.19-1.2-1.49-2.11-1.11-5,1.62-6.91a8.13,8.13,0,0,1,6.5-1.34.78.78,0,0,0,.54-.09A.44.44,0,0,0,605,679l-1.1-1.55a.86.86,0,0,0-.76-.49,10.45,10.45,0,0,0-6.43,2.17c-4.5,3.17-4.77,7.79-2.69,10.74,2.54,3.6,6.39,3.25,9.82,2.45,4.45-.95,7.21-1.78,9.27,1.14C614.75,695.71,614,698.75,611.09,700.81Z"/><path class="cls-2" d="M611.35,681.37c-.08.2,0,.38.19.62s.45.32.63.18c.42-.32,1.21-1,1.76-1.51a38.67,38.67,0,0,0,2.44,3.4l4.31,5.55c2.33,3,5.15,3,7.37,1.3a7.56,7.56,0,0,0,1.14-1.07.41.41,0,0,0,0-.51L628.15,688a.24.24,0,0,0-.44,0,4.26,4.26,0,0,1-.91,1c-1.23,1-2.48,1-4.11-1.14l-4.26-5.5c-1.24-1.59-1.87-2.4-2.58-3.19,1.07-.73,2.23-1.59,3.28-2.4a.26.26,0,0,0,0-.41l-.89-1.14c-.14-.18-.3-.2-.42-.1-1,.79-2.41,1.91-3.16,2.55a27.78,27.78,0,0,0-1.67-2.46l-.63-.81a.36.36,0,0,0-.59-.07c-.15.11-.18.19-.13.44A12.5,12.5,0,0,1,611.35,681.37Z"/><path class="cls-2" d="M638.26,680c-3.24,2.76-7,1.12-9.71-2s-3.57-7-.33-9.76,6.86-1.27,9.55,1.88S641.47,677.28,638.26,680Zm-11.33-13.26c-4.68,4-3.79,9.43-.63,13.13s8.54,5.6,13.22,1.61,3.64-9.56.45-13.28S631.56,662.81,626.93,666.76Z"/><path class="cls-2" d="M647.3,653.35a1.31,1.31,0,0,0-.13-2c-.84-.88-2.31-1-4,.7-2,1.93-2.15,4.69-1.07,7.12a23.82,23.82,0,0,0-2.51-2.39.4.4,0,0,0-.48,0l-1.3,1.23a.36.36,0,0,0,0,.45,10.6,10.6,0,0,1,1.89,1.62l10.37,11a.36.36,0,0,0,.48,0l1.44-1.36a.41.41,0,0,0,0-.49l-7-7.43c-1.93-2-3-5.16-.87-7.17C645.58,653.19,646.5,654.11,647.3,653.35Z"/><path class="cls-2" d="M665.94,667.55c2.22-2.3,2.62-5.77.16-11.37l-8-17.75c-.14-.29-.33-.37-.52-.18l-1.29,1.34a.52.52,0,0,0-.1.65l4.6,9.84c.72,1.6,1.56,3.2,2.64,5.14a52.11,52.11,0,0,0-5.26-2.49l-9.91-4.3a.52.52,0,0,0-.64.12l-1.45,1.5c-.16.17-.13.41.19.51l17.75,7.13c2,4.48,1.41,7,.16,8.24a1.81,1.81,0,0,1-1.09.64.77.77,0,0,0-.26.17c-.08.08-.08.24.08.4l1.23,1.19a.39.39,0,0,0,.46.12A4.07,4.07,0,0,0,665.94,667.55Z"/><path class="cls-2" d="M286.49,398.23c2,0,3.19,1.27,3.19,3.62,0,2.61-1.3,3.57-3.16,3.57s-3-1.06-3-3.69C283.48,399.43,284.59,398.23,286.49,398.23Zm8.12,1.11c.8,0,1.24-.56,1.24-1.46a1.46,1.46,0,0,0-1.52-1.64,3.11,3.11,0,0,0-3,2.61,5.19,5.19,0,0,0-4.87-2.52c-3.16,0-5.79,2.11-5.79,5.37a4.54,4.54,0,0,0,3.1,4.62,3,3,0,0,0-3.07,2.88c0,1.55,1.27,2.48,3.62,2.48,1.86,0,3-.22,4.65-.22s2.3.69,2.3,1.9c0,1.92-2,3.16-5.05,3.16-2.83,0-3.91-1-3.91-2.48a1.72,1.72,0,0,1,.4-1.12l.09-.18a.19.19,0,0,0-.21-.22H280.9c-.49,0-1.33.77-1.33,2.08,0,2.35,2.11,3.9,6.51,3.9,5.09,0,8-2.29,8-5.42,0-2.05-1.21-3.6-4.25-3.6-2.48,0-3.62.31-5.2.31-1.24,0-1.8-.46-1.8-1.18,0-.87.83-1.52,3-1.52,4.62,0,6.42-2.2,6.42-5,0-1-.21-1.49-.21-2.2s.37-1.18,1-1.18S293.74,399.34,294.61,399.34Zm-31.56-2.2a14.57,14.57,0,0,1,.21,2.48v11.91a.31.31,0,0,0,.28.28h2.27a.34.34,0,0,0,.28-.28v-8.22a4.47,4.47,0,0,1,4.52-4.71c1.86,0,3,1,3,3.22v9.71a.31.31,0,0,0,.28.28h2.26a.33.33,0,0,0,.28-.28V401.17a4.52,4.52,0,0,0-4.8-4.84,6.18,6.18,0,0,0-6,3.72,25.4,25.4,0,0,0-.18-2.91c0-.12-.13-.28-.28-.28H263.3A.3.3,0,0,0,263.05,397.14Zm-5.89-7.35a1.74,1.74,0,0,0-1.74,1.74,1.74,1.74,0,0,0,3.47,0A1.75,1.75,0,0,0,257.16,389.79Zm1.39,7.38a.33.33,0,0,0-.28-.31H256a.31.31,0,0,0-.28.31v14.36a.31.31,0,0,0,.28.28h2.26a.33.33,0,0,0,.28-.28ZM252.39,400c.77,0,1.24-.65,1.24-1.55,0-1.11-.84-2.11-2.79-2.11-2.27,0-3.91,1.62-4.66,3.88a22.76,22.76,0,0,0-.18-3.07c0-.12-.13-.28-.28-.28h-1.95a.3.3,0,0,0-.25.28,13.93,13.93,0,0,1,.22,2.48v11.91a.3.3,0,0,0,.27.28h2.27a.34.34,0,0,0,.28-.28V403.4c0-2.35,1.11-4.46,3.22-4.46C251.42,398.94,251.33,400,252.39,400Zm-14.6,1.46h-7.57a4.25,4.25,0,0,1,4.25-3.19A3,3,0,0,1,237.79,401.45Zm-3.45,10.76a7.76,7.76,0,0,0,4.65-1.4.56.56,0,0,0,.25-.52v-1.43c0-.22-.09-.31-.21-.31a.44.44,0,0,0-.35.16,6.33,6.33,0,0,1-3.9,1.24,4.82,4.82,0,0,1-5-5.15,7.76,7.76,0,0,1,.15-1.68h9.49c.65,0,.84-.34.84-.93,0-3.56-1.93-5.86-5.77-5.86-4.9,0-7.6,4.13-7.6,8.16C226.9,408.89,229.63,412.21,234.34,412.21ZM222,401.45h-7.57a4.25,4.25,0,0,1,4.25-3.19A3,3,0,0,1,222,401.45Zm-3.45,10.76a7.76,7.76,0,0,0,4.65-1.4.56.56,0,0,0,.25-.52v-1.43c0-.22-.09-.31-.21-.31a.44.44,0,0,0-.35.16A6.33,6.33,0,0,1,219,410a4.82,4.82,0,0,1-5-5.15,7.76,7.76,0,0,1,.15-1.68h9.49c.65,0,.84-.34.84-.93,0-3.56-1.93-5.86-5.77-5.86-4.9,0-7.6,4.13-7.6,8.16C211.09,408.89,213.82,412.21,218.53,412.21Zm-24.39-15.07a14.57,14.57,0,0,1,.21,2.48v11.91a.31.31,0,0,0,.28.28h2.27a.33.33,0,0,0,.27-.28v-8.22a4.48,4.48,0,0,1,4.53-4.71c1.86,0,3,1,3,3.22v9.71a.3.3,0,0,0,.28.28h2.26a.33.33,0,0,0,.28-.28V401.17a4.52,4.52,0,0,0-4.8-4.84,6.18,6.18,0,0,0-6,3.72,25.4,25.4,0,0,0-.18-2.91c0-.12-.13-.28-.28-.28h-2C194.26,396.86,194.14,397,194.14,397.14Zm-5.89-7.35a1.74,1.74,0,0,0-1.74,1.74,1.74,1.74,0,0,0,3.47,0A1.75,1.75,0,0,0,188.25,389.79Zm1.39,7.38a.33.33,0,0,0-.28-.31H187.1a.31.31,0,0,0-.28.31v14.36a.3.3,0,0,0,.28.28h2.26a.33.33,0,0,0,.28-.28Zm-14.32,1.06c2,0,3.19,1.27,3.19,3.62,0,2.61-1.3,3.57-3.16,3.57s-3-1.06-3-3.69C172.31,399.43,173.43,398.23,175.32,398.23Zm8.12,1.11c.81,0,1.24-.56,1.24-1.46a1.46,1.46,0,0,0-1.52-1.64,3.1,3.1,0,0,0-3,2.61,5.19,5.19,0,0,0-4.87-2.52c-3.16,0-5.8,2.11-5.8,5.37a4.55,4.55,0,0,0,3.1,4.62,3.05,3.05,0,0,0-3.07,2.88c0,1.55,1.27,2.48,3.63,2.48,1.86,0,3-.22,4.65-.22s2.29.69,2.29,1.9c0,1.92-1.95,3.16-5.05,3.16-2.82,0-3.91-1-3.91-2.48a1.72,1.72,0,0,1,.41-1.12l.09-.18a.2.2,0,0,0-.22-.22h-1.64c-.5,0-1.33.77-1.33,2.08,0,2.35,2.1,3.9,6.51,3.9,5.08,0,8-2.29,8-5.42,0-2.05-1.21-3.6-4.25-3.6-2.48,0-3.63.31-5.21.31-1.24,0-1.8-.46-1.8-1.18,0-.87.84-1.52,3-1.52,4.62,0,6.42-2.2,6.42-5,0-1-.22-1.49-.22-2.2s.37-1.18,1-1.18S182.58,399.34,183.44,399.34Zm-31.56-2.2a13.93,13.93,0,0,1,.22,2.48v11.91a.3.3,0,0,0,.28.28h2.26a.33.33,0,0,0,.28-.28v-8.22a4.48,4.48,0,0,1,4.53-4.71c1.86,0,3,1,3,3.22v9.71a.3.3,0,0,0,.28.28H165a.34.34,0,0,0,.28-.28V401.17a4.52,4.52,0,0,0-4.81-4.84,6.18,6.18,0,0,0-5.95,3.72,23.1,23.1,0,0,0-.19-2.91c0-.12-.12-.28-.28-.28h-2A.31.31,0,0,0,151.88,397.14Zm-5.67,4.31h-7.56a4.25,4.25,0,0,1,4.24-3.19A3,3,0,0,1,146.21,401.45Zm-3.44,10.76a7.76,7.76,0,0,0,4.65-1.4.56.56,0,0,0,.25-.52v-1.43c0-.22-.09-.31-.22-.31a.43.43,0,0,0-.34.16A6.34,6.34,0,0,1,143.2,410a4.83,4.83,0,0,1-5-5.15,7.08,7.08,0,0,1,.16-1.68h9.49c.65,0,.83-.34.83-.93,0-3.56-1.92-5.86-5.76-5.86-4.9,0-7.6,4.13-7.6,8.16C135.33,408.89,138.06,412.21,142.77,412.21Zm-11.69-22a.32.32,0,0,0-.28-.31h-2.57a.31.31,0,0,0-.28.31v21.3a.31.31,0,0,0,.28.28h2.57a.33.33,0,0,0,.28-.28Zm-11.34-.31a.31.31,0,0,0-.28.31v13.86c0,3.62-2.23,5.39-6,5.39-3.44-.06-6-1.92-6-5.52V390.23a.32.32,0,0,0-.28-.31h-2.6a.3.3,0,0,0-.28.31v14.2c0,4.77,3.72,7.78,9.11,7.78s9.09-3,9.09-7.69V390.23a.33.33,0,0,0-.28-.31Z"/><path class="cls-2" d="M467.6,239.87c2,0,3.2,1.27,3.2,3.63,0,2.61-1.31,3.57-3.17,3.57s-3-1.06-3-3.69C464.6,241.08,465.71,239.87,467.6,239.87Zm8.13,1.12c.8,0,1.24-.56,1.24-1.46a1.46,1.46,0,0,0-1.52-1.64,3.11,3.11,0,0,0-3,2.6,5.2,5.2,0,0,0-4.87-2.51c-3.16,0-5.8,2.11-5.8,5.37a4.55,4.55,0,0,0,3.1,4.62,3.05,3.05,0,0,0-3.07,2.88c0,1.55,1.28,2.48,3.63,2.48,1.86,0,3-.22,4.65-.22s2.3.68,2.3,1.89c0,1.93-2,3.17-5.06,3.17-2.82,0-3.9-1-3.9-2.48a1.72,1.72,0,0,1,.4-1.12l.09-.19a.19.19,0,0,0-.21-.21H462c-.49,0-1.33.77-1.33,2.07,0,2.36,2.11,3.91,6.51,3.91,5.09,0,8-2.29,8-5.43,0-2-1.21-3.59-4.25-3.59-2.48,0-3.62.31-5.21.31-1.24,0-1.79-.47-1.79-1.18,0-.87.83-1.52,3-1.52,4.62,0,6.42-2.2,6.42-5.05,0-1-.22-1.49-.22-2.2s.38-1.18,1-1.18S474.86,241,475.73,241Zm-31.56-2.2a14.42,14.42,0,0,1,.21,2.48v11.9a.3.3,0,0,0,.28.28h2.27a.32.32,0,0,0,.27-.28V245a4.48,4.48,0,0,1,4.53-4.71c1.86,0,3,1,3,3.22v9.7a.29.29,0,0,0,.28.28h2.26a.32.32,0,0,0,.28-.28V242.82a4.51,4.51,0,0,0-4.8-4.84,6.18,6.18,0,0,0-6,3.72,25.4,25.4,0,0,0-.18-2.91c0-.13-.13-.28-.28-.28h-2A.29.29,0,0,0,444.17,238.79Zm-4.25,14.38a11.71,11.71,0,0,1-.25-2.48v-11.9a.29.29,0,0,0-.28-.28h-2.26a.33.33,0,0,0-.28.28v8.15a4.42,4.42,0,0,1-4.49,4.65c-1.89,0-3.07-1-3.07-3.22v-9.58a.3.3,0,0,0-.28-.28h-2.27a.32.32,0,0,0-.27.28V249a4.51,4.51,0,0,0,4.8,4.84,6.08,6.08,0,0,0,6-3.66,25.36,25.36,0,0,0,.19,3c0,.13.12.28.28.28h2A.29.29,0,0,0,439.92,253.17ZM422,231.87a.33.33,0,0,0-.28-.31h-2.26a.31.31,0,0,0-.28.31v21.3a.29.29,0,0,0,.28.28h2.26a.32.32,0,0,0,.28-.28Zm-7.47,0a.33.33,0,0,0-.28-.31H412a.31.31,0,0,0-.28.31v21.3a.29.29,0,0,0,.28.28h2.26a.32.32,0,0,0,.28-.28Zm-8.68,11.23h-7.56a4.26,4.26,0,0,1,4.25-3.2A3,3,0,0,1,405.85,243.1Zm-3.44,10.76a7.76,7.76,0,0,0,4.65-1.4.57.57,0,0,0,.25-.53v-1.42c0-.22-.09-.31-.22-.31a.45.45,0,0,0-.34.15,6.28,6.28,0,0,1-3.91,1.24,4.82,4.82,0,0,1-5-5.14,7.08,7.08,0,0,1,.16-1.68h9.49c.65,0,.83-.34.83-.93,0-3.56-1.92-5.86-5.76-5.86-4.9,0-7.6,4.13-7.6,8.16C395,250.54,397.7,253.86,402.41,253.86Zm-18-14.42c-.19.09-.22.28-.22.62s.13.59.31.59a14.76,14.76,0,0,0,1.9-.09,28.12,28.12,0,0,0-.16,3.44v5c0,3.32,1.89,4.87,4.43,4.87a7.64,7.64,0,0,0,1.59-.19.3.3,0,0,0,.27-.31V251.5c0-.19-.12-.28-.34-.19a2.39,2.39,0,0,1-1.11.22c-1.27,0-2-.59-2-2.6V244c0-1.65,0-2.55-.09-3.44,1.08.09,2.26.09,3.35.09.15,0,.21-.09.21-.25v-1.61c0-.19-.09-.28-.21-.28-1.12,0-2.51,0-3.35.09a19,19,0,0,0,.22-2.57v-.93a.33.33,0,0,0-.38-.37.36.36,0,0,0-.37.24A12.23,12.23,0,0,1,384.46,239.44Zm-7.84,14.42c3.41,0,5.73-1.8,5.73-4.44s-1.64-3.53-4.65-4.59c-1.64-.58-2.94-1-2.94-2.54,0-1.11.84-2.14,2.63-2.14a4.1,4.1,0,0,1,2.67,1,1.12,1.12,0,0,0,1.92-1,1.22,1.22,0,0,0-.52-1.05,6.24,6.24,0,0,0-3.91-1.15c-3.44,0-5.52,2.08-5.52,4.4,0,2.76,2,3.82,4,4.5s3.6,1.12,3.6,2.73c0,1.21-1.06,2.17-3,2.17a6.5,6.5,0,0,1-3.94-1.33.54.54,0,0,0-.43-.19c-.16,0-.22.15-.22.4v1.43a.65.65,0,0,0,.25.53A7.48,7.48,0,0,0,376.62,253.86Zm-6.91-12.22c.77,0,1.24-.65,1.24-1.55,0-1.12-.84-2.11-2.79-2.11-2.27,0-3.91,1.61-4.66,3.88a22.65,22.65,0,0,0-.18-3.07c0-.13-.12-.28-.28-.28h-2a.29.29,0,0,0-.25.28,13.79,13.79,0,0,1,.22,2.48v11.9a.29.29,0,0,0,.27.28h2.27a.33.33,0,0,0,.28-.28v-8.12c0-2.36,1.11-4.46,3.22-4.46C368.74,240.59,368.65,241.64,369.71,241.64Zm-19-3.66c-4,0-5.58,1.92-5.58,3a1.12,1.12,0,0,0,1.21,1.18c.68,0,1-.44,1.4-1a3.3,3.3,0,0,1,2.75-1.06c2.36,0,3.14,1.06,3.14,2.76v1c-6.3.38-9.3,2.92-9.3,6,0,2.26,1.7,3.94,4.52,3.94a5.34,5.34,0,0,0,5.27-3.54,6,6,0,0,0,.62,2.58.8.8,0,0,0,.84.55h1.36a.37.37,0,0,0,.35-.34.47.47,0,0,0-.16-.37c-.46-.34-.9-1.52-.9-3.69,0-1.7.16-4.59.16-6.45C356.35,240,354.92,238,350.67,238Zm2.92,7.44v2a4.06,4.06,0,0,1-4,4.34,2.33,2.33,0,0,1-2.55-2.33C347,247.44,348.81,245.76,353.59,245.42Zm-24,5.58c-1.52,0-2.66,0-4.27.1.06-1.46.09-2.95.09-4.84v-8.53c0-1.33,0-2.57-.09-3.81,1.11.06,2.69.09,3.84.09,5.92,0,8.34,3.72,8.34,8.53C337.53,248.74,333.93,251,329.62,251Zm.07,2.45c6.63,0,11.22-3.69,11.22-10.79s-4.5-11.1-11.47-11.1h-6.85a.31.31,0,0,0-.28.31v21.3a.29.29,0,0,0,.28.28Z"/><path class="cls-2" d="M454.48,549.61h-7.57a4.25,4.25,0,0,1,4.25-3.19A3,3,0,0,1,454.48,549.61ZM451,560.37a7.83,7.83,0,0,0,4.65-1.39.58.58,0,0,0,.25-.53V557c0-.22-.09-.31-.21-.31a.44.44,0,0,0-.35.16,6.33,6.33,0,0,1-3.9,1.24,4.82,4.82,0,0,1-5-5.15,7.59,7.59,0,0,1,.15-1.67h9.49c.65,0,.84-.35.84-.93,0-3.57-1.93-5.86-5.77-5.86-4.9,0-7.6,4.12-7.6,8.15C443.59,557.05,446.32,560.37,451,560.37Zm-10.6-12.12a1.23,1.23,0,0,0,1.15-1.31,1.56,1.56,0,0,0-.74-1.33,5.61,5.61,0,0,0-3.72-1.11,8,8,0,0,0-8.13,8.18c0,4.59,2.95,7.69,7.54,7.69a7,7,0,0,0,4.4-1.39.63.63,0,0,0,.22-.53v-1.34c0-.18-.1-.37-.28-.37s-.22.1-.34.19a5.49,5.49,0,0,1-3.63,1.18c-2.79,0-5-1.93-5-5.58,0-2.89,1.79-5.71,5-5.71a3.56,3.56,0,0,1,2.45.87A1.46,1.46,0,0,0,440.43,548.25Zm-20.8-3.75c-4,0-5.58,1.92-5.58,3a1.11,1.11,0,0,0,1.21,1.18c.68,0,1-.43,1.39-1a3.37,3.37,0,0,1,2.76-1.06c2.36,0,3.14,1.06,3.14,2.76v1c-6.3.37-9.31,2.91-9.31,6,0,2.27,1.71,3.94,4.53,3.94a5.33,5.33,0,0,0,5.27-3.53,5.92,5.92,0,0,0,.62,2.57.8.8,0,0,0,.84.56h1.36a.37.37,0,0,0,.34-.34.48.48,0,0,0-.15-.38c-.47-.34-.9-1.52-.9-3.69,0-1.7.16-4.58.16-6.44C425.31,546.48,423.88,544.5,419.63,544.5Zm2.92,7.44v2a4.06,4.06,0,0,1-4,4.34,2.32,2.32,0,0,1-2.55-2.32C416,554,417.77,552.28,422.55,551.94Zm-14.39-8.84c0-2.14.68-2.85,3.19-2.85a.32.32,0,0,0,.35-.34v-1.68c0-.25-.1-.43-.44-.43-4.06,0-5.86,2.08-5.86,5a20.13,20.13,0,0,0,.13,2.39,12.8,12.8,0,0,0-2-.13c-.09,0-.19.1-.19.28v1.61c0,.16.07.25.19.25.62,0,1.37,0,2-.09-.07.84-.13,1.77-.13,3.44v9.18a.31.31,0,0,0,.28.28h2.26a.33.33,0,0,0,.28-.28v-9.18c0-1.64-.06-2.57-.12-3.44,1.08.06,2.29.09,3.38.09.15,0,.22-.09.22-.25V545.3c0-.18-.1-.28-.22-.28-1.06,0-2.3,0-3.44.13A19.89,19.89,0,0,0,408.16,543.1Zm-6.57,5c.78,0,1.24-.65,1.24-1.55,0-1.11-.84-2.1-2.79-2.1-2.26,0-3.91,1.61-4.65,3.87a21.09,21.09,0,0,0-.19-3.07c0-.12-.12-.28-.28-.28H393a.31.31,0,0,0-.25.28,13.93,13.93,0,0,1,.22,2.48v11.91a.3.3,0,0,0,.28.28h2.26a.33.33,0,0,0,.28-.28v-8.13c0-2.35,1.12-4.46,3.23-4.46C400.63,547.1,400.54,548.15,401.59,548.15ZM387,549.61h-7.57a4.27,4.27,0,0,1,4.25-3.19A3,3,0,0,1,387,549.61Zm-3.44,10.76A7.85,7.85,0,0,0,388.2,559a.61.61,0,0,0,.25-.53V557c0-.22-.1-.31-.22-.31a.42.42,0,0,0-.34.16,6.36,6.36,0,0,1-3.91,1.24,4.83,4.83,0,0,1-5-5.15,6.92,6.92,0,0,1,.16-1.67h9.48c.65,0,.84-.35.84-.93,0-3.57-1.92-5.86-5.77-5.86-4.9,0-7.59,4.12-7.59,8.15C376.11,557.05,378.83,560.37,383.55,560.37ZM365.6,546c-.19.1-.22.28-.22.62s.12.59.31.59a14.69,14.69,0,0,0,1.89-.09,31.15,31.15,0,0,0-.15,3.44v5c0,3.32,1.89,4.87,4.43,4.87a6.94,6.94,0,0,0,1.58-.19.3.3,0,0,0,.28-.31V558c0-.18-.12-.28-.34-.18a2.55,2.55,0,0,1-1.12.21c-1.27,0-2-.58-2-2.6v-4.93c0-1.64,0-2.54-.09-3.44,1.08.09,2.26.09,3.34.09.16,0,.22-.09.22-.25V545.3c0-.18-.09-.28-.22-.28-1.11,0-2.51,0-3.34.1a19.08,19.08,0,0,0,.21-2.58v-.93a.32.32,0,0,0-.37-.37.35.35,0,0,0-.37.25A12.36,12.36,0,0,1,365.6,546Zm-16.4-.65a13.93,13.93,0,0,1,.22,2.48v11.91a.3.3,0,0,0,.27.28H352a.34.34,0,0,0,.28-.28v-8.22a4.47,4.47,0,0,1,4.52-4.71c1.86,0,3,1,3,3.22v9.71a.31.31,0,0,0,.28.28h2.26a.33.33,0,0,0,.28-.28V549.33a4.51,4.51,0,0,0-4.8-4.83,6.17,6.17,0,0,0-5.95,3.72,25.19,25.19,0,0,0-.19-2.92c0-.12-.13-.28-.28-.28h-1.95A.3.3,0,0,0,349.2,545.3Zm-5-6.91a.33.33,0,0,0-.28-.31h-2.57a.3.3,0,0,0-.28.31v21.3a.3.3,0,0,0,.28.28h2.57a.34.34,0,0,0,.28-.28Z"/><path class="cls-2" d="M646.85,397.79c-.19.09-.22.28-.22.62s.13.59.31.59a14.61,14.61,0,0,0,1.89-.09,31.15,31.15,0,0,0-.15,3.44v5c0,3.32,1.89,4.87,4.43,4.87a6.87,6.87,0,0,0,1.58-.19.3.3,0,0,0,.28-.31v-1.86c0-.18-.12-.28-.34-.18a2.55,2.55,0,0,1-1.12.21c-1.27,0-2-.59-2-2.6v-4.93c0-1.64,0-2.54-.09-3.44,1.08.09,2.26.09,3.35.09.15,0,.21-.09.21-.25v-1.61c0-.19-.09-.28-.21-.28-1.12,0-2.52,0-3.35.09a18.81,18.81,0,0,0,.21-2.57v-.93a.32.32,0,0,0-.37-.37.36.36,0,0,0-.37.25A12.36,12.36,0,0,1,646.85,397.79Zm-5.77-6.7a1.6,1.6,0,0,0-1.58,1.59,1.59,1.59,0,0,0,3.17,0A1.6,1.6,0,0,0,641.08,391.09Zm-5.79,0a1.59,1.59,0,0,0-1.58,1.59,1.58,1.58,0,0,0,3.16,0A1.59,1.59,0,0,0,635.29,391.09Zm2.76,5.24c-4,0-5.58,1.93-5.58,3a1.11,1.11,0,0,0,1.2,1.18c.69,0,1-.44,1.4-1a3.37,3.37,0,0,1,2.76-1.06c2.36,0,3.13,1.06,3.13,2.76v1c-6.29.37-9.3,2.91-9.3,6,0,2.26,1.7,3.94,4.53,3.94a5.35,5.35,0,0,0,5.27-3.54,5.93,5.93,0,0,0,.62,2.58.79.79,0,0,0,.83.56h1.37a.38.38,0,0,0,.34-.35.45.45,0,0,0-.16-.37c-.46-.34-.89-1.52-.89-3.69,0-1.7.15-4.59.15-6.45C643.72,398.32,642.29,396.33,638.05,396.33Zm2.91,7.44v2a4.05,4.05,0,0,1-4,4.34,2.32,2.32,0,0,1-2.54-2.33C634.42,405.79,636.19,404.12,641,403.77Zm-20-6c-.18.09-.21.28-.21.62s.12.59.31.59a14.69,14.69,0,0,0,1.89-.09,30.61,30.61,0,0,0-.16,3.44v5c0,3.32,1.9,4.87,4.44,4.87a7,7,0,0,0,1.58-.19.31.31,0,0,0,.28-.31v-1.86c0-.18-.13-.28-.34-.18a2.55,2.55,0,0,1-1.12.21c-1.27,0-2-.59-2-2.6v-4.93a31.69,31.69,0,0,0-.1-3.44c1.09.09,2.27.09,3.35.09.16,0,.22-.09.22-.25v-1.61c0-.19-.09-.28-.22-.28-1.11,0-2.51,0-3.35.09a17.37,17.37,0,0,0,.22-2.57v-.93a.32.32,0,0,0-.37-.37.35.35,0,0,0-.37.25A12.3,12.3,0,0,1,621,397.79Zm-4.58-8a1.74,1.74,0,0,0-1.74,1.74,1.74,1.74,0,0,0,3.47,0A1.75,1.75,0,0,0,616.41,389.79Zm1.39,7.38a.33.33,0,0,0-.28-.31h-2.26a.31.31,0,0,0-.28.31v14.36a.31.31,0,0,0,.28.28h2.26a.33.33,0,0,0,.28-.28Zm-7.47-6.94a.32.32,0,0,0-.28-.31h-2.26a.3.3,0,0,0-.28.31v21.3a.3.3,0,0,0,.28.28h2.26a.33.33,0,0,0,.28-.28Zm-13.11,6.1c-4,0-5.58,1.93-5.58,3a1.11,1.11,0,0,0,1.21,1.18c.68,0,1-.44,1.39-1a3.37,3.37,0,0,1,2.76-1.06c2.36,0,3.14,1.06,3.14,2.76v1c-6.3.37-9.31,2.91-9.31,6,0,2.26,1.71,3.94,4.53,3.94a5.34,5.34,0,0,0,5.27-3.54,5.93,5.93,0,0,0,.62,2.58.8.8,0,0,0,.84.56h1.36a.37.37,0,0,0,.34-.35.47.47,0,0,0-.15-.37c-.47-.34-.9-1.52-.9-3.69,0-1.7.15-4.59.15-6.45C602.89,398.32,601.47,396.33,597.22,396.33Zm2.92,7.44v2a4.06,4.06,0,0,1-4,4.34,2.33,2.33,0,0,1-2.55-2.33C593.59,405.79,595.36,404.12,600.14,403.77Zm-26.42-6.63a13.93,13.93,0,0,1,.22,2.48v11.91a.3.3,0,0,0,.28.28h2.26a.34.34,0,0,0,.28-.28v-8.22a4.48,4.48,0,0,1,4.53-4.71c1.86,0,3,1,3,3.22v9.71a.3.3,0,0,0,.27.28h2.27a.34.34,0,0,0,.28-.28V401.17a4.52,4.52,0,0,0-4.81-4.84,6.17,6.17,0,0,0-6,3.72,25.15,25.15,0,0,0-.19-2.91c0-.12-.12-.28-.28-.28H574A.31.31,0,0,0,573.72,397.14Zm-11,13c-3.13,0-4.47-2.66-4.47-5.92s1.31-5.8,4.47-5.8,4.46,2.51,4.46,5.8S565.88,410.16,562.72,410.16Zm0-13.83c-5.09,0-7.51,3.88-7.51,7.85s2.42,8,7.51,8,7.47-4,7.47-8S567.83,396.33,562.72,396.33Zm-5.39-6.41H539c-.12,0-.19.09-.22.27l-.28,2.05a.2.2,0,0,0,.22.25c1.43,0,2.7-.06,4.13-.06,1.24,0,2.51,0,3.75-.1-.07,1.09-.1,2.24-.1,3.38v15.82a.31.31,0,0,0,.28.28h2.58a.34.34,0,0,0,.28-.28V395.78c0-1.15,0-2.3-.1-3.45,1.37.07,2.79.1,4.16.1,1.14,0,2.51.06,3.66.06a.19.19,0,0,0,.21-.22v-2.11C557.54,390,557.48,389.92,557.33,389.92Z"/><path class="cls-3" d="M432.43,364.84a245.51,245.51,0,0,0-34.05-28.4,246,246,0,0,0-62.45,62.45,246,246,0,0,0,62.45,62.45,246,246,0,0,0,62.45-62.45A245.63,245.63,0,0,0,432.43,364.84Z"/><path class="cls-4" d="M414.19,400.86c2.24-2.54,4.19-5,8.41-10.48.18-.25.09-.46-.13-.46h-5.42a.76.76,0,0,0-.68.4c-2.27,3.16-3.45,4.87-4.93,7.35a87,87,0,0,0-4.72-7.35c-.18-.31-.34-.4-.56-.4h-6.07c-.31,0-.41.24-.22.49,4.22,5.58,6,7.85,8.37,10.64-2,2.26-4.68,5.48-8.34,10.17-.22.28-.09.59.19.59h5.45c.25,0,.38-.13.53-.35a79.86,79.86,0,0,0,5-7.28c1.43,2.42,2.64,4.31,4.62,7.19a.83.83,0,0,0,.65.44h6.08a.29.29,0,0,0,.22-.47C418.54,406,416.27,403.22,414.19,400.86ZM392,389.92a.31.31,0,0,0-.28.31v13.36c0,2.45-1.89,3.69-4.46,3.69s-4.5-1.27-4.5-3.69V390.23a.32.32,0,0,0-.28-.31h-5a.31.31,0,0,0-.28.31v14.41c0,5.21,4.84,7.57,10.05,7.57,5.45,0,9.86-2.73,9.86-7.63V390.23a.33.33,0,0,0-.28-.31Z"/></svg>