<?xml version="1.0" encoding="UTF-8" standalone="no"?>
<svg width="351px" height="234px" viewBox="0 0 351 234" version="1.1" xmlns="http://www.w3.org/2000/svg" xmlns:xlink="http://www.w3.org/1999/xlink">
    <!-- Generator: Sketch 39.1 (31720) - http://www.bohemiancoding.com/sketch -->
    <title>Logo</title>
    <desc>Created with Sketch.</desc>
    <defs>
        <polygon id="path-1" points="0.000634234234 233.64875 350.576144 233.64875 350.576144 0.00158783784 0.000634234234 0.00158783784 0.000634234234 233.64875"></polygon>
    </defs>
    <g id="Page-1" stroke="none" stroke-width="1" fill="none" fill-rule="evenodd">
        <g id="Desktop" transform="translate(-567.000000, -1844.000000)">
            <g id="Portfolio" transform="translate(40.000000, 819.000000)">
                <g id="GINGINGIN" transform="translate(2.000000, 929.000000)">
                    <g id="Screenshot">
                        <g id="Logo" transform="translate(525.000000, 96.000000)">
                            <mask id="mask-2" fill="white">
                                <use xlink:href="#path-1"></use>
                            </mask>
                            <g id="Clip-2"></g>
                            <path d="M199.19458,73.9824459 L197.225283,78.1584595 C196.289787,80.1464324 197.13649,82.5218378 199.124814,83.4586622 C199.673427,83.7190676 200.25058,83.8397432 200.81822,83.8397432 C202.30867,83.8397432 203.738868,82.9950135 204.417499,81.5564324 L206.386796,77.3804189 C207.322292,75.3924459 206.475589,73.0170405 204.487265,72.0802162 C202.495769,71.1306892 200.139589,71.994473 199.19458,73.9824459 L199.19458,73.9824459 Z M284.933535,98.3398784 C285.482148,98.6002838 286.059301,98.7209595 286.626941,98.7209595 C288.117391,98.7209595 289.547589,97.8794054 290.22622,96.4376486 L292.195517,92.2616351 C293.131013,90.2768378 292.28431,87.8982568 290.295986,86.9614324 C288.314004,86.0087297 285.941968,86.8820405 285.003301,88.8636622 L283.034004,93.0396757 C282.098508,95.0276486 282.945211,97.4030541 284.933535,98.3398784 L284.933535,98.3398784 Z M112.0064,88.8604865 L110.033932,93.0365 C109.098436,95.024473 109.945139,97.3998784 111.930292,98.3398784 C112.482076,98.6002838 113.059229,98.7209595 113.626868,98.7209595 C115.117319,98.7209595 116.547517,97.8825811 117.226148,96.444 L119.198616,92.2679865 C120.134112,90.2800135 119.287409,87.9046081 117.305427,86.9614324 C115.298076,86.0087297 112.948238,86.8725135 112.0064,88.8604865 L112.0064,88.8604865 Z M259.323157,121.2365 C259.599049,120.674405 259.748094,120.372716 259.757607,120.353662 L259.805175,120.261568 C262.158184,114.8915 261.910832,111.204541 260.838977,109.505554 C260.299877,108.644946 259.513427,108.228932 258.441571,108.228932 C252.159481,108.228932 248.626796,113.065486 244.30449,121.995486 C242.519121,125.685622 242.658652,128.245216 243.38485,129.404338 C243.857355,130.156973 244.761139,130.547581 246.070832,130.547581 C253.748238,130.547581 258.111769,123.516635 259.323157,121.2365 L259.323157,121.2365 Z M245.896418,150.401905 C216.043013,151.357784 212.031481,159.382716 212.031481,166.439068 C212.031481,173.368392 217.441499,177.052176 221.348382,177.052176 C230.779445,177.052176 237.299373,170.132378 245.408058,151.513392 C245.569787,151.138662 245.734688,150.773459 245.896418,150.401905 L245.896418,150.401905 Z M170.590616,109.505554 C170.051517,108.644946 169.268238,108.228932 168.196382,108.228932 C162.887841,108.228932 158.790688,112.217581 154.05613,121.995486 C152.27076,125.685622 152.410292,128.245216 153.13649,129.404338 C153.612166,130.156973 154.51595,130.547581 155.825643,130.547581 C164.327553,130.547581 168.770364,121.909743 169.360202,120.677581 L169.458508,120.461635 C169.49022,120.39177 169.525103,120.328257 169.559986,120.258392 C171.912995,114.885149 171.662472,111.204541 170.590616,109.505554 L170.590616,109.505554 Z M158.083517,145.158865 C144.964382,147.69623 135.092526,150.687716 135.092526,161.126162 C135.092526,162.61873 135.571373,166.102446 139.998328,166.102446 C146.676814,166.102446 152.689355,156.886635 155.19458,151.443527 L158.083517,145.158865 Z M62.8722739,152.70427 C58.1028324,151.110081 53.482436,150.176432 49.0396252,150.176432 C41.8854631,150.176432 18.5583279,151.662649 18.5583279,170.745284 C18.5583279,176.32177 23.2960577,180.373932 29.8223279,180.373932 C41.5398054,180.373932 53.1526342,167.969743 62.8722739,152.70427 L62.8722739,152.70427 Z M50.2858955,59.7268378 C61.2296072,68.8505541 72.5792288,77.8345405 85.4890667,77.8345405 C114.391121,77.8345405 116.63631,58.2787297 116.63631,52.2894054 C116.63631,40.8347432 109.279193,35.0296081 94.7679135,35.0296081 C83.8907964,35.0296081 64.2041658,43.3625811 50.2858955,59.7268378 L50.2858955,59.7268378 Z M350.576778,117.638459 C350.576778,145.733662 333.664923,164.609878 308.492166,164.609878 C293.254688,164.609878 281.648202,159.919405 271.40849,155.7815 C265.177139,153.263189 259.675157,151.040216 254.560058,150.455892 C253.954364,151.830959 253.332814,153.247311 252.69858,154.70177 C244.773823,172.901568 236.405103,185.01677 221.348382,185.01677 C213.008202,185.01677 204.078184,177.550757 204.078184,166.439068 C204.078184,145.905149 227.785859,142.586568 249.460814,142.361095 C250.18067,140.757378 250.875157,139.226703 251.537932,137.772243 C249.863553,138.239068 248.043301,138.509 246.070832,138.509 C242.021247,138.509 238.583697,136.727446 236.646112,133.624811 C236.512923,133.412041 236.471697,133.148459 236.354364,132.926162 C231.997175,136.600419 227.069175,138.394676 223.04813,138.394676 C221.357895,138.394676 219.867445,137.632514 218.947805,136.292378 C216.972166,133.424743 218.396022,129.683797 220.758544,123.475351 C222.325103,119.343797 225.59458,110.750419 224.126328,108.613189 C223.917031,108.3115 223.086184,108.117784 222.007986,108.117784 C216.06204,108.117784 209.367697,119.175486 203.317103,131.309743 L200.95458,136.162176 C199.990544,138.121568 197.631193,138.944068 195.649211,137.997716 C195.144995,137.756365 194.716886,137.413392 194.371229,137.016432 C190.492886,139.023459 185.828094,138.829743 183.633643,135.492108 C183.050148,134.606095 182.669607,133.516838 182.453968,132.271973 C177.916022,137.816703 173.175121,141.240081 167.834868,143.005757 L162.418508,154.771635 C160.937571,157.99177 152.895481,174.067041 139.998328,174.067041 C132.428742,174.067041 127.139229,168.747784 127.139229,161.126162 C127.139229,145.447851 141.368274,140.563662 152.679841,138.127919 C150.019229,137.445149 147.812094,135.889068 146.400923,133.624811 C146.191625,133.291365 146.112346,132.884878 145.941103,132.529203 C141.457067,136.41623 136.230977,138.562986 130.678256,138.562986 C129.244886,138.562986 127.919337,137.794473 127.218508,136.543257 C126.511337,135.288865 126.530364,133.758189 127.272418,132.529203 C133.361067,122.395622 137.705571,110.674203 136.250004,108.336905 C136.265859,108.365486 136.015337,108.282919 135.511121,108.282919 C128.816778,108.282919 123.768274,115.745757 117.384706,128.454811 L113.544418,136.333662 C112.859445,137.740486 111.441932,138.562986 109.970508,138.562986 C109.390184,138.562986 108.800346,138.439135 108.24222,138.169203 C107.557247,137.832581 107.008634,137.334 106.624923,136.736973 C102.090148,139.452176 96.7974631,138.915486 94.7044901,135.219 C94.0512288,134.069405 93.7563099,132.637176 93.7404541,131.020757 C89.4625441,134.834743 84.8484901,137.4515 80.066364,138.223189 C78.3349045,141.684676 76.5114811,145.209676 74.4977874,148.760081 C82.3591207,152.329541 90.3916973,156.997784 98.6367423,161.780351 C117.885751,172.961905 137.788022,184.521365 158.882652,184.521365 C175.252238,184.521365 188.571157,175.311905 188.571157,163.996973 C188.571157,160.433865 187.55004,158.077514 185.533175,156.981905 C183.468742,155.860892 180.598832,156.235622 179.041787,157.245486 C177.20885,158.442716 174.738508,157.921905 173.539805,156.080014 C172.344274,154.234946 172.867517,151.770622 174.706796,150.573392 C178.908598,147.820081 184.930652,147.594608 189.329067,149.982716 C192.015049,151.443527 196.524454,155.206703 196.524454,163.996973 C196.524454,179.970622 179.989968,192.482784 158.882652,192.482784 C135.650652,192.482784 113.867877,179.830892 94.647409,168.668392 C86.291373,163.815959 78.1700036,159.103257 70.3911207,155.651297 C59.5235171,172.993662 45.4815712,188.338527 29.8223279,188.338527 C18.8691027,188.338527 10.6050306,180.780419 10.6050306,170.745284 C10.6050306,153.412446 25.6902919,142.211838 49.0396252,142.211838 C54.9760577,142.211838 60.985427,143.542446 67.080418,145.727311 C69.4429405,141.602108 71.5993369,137.410216 73.6447423,133.265959 C73.7208505,133.046838 73.8286703,132.856297 73.9396613,132.659405 C74.6119495,131.287514 75.3286342,129.896568 75.9596973,128.546905 C70.0169225,133.424743 62.7739676,137.235554 54.6747964,137.235554 C48.0692468,137.235554 26.5084541,134.723595 26.5084541,102.392041 C26.5084541,86.0055541 31.6076973,72.1183243 39.2565622,60.9081892 C30.6690306,53.8708919 22.4398414,47.9704865 14.2455351,47.9704865 C11.8988685,47.9704865 7.95393153,48.8787297 7.95393153,54.9410946 C7.95393153,59.549 15.0129586,61.1527162 15.0827243,61.1685946 C17.2169225,61.6385946 18.5836973,63.7504189 18.1270486,65.8971757 C17.6672288,68.0439324 15.5552288,69.4062973 13.4305441,68.958527 C8.44229189,67.9137297 0.000634234234,63.779 0.000634234234,54.9410946 C0.000634234234,44.6233243 7.15796757,40.0090676 14.2455351,40.0090676 C24.9926342,40.0090676 34.4236973,46.6652838 44.0767423,54.5663649 C59.2793369,36.5507568 80.9320937,27.0650135 94.7679135,27.0650135 C121.684814,27.0650135 124.589607,44.7058919 124.589607,52.2894054 C124.589607,67.7485946 114.349895,85.7991351 85.4890667,85.7991351 C69.9281297,85.7991351 56.9516973,75.6401486 45.4752288,66.0781892 C38.882364,75.9005541 34.4617514,88.0189324 34.4617514,102.392041 C34.4617514,125.777716 47.1242378,129.270959 54.6747964,129.270959 C71.9989045,129.270959 85.8442378,104.380014 85.9805982,104.125959 C86.9731748,102.322176 89.1834811,101.569541 91.0734991,102.401568 C92.9603459,103.23677 93.8958414,105.383527 93.2298955,107.336568 C92.8715532,108.368662 89.979445,116.682581 85.1021838,127.613257 C90.7341838,123.770689 97.0416432,116.336432 103.184202,105.993257 C103.580598,105.300959 103.970652,104.640419 104.341679,104.011635 C105.457932,102.128459 107.868022,101.493324 109.764382,102.607986 C111.651229,103.70677 112.294977,106.126635 111.207265,108.022514 C110.880634,108.597311 110.54449,109.178459 110.198832,109.762784 C105.388166,118.20373 101.741319,126.990824 101.589103,130.445959 C105.736995,129.077243 112.932382,118.892851 118.256778,108.52427 L120.31804,104.297446 C121.272562,102.338054 123.628742,101.521905 125.59804,102.446027 C125.889787,102.585757 126.162508,102.757243 126.403517,102.957311 C129.121211,101.264676 132.117968,100.3215 135.511121,100.3215 C140.163229,100.3215 142.303769,102.877919 143.163157,104.402243 C146.302616,109.966027 142.519409,120.2965 138.736202,128.07373 C141.891517,126.006365 144.717031,122.722716 146.952706,118.422851 C149.619661,112.91623 155.806616,100.264338 168.196382,100.264338 C171.992274,100.264338 175.318832,102.084 177.31667,105.253324 C179.063986,108.022514 181.258436,114.218257 176.330436,124.580486 C176.295553,124.650351 176.263841,124.713865 176.225787,124.78373 L173.894977,129.839405 C178.975193,124.758324 183.865139,116.492041 189.160995,104.291095 C190.039409,102.280892 192.382905,101.369473 194.371229,102.217378 C196.381751,103.081162 197.323589,105.408932 196.467373,107.428662 C192.547805,116.727041 189.814256,126.705014 190.112346,130.274473 C193.302544,129.302716 197.444094,123.970757 201.128995,117.651162 L207.725031,104.132311 C208.666868,102.211027 210.959625,101.385351 212.906724,102.233257 C213.239697,102.385689 213.547301,102.569878 213.813679,102.792176 C216.401355,101.055081 219.100022,100.153189 222.007986,100.153189 C226.932814,100.153189 229.434868,102.29677 230.674796,104.091027 C234.515085,109.670689 231.153643,118.51177 228.185427,126.308054 C227.808058,127.311568 227.370436,128.461162 226.980382,129.544068 C230.643085,127.994338 234.594364,124.450284 236.871265,119.1215 C236.899805,119.054811 236.956886,119.016703 236.988598,118.953189 C237.055193,118.803932 237.080562,118.664203 237.150328,118.518122 C240.454688,111.693595 245.988382,100.264338 258.441571,100.264338 C262.240634,100.264338 265.564022,102.084 267.565031,105.253324 C269.312346,108.022514 271.506796,114.218257 266.578796,124.580486 C266.496346,124.751973 266.407553,124.907581 266.309247,125.056838 C265.811373,126.07623 264.932959,127.895892 263.867445,130.134743 C268.341968,127.965757 273.377787,118.171973 279.406184,104.291095 C280.287769,102.280892 282.631265,101.369473 284.619589,102.217378 C286.630112,103.081162 287.568778,105.408932 286.715733,107.428662 C282.792995,116.727041 280.059445,126.705014 280.357535,130.274473 C283.550905,129.302716 287.689283,123.970757 291.374184,117.651162 L297.973391,104.132311 C298.915229,102.211027 301.211157,101.385351 303.151914,102.233257 C303.488058,102.385689 303.79249,102.569878 304.06204,102.792176 C306.646544,101.055081 309.345211,100.153189 312.253175,100.153189 C317.178004,100.153189 319.683229,102.29677 320.919986,104.091027 C324.763445,109.670689 321.398832,118.51177 318.436959,126.308054 C318.243517,126.812986 318.037391,127.356027 317.828094,127.918122 C318.757247,127.130554 319.844959,126.120689 321.103914,124.78373 C322.619733,123.195892 325.134472,123.119676 326.7264,124.644 C328.318328,126.152446 328.384923,128.670757 326.875445,130.274473 C321.620814,135.809676 317.301679,138.394676 313.29649,138.394676 C311.606256,138.394676 310.115805,137.632514 309.196166,136.292378 C307.217355,133.424743 308.644382,129.683797 311.003733,123.475351 C312.573463,119.343797 315.842941,110.750419 314.374688,108.613189 C314.165391,108.3115 313.334544,108.117784 312.253175,108.117784 C306.3104,108.117784 299.619229,119.175486 293.565463,131.309743 L291.199769,136.162176 C290.242076,138.121568 287.87004,138.944068 285.897571,137.997716 C285.390184,137.756365 284.965247,137.413392 284.619589,137.016432 C280.738076,139.023459 276.073283,138.829743 273.882004,135.492108 C273.409499,134.777581 273.067013,133.929676 272.841859,132.973797 C269.537499,136.727446 266.112634,138.562986 262.053535,138.562986 C261.36222,138.562986 260.743841,138.340689 260.176202,138.029473 C259.459517,139.582378 258.733319,141.157514 257.934184,142.920014 C263.325175,143.923527 268.735193,146.114743 274.383049,148.394878 C283.950472,152.259676 294.799049,156.645284 308.492166,156.645284 C329.545571,156.645284 342.623481,141.697378 342.623481,117.638459 C342.623481,89.7306216 328.714724,77.2851486 297.526256,77.2851486 C278.737067,77.2851486 261.251229,81.8612973 242.737932,86.7073784 C224.091445,91.5852162 204.810724,96.6345405 183.985643,96.6345405 C140.917968,96.6345405 136.269031,75.401973 136.269031,66.2719054 C136.269031,54.4996757 143.340742,46.8939324 154.287625,46.8939324 C160.316022,46.8939324 165.307445,49.6662973 167.977571,54.506027 C170.65404,59.3489324 170.413031,65.3954189 167.349679,70.2891351 C166.185859,72.1532568 163.725031,72.7248784 161.866724,71.5467027 C160.005247,70.3780541 159.44395,67.9200811 160.607769,66.0559595 C162.139445,63.6202162 162.294832,60.6668378 161.020022,58.3612973 C159.773751,56.1033919 157.382688,54.858527 154.287625,54.858527 C145.969643,54.858527 144.222328,61.0637973 144.222328,66.2719054 C144.222328,80.7148784 158.343553,88.6699459 183.985643,88.6699459 C203.789607,88.6699459 222.566112,83.754 240.727409,79.0000135 C258.914076,74.2428514 277.71595,69.3205541 297.526256,69.3205541 C333.22413,69.3205541 350.576778,85.1258919 350.576778,117.638459 L350.576778,117.638459 Z M275.055337,40.2440676 L275.994004,41.0252838 C276.872418,41.7588649 277.398832,42.0160946 278.347013,40.8792027 C279.301535,39.7423108 278.952706,39.2627838 278.06795,38.5292027 L277.135625,37.7511622 C276.808995,37.4748784 276.368202,37.5129865 276.095481,37.8432568 L274.960202,39.1992703 C274.690652,39.5327162 274.728706,39.9677838 275.055337,40.2440676 L275.055337,40.2440676 Z M265.782832,43.7309595 L275.537355,32.0222432 C275.806905,31.691973 276.250868,31.6538649 276.577499,31.9301486 L280.592202,35.2804865 C283.852166,38.0083919 284.007553,40.504473 281.499157,43.5118378 C280.078472,45.2203514 278.667301,46.0587297 277.113427,45.9475811 C276.996094,45.9412297 276.90413,46.0174459 276.856562,46.1381216 L275.791049,51.3748108 C275.651517,52.0671081 274.931661,52.3370405 274.364022,51.8606892 L272.27422,50.1172432 C272.087121,49.9648108 272.001499,49.7361622 272.064923,49.5043378 L273.228742,44.2295405 C273.238256,44.1406216 273.212886,44.0580541 273.158977,44.0104189 L272.429607,43.4006892 C272.096634,43.1244054 271.662184,43.1625135 271.389463,43.4927838 L268.973031,46.3953514 C268.693968,46.7256216 268.259517,46.7637297 267.926544,46.4874459 L265.874796,44.7725811 C265.548166,44.4962973 265.510112,44.0612297 265.782832,43.7309595 L265.782832,43.7309595 Z M257.550472,38.9896757 C257.962724,39.231027 258.286184,39.1452838 258.527193,38.7292703 L259.871769,36.4173784 C260.112778,36.0045405 260.027157,35.6774459 259.614905,35.4360946 L254.62031,32.524 C254.233427,32.298527 254.141463,31.9365 254.366616,31.5427162 L254.753499,30.8821757 C254.994508,30.4693378 255.336995,30.3962973 255.733391,30.6249459 L258.923589,32.4890676 C259.342184,32.7304189 259.678328,32.6256216 259.903481,32.2318378 L261.2544,29.9199459 C261.495409,29.5039324 261.409787,29.1768378 260.991193,28.9354865 L257.797823,27.0713649 C257.401427,26.8427162 257.309463,26.4838649 257.534616,26.0932568 L257.921499,25.4327162 C258.162508,25.0167027 258.511337,24.9404865 258.901391,25.1691351 L263.895986,28.0844054 C264.305067,28.3257568 264.647553,28.2146081 264.872706,27.824 L266.217283,25.5089324 C266.458292,25.0960946 266.37267,24.769 265.960418,24.5276486 L257.293607,19.4783243 C256.903553,19.2496757 256.554724,19.3227162 256.313715,19.7355541 L248.626796,32.9558919 C248.401643,33.3496757 248.493607,33.708527 248.890004,33.934 L257.550472,38.9896757 Z M236.642941,28.2781216 C237.045679,28.4337297 237.365968,28.3321081 237.606977,27.9859595 L246.445031,15.0101486 C246.73995,14.5846081 246.622616,14.2321081 246.156454,14.0479189 L243.514868,13.0062973 C243.11213,12.8506892 242.795013,12.9523108 242.554004,13.2984595 L237.248634,21.0693378 C237.124959,21.2503514 236.947373,21.1804865 236.975914,20.9645405 L238.383914,11.6534595 C238.437823,11.2374459 238.272923,10.9421081 237.876526,10.7865 L235.228598,9.74487838 C234.762436,9.56068919 234.438977,9.7417027 234.36604,10.2498108 L232.006688,25.7820405 C231.943265,26.1980541 232.114508,26.4933919 232.510905,26.649 L236.642941,28.2781216 Z M215.970076,17.8047432 C217.685679,18.2175811 218.06622,17.1569054 218.494328,15.3721757 L219.299805,12.0281892 C219.727914,10.2371081 219.876959,9.12244595 218.158184,8.70643243 C216.44258,8.29359459 216.06204,9.35427027 215.637103,11.1453514 L214.828454,14.4861622 C214.400346,16.2740676 214.254472,17.3919054 215.970076,17.8047432 L215.970076,17.8047432 Z M210.547373,14.7560946 L211.945859,8.95095946 C212.310544,7.42028378 213.623409,3.39035135 219.12222,4.71778378 C224.614688,6.03886486 223.945571,10.2275811 223.580886,11.7582568 L222.1824,17.5602162 C221.817715,19.0940676 220.50485,23.1208243 215.015553,21.7997432 C209.516742,20.4723108 210.182688,16.2867703 210.547373,14.7560946 L210.547373,14.7560946 Z M194.992778,18.3890676 C200.057139,18.9067027 201.189247,15.5817703 201.471481,13.7811622 C201.525391,13.4286622 201.338292,13.1428514 201.011661,13.0380541 L198.385932,12.1679189 C197.919769,11.9996081 197.510688,12.2695405 197.393355,12.7617703 C197.13649,13.8446757 196.717895,14.4258243 195.405031,14.2956216 C193.648202,14.1114324 193.641859,12.9808919 193.828959,11.148527 L194.177787,7.7187973 C194.364886,5.88325676 194.596382,4.77494595 196.359553,4.95913514 C197.640706,5.08616216 198.005391,5.74987838 198.021247,6.80737838 C198.037103,7.31866216 198.385932,7.69021622 198.899661,7.64575676 L201.595157,7.32183784 C201.934472,7.28372973 202.175481,7.04237838 202.184995,6.70893243 C202.276959,4.86386486 201.842508,1.37697297 196.778148,0.859337838 C191.139805,0.284540541 190.375553,4.46372973 190.216995,6.03886486 L189.611301,11.9932568 C189.449571,13.5620405 189.354436,17.8142703 194.992778,18.3890676 L194.992778,18.3890676 Z M174.107445,13.3842027 C172.98485,13.4127838 172.084238,12.7649459 171.95422,11.618527 C171.897139,11.1167703 171.627589,10.9071757 171.151914,11.0151486 L168.46276,11.6820405 C168.037823,11.7900135 167.831697,12.0567703 167.86658,12.4886622 C168.031481,14.3527838 169.188959,17.6300811 174.212094,17.5030541 C179.875805,17.356973 180.582977,13.1015676 180.56395,12.3806892 C180.424418,6.87406757 172.870688,7.11541892 172.490148,5.25764865 C172.379157,4.70825676 172.937283,4.13981081 173.872778,4.11758108 C174.995373,4.09217568 175.797679,4.69237838 175.994292,5.67048649 C176.073571,6.14683784 176.317751,6.35643243 176.796598,6.24845946 L179.50795,5.57839189 C179.932886,5.47359459 180.145355,5.20683784 180.110472,4.77494595 C179.920202,3.05690541 178.692959,-0.125121622 173.76813,0.00508108108 C168.412022,0.138459459 168.091733,4.38751351 168.129787,5.10521622 C168.269319,10.6086622 175.452022,9.97035135 175.96258,11.9964324 C176.121139,12.6379189 175.277607,13.3524459 174.107445,13.3842027 L174.107445,13.3842027 Z M155.835157,18.6653514 L158.441859,18.3192027 C158.914364,18.2525135 159.117319,17.9603514 159.053895,17.5094054 L157.037031,2.34555405 C156.973607,1.87555405 156.707229,1.66913514 156.231553,1.72947297 L153.631193,2.07562162 C153.180886,2.13913514 152.949391,2.41224324 153.012814,2.88541892 L155.03285,18.0492703 C155.093103,18.4970405 155.388022,18.7225135 155.835157,18.6653514 L155.835157,18.6653514 Z M135.34622,10.6308919 L137.068166,17.4998784 C137.182328,17.9412973 137.499445,18.1318378 137.940238,18.0206892 L139.189679,17.7031216 C140.30276,17.4236622 140.813319,17.1029189 140.461319,15.7056216 C140.458148,15.6865676 139.189679,10.6245405 139.180166,10.5991351 C138.821823,9.16055405 138.228814,9.16372973 137.115733,9.44636486 L135.866292,9.75758108 C135.425499,9.86872973 135.228886,10.1640676 135.34622,10.6308919 L135.34622,10.6308919 Z M134.084094,22.4952162 L130.36431,7.66481081 C130.246977,7.20116216 130.421391,6.909 130.874868,6.76927027 L136.047049,5.46724324 C140.404238,4.37163514 142.284742,5.77528378 143.239265,9.57974324 L144.514076,14.664 C145.468598,18.4716351 144.482364,20.6215676 140.125175,21.7171757 L134.952995,23.016027 C134.515373,23.124 134.195085,22.9334595 134.084094,22.4952162 L134.084094,22.4952162 Z M290.257932,188.773595 L287.793932,190.018459 C287.353139,190.228054 287.251661,190.710757 287.514868,191.139473 C288.098364,192.079473 288.206184,192.787649 287.197751,193.610149 C285.830977,194.731162 285.02867,193.937243 283.874364,192.514541 L281.705283,189.8565 C280.547805,188.430622 279.926256,187.490622 281.296202,186.369608 C282.288778,185.562986 283.018148,185.772581 283.772886,186.509338 C284.143914,186.852311 284.64813,186.868189 284.97476,186.480757 L286.645968,184.340351 C286.855265,184.07677 286.855265,183.733797 286.630112,183.492446 C285.396526,182.133257 282.637607,179.9865 278.708526,183.197108 C274.335481,186.766568 276.7424,190.250284 277.738148,191.463392 L281.495986,196.084 C282.491733,197.306635 285.409211,200.361635 289.782256,196.792176 C293.711337,193.581568 292.166977,190.447176 291.095121,188.976838 C290.892166,188.687851 290.559193,188.617986 290.257932,188.773595 L290.257932,188.773595 Z M268.582977,192.009608 C268.326112,191.606297 267.989968,191.536432 267.587229,191.790486 L265.373751,193.206838 C264.993211,193.448189 264.901247,193.791162 265.158112,194.194473 L273.387301,207.103595 C273.62831,207.494203 273.992995,207.570419 274.383049,207.322716 L276.596526,205.906365 C276.999265,205.649135 277.053175,205.299811 276.812166,204.91873 L268.582977,192.009608 Z M258.663553,198.17677 C258.454256,197.748054 258.137139,197.63373 257.709031,197.843324 L255.302112,199.015149 C254.896202,199.212041 254.766184,199.545486 254.975481,199.974203 L258.346436,206.919405 C258.447914,207.135351 258.298868,207.259203 258.111769,207.113122 L251.721859,201.3715 C251.401571,201.101568 251.090796,201.063459 250.726112,201.241297 L247.573968,202.7815 C247.161715,202.975216 247.031697,203.308662 247.240995,203.737378 L253.919481,217.503932 C254.112923,217.907243 254.471265,218.031095 254.874004,217.837378 L257.280923,216.662378 C257.709031,216.452784 257.810508,216.109811 257.617067,215.7065 L254.246112,208.754946 C254.135121,208.542176 254.290508,208.411973 254.471265,208.567581 L260.861175,214.306027 C261.181463,214.579135 261.492238,214.617243 261.856923,214.439405 L265.015409,212.899203 C265.443517,212.689608 265.544995,212.352986 265.34204,211.943324 L258.663553,198.17677 Z M239.465283,216.764 L238.361715,213.505757 C237.771877,211.771838 237.299373,210.746095 235.628166,211.311365 C233.96013,211.879811 234.207481,212.975419 234.797319,214.718865 L235.894544,217.970757 C236.484382,219.711027 236.956886,220.73677 238.628094,220.1715 C240.29613,219.603054 240.048778,218.507446 239.465283,216.764 L239.465283,216.764 Z M243.752706,216.6465 C244.256923,218.132716 245.290724,222.248392 239.940959,224.058527 C234.597535,225.871838 232.926328,221.981635 232.422112,220.489068 L230.513067,214.836365 C230.005679,213.340622 228.965535,209.234473 234.318472,207.424338 C239.668238,205.611027 241.336274,209.50123 241.843661,210.993797 L243.752706,216.6465 Z M222.014328,211.568595 L210.087553,214.182176 C209.643589,214.27427 209.434292,214.563257 209.535769,215.030081 L210.109751,217.643662 C210.201715,218.085081 210.51249,218.288324 210.962796,218.19623 L214.225932,217.478527 C214.692094,217.380081 214.971157,217.557919 215.072634,218.024743 L217.457355,228.942716 C217.558832,229.387311 217.869607,229.587378 218.3104,229.488932 L220.920274,228.920486 C221.386436,228.818865 221.564022,228.507649 221.462544,228.063054 L219.080995,217.145081 C218.979517,216.678257 219.179301,216.38927 219.632778,216.297176 L222.892742,215.582649 C223.358905,215.481027 223.530148,215.169811 223.438184,214.725216 L222.861031,212.114811 C222.759553,211.647986 222.48049,211.466973 222.014328,211.568595 L222.014328,211.568595 Z M183.433859,227.799473 C183.430688,227.767716 183.351409,222.550081 183.351409,222.527851 C183.329211,221.041635 182.752058,220.908257 181.604094,220.924135 L180.313427,220.949541 C179.85995,220.955892 179.599914,221.197243 179.609427,221.679946 L179.717247,228.764878 C179.723589,229.215824 179.989968,229.479405 180.443445,229.473054 L181.737283,229.447649 C182.882076,229.43177 183.452886,229.231703 183.433859,227.799473 L183.433859,227.799473 Z M187.534184,222.464338 L187.610292,227.707378 C187.673715,231.635689 186.221319,233.499811 181.724598,233.569676 L176.397031,233.649068 C175.943553,233.655419 175.674004,233.398189 175.667661,232.940892 L175.432995,217.643662 C175.426652,217.167311 175.66449,216.925959 176.140166,216.897378 L181.470905,216.811635 C185.964454,216.74177 187.47076,218.536027 187.534184,222.464338 L187.534184,222.464338 Z M164.387805,216.328932 C163.931157,216.290824 163.648923,216.500419 163.604526,216.973595 L162.900526,224.674608 C162.881499,224.906432 162.684886,224.938189 162.608778,224.712716 L160.103553,216.484541 C159.970364,216.087581 159.723013,215.900216 159.320274,215.862108 L155.825643,215.544541 C155.368995,215.496905 155.08676,215.712851 155.042364,216.189203 L153.647049,231.432446 C153.602652,231.883392 153.843661,232.172378 154.293968,232.210486 L156.957751,232.458189 C157.433427,232.505824 157.696634,232.264473 157.737859,231.813527 L158.441859,224.112514 C158.464058,223.880689 158.657499,223.848932 158.736778,224.074405 L161.242004,232.302581 C161.372022,232.699541 161.619373,232.886905 162.025283,232.925014 L165.519914,233.242581 C165.99876,233.290216 166.258796,233.048865 166.300022,232.597919 L167.698508,217.354676 C167.742905,216.8815 167.524094,216.617919 167.051589,216.576635 L164.387805,216.328932 Z M141.263625,217.13873 C139.716094,216.817986 139.433859,217.348324 139.202364,218.466162 L138.672778,221.025757 C138.580814,221.470351 138.786941,221.787919 139.227733,221.873662 L141.244598,222.292851 C141.717103,222.372243 141.999337,222.184878 142.097643,221.711703 L142.620886,219.183865 C142.855553,218.0565 142.807986,217.456297 141.263625,217.13873 L141.263625,217.13873 Z M146.648274,220.015892 L144.590184,229.962108 C144.485535,230.476568 144.190616,230.708392 143.724454,230.616297 L141.098724,230.070081 C140.657932,229.977986 140.448634,229.689 140.543769,229.215824 L140.968706,227.177041 C141.063841,226.710216 140.879914,226.424405 140.407409,226.329135 L138.393715,225.909946 C137.949751,225.817851 137.642148,225.995689 137.547013,226.468865 L137.122076,228.507649 C137.026941,228.974473 136.741535,229.161838 136.275373,229.066568 L133.652814,228.523527 C133.20885,228.431432 133.005895,228.094811 133.116886,227.583527 L135.174977,217.634135 C135.783841,214.680757 136.906436,211.632108 142.173751,212.727716 C147.444238,213.823324 147.263481,217.059338 146.648274,220.015892 L146.648274,220.015892 Z M113.959841,204.731365 C113.544418,204.553527 113.208274,204.671027 113.021175,205.106095 L110.005391,212.213257 C109.910256,212.432378 109.716814,212.400622 109.713643,212.168797 L109.837319,203.575419 C109.834148,203.153054 109.653391,202.895824 109.282364,202.733865 L106.054112,201.365149 C105.635517,201.187311 105.302544,201.301635 105.115445,201.739878 L99.1346162,215.814473 C98.9570306,216.236838 99.0965622,216.576635 99.5119856,216.757649 L101.972814,217.805622 C102.413607,217.992986 102.733895,217.84373 102.914652,217.424541 L105.930436,210.32373 C106.0224,210.098257 106.219013,210.130014 106.222184,210.371365 L106.098508,218.964743 C106.101679,219.383932 106.279265,219.641162 106.653463,219.79677 L109.878544,221.175014 C110.319337,221.359203 110.639625,221.213122 110.820382,220.793932 L116.79804,206.716162 C116.985139,206.281095 116.861463,205.969878 116.423841,205.776162 L113.959841,204.731365 Z M95.833427,195.896635 C95.4370306,195.671162 95.091373,195.756905 94.8598775,196.169743 L87.4044541,209.545689 C87.1824721,209.942649 87.2839495,210.307851 87.6803459,210.526973 L89.9762739,211.809946 C90.3948685,212.044946 90.7278414,211.927446 90.9529946,211.530486 L98.408418,198.154541 C98.6430847,197.741703 98.5479495,197.414608 98.129355,197.179608 L95.833427,195.896635 Z M86.0249946,195.642581 C85.7934991,195.998257 85.4668685,196.093527 85.0641297,195.912514 L82.5335351,194.816905 C82.0927423,194.613662 82.0071207,194.286568 82.2639856,193.8515 C82.8538234,192.873392 82.9140757,192.095351 81.8168505,191.295081 C80.3866523,190.259811 79.6382559,191.098189 78.5632288,192.593932 L76.5527063,195.369473 C75.4808505,196.862041 74.9195532,197.833797 76.3465802,198.869068 C77.7736072,199.904338 78.5283459,199.062784 79.2101477,198.122784 L78.0938955,197.312986 C77.7228685,197.039878 77.6657874,196.674676 77.9289946,196.309473 L79.048418,194.762919 C79.3274811,194.381838 79.6763099,194.34373 80.0473369,194.607311 L83.9066523,197.39873 C84.290364,197.678189 84.3442739,198.014811 84.0652108,198.402243 L82.1815351,201.006297 C81.2587243,202.282919 78.5188324,205.503054 73.9460036,202.197176 C69.3763459,198.884946 71.5739676,195.267851 72.4936072,193.99123 L75.9850667,189.164203 C76.9047063,187.887581 79.6445982,184.661095 84.217427,187.973324 C88.2701838,190.904473 87.0207423,194.061095 86.0249946,195.642581 L86.0249946,195.642581 Z" id="Fill-1" fill="#2B2B2A" mask="url(#mask-2)"></path>
                        </g>
                    </g>
                </g>
            </g>
        </g>
    </g>
</svg>