<?xml version="1.0" encoding="UTF-8" standalone="no"?>
<svg width="108px" height="64px" viewBox="0 0 108 64" version="1.1" xmlns="http://www.w3.org/2000/svg" xmlns:xlink="http://www.w3.org/1999/xlink">
    <!-- Generator: Sketch 39.1 (31720) - http://www.bohemiancoding.com/sketch -->
    <title>Group 10</title>
    <desc>Created with Sketch.</desc>
    <defs></defs>
    <g id="Page-1" stroke="none" stroke-width="1" fill="none" fill-rule="evenodd">
        <g id="Desktop" transform="translate(-458.000000, -48.000000)" fill="#676B59">
            <g id="Brand" transform="translate(40.000000, 6.000000)">
                <g id="Logo" transform="translate(358.000000, 0.000000)">
                    <g id="Group-10" transform="translate(59.732192, 42.229762)">
                        <path d="M47.941378,55.3578006 C48.052528,55.7853006 48.163678,56.4465006 48.210703,57.3599256 C48.354628,60.0873756 50.758603,60.3267756 51.663478,60.4165506 L51.701953,60.4165506 C51.744703,60.2028006 51.783178,59.9847756 51.783178,59.7639006 C51.783178,59.0457006 51.548053,58.3460256 51.066403,57.6677256 C50.170078,56.4037506 48.675253,55.6057506 47.941378,55.3578006 L47.941378,55.3578006 Z M56.482828,47.1312756 C56.482828,47.1312756 59.385553,45.0778506 60.230578,44.4765006 C59.198878,44.4893256 55.637803,44.5320756 55.637803,44.5320756 C55.637803,44.5320756 54.570478,41.1291756 54.268378,40.1473506 C53.960578,41.1291756 52.948828,44.3824506 52.948828,44.3824506 L52.897528,44.5320756 C52.897528,44.5320756 49.332178,44.4893256 48.304753,44.4765006 C49.145503,45.0778506 52.052503,47.1312756 52.052503,47.1312756 C52.052503,47.1312756 50.912503,50.5085256 50.579053,51.4860756 C51.408403,50.8761756 54.268378,48.7458006 54.268378,48.7458006 C54.268378,48.7458006 57.128353,50.8761756 57.952003,51.4860756 C57.622828,50.5085256 56.482828,47.1312756 56.482828,47.1312756 L56.482828,47.1312756 Z M31.036603,35.1399006 C31.100728,35.1484506 31.186228,35.1570006 31.186228,35.1570006 L31.667878,35.2168506 C37.384978,36.0533256 41.845228,39.2424756 44.658178,41.8473756 C44.995903,40.7159256 45.430528,39.6357756 45.990553,38.6240256 C44.551303,34.2991506 41.640028,28.4210256 35.941453,24.7929756 C30.674653,21.4071756 24.428878,19.9821756 19.173478,20.8956006 C19.630903,22.7737506 26.891278,31.1527506 31.036603,35.1399006 L31.036603,35.1399006 Z M43.898653,46.2563256 C43.937128,45.7618506 44.044003,44.4423006 44.176528,43.6998756 C41.969203,41.4968256 37.440553,37.7405256 31.468378,36.8142756 C28.039828,36.3397506 24.783703,36.5449506 21.999253,37.3814256 C23.040928,39.8623506 29.875228,45.4925256 32.615503,46.4401506 C35.920078,45.5652006 39.612253,45.5096256 43.898653,46.2563256 L43.898653,46.2563256 Z M45.387778,51.8266506 C45.286603,51.4476006 45.094228,51.0543006 44.970253,50.8163256 C41.618653,52.0489506 38.933953,53.9313756 37.397803,56.1515256 C36.910453,56.8683006 36.517153,57.6420756 36.202228,58.4443506 C36.615478,58.6367256 37.402078,58.6623756 38.341153,58.4999256 C39.873028,58.2135006 41.734078,57.4326006 42.420928,56.3396256 C43.134853,54.5384256 44.338978,53.0094006 44.995903,52.2456006 C44.995903,52.2456006 45.363553,51.8523006 45.387778,51.8266506 L45.387778,51.8266506 Z M45.990553,53.4027006 C45.504628,53.9313756 44.534203,55.0585506 44.120953,56.6730756 C43.954228,57.3171756 43.868728,57.9185256 43.868728,58.4828256 C43.868728,59.6142756 44.240653,60.5790006 44.931778,61.4710506 C46.029028,61.0179006 47.049328,59.7639006 47.049328,57.7731756 C47.049328,57.6506256 47.045053,57.5437506 47.040778,57.4326006 C46.921078,55.2936756 46.460803,54.1921506 45.990553,53.4027006 L45.990553,53.4027006 Z M49.990528,25.2489756 C49.990528,20.7972756 47.928553,16.1190006 45.986278,13.1906256 C39.911503,3.7386006 29.798278,-1.4654994 21.785503,0.652050595 C26.784403,5.8305006 31.569553,13.5739506 35.288803,22.5343506 C35.404228,22.6070256 36.765103,23.4093006 36.765103,23.4093006 C42.503578,27.0687006 45.516028,32.6433006 47.070703,36.8356506 C47.808853,35.4690756 49.926403,30.6796506 49.990528,25.4114256 L49.990528,25.2489756 Z M44.172253,49.4796756 C44.172253,49.4796756 44.253478,49.4583006 44.326153,49.4241006 C44.262028,49.1547756 44.014078,48.1430256 43.958503,47.9378256 C41.171203,47.3621256 35.911528,46.7180256 31.181953,48.6175506 C30.148828,49.0564506 29.184103,49.6036506 28.283503,50.1964506 C29.909428,52.1002506 36.415978,54.0852756 37.090003,54.1023756 C39.284503,51.6656256 42.174403,50.2947756 44.172253,49.4796756 L44.172253,49.4796756 Z M77.066953,36.8142756 C71.086228,37.7405256 66.566128,41.4968256 64.354528,43.6998756 C64.487053,44.4423006 64.593928,45.7618506 64.632403,46.2563256 C68.918803,45.5096256 72.615253,45.5652006 75.915553,46.4401506 C78.655828,45.4925256 85.485853,39.8623506 86.536078,37.3814256 C83.748778,36.5449506 80.491228,36.3397506 77.066953,36.8142756 L77.066953,36.8142756 Z M72.589603,24.7929756 C66.882478,28.4210256 63.984028,34.2991506 62.540503,38.6240256 C63.099103,39.6357756 63.535153,40.7159256 63.877153,41.8473756 C66.685828,39.2424756 71.141803,36.0533256 76.863178,35.2168506 L77.340553,35.1570006 C77.340553,35.1570006 77.430328,35.1484506 77.494453,35.1399006 C81.639778,31.1527506 88.900153,22.7737506 89.361853,20.8956006 C84.106453,19.9821756 77.866378,21.4071756 72.589603,24.7929756 L72.589603,24.7929756 Z M57.464653,57.6677256 C56.991553,58.3460256 56.747878,59.0457006 56.747878,59.7639006 C56.747878,59.9847756 56.786353,60.2028006 56.833378,60.4165506 L56.867578,60.4165506 C57.776728,60.3267756 60.175003,60.0873756 60.320353,57.3770256 C60.371653,56.4465006 60.478528,55.7853006 60.593953,55.3578006 C59.860078,55.6057506 58.360978,56.4037506 57.464653,57.6677256 L57.464653,57.6677256 Z M63.565078,50.8163256 C63.424003,51.0714006 63.240178,51.4689756 63.141853,51.8266506 C63.168928,51.8523006 63.535153,52.2456006 63.543703,52.2541506 C64.192078,53.0094006 65.387653,54.5384256 66.087328,56.3054256 C66.792703,57.4326006 68.658028,58.2135006 70.189903,58.4999256 C71.128978,58.6623756 71.919853,58.6367256 72.333103,58.4443506 C72.009628,57.6420756 71.616328,56.8683006 71.138953,56.1600756 C69.597103,53.9313756 66.903853,52.0489506 63.565078,50.8163256 L63.565078,50.8163256 Z M64.572553,47.9378256 C64.516978,48.1430256 64.273303,49.1547756 64.209178,49.4241006 C64.277578,49.4583006 64.354528,49.4796756 64.358803,49.4796756 C66.352378,50.2947756 69.246553,51.6656256 71.445328,54.1023756 C72.115078,54.0852756 78.621628,52.1002506 80.243278,50.1964506 C79.346953,49.6036506 78.386503,49.0564506 77.357653,48.6175506 C72.615253,46.7180256 67.359853,47.3621256 64.572553,47.9378256 L64.572553,47.9378256 Z M62.540503,53.4027006 C62.075953,54.1921506 61.609978,55.2936756 61.490278,57.4326006 C61.486003,57.5437506 61.486003,57.6506256 61.486003,57.7731756 C61.486003,59.7639006 62.506303,61.0179006 63.599278,61.4710506 C64.294678,60.5790006 64.662328,59.6142756 64.662328,58.4828256 C64.662328,57.9185256 64.572553,57.3171756 64.410103,56.6730756 C63.996853,55.0585506 63.023578,53.9313756 62.540503,53.4027006 L62.540503,53.4027006 Z M61.460353,36.8356506 C60.726478,35.4690756 58.604653,30.6796506 58.544803,25.4114256 L58.544803,25.2489756 C58.544803,20.8058256 60.598228,16.1190006 62.540503,13.1906256 C68.615278,3.7386006 78.732778,-1.4654994 86.741278,0.652050595 C81.750928,5.8347756 76.965778,13.5739506 73.242253,22.5343506 C73.122553,22.6070256 71.765953,23.4093006 71.765953,23.4093006 C66.028903,27.0687006 63.015028,32.6433006 61.460353,36.8356506 L61.460353,36.8356506 Z" id="Fill-2"></path>
                    </g>
                </g>
            </g>
        </g>
    </g>
</svg>