<?xml version="1.0" encoding="UTF-8" standalone="no"?>
<svg width="164px" height="54px" viewBox="0 0 164 54" version="1.1" xmlns="http://www.w3.org/2000/svg" xmlns:xlink="http://www.w3.org/1999/xlink">
    <!-- Generator: Sketch 39.1 (31720) - http://www.bohemiancoding.com/sketch -->
    <title>Logo</title>
    <desc>Created with Sketch.</desc>
    <defs></defs>
    <g id="Page-1" stroke="none" stroke-width="1" fill="none" fill-rule="evenodd">
        <g id="Mobile-Portrait" transform="translate(-78.000000, -34.000000)" fill="#676B59">
            <g id="Header" transform="translate(0.000000, 34.000000)">
                <g id="Logo" transform="translate(78.000000, 0.000000)">
                    <path d="M138.000741,47.1631675 C138.000741,48.5524537 138.790263,49.44363 139.98471,49.44363 C140.467571,49.44363 140.850472,49.3165611 141.10461,49.1793268 L141.10461,47.5104891 C141.10461,47.4596615 141.138495,47.4240822 141.180851,47.4240822 L142.036448,47.4240822 C142.070333,47.4240822 142.114384,47.4681328 142.114384,47.5104891 L142.114384,49.6469402 C141.426518,50.0891398 140.748817,50.29245 139.840698,50.29245 C138.068511,50.29245 136.855427,48.9675453 136.855427,47.2123008 C136.855427,45.5349918 138.043098,44 140.128721,44 C140.941962,44 141.579,44.1863677 142.002563,44.4574479 C142.078805,44.4998042 142.114384,44.559103 142.114384,44.6861718 L142.114384,45.4333368 C142.114384,45.5163551 142.061862,45.5756539 141.987315,45.5756539 C141.951736,45.5756539 141.911074,45.5604056 141.875494,45.5248263 C141.502759,45.2046128 140.842001,44.8810108 140.079588,44.8810108 C138.730964,44.8810108 138.000741,45.8230146 138.000741,47.1631675 L138.000741,47.1631675 Z M128.565455,44.9657233 C128.580703,45.2537461 128.589174,45.8060721 128.589174,46.1364511 C128.589174,46.4583589 128.580703,46.7802667 128.565455,47.0937032 C128.700995,47.0852319 128.921248,47.0682894 129.1415,47.0682894 C130.073339,47.0682894 130.473182,46.6531978 130.473182,45.9585547 C130.473182,45.3723437 130.132637,44.9928314 129.370224,44.9928314 C129.090673,44.9928314 128.819593,44.9826659 128.565455,44.9657233 L128.565455,44.9657233 Z M128.556984,47.8069831 C128.573926,48.1543046 128.589174,48.5778675 128.589174,48.9760166 L128.589174,50.1043881 C128.589174,50.1382731 128.548512,50.1806294 128.512933,50.1806294 L127.581095,50.1806294 C127.538738,50.1806294 127.504853,50.1382731 127.504853,50.1043881 L127.504853,44.3049653 C127.504853,44.2439722 127.54721,44.1948389 127.581095,44.1948389 L129.539649,44.1948389 C130.989929,44.1948389 131.591388,44.9657233 131.591388,45.9161984 C131.591388,46.8327885 130.803561,47.483381 129.920856,47.5697879 C130.35289,47.671443 130.920464,48.2220747 131.523618,48.9082465 C132.033588,49.477515 132.336859,49.8248366 132.499507,49.9010779 C132.54864,49.9264917 132.558806,49.968848 132.558806,50.036618 C132.558806,50.1213306 132.516449,50.1806294 132.440208,50.1806294 L131.421963,50.1806294 C131.303365,50.1806294 131.191545,50.1213306 130.947572,49.7655378 C130.208879,48.857419 129.480351,47.8239256 128.972075,47.8239256 C128.885668,47.8239256 128.692524,47.8154543 128.556984,47.8069831 L128.556984,47.8069831 Z M121.934155,44.1948389 C121.96804,44.1948389 122.010396,44.235501 122.010396,44.2795515 L122.010396,48.1966609 C122.010396,49.5029288 120.943017,50.29245 119.458853,50.29245 C117.989937,50.29245 116.871731,49.5283426 116.871731,48.1797184 L116.871731,44.2795515 C116.871731,44.235501 116.905616,44.1948389 116.947972,44.1948389 L117.889976,44.1948389 C117.922167,44.1948389 117.966218,44.235501 117.966218,44.2795515 L117.966218,47.9933507 C117.966218,48.9082465 118.567677,49.3165611 119.458853,49.3335037 C120.383914,49.3335037 120.951489,48.8997753 120.951489,48.0272358 L120.951489,44.2795515 C120.951489,44.235501 120.983679,44.1948389 121.026036,44.1948389 L121.934155,44.1948389 Z M110.61486,48.4423274 C110.61486,47.8239256 110.225183,47.415611 109.26793,47.415611 C108.954494,47.415611 108.59023,47.408834 108.300513,47.3918915 C108.325927,47.705328 108.334398,48.0441783 108.334398,48.3999711 C108.334398,48.7405156 108.325927,49.0708947 108.300513,49.409745 C108.683414,49.3911082 109.13239,49.3843312 109.530539,49.3843312 C110.27601,49.3843312 110.61486,49.0708947 110.61486,48.4423274 L110.61486,48.4423274 Z M109.166275,44.9826659 C108.912138,44.9826659 108.563122,44.9741946 108.300513,44.9572521 C108.325927,45.2639116 108.334398,45.5519344 108.334398,45.8399571 C108.334398,46.1279799 108.325927,46.4498876 108.300513,46.7294391 C108.529237,46.7040254 108.783375,46.6972484 109.039207,46.6972484 C109.904969,46.6972484 110.252291,46.3499268 110.252291,45.8314859 C110.252291,45.2639116 109.928689,44.9826659 109.166275,44.9826659 L109.166275,44.9826659 Z M107.326318,50.1806294 C107.283962,50.1806294 107.250077,50.1382731 107.250077,50.1043881 L107.250077,44.2795515 C107.250077,44.235501 107.283962,44.1948389 107.326318,44.1948389 L109.378057,44.1948389 C110.92152,44.1948389 111.360331,44.9403096 111.360331,45.6112332 C111.360331,46.33129 110.741929,46.8056805 110.064229,46.9581631 C110.936768,47.0276274 111.726289,47.671443 111.726289,48.5965043 C111.726289,49.5706989 110.98929,50.1806294 109.725378,50.1806294 L107.326318,50.1806294 Z M99.1041158,50.1043881 C99.0871733,50.1382731 99.044817,50.1806294 99.010932,50.1806294 L98.0519856,50.1806294 C98.0096294,50.1806294 97.9689673,50.1484386 97.9520248,50.1043881 L96.2730216,45.0165509 C96.2984354,45.475693 96.3238491,46.1533936 96.3238491,46.6294783 L96.3238491,50.1043881 C96.3238491,50.1382731 96.2797986,50.1806294 96.2459136,50.1806294 L95.3987878,50.1806294 C95.3564315,50.1806294 95.3310178,50.1382731 95.3310178,50.1043881 L95.3310178,44.2795515 C95.3310178,44.235501 95.3564315,44.1948389 95.3987878,44.1948389 L96.8575384,44.1948389 C96.8914234,44.1948389 96.9337797,44.2287239 96.9507222,44.2795515 L98.1875258,47.7985118 C98.3417027,48.2813735 98.4772428,48.7913432 98.5704266,49.2640394 C98.6636104,48.7998144 98.7991506,48.2813735 98.9516332,47.7815693 L100.164717,44.2795515 C100.18166,44.2439722 100.215545,44.1948389 100.257901,44.1948389 L101.606525,44.1948389 C101.64041,44.1948389 101.682767,44.235501 101.682767,44.2795515 L101.682767,50.1043881 C101.682767,50.1382731 101.64041,50.1806294 101.606525,50.1806294 L100.774648,50.1806294 C100.732291,50.1806294 100.698406,50.1382731 100.698406,50.1043881 L100.698406,46.8412597 C100.698406,46.1703361 100.72382,45.448585 100.757705,45.0165509 L99.1041158,50.1043881 Z M87.7001091,44.9826659 C87.598454,45.4655275 87.4290289,46.0602098 87.2257187,46.6531978 C87.0901786,47.0598182 86.9105879,47.5511511 86.8190983,47.7815693 C87.1138981,47.7629325 87.4459714,47.7561555 87.7255229,47.7561555 C87.9966031,47.7561555 88.3100396,47.7561555 88.5743429,47.7714038 C88.4794648,47.5511511 88.2930971,47.0598182 88.1660283,46.6870828 C87.9542468,46.0517385 87.7932929,45.4655275 87.7001091,44.9826659 L87.7001091,44.9826659 Z M87.7001091,48.4846837 C87.335845,48.4846837 86.9614155,48.4762124 86.5886801,48.4609641 C86.4785538,48.884527 86.2413586,49.5706989 86.0380484,50.0959168 C86.0211059,50.1382731 85.9787496,50.1806294 85.9448646,50.1806294 L85.0553825,50.1806294 C84.9689757,50.1806294 84.9435619,50.1382731 84.9791412,50.0450893 L87.0901786,44.2710802 C87.1054268,44.235501 87.1393119,44.1948389 87.1731969,44.1948389 L88.2676833,44.1948389 C88.3100396,44.1948389 88.3523959,44.2287239 88.3710327,44.2710802 L90.5057896,50.0450893 C90.5312033,50.1213306 90.5159551,50.1806294 90.4295482,50.1806294 L89.4638249,50.1806294 C89.4299399,50.1806294 89.3791123,50.1382731 89.3621698,50.0959168 C89.1419171,49.5114001 88.9301357,48.9167178 88.8013726,48.4609641 C88.4455798,48.4762124 88.0559019,48.4846837 87.7001091,48.4846837 L87.7001091,48.4846837 Z M79.0458725,46.5854278 C79.0272358,46.2465775 79.0272358,45.8823134 79.0272358,45.5248263 L79.0272358,44.2795515 C79.0272358,44.235501 79.0611208,44.1948389 79.1034771,44.1948389 L80.0285384,44.1948389 C80.0624234,44.1948389 80.1047797,44.235501 80.1047797,44.2795515 L80.1047797,50.1043881 C80.1047797,50.1382731 80.0624234,50.1806294 80.0285384,50.1806294 L79.1034771,50.1806294 C79.0611208,50.1806294 79.0272358,50.1382731 79.0272358,50.1043881 L79.0272358,48.6202238 C79.0272358,48.2220747 79.0272358,47.8154543 79.0458725,47.4342478 C78.705328,47.4511903 78.5020178,47.4511903 78.2139951,47.4511903 L76.8992559,47.4511903 C76.6112332,47.4511903 76.3994517,47.4511903 76.0606014,47.4342478 C76.0775439,47.8154543 76.0860152,48.2220747 76.0860152,48.6202238 L76.0860152,50.1043881 C76.0860152,50.1382731 76.0436589,50.1806294 76.0097739,50.1806294 L75.0762413,50.1806294 C75.033885,50.1806294 75,50.1382731 75,50.1043881 L75,44.2795515 C75,44.235501 75.033885,44.1948389 75.0762413,44.1948389 L76.0097739,44.1948389 C76.0436589,44.1948389 76.0860152,44.235501 76.0860152,44.2795515 L76.0860152,45.5248263 C76.0860152,45.8823134 76.0775439,46.2465775 76.0606014,46.5854278 C76.3232104,46.5684852 76.6112332,46.5617082 76.9161984,46.5617082 L78.1970525,46.5617082 C78.5020178,46.5617082 78.7815693,46.5684852 79.0458725,46.5854278 L79.0458725,46.5854278 Z" id="Fill-8"></path>
                    <path d="M116.915337,24.6930156 L116.915337,36.1428999 C116.915337,36.2090027 116.831607,36.2927329 116.764623,36.2927329 L115.899117,36.2927329 C115.816268,36.2927329 115.749284,36.2090027 115.749284,36.1428999 L115.749284,24.6930156 C115.749284,24.6092854 115.816268,24.5264366 115.899117,24.5264366 L116.764623,24.5264366 C116.831607,24.5264366 116.915337,24.6092854 116.915337,24.6930156 L116.915337,24.6930156 Z M108.683337,30.7092507 C109.083479,29.6093003 109.84939,28.842508 111.182904,28.842508 C112.432687,28.842508 113.133377,29.6427924 113.133377,30.7092507 L108.683337,30.7092507 Z M111.200531,28.0096128 C108.583742,28.0096128 107.183244,30.2262597 107.183244,32.4094144 C107.183244,34.7926403 108.666591,36.50955 111.133547,36.50955 C112.10041,36.50955 113.00029,36.1755106 113.566129,35.7595037 C113.64986,35.7092656 113.684233,35.6422814 113.684233,35.5091945 L113.684233,34.9592193 C113.684233,34.8596244 113.64986,34.8093863 113.582875,34.8093863 C113.517654,34.8093863 113.499145,34.8261323 113.433924,34.8922351 C112.866321,35.3258694 112.117156,35.5594326 111.266634,35.5594326 C109.434264,35.5594326 108.400417,34.1589349 108.400417,32.4922632 C108.400417,32.0092722 108.450655,31.7254709 108.500012,31.4258049 L113.816439,31.4258049 C114.133732,31.4258049 114.217462,31.2759719 114.217462,31.0424087 C114.217462,29.1765474 113.151004,28.0096128 111.200531,28.0096128 L111.200531,28.0096128 Z M105.467216,28.4599932 L105.467216,36.1428999 C105.467216,36.2090027 105.383486,36.2927329 105.318264,36.2927329 L104.450996,36.2927329 C104.367265,36.2927329 104.300281,36.2090027 104.300281,36.1428999 L104.300281,28.4599932 C104.300281,28.376263 104.367265,28.2925328 104.450996,28.2925328 L105.318264,28.2925328 C105.383486,28.2925328 105.467216,28.376263 105.467216,28.4599932 L105.467216,28.4599932 Z M105.650541,25.2923475 C105.650541,25.7101172 105.299755,26.0423938 104.88463,26.0423938 C104.467742,26.0423938 104.116956,25.7101172 104.116956,25.2923475 C104.116956,24.8763407 104.467742,24.5264366 104.88463,24.5264366 C105.299755,24.5264366 105.650541,24.8763407 105.650541,25.2923475 L105.650541,25.2923475 Z M102.69795,34.209173 C102.69795,35.5594326 101.480777,36.50955 99.7471212,36.50955 C98.747647,36.50955 97.9799733,36.2090027 97.4969823,35.8590986 C97.3973874,35.7753684 97.3471493,35.6757735 97.3471493,35.5594326 L97.3471493,34.9927114 C97.3471493,34.8922351 97.3815227,34.7926403 97.4643716,34.7926403 C97.5639664,34.7926403 97.6300692,34.841997 97.6970534,34.8922351 C98.2302825,35.3258694 98.9468368,35.6096707 99.7629859,35.6096707 C100.930802,35.6096707 101.564507,34.9927114 101.564507,34.2594111 C101.564507,33.3092937 100.697239,33.0766119 99.5311854,32.6764697 C98.4805918,32.3089382 97.3815227,31.7924551 97.3815227,30.2923624 C97.3815227,29.1263093 98.431235,28.0096128 100.214248,28.0096128 C101.146738,28.0096128 101.863292,28.2925328 102.246688,28.6265722 C102.430013,28.8098972 102.496997,28.9262382 102.496997,29.1430553 C102.496997,29.4594673 102.264315,29.6930305 102.014006,29.6930305 C101.830681,29.6930305 101.747832,29.6427924 101.613864,29.5264515 C101.146738,29.1095632 100.647,28.9429842 100.097025,28.9429842 C99.030567,28.9429842 98.5132025,29.5758082 98.5132025,30.2430057 C98.5132025,31.2098691 99.2967409,31.442551 100.214248,31.758963 C101.780443,32.3089382 102.69795,32.7928106 102.69795,34.209173 L102.69795,34.209173 Z M96.5688991,29.009087 C96.5688991,29.4268566 96.3529634,29.6762845 96.0189239,29.6762845 C95.5368143,29.6762845 95.5183055,29.1095632 94.6025615,29.1095632 C93.3201674,29.1095632 92.7190727,30.4263308 92.7190727,31.6593681 L92.7190727,36.1428999 C92.7190727,36.2090027 92.6362239,36.2927329 92.5692398,36.2927329 L91.7019712,36.2927329 C91.618241,36.2927329 91.5530196,36.2090027 91.5530196,36.1428999 L91.5530196,29.5264515 C91.5530196,28.7764052 91.4357973,28.559588 91.4357973,28.4423657 C91.4357973,28.376263 91.5027814,28.2925328 91.5697656,28.2925328 L92.353304,28.2925328 C92.4361528,28.2925328 92.4855096,28.376263 92.5022556,28.4423657 C92.5692398,28.876 92.5851044,29.4268566 92.5851044,29.9600858 C92.969382,28.859254 93.8348878,28.0096128 95.0688065,28.0096128 C96.1194002,28.0096128 96.5688991,28.4758578 96.5688991,29.009087 L96.5688991,29.009087 Z M84.4650379,30.7092507 C84.8660615,29.6093003 85.6319725,28.842508 86.9654861,28.842508 C88.2152694,28.842508 88.9150776,29.6427924 88.9150776,30.7092507 L84.4650379,30.7092507 Z M86.9831135,28.0096128 C84.365443,28.0096128 82.9649453,30.2262597 82.9649453,32.4094144 C82.9649453,34.7926403 84.4491732,36.50955 86.9161293,36.50955 C87.8829928,36.50955 88.782872,36.1755106 89.3487119,35.7595037 C89.4324421,35.7092656 89.4659342,35.6422814 89.4659342,35.5091945 L89.4659342,34.9592193 C89.4659342,34.8596244 89.4324421,34.8093863 89.365458,34.8093863 C89.2993552,34.8093863 89.2817278,34.8261323 89.215625,34.8922351 C88.6489037,35.3258694 87.8988574,35.5594326 87.0483349,35.5594326 C85.2159656,35.5594326 84.182118,34.1589349 84.182118,32.4922632 C84.182118,32.0092722 84.2332375,31.7254709 84.2825942,31.4258049 L89.5990211,31.4258049 C89.9163145,31.4258049 89.9991634,31.2759719 89.9991634,31.0424087 C89.9991634,29.1765474 88.932705,28.0096128 86.9831135,28.0096128 L86.9831135,28.0096128 Z M77.8318435,30.6255205 C77.3488524,30.6255205 76.7486391,30.6255205 76.232156,30.6590126 C76.2665294,29.9926965 76.2665294,28.7429131 76.2665294,28.0096128 C76.2665294,27.3256693 76.2665294,26.126124 76.232156,25.476554 C76.8491153,25.5091647 77.4828207,25.5091647 78.0997801,25.5091647 C80.0317442,25.5091647 80.7668073,26.6593532 80.7668073,28.0757156 C80.7668073,29.7926254 79.7999438,30.6255205 77.8318435,30.6255205 L77.8318435,30.6255205 Z M78.0327959,24.5264366 L75.1489516,24.5264366 C75.0837302,24.5264366 75,24.6269128 75,24.7432537 L75,36.1428999 C75,36.2090027 75.0652214,36.2927329 75.1489516,36.2927329 L76.1158151,36.2927329 C76.1827992,36.2927329 76.2665294,36.2090027 76.2665294,36.1428999 L76.2665294,33.8760149 C76.2665294,33.0924766 76.2665294,32.2763275 76.232156,31.5597732 C76.6657903,31.5765193 77.1990194,31.5923839 77.8494709,31.5923839 C80.7482985,31.5923839 82.1329315,30.1760215 82.1329315,28.1259537 C82.1329315,26.2433463 80.9316235,24.5264366 78.0327959,24.5264366 L78.0327959,24.5264366 Z" id="Fill-6"></path>
                    <path d="M159.31631,16.6955703 C157.444279,16.6955703 156.642232,15.0571025 156.642232,13.2520557 C156.642232,11.4637549 157.444279,9.89315266 159.31631,9.89315266 C161.170713,9.89315266 161.972761,11.4311442 161.972761,13.2520557 C161.972761,15.0412378 161.170713,16.6955703 159.31631,16.6955703 L159.31631,16.6955703 Z M159.31631,9.02412133 C156.607858,9.02412133 155.354549,11.0962234 155.354549,13.2353096 C155.354549,15.3911419 156.607858,17.5478555 159.31631,17.5478555 C161.990388,17.5478555 163.260443,15.3911419 163.260443,13.2353096 C163.260443,11.0962234 161.990388,9.02412133 159.31631,9.02412133 L159.31631,9.02412133 Z M153.642047,9.47538304 L153.642047,17.180324 C153.642047,17.2473082 153.558316,17.330157 153.492214,17.330157 L152.623182,17.330157 C152.539452,17.330157 152.471587,17.2473082 152.471587,17.180324 L152.471587,9.47538304 C152.471587,9.39165284 152.539452,9.30792264 152.623182,9.30792264 L153.492214,9.30792264 C153.558316,9.30792264 153.642047,9.39165284 153.642047,9.47538304 L153.642047,9.47538304 Z M153.825372,6.29980509 C153.825372,6.71757471 153.474586,7.05161413 153.057698,7.05161413 C152.639047,7.05161413 152.288261,6.71757471 152.288261,6.29980509 C152.288261,5.88203546 152.639047,5.53125 153.057698,5.53125 C153.474586,5.53125 153.825372,5.88203546 153.825372,6.29980509 L153.825372,6.29980509 Z M149.028953,14.3555316 C149.028953,15.6088404 148.242771,16.6788242 146.740034,16.6788242 C145.100685,16.6788242 143.982226,15.4748721 143.982226,13.2520557 C143.982226,11.2134457 145.068074,9.89315266 146.772645,9.89315266 C148.277144,9.89315266 149.028953,10.9463904 149.028953,12.0154928 L149.028953,14.3555316 Z M150.198532,5.69782903 C150.198532,5.61409883 150.132429,5.53125 150.048699,5.53125 L149.179668,5.53125 C149.111802,5.53125 149.028953,5.61409883 149.028953,5.69782903 C149.028953,7.26931265 149.044818,8.95713717 149.079191,10.5277394 C148.745152,9.72569226 147.825883,9.02412133 146.488843,9.02412133 C144.249281,9.02412133 142.710408,10.7956761 142.710408,13.2520557 C142.710408,15.843285 144.349757,17.5478555 146.45447,17.5478555 C147.858493,17.5478555 148.861493,16.8630307 149.246652,15.7260627 C149.246652,16.2610546 149.312755,16.9132688 149.362993,17.180324 C149.379739,17.2473082 149.446723,17.330157 149.513707,17.330157 L150.198532,17.330157 C150.282262,17.330157 150.349246,17.2808003 150.349246,17.180324 C150.349246,17.0463557 150.198532,16.3112927 150.198532,15.0914759 L150.198532,5.69782903 Z M140.945023,16.0935942 C140.945023,16.8454032 141.061364,17.0631018 141.061364,17.180324 C141.061364,17.2473082 140.993498,17.330157 140.928277,17.330157 L140.142094,17.330157 C140.058364,17.330157 140.008126,17.2473082 139.99138,17.180324 C139.942023,16.8454032 139.90765,16.2108165 139.90765,15.6255865 C139.473134,16.728181 138.28681,17.5478555 136.682715,17.5478555 C135.2452,17.5478555 134.108232,16.6788242 134.108232,15.0412378 L134.108232,9.458637 C134.108232,9.39165284 134.191962,9.30792264 134.258946,9.30792264 L135.128859,9.30792264 C135.210826,9.30792264 135.277811,9.39165284 135.277811,9.458637 L135.277811,14.8402853 C135.277811,16.0768482 135.963517,16.595094 137.082857,16.595094 C138.437524,16.595094 139.774563,15.6255865 139.774563,13.9042699 L139.774563,9.458637 C139.774563,9.39165284 139.858293,9.30792264 139.924396,9.30792264 L140.793427,9.30792264 C140.877157,9.30792264 140.945023,9.39165284 140.945023,9.458637 L140.945023,16.0935942 Z M132.617834,9.30792264 C132.683937,9.30792264 132.734175,9.35816076 132.734175,9.458637 L132.734175,10.0941051 C132.734175,10.1778353 132.701565,10.2280735 132.617834,10.2280735 C132.032604,10.2280735 131.397136,10.210446 130.829534,10.1778353 C130.862144,10.6449617 130.862144,11.0962234 130.862144,11.9820008 L130.862144,15.0412378 C130.862144,16.2108165 131.297541,16.5448559 131.983248,16.5448559 C132.215929,16.5448559 132.416001,16.4946178 132.566715,16.4443797 C132.667191,16.3941415 132.734175,16.4443797 132.734175,16.5448559 L132.734175,17.3142924 C132.734175,17.3980226 132.667191,17.4641253 132.583461,17.4808714 C132.350779,17.5311095 132.116335,17.5478555 131.899517,17.5478555 C130.662073,17.5478555 129.692566,16.7793005 129.692566,15.1073406 L129.692566,12.0154928 C129.692566,11.0803587 129.709312,10.629097 129.75955,10.1778353 C129.42551,10.210446 128.974249,10.2280735 128.739804,10.2280735 C128.639328,10.2280735 128.572344,10.1267158 128.572344,9.9936289 C128.572344,9.85966058 128.589971,9.77593038 128.67282,9.72569226 C129.458121,9.22419244 130.093589,8.45563735 130.562478,7.51962187 C130.611835,7.420027 130.646209,7.40239959 130.729939,7.40239959 C130.84628,7.40239959 130.913264,7.45263771 130.913264,7.58660603 L130.913264,8.0387491 C130.913264,8.40628061 130.87889,8.94039114 130.829534,9.34141472 C131.264049,9.32466868 132.048469,9.30792264 132.617834,9.30792264 L132.617834,9.30792264 Z M127.641616,15.2413089 C127.641616,16.595094 126.4218,17.5478555 124.683737,17.5478555 C123.680737,17.5478555 122.911301,17.2473082 122.427429,16.8956414 C122.326952,16.8119112 122.276714,16.7123163 122.276714,16.595094 L122.276714,16.0274914 C122.276714,15.9261338 122.311088,15.8265389 122.394818,15.8265389 C122.494413,15.8265389 122.562278,15.8758957 122.6275,15.9261338 C123.162492,16.3606495 123.880809,16.6453321 124.701364,16.6453321 C125.870943,16.6453321 126.50553,16.0274914 126.50553,15.291547 C126.50553,14.3387855 125.636499,14.1052223 124.46692,13.7041987 C123.413682,13.3357859 122.311088,12.8184214 122.311088,11.3139219 C122.311088,10.1443433 123.362563,9.02412133 125.152626,9.02412133 C126.08776,9.02412133 126.806077,9.30792264 127.190355,9.64284343 C127.375443,9.8261685 127.440664,9.94339078 127.440664,10.1602079 C127.440664,10.4783827 127.207982,10.7128272 126.956792,10.7128272 C126.773467,10.7128272 126.689736,10.6617077 126.554887,10.5453668 C126.08776,10.1267158 125.585379,9.96013682 125.034523,9.96013682 C123.964539,9.96013682 123.446293,10.595605 123.446293,11.2636838 C123.446293,12.2331914 124.232475,12.4667545 125.152626,12.7849293 C126.722347,13.3357859 127.641616,13.8205397 127.641616,15.2413089 L127.641616,15.2413089 Z M120.547465,11.5307391 L120.547465,17.180324 C120.547465,17.2473082 120.463735,17.330157 120.396751,17.330157 L119.526838,17.330157 C119.443108,17.330157 119.377887,17.2473082 119.377887,17.180324 L119.377887,11.7316915 C119.377887,10.4951287 118.69218,9.97688286 117.57284,9.97688286 C116.234919,9.97688286 114.881134,10.9463904 114.881134,12.6844531 L114.881134,17.180324 C114.881134,17.2473082 114.797404,17.330157 114.731301,17.330157 L113.86227,17.330157 C113.77854,17.330157 113.711556,17.2473082 113.711556,17.180324 L113.711556,10.5453668 C113.711556,9.79267642 113.594333,9.57585927 113.594333,9.458637 C113.594333,9.39165284 113.662199,9.30792264 113.72742,9.30792264 L114.513603,9.30792264 C114.597333,9.30792264 114.647571,9.39165284 114.664317,9.458637 C114.713674,9.79267642 114.764793,10.4281446 114.764793,10.9631365 C115.182563,9.87640662 116.368888,9.02412133 117.972982,9.02412133 C119.410497,9.02412133 120.547465,9.89315266 120.547465,11.5307391 L120.547465,11.5307391 Z M107.631862,14.0047461 C106.597133,14.0047461 105.81095,13.3869054 105.81095,11.8824059 C105.81095,10.6114696 106.479029,9.84291454 107.615997,9.84291454 C108.819949,9.84291454 109.538266,10.6449617 109.538266,11.932644 C109.538266,13.4362621 108.736219,14.0047461 107.631862,14.0047461 L107.631862,14.0047461 Z M111.761083,8.99062925 C110.924662,8.99062925 110.340313,9.57585927 110.122615,10.3611604 C109.688099,9.57585927 108.869306,9.02412133 107.582505,9.02412133 C106.011021,9.02412133 104.606998,10.0941051 104.606998,11.8982706 C104.606998,13.1524608 105.22572,14.0541028 106.211093,14.4057697 C105.241585,14.5062459 104.606998,15.1240866 104.606998,15.9437612 C104.606998,16.761673 105.30945,17.2129347 106.494894,17.2129347 C107.448537,17.2129347 108.083123,17.1133399 109.052631,17.1133399 C110.090004,17.1133399 110.424044,17.4976174 110.424044,18.2168158 C110.424044,19.3194103 109.271211,20.0721007 107.48291,20.0721007 C105.827696,20.0721007 105.192228,19.4868707 105.192228,18.5843473 C105.192228,18.317292 105.292704,18.0493554 105.409045,17.9330145 C105.443419,17.898641 105.460165,17.8660303 105.460165,17.8149108 C105.460165,17.7479266 105.443419,17.7153159 105.343824,17.7153159 L104.707474,17.7153159 C104.439538,17.7153159 104.039396,18.1330856 104.039396,18.8011644 C104.039396,20.1055928 105.176364,20.9402506 107.465283,20.9402506 C110.038885,20.9402506 111.610368,19.7213152 111.610368,18.0661014 C111.610368,17.0631018 111.042766,16.2443086 109.454536,16.2443086 C108.09987,16.2443086 107.498775,16.3782769 106.629744,16.3782769 C105.894681,16.3782769 105.55976,16.0935942 105.55976,15.6925706 C105.55976,15.1575787 106.044513,14.7733012 107.26433,14.7733012 C109.638742,14.7733012 110.60825,13.6204685 110.60825,12.065731 C110.60825,11.5148744 110.490146,11.2134457 110.490146,10.8124221 C110.490146,10.4113985 110.707845,10.1108512 111.042766,10.1108512 C111.442908,10.1108512 111.4764,10.4448906 111.910916,10.4448906 C112.296075,10.4448906 112.512892,10.1778353 112.512892,9.77593038 C112.512892,9.37578817 112.296075,8.99062925 111.761083,8.99062925 L111.761083,8.99062925 Z M102.799307,6.29980509 C102.799307,6.71757471 102.448522,7.05161413 102.031634,7.05161413 C101.612983,7.05161413 101.262197,6.71757471 101.262197,6.29980509 C101.262197,5.88203546 101.612983,5.53125 102.031634,5.53125 C102.448522,5.53125 102.799307,5.88203546 102.799307,6.29980509 L102.799307,6.29980509 Z M102.615982,9.47538304 L102.615982,17.180324 C102.615982,17.2473082 102.532252,17.330157 102.466149,17.330157 L101.597118,17.330157 C101.513388,17.330157 101.446404,17.2473082 101.446404,17.180324 L101.446404,9.47538304 C101.446404,9.39165284 101.513388,9.30792264 101.597118,9.30792264 L102.466149,9.30792264 C102.532252,9.30792264 102.615982,9.39165284 102.615982,9.47538304 L102.615982,9.47538304 Z M99.8361396,15.2413089 C99.8361396,16.595094 98.6172042,17.5478555 96.8782602,17.5478555 C95.8761419,17.5478555 95.1067055,17.2473082 94.6219517,16.8956414 C94.5223568,16.8119112 94.4712373,16.7123163 94.4712373,16.595094 L94.4712373,16.0274914 C94.4712373,15.9261338 94.5056108,15.8265389 94.589341,15.8265389 C94.6898172,15.8265389 94.7568014,15.8758957 94.8229042,15.9261338 C95.3570147,16.3606495 96.076213,16.6453321 96.8958876,16.6453321 C98.0654663,16.6453321 98.7009344,16.0274914 98.7009344,15.291547 C98.7009344,14.3387855 97.8310217,14.1052223 96.661443,13.7041987 C95.6082053,13.3357859 94.5056108,12.8184214 94.5056108,11.3139219 C94.5056108,10.1443433 95.5579672,9.02412133 97.3471493,9.02412133 C98.2822834,9.02412133 99.0006004,9.30792264 99.3848779,9.64284343 C99.5699657,9.8261685 99.6360685,9.94339078 99.6360685,10.1602079 C99.6360685,10.4783827 99.4025053,10.7128272 99.1521961,10.7128272 C98.9679897,10.7128272 98.8842595,10.6617077 98.7502912,10.5453668 C98.2822834,10.1267158 97.7807836,9.96013682 97.2290456,9.96013682 C96.1599432,9.96013682 95.640816,10.595605 95.640816,11.2636838 C95.640816,12.2331914 96.4269985,12.4667545 97.3471493,12.7849293 C98.9177515,13.3357859 99.8361396,13.8205397 99.8361396,15.2413089 L99.8361396,15.2413089 Z M87.683803,11.7316915 C88.0848266,10.629097 88.8533817,9.85966058 90.1904208,9.85966058 C91.4437296,9.85966058 92.1453005,10.6617077 92.1453005,11.7316915 L87.683803,11.7316915 Z M90.2080482,9.02412133 C87.5833268,9.02412133 86.1793036,11.2469378 86.1793036,13.4362621 C86.1793036,15.8265389 87.667057,17.5478555 90.141064,17.5478555 C91.1105716,17.5478555 92.013095,17.2129347 92.5806976,16.7960465 C92.6644278,16.7458084 92.6970385,16.6788242 92.6970385,16.5448559 L92.6970385,15.993118 C92.6970385,15.8935231 92.6644278,15.843285 92.5965622,15.843285 C92.5313408,15.843285 92.512832,15.860031 92.4476106,15.9261338 C91.8782453,16.3606495 91.1264362,16.595094 90.2741509,16.595094 C88.4364934,16.595094 87.3991203,15.1910708 87.3991203,13.5199923 C87.3991203,13.0352385 87.4502398,12.7505559 87.4995966,12.4500085 L92.8310068,12.4500085 C93.1491816,12.4500085 93.2320304,12.3001755 93.2320304,12.065731 C93.2320304,10.1937 92.1620466,9.02412133 90.2080482,9.02412133 L90.2080482,9.02412133 Z M78.6938238,16.3447848 C77.8415385,16.3447848 77.1567136,16.3606495 76.2365628,16.3941415 C76.2700549,15.5586023 76.2700549,14.6904523 76.2700549,13.7544369 L76.2700549,8.58960567 C76.2700549,7.87128871 76.2700549,7.16883641 76.2365628,6.46638411 C76.872031,6.50075756 77.8080464,6.51662223 78.4435146,6.51662223 C81.8526557,6.51662223 83.273425,8.70594658 83.273425,11.4478902 C83.273425,15.1240866 81.0841006,16.3447848 78.6938238,16.3447848 L78.6938238,16.3447848 Z M78.4937527,5.53125 L75.1507144,5.53125 C75.0669842,5.53125 75,5.61409883 75,5.69782903 L75,17.180324 C75,17.2473082 75.0669842,17.330157 75.1507144,17.330157 L78.6268397,17.330157 C82.1532031,17.330157 84.6607022,15.3417852 84.6607022,11.5148744 C84.6607022,7.72057435 82.2034412,5.53125 78.4937527,5.53125 L78.4937527,5.53125 Z" id="Fill-4"></path>
                    <path d="M24.8514899,47.8287546 C24.9466497,48.1947536 25.0418094,48.7608321 25.0820693,49.54285 C25.205289,51.8779238 27.2634235,52.0828833 28.0381215,52.1597431 L28.0710614,52.1597431 C28.1076613,51.9767436 28.1406012,51.7900841 28.1406012,51.6009846 C28.1406012,50.9861062 27.9393017,50.3870878 27.5269428,49.8063693 C26.7595649,48.7242322 25.4797883,48.041034 24.8514899,47.8287546 L24.8514899,47.8287546 Z M32.1641505,40.7857133 C32.1641505,40.7857133 34.6492839,39.027698 35.372742,38.5128594 C34.4894643,38.5238393 31.4406924,38.5604392 31.4406924,38.5604392 C31.4406924,38.5604392 30.5269148,35.647087 30.2682755,34.8065092 C30.0047562,35.647087 29.1385585,38.4323396 29.1385585,38.4323396 L29.0946387,38.5604392 C29.0946387,38.5604392 26.0422068,38.5238393 25.1625891,38.5128594 C25.8823872,39.027698 28.3711806,40.7857133 28.3711806,40.7857133 C28.3711806,40.7857133 27.3951832,43.6771056 27.1097039,44.5140234 C27.819742,43.9918648 30.2682755,42.1679697 30.2682755,42.1679697 C30.2682755,42.1679697 32.716809,43.9918648 33.4219672,44.5140234 C33.1401479,43.6771056 32.1641505,40.7857133 32.1641505,40.7857133 L32.1641505,40.7857133 Z M10.3786684,30.5194406 C10.4335683,30.5267606 10.5067681,30.5340806 10.5067681,30.5340806 L10.919127,30.5853204 C15.813754,31.3014585 19.6323438,34.0318113 22.0406174,36.2619654 C22.3297566,35.2932879 22.7018557,34.3685304 23.1813144,33.5023327 C21.9491177,29.7996425 19.4566643,24.7671559 14.5778973,21.6610442 C10.0687892,18.7623319 4.72154346,17.5423351 0.222195426,18.3243531 C0.613814384,19.9323088 6.82969786,27.1058897 10.3786684,30.5194406 L10.3786684,30.5194406 Z M21.3903591,40.0366353 C21.4232991,39.6132964 21.5147988,38.4835794 21.6282585,37.8479611 C19.7384835,35.9618462 15.8613338,32.7459347 10.7483274,31.9529368 C7.81301524,31.5466779 5.02532265,31.7223574 2.64144899,32.4384955 C3.53326662,34.5625099 9.38437106,39.3827171 11.7304248,40.1940149 C14.5595973,39.4449369 17.7206089,39.397357 21.3903591,40.0366353 L21.3903591,40.0366353 Z M22.6652558,44.8056026 C22.578636,44.4810835 22.4139364,44.1443644 22.3077967,43.9406249 C19.4383643,44.9959221 17.1398904,46.6075378 15.8247339,48.5082928 C15.407495,49.1219512 15.0707759,49.7844094 14.8011567,50.4712676 C15.1549557,50.6359671 15.8283939,50.6579271 16.6323718,50.5188474 C17.9438683,50.2736281 19.5371841,49.6050699 20.1252225,48.6693324 C20.7364409,47.1272565 21.7673381,45.8181999 22.3297566,45.1642817 C22.3297566,45.1642817 22.6445158,44.8275626 22.6652558,44.8056026 L22.6652558,44.8056026 Z M23.1813144,46.1549191 C22.7652955,46.6075378 21.9344777,47.5725553 21.5806786,48.9548116 C21.437939,49.5062501 21.3647392,50.0210888 21.3647392,50.5042075 C21.3647392,51.4728849 21.6831584,52.2988227 22.2748568,53.0625407 C23.2142543,52.6745817 24.087772,51.6009846 24.087772,49.8966491 C24.087772,49.7917294 24.084112,49.7002296 24.080452,49.6050699 C23.9779723,47.7738547 23.5839133,46.8307973 23.1813144,46.1549191 L23.1813144,46.1549191 Z M26.6058453,22.0514431 C26.6058453,18.2401733 24.84051,14.2349239 23.1776544,11.7278306 C17.9768082,3.63559211 9.31849124,-0.819836048 2.45844948,0.993079132 C6.7381981,5.42654734 10.8349472,12.0560097 14.0191387,19.7273493 C14.1179585,19.7895692 15.2830554,20.4764273 15.2830554,20.4764273 C20.1959823,23.609379 22.7750555,28.3820063 24.1060719,31.9712368 C24.7380302,30.8012599 26.5509454,26.7008508 26.6058453,22.1905228 L26.6058453,22.0514431 Z M21.6245985,42.796268 C21.6245985,42.796268 21.6941383,42.777968 21.7563582,42.7486881 C21.7014583,42.5181087 21.4891789,41.651911 21.441599,41.4762315 C19.0552854,40.9833528 14.5522773,40.4319143 10.5031081,42.0581699 C9.61861044,42.4339289 8.79267264,42.9024077 8.02163469,43.4099264 C9.41365099,45.039842 14.9841562,46.7392975 15.5612146,46.7539375 C17.4400096,44.667743 19.9141631,43.4941061 21.6245985,42.796268 L21.6245985,42.796268 Z M49.7870036,31.9529368 C44.6666773,32.7459347 40.7968475,35.9618462 38.9034126,37.8479611 C39.0168723,38.4835794 39.108372,39.6132964 39.1413119,40.0366353 C42.8110622,39.397357 45.9757338,39.4449369 48.8012463,40.1940149 C51.1473,39.3827171 56.9947445,34.5625099 57.8938821,32.4384955 C55.5075684,31.7223574 52.7186558,31.5466779 49.7870036,31.9529368 L49.7870036,31.9529368 Z M45.9537738,21.6610442 C41.0676868,24.7671559 38.5862134,29.7996425 37.3503567,33.5023327 C37.8285954,34.3685304 38.2019144,35.2932879 38.4947137,36.2619654 C40.8993273,34.0318113 44.7142571,31.3014585 49.6125441,30.5853204 L50.021243,30.5340806 C50.021243,30.5340806 50.0981028,30.5267606 50.1530027,30.5194406 C53.7019732,27.1058897 59.9178567,19.9323088 60.3131357,18.3243531 C55.8137876,17.5423351 50.4714218,18.7623319 45.9537738,21.6610442 L45.9537738,21.6610442 Z M33.0047283,49.8063693 C32.5996893,50.3870878 32.3910699,50.9861062 32.3910699,51.6009846 C32.3910699,51.7900841 32.4240098,51.9767436 32.4642697,52.1597431 L32.4935496,52.1597431 C33.2719076,52.0828833 35.3251621,51.8779238 35.4496018,49.55749 C35.4935216,48.7608321 35.5850214,48.1947536 35.6838411,47.8287546 C35.0555428,48.041034 33.7721062,48.7242322 33.0047283,49.8063693 L33.0047283,49.8063693 Z M38.2275344,43.9406249 C38.1067547,44.1590044 37.9493751,44.4993835 37.8651953,44.8056026 C37.8883753,44.8275626 38.2019144,45.1642817 38.2092344,45.1716017 C38.7643329,45.8181999 39.7879102,47.1272565 40.3869286,48.6400524 C40.990827,49.6050699 42.5878028,50.2736281 43.8992993,50.5188474 C44.7032772,50.6579271 45.3803754,50.6359671 45.7341744,50.4712676 C45.4572352,49.7844094 45.120516,49.1219512 44.7118171,48.5156128 C43.3917806,46.6075378 41.0859868,44.9959221 38.2275344,43.9406249 L38.2275344,43.9406249 Z M39.0900721,41.4762315 C39.0424922,41.651911 38.8338728,42.5181087 38.7789729,42.7486881 C38.8375328,42.777968 38.9034126,42.796268 38.9070726,42.796268 C40.613848,43.4941061 43.0916614,44.667743 44.9741164,46.7539375 C45.5475149,46.7392975 51.1180201,45.039842 52.5063764,43.4099264 C51.7389984,42.9024077 50.9167206,42.4339289 50.035883,42.0581699 C45.9757338,40.4319143 41.4763857,40.9833528 39.0900721,41.4762315 L39.0900721,41.4762315 Z M37.3503567,46.1549191 C36.9526378,46.8307973 36.5536988,47.7738547 36.4512191,49.6050699 C36.4475591,49.7002296 36.4475591,49.7917294 36.4475591,49.8966491 C36.4475591,51.6009846 37.3210768,52.6745817 38.2568143,53.0625407 C38.8521727,52.2988227 39.1669319,51.4728849 39.1669319,50.5042075 C39.1669319,50.0210888 39.0900721,49.5062501 38.9509925,48.9548116 C38.5971934,47.5725553 37.7639356,46.6075378 37.3503567,46.1549191 L37.3503567,46.1549191 Z M36.4255992,31.9712368 C35.7973008,30.8012599 33.9807257,26.7008508 33.9294858,22.1905228 L33.9294858,22.0514431 C33.9294858,18.2474933 35.6875011,14.2349239 37.3503567,11.7278306 C42.5512029,3.63559211 51.2131798,-0.819836048 58.0695616,0.993079132 C53.797133,5.43020733 49.7003839,12.0560097 46.5125323,19.7273493 C46.4100526,19.7895692 45.2486157,20.4764273 45.2486157,20.4764273 C40.3369088,23.609379 37.7566156,28.3820063 36.4255992,31.9712368 L36.4255992,31.9712368 Z" id="Fill-2"></path>
                </g>
            </g>
        </g>
    </g>
</svg>