<?xml version="1.0" encoding="UTF-8" standalone="no"?>
<svg width="108px" height="130px" viewBox="0 0 108 130" version="1.1" xmlns="http://www.w3.org/2000/svg" xmlns:xlink="http://www.w3.org/1999/xlink">
    <!-- Generator: Sketch 39.1 (31720) - http://www.bohemiancoding.com/sketch -->
    <title>Group 10</title>
    <desc>Created with Sketch.</desc>
    <defs></defs>
    <g id="Page-1" stroke="none" stroke-width="1" fill="none" fill-rule="evenodd">
        <g id="Desktop" transform="translate(-458.000000, -48.000000)" fill="#676B59">
            <g id="Brand" transform="translate(40.000000, 6.000000)">
                <g id="Logo" transform="translate(358.000000, 0.000000)">
                    <g id="Group-10" transform="translate(59.732192, 42.229762)">
                        <path d="M47.941378,55.3578006 C48.052528,55.7853006 48.163678,56.4465006 48.210703,57.3599256 C48.354628,60.0873756 50.758603,60.3267756 51.663478,60.4165506 L51.701953,60.4165506 C51.744703,60.2028006 51.783178,59.9847756 51.783178,59.7639006 C51.783178,59.0457006 51.548053,58.3460256 51.066403,57.6677256 C50.170078,56.4037506 48.675253,55.6057506 47.941378,55.3578006 L47.941378,55.3578006 Z M56.482828,47.1312756 C56.482828,47.1312756 59.385553,45.0778506 60.230578,44.4765006 C59.198878,44.4893256 55.637803,44.5320756 55.637803,44.5320756 C55.637803,44.5320756 54.570478,41.1291756 54.268378,40.1473506 C53.960578,41.1291756 52.948828,44.3824506 52.948828,44.3824506 L52.897528,44.5320756 C52.897528,44.5320756 49.332178,44.4893256 48.304753,44.4765006 C49.145503,45.0778506 52.052503,47.1312756 52.052503,47.1312756 C52.052503,47.1312756 50.912503,50.5085256 50.579053,51.4860756 C51.408403,50.8761756 54.268378,48.7458006 54.268378,48.7458006 C54.268378,48.7458006 57.128353,50.8761756 57.952003,51.4860756 C57.622828,50.5085256 56.482828,47.1312756 56.482828,47.1312756 L56.482828,47.1312756 Z M31.036603,35.1399006 C31.100728,35.1484506 31.186228,35.1570006 31.186228,35.1570006 L31.667878,35.2168506 C37.384978,36.0533256 41.845228,39.2424756 44.658178,41.8473756 C44.995903,40.7159256 45.430528,39.6357756 45.990553,38.6240256 C44.551303,34.2991506 41.640028,28.4210256 35.941453,24.7929756 C30.674653,21.4071756 24.428878,19.9821756 19.173478,20.8956006 C19.630903,22.7737506 26.891278,31.1527506 31.036603,35.1399006 L31.036603,35.1399006 Z M43.898653,46.2563256 C43.937128,45.7618506 44.044003,44.4423006 44.176528,43.6998756 C41.969203,41.4968256 37.440553,37.7405256 31.468378,36.8142756 C28.039828,36.3397506 24.783703,36.5449506 21.999253,37.3814256 C23.040928,39.8623506 29.875228,45.4925256 32.615503,46.4401506 C35.920078,45.5652006 39.612253,45.5096256 43.898653,46.2563256 L43.898653,46.2563256 Z M45.387778,51.8266506 C45.286603,51.4476006 45.094228,51.0543006 44.970253,50.8163256 C41.618653,52.0489506 38.933953,53.9313756 37.397803,56.1515256 C36.910453,56.8683006 36.517153,57.6420756 36.202228,58.4443506 C36.615478,58.6367256 37.402078,58.6623756 38.341153,58.4999256 C39.873028,58.2135006 41.734078,57.4326006 42.420928,56.3396256 C43.134853,54.5384256 44.338978,53.0094006 44.995903,52.2456006 C44.995903,52.2456006 45.363553,51.8523006 45.387778,51.8266506 L45.387778,51.8266506 Z M45.990553,53.4027006 C45.504628,53.9313756 44.534203,55.0585506 44.120953,56.6730756 C43.954228,57.3171756 43.868728,57.9185256 43.868728,58.4828256 C43.868728,59.6142756 44.240653,60.5790006 44.931778,61.4710506 C46.029028,61.0179006 47.049328,59.7639006 47.049328,57.7731756 C47.049328,57.6506256 47.045053,57.5437506 47.040778,57.4326006 C46.921078,55.2936756 46.460803,54.1921506 45.990553,53.4027006 L45.990553,53.4027006 Z M49.990528,25.2489756 C49.990528,20.7972756 47.928553,16.1190006 45.986278,13.1906256 C39.911503,3.7386006 29.798278,-1.4654994 21.785503,0.652050595 C26.784403,5.8305006 31.569553,13.5739506 35.288803,22.5343506 C35.404228,22.6070256 36.765103,23.4093006 36.765103,23.4093006 C42.503578,27.0687006 45.516028,32.6433006 47.070703,36.8356506 C47.808853,35.4690756 49.926403,30.6796506 49.990528,25.4114256 L49.990528,25.2489756 Z M44.172253,49.4796756 C44.172253,49.4796756 44.253478,49.4583006 44.326153,49.4241006 C44.262028,49.1547756 44.014078,48.1430256 43.958503,47.9378256 C41.171203,47.3621256 35.911528,46.7180256 31.181953,48.6175506 C30.148828,49.0564506 29.184103,49.6036506 28.283503,50.1964506 C29.909428,52.1002506 36.415978,54.0852756 37.090003,54.1023756 C39.284503,51.6656256 42.174403,50.2947756 44.172253,49.4796756 L44.172253,49.4796756 Z M77.066953,36.8142756 C71.086228,37.7405256 66.566128,41.4968256 64.354528,43.6998756 C64.487053,44.4423006 64.593928,45.7618506 64.632403,46.2563256 C68.918803,45.5096256 72.615253,45.5652006 75.915553,46.4401506 C78.655828,45.4925256 85.485853,39.8623506 86.536078,37.3814256 C83.748778,36.5449506 80.491228,36.3397506 77.066953,36.8142756 L77.066953,36.8142756 Z M72.589603,24.7929756 C66.882478,28.4210256 63.984028,34.2991506 62.540503,38.6240256 C63.099103,39.6357756 63.535153,40.7159256 63.877153,41.8473756 C66.685828,39.2424756 71.141803,36.0533256 76.863178,35.2168506 L77.340553,35.1570006 C77.340553,35.1570006 77.430328,35.1484506 77.494453,35.1399006 C81.639778,31.1527506 88.900153,22.7737506 89.361853,20.8956006 C84.106453,19.9821756 77.866378,21.4071756 72.589603,24.7929756 L72.589603,24.7929756 Z M57.464653,57.6677256 C56.991553,58.3460256 56.747878,59.0457006 56.747878,59.7639006 C56.747878,59.9847756 56.786353,60.2028006 56.833378,60.4165506 L56.867578,60.4165506 C57.776728,60.3267756 60.175003,60.0873756 60.320353,57.3770256 C60.371653,56.4465006 60.478528,55.7853006 60.593953,55.3578006 C59.860078,55.6057506 58.360978,56.4037506 57.464653,57.6677256 L57.464653,57.6677256 Z M63.565078,50.8163256 C63.424003,51.0714006 63.240178,51.4689756 63.141853,51.8266506 C63.168928,51.8523006 63.535153,52.2456006 63.543703,52.2541506 C64.192078,53.0094006 65.387653,54.5384256 66.087328,56.3054256 C66.792703,57.4326006 68.658028,58.2135006 70.189903,58.4999256 C71.128978,58.6623756 71.919853,58.6367256 72.333103,58.4443506 C72.009628,57.6420756 71.616328,56.8683006 71.138953,56.1600756 C69.597103,53.9313756 66.903853,52.0489506 63.565078,50.8163256 L63.565078,50.8163256 Z M64.572553,47.9378256 C64.516978,48.1430256 64.273303,49.1547756 64.209178,49.4241006 C64.277578,49.4583006 64.354528,49.4796756 64.358803,49.4796756 C66.352378,50.2947756 69.246553,51.6656256 71.445328,54.1023756 C72.115078,54.0852756 78.621628,52.1002506 80.243278,50.1964506 C79.346953,49.6036506 78.386503,49.0564506 77.357653,48.6175506 C72.615253,46.7180256 67.359853,47.3621256 64.572553,47.9378256 L64.572553,47.9378256 Z M62.540503,53.4027006 C62.075953,54.1921506 61.609978,55.2936756 61.490278,57.4326006 C61.486003,57.5437506 61.486003,57.6506256 61.486003,57.7731756 C61.486003,59.7639006 62.506303,61.0179006 63.599278,61.4710506 C64.294678,60.5790006 64.662328,59.6142756 64.662328,58.4828256 C64.662328,57.9185256 64.572553,57.3171756 64.410103,56.6730756 C63.996853,55.0585506 63.023578,53.9313756 62.540503,53.4027006 L62.540503,53.4027006 Z M61.460353,36.8356506 C60.726478,35.4690756 58.604653,30.6796506 58.544803,25.4114256 L58.544803,25.2489756 C58.544803,20.8058256 60.598228,16.1190006 62.540503,13.1906256 C68.615278,3.7386006 78.732778,-1.4654994 86.741278,0.652050595 C81.750928,5.8347756 76.965778,13.5739506 73.242253,22.5343506 C73.122553,22.6070256 71.765953,23.4093006 71.765953,23.4093006 C66.028903,27.0687006 63.015028,32.6433006 61.460353,36.8356506 L61.460353,36.8356506 Z" id="Fill-2"></path>
                        <path d="M102.926595,89.0078292 C100.659878,89.0078292 99.688733,87.0239183 99.688733,84.8383079 C99.688733,82.6729742 100.659878,80.7712371 102.926595,80.7712371 C105.171968,80.7712371 106.143114,82.6334881 106.143114,84.8383079 C106.143114,87.0047088 105.171968,89.0078292 102.926595,89.0078292 L102.926595,89.0078292 Z M102.926595,79.7189852 C99.6471125,79.7189852 98.1295647,82.2279549 98.1295647,84.8180312 C98.1295647,87.4283842 99.6471125,90.0398044 102.926595,90.0398044 C106.164457,90.0398044 107.702282,87.4283842 107.702282,84.8180312 C107.702282,82.2279549 106.164457,79.7189852 102.926595,79.7189852 L102.926595,79.7189852 Z M96.0560095,80.2653878 L96.0560095,89.5947851 C96.0560095,89.6758918 95.9546263,89.7762079 95.8745868,89.7762079 L94.822335,89.7762079 C94.7209517,89.7762079 94.6387778,89.6758918 94.6387778,89.5947851 L94.6387778,80.2653878 C94.6387778,80.1640045 94.7209517,80.0626212 94.822335,80.0626212 L95.8745868,80.0626212 C95.9546263,80.0626212 96.0560095,80.1640045 96.0560095,80.2653878 L96.0560095,80.2653878 Z M96.2779856,76.420293 C96.2779856,76.9261423 95.853243,77.3306082 95.3484609,77.3306082 C94.8415444,77.3306082 94.4168018,76.9261423 94.4168018,76.420293 C94.4168018,75.9144437 94.8415444,75.4897011 95.3484609,75.4897011 C95.853243,75.4897011 96.2779856,75.9144437 96.2779856,76.420293 L96.2779856,76.420293 Z M90.4703237,86.174433 C90.4703237,87.6919808 89.5183879,88.9875526 87.6988246,88.9875526 C85.7138465,88.9875526 84.3595791,87.5297675 84.3595791,84.8383079 C84.3595791,82.3698915 85.6743603,80.7712371 87.7383107,80.7712371 C89.5600084,80.7712371 90.4703237,82.0465322 90.4703237,83.3410367 L90.4703237,86.174433 Z M91.8864882,75.6914005 C91.8864882,75.5900172 91.8064488,75.4897011 91.7050655,75.4897011 L90.6528136,75.4897011 C90.5706398,75.4897011 90.4703237,75.5900172 90.4703237,75.6914005 C90.4703237,77.5942048 90.4895332,79.6378786 90.5311537,81.5396157 C90.1266877,80.5684705 89.0136059,79.7189852 87.3946747,79.7189852 C84.6829385,79.7189852 82.8196202,81.8640422 82.8196202,84.8383079 C82.8196202,87.975854 84.8045984,90.0398044 87.3530542,90.0398044 C89.053092,90.0398044 90.2675571,89.2105958 90.7339203,87.8339174 C90.7339203,88.4817033 90.8139597,89.2714258 90.8747897,89.5947851 C90.8950663,89.6758918 90.976173,89.7762079 91.0572796,89.7762079 L91.8864882,89.7762079 C91.9878715,89.7762079 92.0689782,89.7164451 92.0689782,89.5947851 C92.0689782,89.4325719 91.8864882,88.5425333 91.8864882,87.0655388 L91.8864882,75.6914005 Z M80.6820336,88.2789367 C80.6820336,89.189252 80.822903,89.4528485 80.822903,89.5947851 C80.822903,89.6758918 80.7407291,89.7762079 80.6617569,89.7762079 L79.7098211,89.7762079 C79.6084378,89.7762079 79.5476079,89.6758918 79.5273312,89.5947851 C79.4675684,89.189252 79.4259479,88.4208733 79.4259479,87.7122575 C78.899822,89.0473153 77.4633808,90.0398044 75.5210903,90.0398044 C73.7804993,90.0398044 72.4038209,88.9875526 72.4038209,87.0047088 L72.4038209,80.2451111 C72.4038209,80.1640045 72.5052042,80.0626212 72.5863108,80.0626212 L73.6396299,80.0626212 C73.7388788,80.0626212 73.8199854,80.1640045 73.8199854,80.2451111 L73.8199854,86.7613889 C73.8199854,88.25866 74.6502612,88.8861693 76.0055958,88.8861693 C77.6458707,88.8861693 79.2648018,87.7122575 79.2648018,85.6280304 L79.2648018,80.2451111 C79.2648018,80.1640045 79.3661851,80.0626212 79.4462246,80.0626212 L80.4984764,80.0626212 C80.5998597,80.0626212 80.6820336,80.1640045 80.6820336,80.2451111 L80.6820336,88.2789367 Z M70.5991983,80.0626212 C70.6792377,80.0626212 70.7400677,80.1234512 70.7400677,80.2451111 L70.7400677,81.014557 C70.7400677,81.1159402 70.7005816,81.1767702 70.5991983,81.1767702 C69.8905824,81.1767702 69.1211366,81.1554264 68.4338646,81.1159402 C68.4733507,81.6815523 68.4733507,82.2279549 68.4733507,83.3004834 L68.4733507,87.0047088 C68.4733507,88.4208733 69.0005438,88.8253393 69.8308196,88.8253393 C70.1125585,88.8253393 70.3548112,88.7645093 70.5373011,88.7036793 C70.658961,88.6428494 70.7400677,88.7036793 70.7400677,88.8253393 L70.7400677,89.7569984 C70.7400677,89.8583817 70.658961,89.9384211 70.5575778,89.9586978 C70.2758389,90.0195278 69.9919657,90.0398044 69.7294363,90.0398044 C68.231098,90.0398044 67.0571862,89.1092125 67.0571862,87.0847482 L67.0571862,83.3410367 C67.0571862,82.2087454 67.0774628,81.6623428 67.1382928,81.1159402 C66.7338268,81.1554264 66.1874242,81.1767702 65.903551,81.1767702 C65.7818911,81.1767702 65.7007844,81.0540431 65.7007844,80.892897 C65.7007844,80.7306837 65.7221283,80.6293004 65.8224444,80.5684705 C66.7733129,79.9612379 67.5427588,79.030646 68.1105052,77.8972875 C68.170268,77.7766947 68.2118885,77.7553509 68.3132718,77.7553509 C68.4541412,77.7553509 68.5352479,77.8161809 68.5352479,77.9783941 L68.5352479,78.5258639 C68.5352479,78.9708832 68.4936273,79.6176019 68.4338646,80.1031745 C68.9599905,80.0828979 69.9097919,80.0626212 70.5991983,80.0626212 L70.5991983,80.0626212 Z M64.5738291,87.2469615 C64.5738291,88.8861693 63.0968346,90.0398044 60.9923308,90.0398044 C59.7778657,90.0398044 58.8462066,89.6758918 58.2603179,89.2500819 C58.1386579,89.1486986 58.077828,89.0281059 58.077828,88.8861693 L58.077828,88.1988973 C58.077828,88.0761701 58.1194485,87.9555774 58.2208318,87.9555774 C58.3414245,87.9555774 58.4235984,88.0153401 58.5025706,88.0761701 C59.1503565,88.602296 60.0201184,88.9469992 61.0136747,88.9469992 C62.4298392,88.9469992 63.1982179,88.1988973 63.1982179,87.3077915 C63.1982179,86.1541563 62.145966,85.8713503 60.7298015,85.3857777 C59.4545064,84.9396912 58.1194485,84.3132492 58.1194485,82.4915515 C58.1194485,81.0753869 59.3926092,79.7189852 61.5600773,79.7189852 C62.6923686,79.7189852 63.5621305,80.0626212 64.0274265,80.4681544 C64.2515369,80.6901304 64.3305092,80.832067 64.3305092,81.0945964 C64.3305092,81.4798529 64.0487703,81.7637261 63.7446205,81.7637261 C63.5226444,81.7637261 63.4212611,81.701829 63.2579807,81.5609595 C62.6923686,81.0540431 62.0840688,80.8523437 61.4170735,80.8523437 C60.1215017,80.8523437 59.4939925,81.6217895 59.4939925,82.4307215 C59.4939925,83.6046333 60.4459283,83.8874393 61.5600773,84.2726958 C63.4607472,84.9396912 64.5738291,85.5266471 64.5738291,87.2469615 L64.5738291,87.2469615 Z M55.9839962,82.7540808 L55.9839962,89.5947851 C55.9839962,89.6758918 55.8826129,89.7762079 55.8015062,89.7762079 L54.7481872,89.7762079 C54.6468039,89.7762079 54.5678316,89.6758918 54.5678316,89.5947851 L54.5678316,82.9974007 C54.5678316,81.5001296 53.7375558,80.8726203 52.3822213,80.8726203 C50.762223,80.8726203 49.1230152,82.0465322 49.1230152,84.1510359 L49.1230152,89.5947851 C49.1230152,89.6758918 49.0216319,89.7762079 48.9415925,89.7762079 L47.8893406,89.7762079 C47.7879573,89.7762079 47.7068507,89.6758918 47.7068507,89.5947851 L47.7068507,81.5609595 C47.7068507,80.6495771 47.5649141,80.3870477 47.5649141,80.2451111 C47.5649141,80.1640045 47.6470879,80.0626212 47.7260602,80.0626212 L48.6779959,80.0626212 C48.7793792,80.0626212 48.8402092,80.1640045 48.8604858,80.2451111 C48.9202486,80.6495771 48.9821458,81.4190229 48.9821458,82.0668088 C49.4879951,80.7509604 50.9244363,79.7189852 52.8667267,79.7189852 C54.6073178,79.7189852 55.9839962,80.7712371 55.9839962,82.7540808 L55.9839962,82.7540808 Z M40.3453564,85.7496903 C39.0924724,85.7496903 38.1405366,85.0015884 38.1405366,83.1798907 C38.1405366,81.640999 38.9494686,80.7104071 40.326147,80.7104071 C41.783932,80.7104071 42.6536939,81.6815523 42.6536939,83.2407206 C42.6536939,85.0613511 41.6825487,85.7496903 40.3453564,85.7496903 L40.3453564,85.7496903 Z M45.3451536,79.6784319 C44.3323878,79.6784319 43.6248392,80.3870477 43.3612426,81.3379163 C42.8351167,80.3870477 41.8436948,79.7189852 40.2855936,79.7189852 C38.3827893,79.7189852 36.6827516,81.014557 36.6827516,83.1991001 C36.6827516,84.7177151 37.4319207,85.8094531 38.625042,86.235263 C37.4511302,86.3569229 36.6827516,87.1050249 36.6827516,88.097514 C36.6827516,89.0878687 37.533304,89.6342712 38.968678,89.6342712 C40.1233804,89.6342712 40.891759,89.5136785 42.0656708,89.5136785 C43.3217565,89.5136785 43.7262224,89.9789744 43.7262224,90.8498036 C43.7262224,92.1848615 42.3303346,93.0962439 40.1650009,93.0962439 C38.1608133,93.0962439 37.3913674,92.387628 37.3913674,91.2948229 C37.3913674,90.9714635 37.5130274,90.647037 37.6538968,90.5061676 C37.6955173,90.4645471 37.715794,90.4250609 37.715794,90.3631638 C37.715794,90.2820571 37.6955173,90.242571 37.5749245,90.242571 L36.8044115,90.242571 C36.479985,90.242571 35.9954796,90.7484203 35.9954796,91.5573522 C35.9954796,93.1367972 37.372158,94.1474286 40.143657,94.1474286 C43.2598593,94.1474286 45.1626636,92.6715013 45.1626636,90.6673136 C45.1626636,89.4528485 44.4753916,88.4614266 42.5523106,88.4614266 C40.9120357,88.4614266 40.1842103,88.6236399 39.1319585,88.6236399 C38.2419199,88.6236399 37.8363867,88.2789367 37.8363867,87.7933641 C37.8363867,87.1455782 38.4233426,86.6802822 39.9003371,86.6802822 C42.7753539,86.6802822 43.9492657,85.2843944 43.9492657,83.4018667 C43.9492657,82.7348714 43.8062619,82.3698915 43.8062619,81.8843189 C43.8062619,81.3987463 44.0698584,81.0348336 44.4753916,81.0348336 C44.959897,81.0348336 45.0004504,81.4392996 45.5265763,81.4392996 C45.9929394,81.4392996 46.2554688,81.1159402 46.2554688,80.6293004 C46.2554688,80.144795 45.9929394,79.6784319 45.3451536,79.6784319 L45.3451536,79.6784319 Z M34.4939396,76.420293 C34.4939396,76.9261423 34.069197,77.3306082 33.5644149,77.3306082 C33.0574984,77.3306082 32.6327558,76.9261423 32.6327558,76.420293 C32.6327558,75.9144437 33.0574984,75.4897011 33.5644149,75.4897011 C34.069197,75.4897011 34.4939396,75.9144437 34.4939396,76.420293 L34.4939396,76.420293 Z M34.2719636,80.2653878 L34.2719636,89.5947851 C34.2719636,89.6758918 34.1705803,89.7762079 34.0905408,89.7762079 L33.038289,89.7762079 C32.9369057,89.7762079 32.855799,89.6758918 32.855799,89.5947851 L32.855799,80.2653878 C32.855799,80.1640045 32.9369057,80.0626212 33.038289,80.0626212 L34.0905408,80.0626212 C34.1705803,80.0626212 34.2719636,80.1640045 34.2719636,80.2653878 L34.2719636,80.2653878 Z M30.9060382,87.2469615 C30.9060382,88.8861693 29.4301109,90.0398044 27.32454,90.0398044 C26.1111421,90.0398044 25.179483,89.6758918 24.5925271,89.2500819 C24.4719343,89.1486986 24.4100371,89.0281059 24.4100371,88.8861693 L24.4100371,88.1988973 C24.4100371,88.0761701 24.4516576,87.9555774 24.5530409,87.9555774 C24.6747009,87.9555774 24.7558075,88.0153401 24.835847,88.0761701 C25.4825657,88.602296 26.3533948,88.9469992 27.3458839,88.9469992 C28.7620484,88.9469992 29.5314942,88.1988973 29.5314942,87.3077915 C29.5314942,86.1541563 28.4781752,85.8713503 27.0620106,85.3857777 C25.7867155,84.9396912 24.4516576,84.3132492 24.4516576,82.4915515 C24.4516576,81.0753869 25.7258856,79.7189852 27.8922865,79.7189852 C29.0245778,79.7189852 29.8943397,80.0626212 30.3596357,80.4681544 C30.5837461,80.6901304 30.6637855,80.832067 30.6637855,81.0945964 C30.6637855,81.4798529 30.3809795,81.7637261 30.0778968,81.7637261 C29.8548536,81.7637261 29.7534703,81.701829 29.591257,81.5609595 C29.0245778,81.0540431 28.4173452,80.8523437 27.7492827,80.8523437 C26.4547781,80.8523437 25.8262017,81.6217895 25.8262017,82.4307215 C25.8262017,83.6046333 26.7781374,83.8874393 27.8922865,84.2726958 C29.7940236,84.9396912 30.9060382,85.5266471 30.9060382,87.2469615 L30.9060382,87.2469615 Z M16.1915872,82.9974007 C16.6771599,81.6623428 17.6077518,80.7306837 19.2266829,80.7306837 C20.7442307,80.7306837 21.593716,81.701829 21.593716,82.9974007 L16.1915872,82.9974007 Z M19.2480267,79.7189852 C16.0699273,79.7189852 14.3698895,82.4104448 14.3698895,85.0613511 C14.3698895,87.9555774 16.1713106,90.0398044 19.1669201,90.0398044 C20.3408319,90.0398044 21.4336371,89.6342712 22.1209091,89.1294892 C22.2222924,89.0686592 22.2617785,88.9875526 22.2617785,88.8253393 L22.2617785,88.1572767 C22.2617785,88.036684 22.2222924,87.975854 22.1401186,87.975854 C22.0611463,87.975854 22.0387353,87.9961307 21.959763,88.0761701 C21.2703566,88.602296 20.3600414,88.8861693 19.3280662,88.8861693 C17.1029697,88.8861693 15.846884,87.1861315 15.846884,85.1627344 C15.846884,84.5757785 15.9087812,84.2310753 15.968544,83.8671627 L22.4239918,83.8671627 C22.8092483,83.8671627 22.9095644,83.6857399 22.9095644,83.4018667 C22.9095644,81.1351497 21.6139926,79.7189852 19.2480267,79.7189852 L19.2480267,79.7189852 Z M5.30622315,88.5830866 C4.27424794,88.5830866 3.44503933,88.602296 2.3308903,88.6428494 C2.37144361,87.6311508 2.37144361,86.5799661 2.37144361,85.4466076 L2.37144361,79.1928593 C2.37144361,78.3230973 2.37144361,77.4725449 2.3308903,76.6219924 C3.10033613,76.6636129 4.23369463,76.6828224 5.00314046,76.6828224 C9.13104128,76.6828224 10.8513557,79.3337287 10.8513557,82.6537647 C10.8513557,87.1050249 8.20044937,88.5830866 5.30622315,88.5830866 L5.30622315,88.5830866 Z M5.06397044,75.4897011 L1.01610906,75.4897011 C0.91472577,75.4897011 0.833619136,75.5900172 0.833619136,75.6914005 L0.833619136,89.5947851 C0.833619136,89.6758918 0.91472577,89.7762079 1.01610906,89.7762079 L5.22511651,89.7762079 C9.49495394,89.7762079 12.5311168,87.3686214 12.5311168,82.7348714 C12.5311168,78.1406074 9.55578392,75.4897011 5.06397044,75.4897011 L5.06397044,75.4897011 Z" id="Fill-4"></path>
                        <path d="M79.6440821,98.5748127 L79.6440821,112.438711 C79.6440821,112.518751 79.5426988,112.620134 79.4615921,112.620134 L78.4136091,112.620134 C78.3132929,112.620134 78.2321863,112.518751 78.2321863,112.438711 L78.2321863,98.5748127 C78.2321863,98.4734294 78.3132929,98.3731133 78.4136091,98.3731133 L79.4615921,98.3731133 C79.5426988,98.3731133 79.6440821,98.4734294 79.6440821,98.5748127 L79.6440821,98.5748127 Z M69.6765036,105.859469 C70.161009,104.527613 71.0883993,103.599155 72.7030617,103.599155 C74.2163407,103.599155 75.0647588,104.568166 75.0647588,105.859469 L69.6765036,105.859469 Z M72.7244055,102.590658 C69.5559108,102.590658 67.8601418,105.274648 67.8601418,107.918084 C67.8601418,110.803772 69.6562269,112.882663 72.6432989,112.882663 C73.8140091,112.882663 74.9036127,112.478197 75.5887503,111.974482 C75.6901336,111.913652 75.7317542,111.832546 75.7317542,111.6714 L75.7317542,111.005472 C75.7317542,110.884879 75.6901336,110.824049 75.609027,110.824049 C75.5300548,110.824049 75.5076437,110.844326 75.4286715,110.924365 C74.7413995,111.449424 73.8342858,111.73223 72.804445,111.73223 C70.5857516,111.73223 69.3339348,110.036461 69.3339348,108.0184 C69.3339348,107.433578 69.3947647,107.089942 69.4545275,106.727097 L75.891833,106.727097 C76.2760224,106.727097 76.3774056,106.545674 76.3774056,106.262868 C76.3774056,104.003621 75.0861027,102.590658 72.7244055,102.590658 L72.7244055,102.590658 Z M65.7823179,103.135994 L65.7823179,112.438711 C65.7823179,112.518751 65.6809346,112.620134 65.6019624,112.620134 L64.5518449,112.620134 C64.4504616,112.620134 64.369355,112.518751 64.369355,112.438711 L64.369355,103.135994 C64.369355,103.03461 64.4504616,102.933227 64.5518449,102.933227 L65.6019624,102.933227 C65.6809346,102.933227 65.7823179,103.03461 65.7823179,103.135994 L65.7823179,103.135994 Z M66.004294,99.3005036 C66.004294,99.8063529 65.5795513,100.208685 65.0769036,100.208685 C64.5721216,100.208685 64.1473789,99.8063529 64.1473789,99.3005036 C64.1473789,98.7967888 64.5721216,98.3731133 65.0769036,98.3731133 C65.5795513,98.3731133 66.004294,98.7967888 66.004294,99.3005036 L66.004294,99.3005036 Z M62.4291989,110.097291 C62.4291989,111.73223 60.955406,112.882663 58.8562382,112.882663 C57.6460419,112.882663 56.7165171,112.518751 56.1316956,112.095075 C56.0111029,111.993692 55.9502729,111.873099 55.9502729,111.73223 L55.9502729,111.046025 C55.9502729,110.924365 55.9918934,110.803772 56.0922095,110.803772 C56.2128023,110.803772 56.2928417,110.863535 56.3739483,110.924365 C57.0195998,111.449424 57.8872274,111.79306 58.8754477,111.79306 C60.2894778,111.79306 61.0567893,111.046025 61.0567893,110.158121 C61.0567893,109.007687 60.0066718,108.725948 58.594776,108.241443 C57.3226825,107.796424 55.9918934,107.171049 55.9918934,105.354687 C55.9918934,103.942791 57.2629197,102.590658 59.4218503,102.590658 C60.55094,102.590658 61.4185676,102.933227 61.8827963,103.337693 C62.1047724,103.559669 62.185879,103.700539 62.185879,103.963068 C62.185879,104.34619 61.9041402,104.628996 61.6010575,104.628996 C61.3790814,104.628996 61.2787653,104.568166 61.1165521,104.427297 C60.55094,103.922515 59.9458418,103.720815 59.2799137,103.720815 C57.9886107,103.720815 57.3621686,104.487059 57.3621686,105.294924 C57.3621686,106.465634 58.3109028,106.747373 59.4218503,107.130495 C61.3182515,107.796424 62.4291989,108.382312 62.4291989,110.097291 L62.4291989,110.097291 Z M55.0079419,103.800855 C55.0079419,104.306704 54.7464797,104.608719 54.3420137,104.608719 C53.7582594,104.608719 53.7358483,103.922515 52.6270353,103.922515 C51.0742701,103.922515 50.3464448,105.5169 50.3464448,107.009903 L50.3464448,112.438711 C50.3464448,112.518751 50.2461287,112.620134 50.165022,112.620134 L49.1149046,112.620134 C49.0135213,112.620134 48.934549,112.518751 48.934549,112.438711 L48.934549,104.427297 C48.934549,103.519116 48.7926124,103.256586 48.7926124,103.11465 C48.7926124,103.03461 48.873719,102.933227 48.9548257,102.933227 L49.9035599,102.933227 C50.003876,102.933227 50.0636387,103.03461 50.0839154,103.11465 C50.165022,103.639709 50.1842315,104.306704 50.1842315,104.952355 C50.6495274,103.619432 51.6975105,102.590658 53.1915801,102.590658 C54.4636737,102.590658 55.0079419,103.155203 55.0079419,103.800855 L55.0079419,103.800855 Z M40.3521865,105.859469 C40.8377591,104.527613 41.7651494,103.599155 43.3798117,103.599155 C44.8930908,103.599155 45.7404417,104.568166 45.7404417,105.859469 L40.3521865,105.859469 Z M43.4011556,102.590658 C40.2315937,102.590658 38.5358247,105.274648 38.5358247,107.918084 C38.5358247,110.803772 40.332977,112.882663 43.320049,112.882663 C44.4907592,112.882663 45.5803628,112.478197 46.2655004,111.974482 C46.3668837,111.913652 46.407437,111.832546 46.407437,111.6714 L46.407437,111.005472 C46.407437,110.884879 46.3668837,110.824049 46.2857771,110.824049 C46.2057376,110.824049 46.1843938,110.844326 46.1043543,110.924365 C45.4181495,111.449424 44.5099687,111.73223 43.4801278,111.73223 C41.2614345,111.73223 40.0096176,110.036461 40.0096176,108.0184 C40.0096176,107.433578 40.0715148,107.089942 40.1312776,106.727097 L46.5685831,106.727097 C46.9527724,106.727097 47.0530885,106.545674 47.0530885,106.262868 C47.0530885,104.003621 45.7617855,102.590658 43.4011556,102.590658 L43.4011556,102.590658 Z M32.3204953,105.758086 C31.7356737,105.758086 31.0089156,105.758086 30.3835408,105.798639 C30.4251613,104.991842 30.4251613,103.478563 30.4251613,102.590658 C30.4251613,101.762517 30.4251613,100.310068 30.3835408,99.5235469 C31.1305756,99.563033 31.897887,99.563033 32.6449218,99.563033 C34.9842079,99.563033 35.8742465,100.955719 35.8742465,102.670698 C35.8742465,104.749589 34.7035362,105.758086 32.3204953,105.758086 L32.3204953,105.758086 Z M32.5638152,98.3731133 L29.0719611,98.3731133 C28.9929889,98.3731133 28.8916056,98.4947733 28.8916056,98.6356427 L28.8916056,112.438711 C28.8916056,112.518751 28.9705778,112.620134 29.0719611,112.620134 L30.2426713,112.620134 C30.323778,112.620134 30.4251613,112.518751 30.4251613,112.438711 L30.4251613,109.693892 C30.4251613,108.745158 30.4251613,107.756937 30.3835408,106.88931 C30.9085995,106.909587 31.554251,106.928796 32.3418391,106.928796 C35.8518354,106.928796 37.5283949,105.213818 37.5283949,102.731528 C37.5283949,100.452004 36.0738115,98.3731133 32.5638152,98.3731133 L32.5638152,98.3731133 Z" id="Fill-6"></path>
                        <path d="M78.9868555,126.344851 C78.9868555,127.513351 79.6509055,128.262901 80.6555305,128.262901 C81.0616555,128.262901 81.3837055,128.156026 81.5974555,128.040601 L81.5974555,126.636976 C81.5974555,126.594226 81.6259555,126.564301 81.6615805,126.564301 L82.3812055,126.564301 C82.4097055,126.564301 82.4467555,126.601351 82.4467555,126.636976 L82.4467555,128.433901 C81.8682055,128.805826 81.2982055,128.976826 80.5344055,128.976826 C79.0438555,128.976826 78.0235555,127.862476 78.0235555,126.386176 C78.0235555,124.975426 79.0224805,123.684376 80.7766555,123.684376 C81.4606555,123.684376 81.9964555,123.841126 82.3527055,124.069126 C82.4168305,124.104751 82.4467555,124.154626 82.4467555,124.261501 L82.4467555,124.889926 C82.4467555,124.959751 82.4025805,125.009626 82.3398805,125.009626 C82.3099555,125.009626 82.2757555,124.996801 82.2458305,124.966876 C81.9323305,124.697551 81.3765805,124.425376 80.7353305,124.425376 C79.6010305,124.425376 78.9868555,125.217676 78.9868555,126.344851 L78.9868555,126.344851 Z M71.0510305,124.496626 C71.0638555,124.738876 71.0709805,125.203426 71.0709805,125.481301 C71.0709805,125.752051 71.0638555,126.022801 71.0510305,126.286426 C71.1650305,126.279301 71.3502805,126.265051 71.5355305,126.265051 C72.3192805,126.265051 72.6555805,125.915926 72.6555805,125.331676 C72.6555805,124.838626 72.3691555,124.519426 71.7279055,124.519426 C71.4927805,124.519426 71.2647805,124.510876 71.0510305,124.496626 L71.0510305,124.496626 Z M71.0439055,126.886351 C71.0581555,127.178476 71.0709805,127.534726 71.0709805,127.869601 L71.0709805,128.818651 C71.0709805,128.847151 71.0367805,128.882776 71.0068555,128.882776 L70.2231055,128.882776 C70.1874805,128.882776 70.1589805,128.847151 70.1589805,128.818651 L70.1589805,123.940876 C70.1589805,123.889576 70.1946055,123.848251 70.2231055,123.848251 L71.8704055,123.848251 C73.0902055,123.848251 73.5960805,124.496626 73.5960805,125.296051 C73.5960805,126.066976 72.9334555,126.614176 72.1910305,126.686851 C72.5544055,126.772351 73.0317805,127.235476 73.5390805,127.812601 C73.9680055,128.291401 74.2230805,128.583526 74.3598805,128.647651 C74.4012055,128.669026 74.4097555,128.704651 74.4097555,128.761651 C74.4097555,128.832901 74.3741305,128.882776 74.3100055,128.882776 L73.4535805,128.882776 C73.3538305,128.882776 73.2597805,128.832901 73.0545805,128.533651 C72.4332805,127.769851 71.8205305,126.900601 71.3930305,126.900601 C71.3203555,126.900601 71.1579055,126.893476 71.0439055,126.886351 L71.0439055,126.886351 Z M65.4735805,123.848251 C65.5020805,123.848251 65.5377055,123.882451 65.5377055,123.919501 L65.5377055,127.214101 C65.5377055,128.312776 64.6399555,128.976826 63.3916555,128.976826 C62.1561805,128.976826 61.2156805,128.334151 61.2156805,127.199851 L61.2156805,123.919501 C61.2156805,123.882451 61.2441805,123.848251 61.2798055,123.848251 L62.0721055,123.848251 C62.0991805,123.848251 62.1362305,123.882451 62.1362305,123.919501 L62.1362305,127.043101 C62.1362305,127.812601 62.6421055,128.156026 63.3916555,128.170276 C64.1697055,128.170276 64.6470805,127.805476 64.6470805,127.071601 L64.6470805,123.919501 C64.6470805,123.882451 64.6741555,123.848251 64.7097805,123.848251 L65.4735805,123.848251 Z M55.9531555,127.420726 C55.9531555,126.900601 55.6254055,126.557176 54.8202805,126.557176 C54.5566555,126.557176 54.2502805,126.551476 54.0066055,126.537226 C54.0279805,126.800851 54.0351055,127.085851 54.0351055,127.385101 C54.0351055,127.671526 54.0279805,127.949401 54.0066055,128.234401 C54.3286555,128.218726 54.7062805,128.213026 55.0411555,128.213026 C55.6681555,128.213026 55.9531555,127.949401 55.9531555,127.420726 L55.9531555,127.420726 Z M54.7347805,124.510876 C54.5210305,124.510876 54.2274805,124.503751 54.0066055,124.489501 C54.0279805,124.747426 54.0351055,124.989676 54.0351055,125.231926 C54.0351055,125.474176 54.0279805,125.744926 54.0066055,125.980051 C54.1989805,125.958676 54.4127305,125.952976 54.6279055,125.952976 C55.3560805,125.952976 55.6482055,125.660851 55.6482055,125.224801 C55.6482055,124.747426 55.3760305,124.510876 54.7347805,124.510876 L54.7347805,124.510876 Z M53.1872305,128.882776 C53.1516055,128.882776 53.1231055,128.847151 53.1231055,128.818651 L53.1231055,123.919501 C53.1231055,123.882451 53.1516055,123.848251 53.1872305,123.848251 L54.9129055,123.848251 C56.2110805,123.848251 56.5801555,124.475251 56.5801555,125.039551 C56.5801555,125.645176 56.0600305,126.044176 55.4900305,126.172426 C56.2239055,126.230851 56.8879555,126.772351 56.8879555,127.550401 C56.8879555,128.369776 56.2680805,128.882776 55.2050305,128.882776 L53.1872305,128.882776 Z M46.2717055,128.818651 C46.2574555,128.847151 46.2218305,128.882776 46.1933305,128.882776 L45.3867805,128.882776 C45.3511555,128.882776 45.3169555,128.855701 45.3027055,128.818651 L43.8905305,124.539376 C43.9119055,124.925551 43.9332805,125.495551 43.9332805,125.895976 L43.9332805,128.818651 C43.9332805,128.847151 43.8962305,128.882776 43.8677305,128.882776 L43.1552305,128.882776 C43.1196055,128.882776 43.0982305,128.847151 43.0982305,128.818651 L43.0982305,123.919501 C43.0982305,123.882451 43.1196055,123.848251 43.1552305,123.848251 L44.3821555,123.848251 C44.4106555,123.848251 44.4462805,123.876751 44.4605305,123.919501 L45.5007805,126.879226 C45.6304555,127.285351 45.7444555,127.714276 45.8228305,128.111851 C45.9012055,127.721401 46.0152055,127.285351 46.1434555,126.864976 L47.1637555,123.919501 C47.1780055,123.889576 47.2065055,123.848251 47.2421305,123.848251 L48.3764305,123.848251 C48.4049305,123.848251 48.4405555,123.882451 48.4405555,123.919501 L48.4405555,128.818651 C48.4405555,128.847151 48.4049305,128.882776 48.3764305,128.882776 L47.6767555,128.882776 C47.6411305,128.882776 47.6126305,128.847151 47.6126305,128.818651 L47.6126305,126.074101 C47.6126305,125.509801 47.6340055,124.902751 47.6625055,124.539376 L46.2717055,128.818651 Z M36.6800305,124.510876 C36.5945305,124.917001 36.4520305,125.417176 36.2810305,125.915926 C36.1670305,126.257926 36.0159805,126.671176 35.9390305,126.864976 C36.1869805,126.849301 36.4662805,126.843601 36.7014055,126.843601 C36.9294055,126.843601 37.1930305,126.843601 37.4153305,126.856426 C37.3355305,126.671176 37.1787805,126.257926 37.0719055,125.944426 C36.8937805,125.410051 36.7584055,124.917001 36.6800305,124.510876 L36.6800305,124.510876 Z M36.6800305,127.456351 C36.3736555,127.456351 36.0587305,127.449226 35.7452305,127.436401 C35.6526055,127.792651 35.4531055,128.369776 35.2821055,128.811526 C35.2678555,128.847151 35.2322305,128.882776 35.2037305,128.882776 L34.4556055,128.882776 C34.3829305,128.882776 34.3615555,128.847151 34.3914805,128.768776 L36.1670305,123.912376 C36.1798555,123.882451 36.2083555,123.848251 36.2368555,123.848251 L37.1574055,123.848251 C37.1930305,123.848251 37.2286555,123.876751 37.2443305,123.912376 L39.0398305,128.768776 C39.0612055,128.832901 39.0483805,128.882776 38.9757055,128.882776 L38.1634555,128.882776 C38.1349555,128.882776 38.0922055,128.847151 38.0779555,128.811526 C37.8927055,128.319901 37.7145805,127.819726 37.6062805,127.436401 C37.3070305,127.449226 36.9792805,127.456351 36.6800305,127.456351 L36.6800305,127.456351 Z M29.4011305,125.858926 C29.3854555,125.573926 29.3854555,125.267551 29.3854555,124.966876 L29.3854555,123.919501 C29.3854555,123.882451 29.4139555,123.848251 29.4495805,123.848251 L30.2276305,123.848251 C30.2561305,123.848251 30.2917555,123.882451 30.2917555,123.919501 L30.2917555,128.818651 C30.2917555,128.847151 30.2561305,128.882776 30.2276305,128.882776 L29.4495805,128.882776 C29.4139555,128.882776 29.3854555,128.847151 29.3854555,128.818651 L29.3854555,127.570351 C29.3854555,127.235476 29.3854555,126.893476 29.4011305,126.572851 C29.1147055,126.587101 28.9437055,126.587101 28.7014555,126.587101 L27.5956555,126.587101 C27.3534055,126.587101 27.1752805,126.587101 26.8902805,126.572851 C26.9045305,126.893476 26.9116555,127.235476 26.9116555,127.570351 L26.9116555,128.818651 C26.9116555,128.847151 26.8760305,128.882776 26.8475305,128.882776 L26.0623555,128.882776 C26.0267305,128.882776 25.9982305,128.847151 25.9982305,128.818651 L25.9982305,123.919501 C25.9982305,123.882451 26.0267305,123.848251 26.0623555,123.848251 L26.8475305,123.848251 C26.8760305,123.848251 26.9116555,123.882451 26.9116555,123.919501 L26.9116555,124.966876 C26.9116555,125.267551 26.9045305,125.573926 26.8902805,125.858926 C27.1111555,125.844676 27.3534055,125.838976 27.6099055,125.838976 L28.6872055,125.838976 C28.9437055,125.838976 29.1788305,125.844676 29.4011305,125.858926 L29.4011305,125.858926 Z" id="Fill-8"></path>
                    </g>
                </g>
            </g>
        </g>
    </g>
</svg>